G04 EAGLE Gerber RS-274X export*
G75*
%MOMM*%
%FSLAX34Y34*%
%LPD*%
%INTop Copper*%
%IPPOS*%
%AMOC8*
5,1,8,0,0,1.08239X$1,22.5*%
G01*
%ADD10C,1.524000*%
%ADD11P,1.649562X8X112.500000*%
%ADD12R,1.350000X0.400000*%
%ADD13R,1.400000X1.600000*%
%ADD14R,1.300000X1.450000*%
%ADD15R,1.900000X1.900000*%
%ADD16R,0.800000X0.800000*%
%ADD17R,0.800000X2.600000*%
%ADD18R,1.000000X1.100000*%
%ADD19R,1.400000X1.000000*%
%ADD20R,0.482600X1.905000*%
%ADD21R,1.905000X0.482600*%
%ADD22P,1.632244X8X202.500000*%
%ADD23P,1.632244X8X22.500000*%
%ADD24C,0.152400*%
%ADD25C,0.660400*%
%ADD26C,0.203200*%
%ADD27C,0.254000*%

G36*
X423238Y10164D02*
X423238Y10164D01*
X423257Y10162D01*
X423359Y10184D01*
X423461Y10200D01*
X423478Y10210D01*
X423498Y10214D01*
X423587Y10267D01*
X423678Y10316D01*
X423692Y10330D01*
X423709Y10340D01*
X423776Y10419D01*
X423848Y10494D01*
X423856Y10512D01*
X423869Y10527D01*
X423908Y10623D01*
X423951Y10717D01*
X423953Y10737D01*
X423961Y10755D01*
X423979Y10922D01*
X423979Y178818D01*
X423976Y178838D01*
X423978Y178857D01*
X423956Y178959D01*
X423940Y179061D01*
X423930Y179078D01*
X423926Y179098D01*
X423873Y179187D01*
X423824Y179278D01*
X423810Y179292D01*
X423800Y179309D01*
X423721Y179376D01*
X423646Y179448D01*
X423628Y179456D01*
X423613Y179469D01*
X423517Y179508D01*
X423423Y179551D01*
X423403Y179553D01*
X423385Y179561D01*
X423218Y179579D01*
X401999Y179579D01*
X401928Y179568D01*
X401856Y179566D01*
X401807Y179548D01*
X401756Y179540D01*
X401692Y179506D01*
X401625Y179481D01*
X401584Y179449D01*
X401538Y179424D01*
X401489Y179372D01*
X401433Y179328D01*
X401405Y179284D01*
X401369Y179246D01*
X401339Y179181D01*
X401300Y179121D01*
X401287Y179070D01*
X401265Y179023D01*
X401257Y178952D01*
X401240Y178882D01*
X401244Y178830D01*
X401238Y178779D01*
X401254Y178708D01*
X401259Y178637D01*
X401279Y178589D01*
X401291Y178538D01*
X401327Y178477D01*
X401355Y178411D01*
X401400Y178355D01*
X401417Y178327D01*
X401434Y178312D01*
X401460Y178280D01*
X401970Y177770D01*
X402044Y177716D01*
X402114Y177657D01*
X402144Y177645D01*
X402170Y177626D01*
X402257Y177599D01*
X402342Y177565D01*
X402383Y177561D01*
X402405Y177554D01*
X402437Y177555D01*
X402509Y177547D01*
X405859Y177547D01*
X408687Y174719D01*
X408687Y170721D01*
X405859Y167893D01*
X401861Y167893D01*
X399033Y170721D01*
X399033Y173924D01*
X399019Y174014D01*
X399011Y174105D01*
X398999Y174134D01*
X398994Y174166D01*
X398951Y174247D01*
X398915Y174331D01*
X398889Y174363D01*
X398878Y174384D01*
X398855Y174406D01*
X398810Y174462D01*
X396030Y177242D01*
X395956Y177295D01*
X395886Y177355D01*
X395856Y177367D01*
X395830Y177386D01*
X395743Y177413D01*
X395658Y177447D01*
X395617Y177451D01*
X395595Y177458D01*
X395563Y177457D01*
X395492Y177465D01*
X394214Y177465D01*
X394143Y177454D01*
X394072Y177452D01*
X394023Y177434D01*
X393971Y177426D01*
X393908Y177392D01*
X393841Y177367D01*
X393800Y177335D01*
X393754Y177310D01*
X393705Y177258D01*
X393649Y177214D01*
X393620Y177170D01*
X393584Y177132D01*
X393554Y177067D01*
X393516Y177007D01*
X393503Y176956D01*
X393481Y176909D01*
X393473Y176838D01*
X393455Y176768D01*
X393460Y176716D01*
X393454Y176665D01*
X393469Y176594D01*
X393475Y176523D01*
X393495Y176475D01*
X393506Y176424D01*
X393543Y176363D01*
X393571Y176297D01*
X393616Y176241D01*
X393632Y176213D01*
X393650Y176198D01*
X393676Y176166D01*
X396415Y173427D01*
X396415Y165917D01*
X391105Y160607D01*
X383595Y160607D01*
X378285Y165917D01*
X378285Y173427D01*
X381024Y176166D01*
X381066Y176224D01*
X381116Y176276D01*
X381137Y176323D01*
X381168Y176365D01*
X381189Y176434D01*
X381219Y176499D01*
X381225Y176551D01*
X381240Y176601D01*
X381238Y176672D01*
X381246Y176743D01*
X381235Y176794D01*
X381234Y176846D01*
X381209Y176914D01*
X381194Y176984D01*
X381167Y177029D01*
X381149Y177077D01*
X381105Y177133D01*
X381068Y177195D01*
X381028Y177229D01*
X380996Y177269D01*
X380935Y177308D01*
X380881Y177355D01*
X380833Y177374D01*
X380789Y177402D01*
X380719Y177420D01*
X380653Y177447D01*
X380581Y177455D01*
X380550Y177463D01*
X380527Y177461D01*
X380486Y177465D01*
X368814Y177465D01*
X368743Y177454D01*
X368672Y177452D01*
X368623Y177434D01*
X368571Y177426D01*
X368508Y177392D01*
X368441Y177367D01*
X368400Y177335D01*
X368354Y177310D01*
X368305Y177258D01*
X368249Y177214D01*
X368220Y177170D01*
X368184Y177132D01*
X368154Y177067D01*
X368116Y177007D01*
X368103Y176956D01*
X368081Y176909D01*
X368073Y176838D01*
X368055Y176768D01*
X368060Y176716D01*
X368054Y176665D01*
X368069Y176594D01*
X368075Y176523D01*
X368095Y176475D01*
X368106Y176424D01*
X368143Y176363D01*
X368171Y176297D01*
X368216Y176241D01*
X368232Y176213D01*
X368250Y176198D01*
X368276Y176166D01*
X371015Y173427D01*
X371015Y165917D01*
X365705Y160607D01*
X358195Y160607D01*
X352885Y165917D01*
X352885Y173427D01*
X355624Y176166D01*
X355666Y176224D01*
X355716Y176276D01*
X355737Y176323D01*
X355768Y176365D01*
X355789Y176434D01*
X355819Y176499D01*
X355825Y176551D01*
X355840Y176601D01*
X355838Y176672D01*
X355846Y176743D01*
X355835Y176794D01*
X355834Y176846D01*
X355809Y176914D01*
X355794Y176984D01*
X355767Y177029D01*
X355749Y177077D01*
X355705Y177133D01*
X355668Y177195D01*
X355628Y177229D01*
X355596Y177269D01*
X355535Y177308D01*
X355481Y177355D01*
X355433Y177374D01*
X355389Y177402D01*
X355319Y177420D01*
X355253Y177447D01*
X355181Y177455D01*
X355150Y177463D01*
X355127Y177461D01*
X355086Y177465D01*
X343414Y177465D01*
X343343Y177454D01*
X343272Y177452D01*
X343223Y177434D01*
X343171Y177426D01*
X343108Y177392D01*
X343041Y177367D01*
X343000Y177335D01*
X342954Y177310D01*
X342905Y177258D01*
X342849Y177214D01*
X342820Y177170D01*
X342784Y177132D01*
X342754Y177067D01*
X342716Y177007D01*
X342703Y176956D01*
X342681Y176909D01*
X342673Y176838D01*
X342655Y176768D01*
X342660Y176716D01*
X342654Y176665D01*
X342669Y176594D01*
X342675Y176523D01*
X342695Y176475D01*
X342706Y176424D01*
X342743Y176363D01*
X342771Y176297D01*
X342816Y176241D01*
X342832Y176213D01*
X342850Y176198D01*
X342876Y176166D01*
X345615Y173427D01*
X345615Y167132D01*
X345618Y167112D01*
X345616Y167093D01*
X345638Y166991D01*
X345654Y166889D01*
X345664Y166872D01*
X345668Y166852D01*
X345721Y166763D01*
X345770Y166672D01*
X345784Y166658D01*
X345794Y166641D01*
X345873Y166574D01*
X345948Y166502D01*
X345966Y166494D01*
X345981Y166481D01*
X346077Y166442D01*
X346171Y166399D01*
X346191Y166397D01*
X346209Y166389D01*
X346376Y166371D01*
X350017Y166371D01*
X351728Y164660D01*
X351728Y164659D01*
X358604Y157784D01*
X358678Y157731D01*
X358748Y157671D01*
X358778Y157659D01*
X358804Y157640D01*
X358891Y157613D01*
X358976Y157579D01*
X359017Y157575D01*
X359039Y157568D01*
X359071Y157569D01*
X359142Y157561D01*
X392132Y157561D01*
X410211Y139482D01*
X410211Y130556D01*
X410214Y130536D01*
X410212Y130517D01*
X410234Y130415D01*
X410250Y130313D01*
X410260Y130296D01*
X410264Y130276D01*
X410317Y130187D01*
X410366Y130096D01*
X410380Y130082D01*
X410390Y130065D01*
X410469Y129998D01*
X410544Y129926D01*
X410562Y129918D01*
X410577Y129905D01*
X410673Y129866D01*
X410767Y129823D01*
X410787Y129821D01*
X410805Y129813D01*
X410972Y129795D01*
X416538Y129795D01*
X421895Y124438D01*
X421895Y116862D01*
X416538Y111505D01*
X408962Y111505D01*
X403605Y116862D01*
X403605Y124438D01*
X404906Y125739D01*
X404959Y125813D01*
X405019Y125882D01*
X405031Y125912D01*
X405050Y125939D01*
X405077Y126026D01*
X405111Y126110D01*
X405115Y126151D01*
X405122Y126174D01*
X405121Y126206D01*
X405129Y126277D01*
X405129Y137062D01*
X405114Y137153D01*
X405107Y137245D01*
X405093Y137283D01*
X405090Y137305D01*
X405089Y137305D01*
X405074Y137334D01*
X405049Y137403D01*
X405007Y137460D01*
X404974Y137522D01*
X404936Y137559D01*
X404905Y137602D01*
X404847Y137643D01*
X404796Y137692D01*
X404748Y137714D01*
X404705Y137745D01*
X404637Y137766D01*
X404573Y137795D01*
X404520Y137801D01*
X404469Y137817D01*
X404399Y137815D01*
X404329Y137823D01*
X404277Y137811D01*
X404223Y137810D01*
X404157Y137785D01*
X404088Y137770D01*
X404043Y137743D01*
X403993Y137725D01*
X403938Y137680D01*
X403877Y137644D01*
X403843Y137604D01*
X403801Y137570D01*
X403763Y137511D01*
X403717Y137457D01*
X403697Y137408D01*
X403669Y137363D01*
X403652Y137295D01*
X403625Y137229D01*
X403617Y137156D01*
X403609Y137124D01*
X403611Y137102D01*
X403607Y137062D01*
X403607Y135161D01*
X401798Y133352D01*
X401745Y133278D01*
X401685Y133208D01*
X401673Y133178D01*
X401654Y133152D01*
X401627Y133065D01*
X401593Y132980D01*
X401589Y132939D01*
X401582Y132917D01*
X401583Y132885D01*
X401575Y132813D01*
X401575Y89146D01*
X401586Y89076D01*
X401588Y89004D01*
X401606Y88955D01*
X401614Y88904D01*
X401648Y88840D01*
X401673Y88773D01*
X401705Y88732D01*
X401730Y88686D01*
X401781Y88637D01*
X401826Y88581D01*
X401870Y88553D01*
X401908Y88517D01*
X401973Y88487D01*
X402033Y88448D01*
X402084Y88435D01*
X402131Y88413D01*
X402202Y88405D01*
X402272Y88388D01*
X402324Y88392D01*
X402375Y88386D01*
X402446Y88401D01*
X402517Y88407D01*
X402565Y88427D01*
X402616Y88438D01*
X402677Y88475D01*
X402743Y88503D01*
X402799Y88548D01*
X402827Y88565D01*
X402842Y88582D01*
X402874Y88608D01*
X404128Y89862D01*
X404140Y89879D01*
X404156Y89891D01*
X404212Y89978D01*
X404272Y90062D01*
X404278Y90081D01*
X404289Y90098D01*
X404314Y90198D01*
X404344Y90297D01*
X404344Y90317D01*
X404349Y90336D01*
X404341Y90439D01*
X404338Y90543D01*
X404331Y90562D01*
X404330Y90582D01*
X404289Y90677D01*
X404254Y90774D01*
X404241Y90790D01*
X404233Y90808D01*
X404128Y90939D01*
X403605Y91462D01*
X403605Y99038D01*
X408962Y104395D01*
X416538Y104395D01*
X421895Y99038D01*
X421895Y91462D01*
X416538Y86105D01*
X408962Y86105D01*
X408439Y86628D01*
X408423Y86640D01*
X408410Y86656D01*
X408323Y86712D01*
X408239Y86772D01*
X408220Y86778D01*
X408203Y86789D01*
X408103Y86814D01*
X408004Y86844D01*
X407984Y86844D01*
X407965Y86849D01*
X407862Y86841D01*
X407758Y86838D01*
X407739Y86831D01*
X407720Y86830D01*
X407625Y86789D01*
X407527Y86754D01*
X407512Y86741D01*
X407493Y86733D01*
X407362Y86628D01*
X399766Y79032D01*
X399713Y78958D01*
X399653Y78888D01*
X399641Y78858D01*
X399622Y78832D01*
X399595Y78745D01*
X399561Y78660D01*
X399557Y78619D01*
X399550Y78597D01*
X399551Y78565D01*
X399543Y78493D01*
X399543Y64800D01*
X397980Y63237D01*
X393963Y59220D01*
X392400Y57657D01*
X383860Y57657D01*
X383770Y57643D01*
X383679Y57635D01*
X383650Y57623D01*
X383618Y57618D01*
X383537Y57575D01*
X383453Y57539D01*
X383421Y57513D01*
X383400Y57502D01*
X383378Y57479D01*
X383322Y57434D01*
X362668Y36780D01*
X362626Y36722D01*
X362577Y36670D01*
X362555Y36623D01*
X362525Y36581D01*
X362504Y36512D01*
X362473Y36447D01*
X362468Y36395D01*
X362452Y36345D01*
X362454Y36274D01*
X362446Y36203D01*
X362457Y36152D01*
X362459Y36100D01*
X362483Y36032D01*
X362498Y35962D01*
X362525Y35917D01*
X362543Y35869D01*
X362588Y35813D01*
X362625Y35751D01*
X362664Y35717D01*
X362697Y35677D01*
X362757Y35638D01*
X362812Y35591D01*
X362860Y35572D01*
X362904Y35544D01*
X362973Y35526D01*
X363040Y35499D01*
X363111Y35491D01*
X363142Y35483D01*
X363165Y35485D01*
X363206Y35481D01*
X366126Y35481D01*
X372031Y29576D01*
X372031Y26923D01*
X362712Y26923D01*
X362692Y26920D01*
X362673Y26922D01*
X362571Y26900D01*
X362469Y26883D01*
X362452Y26874D01*
X362432Y26870D01*
X362343Y26817D01*
X362252Y26768D01*
X362238Y26754D01*
X362221Y26744D01*
X362154Y26665D01*
X362083Y26590D01*
X362074Y26572D01*
X362061Y26557D01*
X362023Y26461D01*
X361979Y26367D01*
X361977Y26347D01*
X361969Y26329D01*
X361951Y26162D01*
X361951Y25399D01*
X361188Y25399D01*
X361168Y25396D01*
X361149Y25398D01*
X361047Y25376D01*
X360945Y25359D01*
X360928Y25350D01*
X360908Y25346D01*
X360819Y25293D01*
X360728Y25244D01*
X360714Y25230D01*
X360697Y25220D01*
X360630Y25141D01*
X360559Y25066D01*
X360550Y25048D01*
X360537Y25033D01*
X360498Y24937D01*
X360455Y24843D01*
X360453Y24823D01*
X360445Y24805D01*
X360427Y24638D01*
X360427Y15319D01*
X357774Y15319D01*
X351869Y21224D01*
X351869Y24144D01*
X351858Y24214D01*
X351856Y24286D01*
X351838Y24335D01*
X351829Y24386D01*
X351796Y24450D01*
X351771Y24517D01*
X351739Y24558D01*
X351714Y24604D01*
X351662Y24653D01*
X351618Y24709D01*
X351574Y24737D01*
X351536Y24773D01*
X351471Y24803D01*
X351411Y24842D01*
X351360Y24855D01*
X351313Y24877D01*
X351242Y24885D01*
X351172Y24902D01*
X351120Y24898D01*
X351069Y24904D01*
X350998Y24889D01*
X350927Y24883D01*
X350879Y24863D01*
X350828Y24852D01*
X350767Y24815D01*
X350701Y24787D01*
X350645Y24742D01*
X350617Y24725D01*
X350602Y24708D01*
X350570Y24682D01*
X348886Y22998D01*
X348833Y22924D01*
X348773Y22854D01*
X348761Y22824D01*
X348742Y22798D01*
X348715Y22711D01*
X348681Y22626D01*
X348677Y22585D01*
X348670Y22563D01*
X348671Y22531D01*
X348663Y22460D01*
X348663Y20383D01*
X347100Y18820D01*
X341567Y13287D01*
X331533Y13287D01*
X329970Y14850D01*
X326000Y18820D01*
X324437Y20383D01*
X324437Y22460D01*
X324423Y22550D01*
X324415Y22641D01*
X324403Y22670D01*
X324398Y22702D01*
X324355Y22783D01*
X324319Y22867D01*
X324293Y22899D01*
X324282Y22920D01*
X324259Y22942D01*
X324214Y22998D01*
X321514Y25698D01*
X321456Y25740D01*
X321404Y25789D01*
X321357Y25811D01*
X321315Y25841D01*
X321246Y25863D01*
X321181Y25893D01*
X321129Y25898D01*
X321079Y25914D01*
X321008Y25912D01*
X320937Y25920D01*
X320886Y25909D01*
X320834Y25907D01*
X320766Y25883D01*
X320696Y25868D01*
X320651Y25841D01*
X320603Y25823D01*
X320547Y25778D01*
X320485Y25741D01*
X320451Y25702D01*
X320411Y25669D01*
X320372Y25609D01*
X320325Y25554D01*
X320306Y25506D01*
X320278Y25462D01*
X320260Y25393D01*
X320233Y25326D01*
X320225Y25255D01*
X320217Y25224D01*
X320219Y25201D01*
X320215Y25160D01*
X320215Y21645D01*
X314905Y16335D01*
X307395Y16335D01*
X302085Y21645D01*
X302085Y29155D01*
X304570Y31640D01*
X304612Y31698D01*
X304662Y31750D01*
X304683Y31797D01*
X304714Y31839D01*
X304735Y31908D01*
X304765Y31973D01*
X304771Y32025D01*
X304786Y32075D01*
X304784Y32146D01*
X304792Y32217D01*
X304781Y32268D01*
X304780Y32320D01*
X304755Y32388D01*
X304740Y32458D01*
X304713Y32503D01*
X304695Y32551D01*
X304651Y32607D01*
X304614Y32669D01*
X304574Y32703D01*
X304542Y32743D01*
X304481Y32782D01*
X304427Y32829D01*
X304379Y32848D01*
X304335Y32876D01*
X304265Y32894D01*
X304199Y32921D01*
X304127Y32929D01*
X304096Y32937D01*
X304073Y32935D01*
X304032Y32939D01*
X292868Y32939D01*
X292797Y32928D01*
X292726Y32926D01*
X292677Y32908D01*
X292625Y32900D01*
X292562Y32866D01*
X292495Y32841D01*
X292454Y32809D01*
X292408Y32784D01*
X292359Y32732D01*
X292303Y32688D01*
X292274Y32644D01*
X292238Y32606D01*
X292208Y32541D01*
X292170Y32481D01*
X292157Y32430D01*
X292135Y32383D01*
X292127Y32312D01*
X292109Y32242D01*
X292114Y32190D01*
X292108Y32139D01*
X292123Y32068D01*
X292129Y31997D01*
X292149Y31949D01*
X292160Y31898D01*
X292197Y31837D01*
X292225Y31771D01*
X292270Y31715D01*
X292286Y31687D01*
X292304Y31672D01*
X292330Y31640D01*
X294815Y29155D01*
X294815Y21645D01*
X289505Y16335D01*
X281995Y16335D01*
X276685Y21645D01*
X276685Y29155D01*
X279170Y31640D01*
X279212Y31698D01*
X279262Y31750D01*
X279283Y31797D01*
X279314Y31839D01*
X279335Y31908D01*
X279365Y31973D01*
X279371Y32025D01*
X279386Y32075D01*
X279384Y32146D01*
X279392Y32217D01*
X279381Y32268D01*
X279380Y32320D01*
X279355Y32388D01*
X279340Y32458D01*
X279313Y32503D01*
X279295Y32551D01*
X279251Y32607D01*
X279214Y32669D01*
X279174Y32703D01*
X279142Y32743D01*
X279081Y32782D01*
X279027Y32829D01*
X278979Y32848D01*
X278935Y32876D01*
X278865Y32894D01*
X278799Y32921D01*
X278727Y32929D01*
X278696Y32937D01*
X278673Y32935D01*
X278632Y32939D01*
X267468Y32939D01*
X267397Y32928D01*
X267326Y32926D01*
X267277Y32908D01*
X267225Y32900D01*
X267162Y32866D01*
X267095Y32841D01*
X267054Y32809D01*
X267008Y32784D01*
X266959Y32732D01*
X266903Y32688D01*
X266874Y32644D01*
X266838Y32606D01*
X266808Y32541D01*
X266770Y32481D01*
X266757Y32430D01*
X266735Y32383D01*
X266727Y32312D01*
X266709Y32242D01*
X266714Y32190D01*
X266708Y32139D01*
X266723Y32068D01*
X266729Y31997D01*
X266749Y31949D01*
X266760Y31898D01*
X266797Y31837D01*
X266825Y31771D01*
X266870Y31715D01*
X266886Y31687D01*
X266904Y31672D01*
X266930Y31640D01*
X269415Y29155D01*
X269415Y21645D01*
X264105Y16335D01*
X256595Y16335D01*
X251285Y21645D01*
X251285Y22767D01*
X251274Y22838D01*
X251272Y22910D01*
X251254Y22959D01*
X251246Y23010D01*
X251212Y23074D01*
X251187Y23141D01*
X251155Y23182D01*
X251130Y23228D01*
X251078Y23277D01*
X251034Y23333D01*
X250990Y23361D01*
X250952Y23397D01*
X250887Y23427D01*
X250827Y23466D01*
X250776Y23479D01*
X250729Y23501D01*
X250658Y23509D01*
X250588Y23526D01*
X250536Y23522D01*
X250485Y23528D01*
X250414Y23512D01*
X250343Y23507D01*
X250295Y23487D01*
X250244Y23475D01*
X250183Y23439D01*
X250117Y23411D01*
X250061Y23366D01*
X250033Y23349D01*
X250018Y23331D01*
X249986Y23306D01*
X241530Y14850D01*
X239967Y13287D01*
X77533Y13287D01*
X75970Y14850D01*
X72000Y18820D01*
X70437Y20383D01*
X70437Y22460D01*
X70423Y22550D01*
X70415Y22641D01*
X70403Y22670D01*
X70398Y22702D01*
X70355Y22783D01*
X70319Y22867D01*
X70293Y22899D01*
X70282Y22920D01*
X70259Y22942D01*
X70214Y22998D01*
X67514Y25698D01*
X67456Y25740D01*
X67404Y25789D01*
X67357Y25811D01*
X67315Y25841D01*
X67246Y25863D01*
X67181Y25893D01*
X67129Y25898D01*
X67079Y25914D01*
X67008Y25912D01*
X66937Y25920D01*
X66886Y25909D01*
X66834Y25907D01*
X66766Y25883D01*
X66696Y25868D01*
X66651Y25841D01*
X66603Y25823D01*
X66547Y25778D01*
X66485Y25741D01*
X66451Y25702D01*
X66411Y25669D01*
X66372Y25609D01*
X66325Y25554D01*
X66306Y25506D01*
X66278Y25462D01*
X66260Y25393D01*
X66233Y25326D01*
X66225Y25255D01*
X66217Y25224D01*
X66219Y25201D01*
X66215Y25160D01*
X66215Y21645D01*
X60905Y16335D01*
X53395Y16335D01*
X48085Y21645D01*
X48085Y25160D01*
X48074Y25230D01*
X48072Y25302D01*
X48054Y25351D01*
X48046Y25402D01*
X48012Y25466D01*
X47987Y25533D01*
X47955Y25574D01*
X47930Y25620D01*
X47878Y25669D01*
X47834Y25725D01*
X47790Y25753D01*
X47752Y25789D01*
X47687Y25819D01*
X47627Y25858D01*
X47576Y25871D01*
X47529Y25893D01*
X47458Y25901D01*
X47388Y25918D01*
X47336Y25914D01*
X47285Y25920D01*
X47214Y25905D01*
X47143Y25899D01*
X47095Y25879D01*
X47044Y25868D01*
X46983Y25831D01*
X46917Y25803D01*
X46861Y25758D01*
X46833Y25741D01*
X46818Y25724D01*
X46786Y25698D01*
X44201Y23113D01*
X41576Y23113D01*
X41556Y23110D01*
X41537Y23112D01*
X41435Y23090D01*
X41333Y23074D01*
X41316Y23064D01*
X41296Y23060D01*
X41207Y23007D01*
X41116Y22958D01*
X41102Y22944D01*
X41085Y22934D01*
X41018Y22855D01*
X40946Y22780D01*
X40938Y22762D01*
X40925Y22747D01*
X40886Y22651D01*
X40843Y22557D01*
X40841Y22537D01*
X40833Y22519D01*
X40815Y22352D01*
X40815Y21645D01*
X35505Y16335D01*
X27995Y16335D01*
X22685Y21645D01*
X22685Y29155D01*
X27995Y34465D01*
X35505Y34465D01*
X36004Y33965D01*
X36021Y33953D01*
X36033Y33938D01*
X36105Y33891D01*
X36130Y33870D01*
X36145Y33864D01*
X36204Y33821D01*
X36223Y33816D01*
X36240Y33805D01*
X36340Y33779D01*
X36439Y33749D01*
X36459Y33750D01*
X36479Y33745D01*
X36582Y33753D01*
X36685Y33755D01*
X36704Y33762D01*
X36724Y33764D01*
X36819Y33804D01*
X36916Y33840D01*
X36932Y33852D01*
X36950Y33860D01*
X37013Y33910D01*
X37020Y33914D01*
X37029Y33923D01*
X37081Y33965D01*
X50454Y47338D01*
X52017Y48901D01*
X56584Y48901D01*
X56674Y48915D01*
X56765Y48923D01*
X56795Y48935D01*
X56827Y48940D01*
X56908Y48983D01*
X56992Y49019D01*
X57024Y49045D01*
X57045Y49056D01*
X57067Y49079D01*
X57123Y49124D01*
X73690Y65691D01*
X73743Y65765D01*
X73803Y65835D01*
X73815Y65865D01*
X73834Y65891D01*
X73861Y65978D01*
X73895Y66063D01*
X73899Y66104D01*
X73906Y66126D01*
X73905Y66158D01*
X73913Y66230D01*
X73913Y77147D01*
X84701Y87935D01*
X84893Y87935D01*
X84983Y87950D01*
X85074Y87957D01*
X85104Y87969D01*
X85136Y87975D01*
X85217Y88017D01*
X85301Y88053D01*
X85333Y88079D01*
X85353Y88090D01*
X85376Y88113D01*
X85431Y88158D01*
X92990Y95716D01*
X93002Y95733D01*
X93017Y95745D01*
X93073Y95832D01*
X93134Y95916D01*
X93139Y95935D01*
X93150Y95952D01*
X93176Y96052D01*
X93206Y96151D01*
X93205Y96171D01*
X93210Y96191D01*
X93202Y96294D01*
X93200Y96397D01*
X93193Y96416D01*
X93191Y96436D01*
X93151Y96531D01*
X93115Y96628D01*
X93103Y96644D01*
X93095Y96662D01*
X92990Y96793D01*
X78878Y110905D01*
X78878Y112168D01*
X81911Y115201D01*
X81922Y115217D01*
X81938Y115230D01*
X81994Y115317D01*
X82054Y115401D01*
X82060Y115420D01*
X82071Y115436D01*
X82096Y115537D01*
X82126Y115636D01*
X82126Y115656D01*
X82131Y115675D01*
X82123Y115778D01*
X82120Y115882D01*
X82113Y115900D01*
X82112Y115920D01*
X82071Y116015D01*
X82036Y116113D01*
X82023Y116128D01*
X82015Y116147D01*
X81911Y116278D01*
X60994Y137194D01*
X60936Y137236D01*
X60884Y137285D01*
X60837Y137307D01*
X60795Y137337D01*
X60726Y137358D01*
X60661Y137389D01*
X60609Y137394D01*
X60559Y137410D01*
X60488Y137408D01*
X60417Y137416D01*
X60366Y137405D01*
X60314Y137403D01*
X60246Y137379D01*
X60176Y137364D01*
X60132Y137337D01*
X60083Y137319D01*
X60027Y137274D01*
X59965Y137237D01*
X59931Y137198D01*
X59891Y137165D01*
X59852Y137105D01*
X59805Y137050D01*
X59786Y137002D01*
X59758Y136958D01*
X59740Y136889D01*
X59713Y136822D01*
X59705Y136751D01*
X59697Y136720D01*
X59699Y136696D01*
X59695Y136656D01*
X59695Y131821D01*
X51677Y131821D01*
X51677Y140839D01*
X55512Y140839D01*
X55582Y140850D01*
X55654Y140852D01*
X55703Y140870D01*
X55754Y140878D01*
X55818Y140912D01*
X55885Y140937D01*
X55926Y140969D01*
X55972Y140994D01*
X56021Y141045D01*
X56077Y141090D01*
X56105Y141134D01*
X56141Y141172D01*
X56171Y141237D01*
X56210Y141297D01*
X56223Y141348D01*
X56245Y141395D01*
X56253Y141466D01*
X56270Y141536D01*
X56266Y141588D01*
X56272Y141639D01*
X56257Y141710D01*
X56251Y141781D01*
X56231Y141829D01*
X56220Y141880D01*
X56183Y141941D01*
X56155Y142007D01*
X56110Y142063D01*
X56093Y142091D01*
X56076Y142106D01*
X56050Y142138D01*
X37081Y161107D01*
X37065Y161119D01*
X37052Y161134D01*
X36965Y161190D01*
X36881Y161251D01*
X36862Y161256D01*
X36845Y161267D01*
X36745Y161293D01*
X36646Y161323D01*
X36626Y161322D01*
X36607Y161327D01*
X36504Y161319D01*
X36400Y161317D01*
X36382Y161310D01*
X36362Y161308D01*
X36267Y161268D01*
X36169Y161232D01*
X36154Y161220D01*
X36135Y161212D01*
X36004Y161107D01*
X35505Y160607D01*
X27995Y160607D01*
X22685Y165917D01*
X22685Y173427D01*
X27538Y178280D01*
X27580Y178338D01*
X27630Y178390D01*
X27651Y178437D01*
X27682Y178479D01*
X27703Y178548D01*
X27733Y178613D01*
X27739Y178665D01*
X27754Y178715D01*
X27752Y178786D01*
X27760Y178857D01*
X27749Y178908D01*
X27748Y178960D01*
X27723Y179028D01*
X27708Y179098D01*
X27681Y179143D01*
X27663Y179191D01*
X27619Y179247D01*
X27582Y179309D01*
X27542Y179343D01*
X27510Y179383D01*
X27449Y179422D01*
X27395Y179469D01*
X27347Y179488D01*
X27303Y179516D01*
X27233Y179534D01*
X27167Y179561D01*
X27095Y179569D01*
X27064Y179577D01*
X27041Y179575D01*
X27000Y179579D01*
X10922Y179579D01*
X10902Y179576D01*
X10883Y179578D01*
X10781Y179556D01*
X10679Y179540D01*
X10662Y179530D01*
X10642Y179526D01*
X10553Y179473D01*
X10462Y179424D01*
X10448Y179410D01*
X10431Y179400D01*
X10364Y179321D01*
X10292Y179246D01*
X10284Y179228D01*
X10271Y179213D01*
X10232Y179117D01*
X10189Y179023D01*
X10187Y179003D01*
X10179Y178985D01*
X10161Y178818D01*
X10161Y10922D01*
X10164Y10902D01*
X10162Y10883D01*
X10184Y10781D01*
X10200Y10679D01*
X10210Y10662D01*
X10214Y10642D01*
X10267Y10553D01*
X10316Y10462D01*
X10330Y10448D01*
X10340Y10431D01*
X10419Y10364D01*
X10494Y10292D01*
X10512Y10284D01*
X10527Y10271D01*
X10623Y10232D01*
X10717Y10189D01*
X10737Y10187D01*
X10755Y10179D01*
X10922Y10161D01*
X423218Y10161D01*
X423238Y10164D01*
G37*
G36*
X280712Y50812D02*
X280712Y50812D01*
X280784Y50814D01*
X280833Y50832D01*
X280884Y50840D01*
X280948Y50874D01*
X281015Y50899D01*
X281056Y50931D01*
X281102Y50956D01*
X281151Y51008D01*
X281207Y51052D01*
X281235Y51096D01*
X281271Y51134D01*
X281301Y51199D01*
X281340Y51259D01*
X281353Y51310D01*
X281375Y51357D01*
X281382Y51428D01*
X281400Y51498D01*
X281396Y51550D01*
X281402Y51601D01*
X281386Y51672D01*
X281381Y51743D01*
X281360Y51791D01*
X281349Y51842D01*
X281313Y51903D01*
X281285Y51969D01*
X281240Y52025D01*
X281223Y52053D01*
X281205Y52068D01*
X281180Y52100D01*
X279653Y53627D01*
X279653Y57625D01*
X282481Y60453D01*
X285757Y60453D01*
X285848Y60467D01*
X285938Y60475D01*
X285968Y60487D01*
X286000Y60492D01*
X286081Y60535D01*
X286165Y60571D01*
X286197Y60597D01*
X286218Y60608D01*
X286240Y60631D01*
X286296Y60676D01*
X290137Y64517D01*
X291554Y64517D01*
X291574Y64520D01*
X291593Y64518D01*
X291695Y64540D01*
X291797Y64556D01*
X291814Y64566D01*
X291834Y64570D01*
X291923Y64623D01*
X292014Y64672D01*
X292028Y64686D01*
X292045Y64696D01*
X292112Y64775D01*
X292184Y64850D01*
X292192Y64868D01*
X292205Y64883D01*
X292244Y64979D01*
X292287Y65073D01*
X292289Y65093D01*
X292297Y65111D01*
X292315Y65278D01*
X292315Y68362D01*
X293208Y69255D01*
X303146Y69255D01*
X303217Y69266D01*
X303289Y69268D01*
X303338Y69286D01*
X303389Y69294D01*
X303453Y69328D01*
X303520Y69353D01*
X303561Y69385D01*
X303607Y69410D01*
X303656Y69462D01*
X303712Y69506D01*
X303740Y69550D01*
X303776Y69588D01*
X303806Y69653D01*
X303845Y69713D01*
X303858Y69764D01*
X303880Y69811D01*
X303887Y69882D01*
X303905Y69952D01*
X303901Y70004D01*
X303907Y70055D01*
X303891Y70126D01*
X303886Y70197D01*
X303865Y70245D01*
X303854Y70296D01*
X303818Y70357D01*
X303816Y70362D01*
X303816Y72982D01*
X303801Y73072D01*
X303794Y73163D01*
X303781Y73192D01*
X303776Y73224D01*
X303733Y73305D01*
X303698Y73389D01*
X303672Y73421D01*
X303661Y73442D01*
X303638Y73464D01*
X303593Y73520D01*
X301810Y75302D01*
X301736Y75355D01*
X301667Y75415D01*
X301637Y75427D01*
X301611Y75446D01*
X301524Y75473D01*
X301439Y75507D01*
X301398Y75511D01*
X301376Y75518D01*
X301343Y75517D01*
X301272Y75525D01*
X293208Y75525D01*
X292315Y76418D01*
X292315Y87034D01*
X292312Y87054D01*
X292314Y87073D01*
X292292Y87175D01*
X292276Y87277D01*
X292266Y87294D01*
X292262Y87314D01*
X292209Y87403D01*
X292160Y87494D01*
X292146Y87508D01*
X292136Y87525D01*
X292057Y87592D01*
X291982Y87664D01*
X291964Y87672D01*
X291949Y87685D01*
X291853Y87724D01*
X291759Y87767D01*
X291739Y87769D01*
X291721Y87777D01*
X291554Y87795D01*
X281378Y87795D01*
X266527Y102646D01*
X266453Y102699D01*
X266384Y102759D01*
X266354Y102771D01*
X266328Y102790D01*
X266241Y102817D01*
X266156Y102851D01*
X266115Y102855D01*
X266093Y102862D01*
X266060Y102861D01*
X265989Y102869D01*
X263431Y102869D01*
X260603Y105697D01*
X260603Y109695D01*
X263431Y112523D01*
X267429Y112523D01*
X270257Y109695D01*
X270257Y107137D01*
X270271Y107047D01*
X270279Y106956D01*
X270291Y106926D01*
X270296Y106894D01*
X270339Y106814D01*
X270375Y106730D01*
X270401Y106698D01*
X270412Y106677D01*
X270435Y106655D01*
X270480Y106599D01*
X283471Y93608D01*
X283545Y93555D01*
X283614Y93495D01*
X283644Y93483D01*
X283670Y93464D01*
X283757Y93437D01*
X283842Y93403D01*
X283883Y93399D01*
X283905Y93392D01*
X283938Y93393D01*
X284009Y93385D01*
X310946Y93385D01*
X310977Y93354D01*
X311050Y93301D01*
X311120Y93241D01*
X311150Y93229D01*
X311176Y93210D01*
X311263Y93183D01*
X311348Y93149D01*
X311389Y93145D01*
X311411Y93138D01*
X311444Y93139D01*
X311515Y93131D01*
X340868Y93131D01*
X340888Y93134D01*
X340907Y93132D01*
X341009Y93154D01*
X341111Y93170D01*
X341128Y93180D01*
X341148Y93184D01*
X341237Y93237D01*
X341328Y93286D01*
X341342Y93300D01*
X341359Y93310D01*
X341426Y93389D01*
X341498Y93464D01*
X341506Y93482D01*
X341519Y93497D01*
X341558Y93593D01*
X341601Y93687D01*
X341603Y93707D01*
X341611Y93725D01*
X341629Y93892D01*
X341629Y101664D01*
X341626Y101684D01*
X341628Y101703D01*
X341606Y101805D01*
X341590Y101907D01*
X341580Y101924D01*
X341576Y101944D01*
X341523Y102033D01*
X341474Y102124D01*
X341460Y102138D01*
X341450Y102155D01*
X341371Y102222D01*
X341296Y102294D01*
X341278Y102302D01*
X341263Y102315D01*
X341167Y102354D01*
X341073Y102397D01*
X341053Y102399D01*
X341035Y102407D01*
X340868Y102425D01*
X339418Y102425D01*
X338525Y103318D01*
X338525Y112582D01*
X339418Y113475D01*
X340748Y113475D01*
X340768Y113478D01*
X340787Y113476D01*
X340889Y113498D01*
X340991Y113514D01*
X341008Y113524D01*
X341028Y113528D01*
X341117Y113581D01*
X341208Y113630D01*
X341222Y113644D01*
X341239Y113654D01*
X341306Y113733D01*
X341378Y113808D01*
X341386Y113826D01*
X341399Y113841D01*
X341438Y113937D01*
X341481Y114031D01*
X341483Y114051D01*
X341491Y114069D01*
X341509Y114236D01*
X341509Y120714D01*
X341506Y120734D01*
X341508Y120753D01*
X341486Y120855D01*
X341470Y120957D01*
X341460Y120974D01*
X341456Y120994D01*
X341403Y121083D01*
X341354Y121174D01*
X341340Y121188D01*
X341330Y121205D01*
X341251Y121272D01*
X341176Y121344D01*
X341158Y121352D01*
X341143Y121365D01*
X341047Y121404D01*
X340953Y121447D01*
X340933Y121449D01*
X340915Y121457D01*
X340748Y121475D01*
X339418Y121475D01*
X339244Y121650D01*
X339227Y121662D01*
X339215Y121677D01*
X339128Y121733D01*
X339044Y121794D01*
X339025Y121800D01*
X339008Y121810D01*
X338908Y121836D01*
X338809Y121866D01*
X338789Y121866D01*
X338769Y121870D01*
X338666Y121862D01*
X338563Y121860D01*
X338544Y121853D01*
X338524Y121851D01*
X338429Y121811D01*
X338332Y121775D01*
X338316Y121763D01*
X338298Y121755D01*
X338167Y121650D01*
X334714Y118197D01*
X308946Y118197D01*
X306267Y120876D01*
X306267Y121203D01*
X306256Y121274D01*
X306254Y121346D01*
X306236Y121395D01*
X306228Y121446D01*
X306194Y121509D01*
X306169Y121577D01*
X306137Y121617D01*
X306112Y121663D01*
X306060Y121713D01*
X306016Y121769D01*
X305972Y121797D01*
X305934Y121833D01*
X305869Y121863D01*
X305809Y121902D01*
X305758Y121914D01*
X305711Y121936D01*
X305640Y121944D01*
X305570Y121962D01*
X305518Y121958D01*
X305467Y121963D01*
X305396Y121948D01*
X305325Y121943D01*
X305277Y121922D01*
X305226Y121911D01*
X305165Y121874D01*
X305099Y121846D01*
X305043Y121801D01*
X305015Y121785D01*
X305000Y121767D01*
X304968Y121741D01*
X304472Y121245D01*
X293094Y121245D01*
X293046Y121257D01*
X292947Y121288D01*
X292927Y121287D01*
X292908Y121292D01*
X292805Y121284D01*
X292701Y121282D01*
X292682Y121275D01*
X292662Y121273D01*
X292567Y121233D01*
X292470Y121197D01*
X292455Y121185D01*
X292436Y121177D01*
X292305Y121072D01*
X292070Y120837D01*
X292017Y120763D01*
X291957Y120693D01*
X291945Y120663D01*
X291926Y120637D01*
X291899Y120550D01*
X291865Y120465D01*
X291861Y120424D01*
X291854Y120402D01*
X291855Y120370D01*
X291847Y120298D01*
X291847Y117381D01*
X289019Y114553D01*
X285021Y114553D01*
X282193Y117381D01*
X282193Y118254D01*
X282182Y118325D01*
X282180Y118397D01*
X282162Y118446D01*
X282154Y118497D01*
X282120Y118561D01*
X282095Y118628D01*
X282063Y118669D01*
X282038Y118715D01*
X281986Y118764D01*
X281942Y118820D01*
X281898Y118848D01*
X281860Y118884D01*
X281795Y118914D01*
X281735Y118953D01*
X281684Y118966D01*
X281637Y118988D01*
X281566Y118995D01*
X281496Y119013D01*
X281444Y119009D01*
X281393Y119015D01*
X281322Y118999D01*
X281251Y118994D01*
X281203Y118973D01*
X281152Y118962D01*
X281091Y118926D01*
X281025Y118898D01*
X280969Y118853D01*
X280941Y118836D01*
X280926Y118818D01*
X280894Y118793D01*
X279702Y117601D01*
X275704Y117601D01*
X272876Y120429D01*
X272876Y122964D01*
X272873Y122984D01*
X272875Y123003D01*
X272853Y123105D01*
X272837Y123207D01*
X272827Y123224D01*
X272823Y123244D01*
X272770Y123333D01*
X272721Y123424D01*
X272707Y123438D01*
X272697Y123455D01*
X272618Y123522D01*
X272543Y123594D01*
X272525Y123602D01*
X272510Y123615D01*
X272414Y123654D01*
X272320Y123697D01*
X272300Y123699D01*
X272282Y123707D01*
X272115Y123725D01*
X264084Y123725D01*
X263994Y123711D01*
X263903Y123703D01*
X263873Y123691D01*
X263841Y123686D01*
X263760Y123643D01*
X263676Y123607D01*
X263644Y123581D01*
X263624Y123570D01*
X263601Y123547D01*
X263545Y123502D01*
X251430Y111387D01*
X251377Y111313D01*
X251317Y111243D01*
X251305Y111213D01*
X251286Y111187D01*
X251259Y111100D01*
X251225Y111015D01*
X251221Y110974D01*
X251214Y110952D01*
X251215Y110920D01*
X251207Y110848D01*
X251207Y67325D01*
X247920Y64038D01*
X247909Y64022D01*
X247893Y64010D01*
X247837Y63922D01*
X247777Y63839D01*
X247771Y63820D01*
X247760Y63803D01*
X247735Y63702D01*
X247705Y63603D01*
X247705Y63584D01*
X247700Y63564D01*
X247708Y63461D01*
X247711Y63358D01*
X247718Y63339D01*
X247719Y63319D01*
X247760Y63224D01*
X247795Y63127D01*
X247808Y63111D01*
X247816Y63093D01*
X247920Y62962D01*
X255860Y55022D01*
X255918Y54981D01*
X255970Y54931D01*
X256017Y54909D01*
X256059Y54879D01*
X256128Y54858D01*
X256193Y54828D01*
X256245Y54822D01*
X256295Y54806D01*
X256366Y54808D01*
X256437Y54800D01*
X256488Y54812D01*
X256540Y54813D01*
X256608Y54837D01*
X256678Y54853D01*
X256723Y54879D01*
X256771Y54897D01*
X256827Y54942D01*
X256889Y54979D01*
X256923Y55018D01*
X256963Y55051D01*
X257002Y55111D01*
X257049Y55166D01*
X257068Y55214D01*
X257096Y55258D01*
X257114Y55327D01*
X257141Y55394D01*
X257149Y55465D01*
X257157Y55496D01*
X257155Y55520D01*
X257159Y55561D01*
X257159Y58727D01*
X265177Y58727D01*
X265177Y52709D01*
X260011Y52709D01*
X259940Y52698D01*
X259868Y52696D01*
X259819Y52678D01*
X259768Y52670D01*
X259705Y52636D01*
X259637Y52611D01*
X259597Y52579D01*
X259551Y52554D01*
X259501Y52503D01*
X259445Y52458D01*
X259417Y52414D01*
X259381Y52376D01*
X259351Y52311D01*
X259312Y52251D01*
X259299Y52200D01*
X259278Y52153D01*
X259270Y52082D01*
X259252Y52012D01*
X259256Y51960D01*
X259250Y51909D01*
X259266Y51838D01*
X259271Y51767D01*
X259292Y51719D01*
X259303Y51668D01*
X259340Y51607D01*
X259368Y51541D01*
X259412Y51485D01*
X259429Y51457D01*
X259447Y51442D01*
X259472Y51410D01*
X259858Y51024D01*
X259933Y50970D01*
X260002Y50911D01*
X260032Y50899D01*
X260058Y50880D01*
X260145Y50853D01*
X260230Y50819D01*
X260271Y50815D01*
X260293Y50808D01*
X260325Y50809D01*
X260397Y50801D01*
X280641Y50801D01*
X280712Y50812D01*
G37*
G36*
X100903Y17872D02*
X100903Y17872D01*
X100974Y17874D01*
X101023Y17892D01*
X101075Y17900D01*
X101138Y17934D01*
X101205Y17959D01*
X101246Y17991D01*
X101292Y18016D01*
X101341Y18068D01*
X101397Y18112D01*
X101426Y18156D01*
X101462Y18194D01*
X101492Y18259D01*
X101530Y18319D01*
X101543Y18370D01*
X101565Y18417D01*
X101573Y18488D01*
X101591Y18558D01*
X101586Y18610D01*
X101592Y18661D01*
X101577Y18732D01*
X101571Y18803D01*
X101551Y18851D01*
X101540Y18902D01*
X101503Y18963D01*
X101475Y19029D01*
X101430Y19085D01*
X101414Y19113D01*
X101396Y19128D01*
X101370Y19160D01*
X98885Y21645D01*
X98885Y29155D01*
X104195Y34465D01*
X104902Y34465D01*
X104922Y34468D01*
X104941Y34466D01*
X105043Y34488D01*
X105145Y34504D01*
X105162Y34514D01*
X105182Y34518D01*
X105271Y34571D01*
X105362Y34620D01*
X105376Y34634D01*
X105393Y34644D01*
X105460Y34723D01*
X105532Y34798D01*
X105540Y34816D01*
X105553Y34831D01*
X105592Y34927D01*
X105635Y35021D01*
X105637Y35041D01*
X105645Y35059D01*
X105663Y35226D01*
X105663Y37465D01*
X107226Y39028D01*
X112817Y44619D01*
X112828Y44635D01*
X112844Y44647D01*
X112900Y44735D01*
X112960Y44819D01*
X112966Y44838D01*
X112977Y44854D01*
X113002Y44955D01*
X113033Y45054D01*
X113032Y45074D01*
X113037Y45093D01*
X113029Y45196D01*
X113026Y45300D01*
X113019Y45318D01*
X113018Y45338D01*
X112977Y45433D01*
X112942Y45531D01*
X112929Y45546D01*
X112922Y45564D01*
X112843Y45662D01*
X112839Y45669D01*
X112835Y45673D01*
X112819Y45692D01*
X112819Y46283D01*
X112816Y46303D01*
X112818Y46322D01*
X112796Y46424D01*
X112779Y46526D01*
X112770Y46543D01*
X112766Y46563D01*
X112713Y46652D01*
X112664Y46743D01*
X112650Y46757D01*
X112640Y46774D01*
X112561Y46841D01*
X112486Y46912D01*
X112468Y46921D01*
X112453Y46934D01*
X112357Y46973D01*
X112263Y47016D01*
X112243Y47018D01*
X112225Y47026D01*
X112058Y47044D01*
X111468Y47044D01*
X107050Y51462D01*
X106976Y51515D01*
X106907Y51575D01*
X106876Y51587D01*
X106850Y51606D01*
X106763Y51632D01*
X106678Y51667D01*
X106638Y51671D01*
X106615Y51678D01*
X106583Y51677D01*
X106512Y51685D01*
X106108Y51685D01*
X105462Y51858D01*
X104883Y52193D01*
X103792Y53283D01*
X112010Y61500D01*
X112021Y61516D01*
X112037Y61529D01*
X112093Y61616D01*
X112153Y61700D01*
X112159Y61719D01*
X112170Y61736D01*
X112195Y61836D01*
X112221Y61919D01*
X112243Y61920D01*
X112262Y61926D01*
X112281Y61928D01*
X112376Y61968D01*
X112474Y62004D01*
X112489Y62016D01*
X112508Y62024D01*
X112574Y62077D01*
X112580Y62081D01*
X112587Y62088D01*
X112639Y62129D01*
X120856Y70346D01*
X121946Y69256D01*
X122281Y68677D01*
X122454Y68031D01*
X122454Y67627D01*
X122468Y67537D01*
X122476Y67446D01*
X122488Y67416D01*
X122493Y67384D01*
X122536Y67304D01*
X122572Y67220D01*
X122598Y67188D01*
X122609Y67167D01*
X122632Y67145D01*
X122677Y67089D01*
X122786Y66979D01*
X122803Y66967D01*
X122815Y66952D01*
X122902Y66896D01*
X122986Y66835D01*
X123005Y66830D01*
X123022Y66819D01*
X123123Y66793D01*
X123221Y66763D01*
X123241Y66764D01*
X123261Y66759D01*
X123363Y66767D01*
X123467Y66769D01*
X123486Y66776D01*
X123506Y66778D01*
X123601Y66818D01*
X123698Y66854D01*
X123714Y66866D01*
X123732Y66874D01*
X123863Y66979D01*
X125211Y68327D01*
X128277Y68327D01*
X128368Y68341D01*
X128458Y68349D01*
X128488Y68361D01*
X128520Y68366D01*
X128601Y68409D01*
X128685Y68445D01*
X128717Y68471D01*
X128738Y68482D01*
X128760Y68505D01*
X128816Y68550D01*
X140482Y80216D01*
X140493Y80232D01*
X140509Y80244D01*
X140565Y80332D01*
X140625Y80415D01*
X140631Y80434D01*
X140642Y80451D01*
X140667Y80552D01*
X140698Y80650D01*
X140697Y80670D01*
X140702Y80690D01*
X140694Y80793D01*
X140691Y80896D01*
X140684Y80915D01*
X140683Y80935D01*
X140642Y81030D01*
X140607Y81127D01*
X140594Y81143D01*
X140587Y81161D01*
X140482Y81292D01*
X138683Y83091D01*
X138683Y86368D01*
X138669Y86458D01*
X138661Y86549D01*
X138649Y86578D01*
X138644Y86610D01*
X138601Y86691D01*
X138565Y86775D01*
X138539Y86807D01*
X138528Y86828D01*
X138505Y86850D01*
X138460Y86906D01*
X130086Y95280D01*
X130012Y95333D01*
X129942Y95393D01*
X129912Y95405D01*
X129886Y95424D01*
X129799Y95451D01*
X129714Y95485D01*
X129673Y95489D01*
X129651Y95496D01*
X129619Y95495D01*
X129548Y95503D01*
X128811Y95503D01*
X125983Y98331D01*
X125983Y102329D01*
X128811Y105157D01*
X132809Y105157D01*
X135637Y102329D01*
X135637Y98331D01*
X135108Y97802D01*
X135097Y97786D01*
X135081Y97774D01*
X135025Y97686D01*
X134965Y97602D01*
X134959Y97584D01*
X134948Y97567D01*
X134923Y97466D01*
X134892Y97367D01*
X134893Y97347D01*
X134888Y97328D01*
X134896Y97225D01*
X134899Y97121D01*
X134906Y97103D01*
X134907Y97083D01*
X134947Y96988D01*
X134983Y96890D01*
X134996Y96875D01*
X135003Y96857D01*
X135108Y96726D01*
X141694Y90140D01*
X141768Y90087D01*
X141838Y90027D01*
X141868Y90015D01*
X141894Y89996D01*
X141981Y89969D01*
X142066Y89935D01*
X142107Y89931D01*
X142129Y89924D01*
X142161Y89925D01*
X142232Y89917D01*
X145509Y89917D01*
X148337Y87089D01*
X148337Y84328D01*
X148340Y84308D01*
X148338Y84289D01*
X148360Y84187D01*
X148376Y84085D01*
X148386Y84068D01*
X148390Y84048D01*
X148443Y83959D01*
X148492Y83868D01*
X148506Y83854D01*
X148516Y83837D01*
X148595Y83770D01*
X148670Y83698D01*
X148688Y83690D01*
X148703Y83677D01*
X148799Y83638D01*
X148893Y83595D01*
X148913Y83593D01*
X148931Y83585D01*
X149098Y83567D01*
X151859Y83567D01*
X154687Y80739D01*
X154687Y76741D01*
X151859Y73913D01*
X147861Y73913D01*
X145544Y76230D01*
X145470Y76283D01*
X145400Y76343D01*
X145370Y76355D01*
X145344Y76374D01*
X145257Y76401D01*
X145172Y76435D01*
X145131Y76439D01*
X145109Y76446D01*
X145077Y76445D01*
X145005Y76453D01*
X143503Y76453D01*
X143412Y76439D01*
X143322Y76431D01*
X143292Y76419D01*
X143260Y76414D01*
X143179Y76371D01*
X143095Y76335D01*
X143063Y76309D01*
X143042Y76298D01*
X143020Y76275D01*
X142964Y76230D01*
X130487Y63753D01*
X127850Y63753D01*
X127778Y63742D01*
X127706Y63739D01*
X127658Y63722D01*
X127607Y63714D01*
X127543Y63680D01*
X127475Y63654D01*
X127435Y63622D01*
X127390Y63598D01*
X127340Y63546D01*
X127283Y63500D01*
X127256Y63457D01*
X127220Y63420D01*
X127190Y63354D01*
X127151Y63293D01*
X127138Y63243D01*
X127117Y63197D01*
X127109Y63125D01*
X127091Y63054D01*
X127095Y63003D01*
X127090Y62953D01*
X127095Y62930D01*
X127095Y62081D01*
X127098Y62061D01*
X127096Y62041D01*
X127118Y61940D01*
X127134Y61838D01*
X127144Y61821D01*
X127148Y61801D01*
X127201Y61712D01*
X127249Y61621D01*
X127264Y61607D01*
X127274Y61590D01*
X127353Y61523D01*
X127428Y61451D01*
X127446Y61443D01*
X127461Y61430D01*
X127557Y61391D01*
X127651Y61348D01*
X127671Y61346D01*
X127689Y61338D01*
X127856Y61320D01*
X128446Y61320D01*
X132751Y57014D01*
X132751Y56071D01*
X132755Y56051D01*
X132752Y56031D01*
X132774Y55930D01*
X132791Y55828D01*
X132800Y55810D01*
X132805Y55791D01*
X132858Y55702D01*
X132906Y55610D01*
X132921Y55597D01*
X132931Y55580D01*
X133010Y55512D01*
X133085Y55441D01*
X133103Y55433D01*
X133118Y55420D01*
X133214Y55381D01*
X133308Y55337D01*
X133327Y55335D01*
X133346Y55328D01*
X133513Y55309D01*
X134456Y55309D01*
X138510Y51255D01*
X138527Y51243D01*
X138539Y51228D01*
X138626Y51172D01*
X138710Y51111D01*
X138729Y51106D01*
X138746Y51095D01*
X138846Y51070D01*
X138945Y51039D01*
X138965Y51040D01*
X138985Y51035D01*
X139087Y51043D01*
X139191Y51045D01*
X139210Y51052D01*
X139230Y51054D01*
X139325Y51094D01*
X139422Y51130D01*
X139438Y51142D01*
X139456Y51150D01*
X139587Y51255D01*
X143641Y55309D01*
X144231Y55309D01*
X144251Y55313D01*
X144271Y55310D01*
X144372Y55332D01*
X144474Y55349D01*
X144492Y55358D01*
X144511Y55363D01*
X144600Y55416D01*
X144691Y55464D01*
X144705Y55479D01*
X144722Y55489D01*
X144789Y55567D01*
X144861Y55642D01*
X144869Y55661D01*
X144882Y55676D01*
X144921Y55772D01*
X144964Y55866D01*
X144967Y55885D01*
X144974Y55904D01*
X144992Y56071D01*
X144992Y56660D01*
X149298Y60966D01*
X149888Y60966D01*
X149908Y60969D01*
X149928Y60967D01*
X150029Y60989D01*
X150131Y61006D01*
X150148Y61015D01*
X150168Y61019D01*
X150257Y61073D01*
X150348Y61121D01*
X150362Y61135D01*
X150379Y61146D01*
X150446Y61224D01*
X150518Y61299D01*
X150526Y61317D01*
X150539Y61333D01*
X150578Y61429D01*
X150621Y61522D01*
X150623Y61542D01*
X150631Y61561D01*
X150649Y61727D01*
X150649Y62317D01*
X154955Y66623D01*
X155545Y66623D01*
X155565Y66626D01*
X155584Y66624D01*
X155686Y66646D01*
X155788Y66663D01*
X155805Y66672D01*
X155825Y66676D01*
X155914Y66729D01*
X156005Y66778D01*
X156019Y66792D01*
X156036Y66802D01*
X156103Y66881D01*
X156174Y66956D01*
X156183Y66974D01*
X156196Y66989D01*
X156235Y67086D01*
X156278Y67179D01*
X156280Y67199D01*
X156288Y67218D01*
X156306Y67384D01*
X156306Y67974D01*
X160612Y72280D01*
X161202Y72280D01*
X161221Y72283D01*
X161241Y72281D01*
X161342Y72303D01*
X161445Y72320D01*
X161462Y72329D01*
X161482Y72333D01*
X161571Y72386D01*
X161662Y72435D01*
X161676Y72449D01*
X161693Y72459D01*
X161760Y72538D01*
X161831Y72613D01*
X161840Y72631D01*
X161853Y72646D01*
X161891Y72742D01*
X161935Y72836D01*
X161937Y72856D01*
X161945Y72874D01*
X161963Y73041D01*
X161963Y73631D01*
X166269Y77937D01*
X166859Y77937D01*
X166878Y77940D01*
X166898Y77938D01*
X166999Y77960D01*
X167101Y77976D01*
X167119Y77986D01*
X167138Y77990D01*
X167227Y78043D01*
X167319Y78092D01*
X167332Y78106D01*
X167350Y78116D01*
X167417Y78195D01*
X167488Y78270D01*
X167496Y78288D01*
X167509Y78303D01*
X167548Y78399D01*
X167592Y78493D01*
X167594Y78513D01*
X167601Y78531D01*
X167620Y78698D01*
X167620Y79288D01*
X171926Y83594D01*
X172515Y83594D01*
X172535Y83597D01*
X172555Y83595D01*
X172656Y83617D01*
X172758Y83633D01*
X172776Y83643D01*
X172795Y83647D01*
X172884Y83700D01*
X172976Y83748D01*
X172989Y83763D01*
X173006Y83773D01*
X173074Y83852D01*
X173145Y83927D01*
X173153Y83945D01*
X173166Y83960D01*
X173205Y84056D01*
X173249Y84150D01*
X173251Y84170D01*
X173258Y84188D01*
X173277Y84355D01*
X173277Y84945D01*
X177582Y89250D01*
X178172Y89250D01*
X178192Y89254D01*
X178212Y89251D01*
X178313Y89273D01*
X178415Y89290D01*
X178433Y89299D01*
X178452Y89304D01*
X178541Y89357D01*
X178632Y89405D01*
X178646Y89420D01*
X178663Y89430D01*
X178731Y89509D01*
X178802Y89584D01*
X178810Y89602D01*
X178823Y89617D01*
X178862Y89713D01*
X178905Y89807D01*
X178908Y89826D01*
X178915Y89845D01*
X178934Y90012D01*
X178934Y90602D01*
X182988Y94656D01*
X183000Y94672D01*
X183015Y94685D01*
X183071Y94771D01*
X183131Y94856D01*
X183137Y94875D01*
X183148Y94892D01*
X183173Y94992D01*
X183204Y95091D01*
X183203Y95111D01*
X183208Y95130D01*
X183200Y95233D01*
X183197Y95337D01*
X183191Y95355D01*
X183189Y95375D01*
X183148Y95470D01*
X183113Y95568D01*
X183100Y95583D01*
X183093Y95602D01*
X182988Y95733D01*
X182888Y95832D01*
X182872Y95844D01*
X182859Y95860D01*
X182772Y95915D01*
X182688Y95976D01*
X182669Y95982D01*
X182652Y95992D01*
X182552Y96018D01*
X182453Y96048D01*
X182433Y96048D01*
X182414Y96052D01*
X182310Y96044D01*
X182207Y96042D01*
X182188Y96035D01*
X182168Y96033D01*
X182073Y95993D01*
X181976Y95957D01*
X181961Y95945D01*
X181942Y95937D01*
X181811Y95832D01*
X181775Y95796D01*
X181775Y95795D01*
X180213Y94233D01*
X177575Y94233D01*
X177485Y94219D01*
X177394Y94211D01*
X177364Y94199D01*
X177332Y94194D01*
X177251Y94151D01*
X177167Y94115D01*
X177135Y94089D01*
X177115Y94078D01*
X177092Y94055D01*
X177036Y94010D01*
X174719Y91693D01*
X170721Y91693D01*
X167893Y94521D01*
X167893Y94685D01*
X167892Y94695D01*
X167892Y94699D01*
X167887Y94721D01*
X167882Y94756D01*
X167880Y94828D01*
X167862Y94877D01*
X167854Y94928D01*
X167820Y94992D01*
X167795Y95059D01*
X167763Y95100D01*
X167738Y95146D01*
X167686Y95195D01*
X167642Y95251D01*
X167598Y95279D01*
X167560Y95315D01*
X167495Y95345D01*
X167435Y95384D01*
X167384Y95397D01*
X167337Y95419D01*
X167266Y95426D01*
X167196Y95444D01*
X167144Y95440D01*
X167093Y95446D01*
X167022Y95430D01*
X166951Y95425D01*
X166903Y95404D01*
X166852Y95393D01*
X166791Y95357D01*
X166725Y95329D01*
X166669Y95284D01*
X166641Y95267D01*
X166626Y95249D01*
X166594Y95224D01*
X165631Y94261D01*
X161633Y94261D01*
X158805Y97089D01*
X158805Y101087D01*
X161633Y103915D01*
X165631Y103915D01*
X166427Y103119D01*
X166443Y103107D01*
X166456Y103092D01*
X166543Y103036D01*
X166627Y102975D01*
X166646Y102970D01*
X166663Y102959D01*
X166763Y102934D01*
X166862Y102903D01*
X166882Y102904D01*
X166901Y102899D01*
X167004Y102907D01*
X167108Y102909D01*
X167126Y102916D01*
X167146Y102918D01*
X167241Y102958D01*
X167339Y102994D01*
X167354Y103006D01*
X167373Y103014D01*
X167504Y103119D01*
X169259Y104875D01*
X170860Y104875D01*
X170907Y104882D01*
X170955Y104881D01*
X171028Y104902D01*
X171103Y104914D01*
X171145Y104937D01*
X171191Y104951D01*
X171253Y104994D01*
X171320Y105030D01*
X171353Y105064D01*
X171392Y105092D01*
X171437Y105153D01*
X171489Y105208D01*
X171510Y105251D01*
X171538Y105290D01*
X171561Y105362D01*
X171593Y105431D01*
X171598Y105479D01*
X171613Y105524D01*
X171612Y105600D01*
X171620Y105675D01*
X171610Y105722D01*
X171609Y105770D01*
X171584Y105842D01*
X171568Y105916D01*
X171543Y105957D01*
X171527Y106002D01*
X171481Y106062D01*
X171442Y106127D01*
X171405Y106158D01*
X171376Y106196D01*
X171272Y106272D01*
X171255Y106287D01*
X171249Y106289D01*
X171241Y106295D01*
X170643Y106640D01*
X169553Y107730D01*
X177771Y115947D01*
X177782Y115964D01*
X177798Y115976D01*
X177854Y116063D01*
X177914Y116147D01*
X177920Y116166D01*
X177931Y116183D01*
X177956Y116283D01*
X177982Y116366D01*
X178004Y116367D01*
X178023Y116374D01*
X178042Y116375D01*
X178137Y116415D01*
X178235Y116451D01*
X178250Y116464D01*
X178269Y116471D01*
X178400Y116576D01*
X186617Y124794D01*
X187707Y123703D01*
X188042Y123124D01*
X188215Y122478D01*
X188215Y122074D01*
X188229Y121984D01*
X188237Y121893D01*
X188249Y121863D01*
X188254Y121832D01*
X188277Y121789D01*
X188278Y121785D01*
X188291Y121763D01*
X188297Y121751D01*
X188333Y121667D01*
X188359Y121635D01*
X188369Y121614D01*
X188393Y121592D01*
X188404Y121574D01*
X188416Y121564D01*
X188438Y121536D01*
X192856Y117118D01*
X192856Y116528D01*
X192859Y116508D01*
X192857Y116489D01*
X192879Y116387D01*
X192895Y116285D01*
X192905Y116268D01*
X192909Y116248D01*
X192962Y116159D01*
X193010Y116068D01*
X193025Y116054D01*
X193035Y116037D01*
X193114Y115970D01*
X193189Y115899D01*
X193207Y115890D01*
X193222Y115877D01*
X193318Y115839D01*
X193412Y115795D01*
X193432Y115793D01*
X193450Y115785D01*
X193617Y115767D01*
X194207Y115767D01*
X198512Y111461D01*
X198512Y110198D01*
X191214Y102900D01*
X191173Y102842D01*
X191123Y102790D01*
X191101Y102743D01*
X191071Y102701D01*
X191050Y102632D01*
X191020Y102567D01*
X191014Y102515D01*
X190999Y102465D01*
X191000Y102394D01*
X190993Y102323D01*
X191004Y102272D01*
X191005Y102220D01*
X191030Y102152D01*
X191045Y102082D01*
X191072Y102037D01*
X191089Y101989D01*
X191134Y101933D01*
X191171Y101871D01*
X191211Y101837D01*
X191243Y101797D01*
X191303Y101758D01*
X191358Y101711D01*
X191406Y101692D01*
X191450Y101664D01*
X191519Y101646D01*
X191586Y101619D01*
X191657Y101611D01*
X191689Y101603D01*
X191712Y101605D01*
X191753Y101601D01*
X193263Y101601D01*
X193354Y101615D01*
X193444Y101623D01*
X193474Y101635D01*
X193506Y101640D01*
X193587Y101683D01*
X193671Y101719D01*
X193703Y101745D01*
X193724Y101756D01*
X193746Y101779D01*
X193802Y101824D01*
X202701Y110723D01*
X203448Y110723D01*
X203519Y110735D01*
X203590Y110737D01*
X203639Y110755D01*
X203691Y110763D01*
X203754Y110797D01*
X203821Y110821D01*
X203862Y110854D01*
X203908Y110878D01*
X203957Y110930D01*
X204013Y110975D01*
X204041Y111019D01*
X204077Y111057D01*
X204107Y111121D01*
X204146Y111182D01*
X204159Y111232D01*
X204181Y111280D01*
X204189Y111351D01*
X204206Y111420D01*
X204202Y111472D01*
X204208Y111524D01*
X204193Y111594D01*
X204187Y111666D01*
X204167Y111713D01*
X204156Y111764D01*
X204119Y111826D01*
X204091Y111892D01*
X204046Y111948D01*
X204030Y111976D01*
X204012Y111991D01*
X203986Y112023D01*
X200261Y115748D01*
X200261Y117011D01*
X217270Y134020D01*
X217281Y134036D01*
X217297Y134048D01*
X217353Y134135D01*
X217413Y134219D01*
X217419Y134238D01*
X217430Y134255D01*
X217455Y134356D01*
X217486Y134455D01*
X217485Y134475D01*
X217490Y134494D01*
X217482Y134597D01*
X217479Y134700D01*
X217472Y134719D01*
X217471Y134739D01*
X217430Y134834D01*
X217395Y134931D01*
X217382Y134947D01*
X217375Y134965D01*
X217270Y135096D01*
X216783Y135583D01*
X216271Y136095D01*
X216255Y136106D01*
X216243Y136122D01*
X216156Y136178D01*
X216072Y136238D01*
X216053Y136244D01*
X216036Y136255D01*
X215935Y136280D01*
X215837Y136311D01*
X215817Y136310D01*
X215797Y136315D01*
X215694Y136307D01*
X215591Y136304D01*
X215572Y136297D01*
X215552Y136296D01*
X215457Y136255D01*
X215360Y136220D01*
X215344Y136207D01*
X215326Y136200D01*
X215195Y136095D01*
X208902Y129802D01*
X204816Y133888D01*
X204800Y133900D01*
X204787Y133915D01*
X204700Y133971D01*
X204616Y134032D01*
X204597Y134038D01*
X204580Y134048D01*
X204480Y134074D01*
X204381Y134104D01*
X204361Y134104D01*
X204342Y134108D01*
X204239Y134100D01*
X204135Y134098D01*
X204116Y134091D01*
X204097Y134089D01*
X204002Y134049D01*
X203904Y134013D01*
X203889Y134001D01*
X203870Y133993D01*
X203739Y133888D01*
X203200Y133349D01*
X203199Y133350D01*
X203738Y133889D01*
X203750Y133906D01*
X203765Y133918D01*
X203822Y134005D01*
X203882Y134089D01*
X203888Y134108D01*
X203898Y134125D01*
X203924Y134225D01*
X203954Y134324D01*
X203954Y134344D01*
X203958Y134363D01*
X203950Y134466D01*
X203948Y134570D01*
X203941Y134589D01*
X203939Y134609D01*
X203899Y134703D01*
X203863Y134801D01*
X203851Y134817D01*
X203843Y134835D01*
X203738Y134966D01*
X199652Y139052D01*
X207229Y146629D01*
X207240Y146645D01*
X207256Y146657D01*
X207312Y146745D01*
X207372Y146828D01*
X207378Y146847D01*
X207389Y146864D01*
X207414Y146965D01*
X207444Y147063D01*
X207444Y147083D01*
X207449Y147103D01*
X207441Y147206D01*
X207438Y147309D01*
X207431Y147328D01*
X207430Y147348D01*
X207389Y147443D01*
X207354Y147540D01*
X207341Y147556D01*
X207333Y147574D01*
X207259Y147668D01*
X207253Y147677D01*
X207247Y147682D01*
X207229Y147705D01*
X206230Y148704D01*
X206214Y148715D01*
X206201Y148731D01*
X206114Y148787D01*
X206030Y148847D01*
X206011Y148853D01*
X205995Y148864D01*
X205894Y148889D01*
X205795Y148919D01*
X205775Y148919D01*
X205756Y148924D01*
X205653Y148916D01*
X205549Y148913D01*
X205531Y148906D01*
X205511Y148905D01*
X205416Y148864D01*
X205318Y148829D01*
X205303Y148816D01*
X205284Y148808D01*
X205154Y148704D01*
X186861Y130411D01*
X185598Y130411D01*
X179048Y136961D01*
X179048Y138224D01*
X183287Y142464D01*
X183329Y142522D01*
X183379Y142574D01*
X183401Y142621D01*
X183431Y142663D01*
X183452Y142732D01*
X183482Y142797D01*
X183488Y142849D01*
X183503Y142899D01*
X183501Y142970D01*
X183509Y143041D01*
X183498Y143092D01*
X183497Y143144D01*
X183472Y143212D01*
X183457Y143282D01*
X183430Y143327D01*
X183412Y143375D01*
X183368Y143431D01*
X183331Y143493D01*
X183291Y143527D01*
X183259Y143567D01*
X183198Y143606D01*
X183144Y143653D01*
X183096Y143672D01*
X183052Y143700D01*
X182982Y143718D01*
X182916Y143745D01*
X182844Y143753D01*
X182813Y143761D01*
X182790Y143759D01*
X182749Y143763D01*
X168048Y143763D01*
X167977Y143752D01*
X167906Y143750D01*
X167857Y143732D01*
X167805Y143724D01*
X167742Y143690D01*
X167675Y143665D01*
X167634Y143633D01*
X167588Y143608D01*
X167539Y143557D01*
X167483Y143512D01*
X167454Y143468D01*
X167419Y143430D01*
X167388Y143365D01*
X167350Y143305D01*
X167337Y143254D01*
X167315Y143207D01*
X167307Y143136D01*
X167290Y143066D01*
X167294Y143014D01*
X167288Y142963D01*
X167303Y142892D01*
X167309Y142821D01*
X167329Y142773D01*
X167340Y142722D01*
X167377Y142661D01*
X167405Y142595D01*
X167450Y142539D01*
X167466Y142511D01*
X167484Y142496D01*
X167510Y142464D01*
X170340Y139633D01*
X170414Y139580D01*
X170484Y139521D01*
X170514Y139509D01*
X170540Y139490D01*
X170627Y139463D01*
X170712Y139429D01*
X170753Y139424D01*
X170775Y139417D01*
X170807Y139418D01*
X170879Y139410D01*
X171282Y139410D01*
X171928Y139237D01*
X172508Y138903D01*
X173598Y137812D01*
X165381Y129595D01*
X165369Y129579D01*
X165353Y129567D01*
X165297Y129479D01*
X165237Y129395D01*
X165231Y129376D01*
X165220Y129360D01*
X165195Y129259D01*
X165165Y129160D01*
X165165Y129140D01*
X165160Y129121D01*
X165168Y129018D01*
X165171Y128915D01*
X165178Y128896D01*
X165179Y128876D01*
X165220Y128781D01*
X165256Y128683D01*
X165268Y128668D01*
X165276Y128650D01*
X165381Y128519D01*
X166009Y127890D01*
X166026Y127878D01*
X166038Y127863D01*
X166125Y127807D01*
X166209Y127746D01*
X166228Y127741D01*
X166245Y127730D01*
X166345Y127705D01*
X166444Y127674D01*
X166464Y127675D01*
X166483Y127670D01*
X166586Y127678D01*
X166690Y127680D01*
X166709Y127687D01*
X166729Y127689D01*
X166824Y127729D01*
X166921Y127765D01*
X166937Y127777D01*
X166955Y127785D01*
X167086Y127890D01*
X175303Y136107D01*
X176393Y135017D01*
X176728Y134438D01*
X176901Y133792D01*
X176901Y133388D01*
X176916Y133298D01*
X176923Y133207D01*
X176935Y133177D01*
X176941Y133145D01*
X176983Y133065D01*
X177019Y132981D01*
X177045Y132949D01*
X177056Y132928D01*
X177079Y132906D01*
X177124Y132850D01*
X181654Y128320D01*
X181728Y128266D01*
X181797Y128207D01*
X181828Y128195D01*
X181854Y128176D01*
X181941Y128149D01*
X182026Y128115D01*
X182067Y128111D01*
X182089Y128104D01*
X182121Y128105D01*
X182192Y128097D01*
X182596Y128097D01*
X183242Y127923D01*
X183821Y127589D01*
X184912Y126499D01*
X176694Y118282D01*
X176683Y118265D01*
X176667Y118253D01*
X176611Y118166D01*
X176551Y118082D01*
X176545Y118063D01*
X176534Y118046D01*
X176509Y117946D01*
X176483Y117863D01*
X176461Y117862D01*
X176442Y117855D01*
X176423Y117854D01*
X176328Y117813D01*
X176230Y117778D01*
X176215Y117765D01*
X176196Y117757D01*
X176065Y117653D01*
X167848Y109435D01*
X166758Y110525D01*
X166423Y111105D01*
X166224Y111848D01*
X166216Y111867D01*
X166211Y111899D01*
X166177Y111962D01*
X166152Y112029D01*
X166130Y112058D01*
X166123Y112072D01*
X166113Y112083D01*
X166096Y112116D01*
X166044Y112165D01*
X165999Y112221D01*
X165963Y112244D01*
X165956Y112252D01*
X165947Y112257D01*
X165917Y112285D01*
X165852Y112316D01*
X165792Y112354D01*
X165747Y112366D01*
X165740Y112370D01*
X165733Y112371D01*
X165694Y112389D01*
X165623Y112397D01*
X165553Y112414D01*
X165505Y112411D01*
X165497Y112412D01*
X165493Y112411D01*
X165450Y112416D01*
X165379Y112401D01*
X165308Y112395D01*
X165263Y112376D01*
X165254Y112375D01*
X165250Y112373D01*
X165209Y112364D01*
X165148Y112327D01*
X165082Y112299D01*
X165036Y112263D01*
X165036Y112262D01*
X165035Y112261D01*
X165026Y112254D01*
X164998Y112238D01*
X164983Y112220D01*
X164951Y112194D01*
X164262Y111505D01*
X161402Y111505D01*
X148925Y123982D01*
X148851Y124035D01*
X148782Y124095D01*
X148752Y124107D01*
X148726Y124126D01*
X148639Y124153D01*
X148554Y124187D01*
X148513Y124191D01*
X148491Y124198D01*
X148458Y124197D01*
X148387Y124205D01*
X143713Y124205D01*
X143623Y124191D01*
X143532Y124183D01*
X143502Y124171D01*
X143470Y124166D01*
X143390Y124123D01*
X143306Y124087D01*
X143274Y124061D01*
X143253Y124050D01*
X143231Y124027D01*
X143175Y123982D01*
X111730Y92537D01*
X111677Y92463D01*
X111617Y92394D01*
X111605Y92364D01*
X111586Y92338D01*
X111559Y92251D01*
X111525Y92166D01*
X111521Y92125D01*
X111514Y92103D01*
X111515Y92070D01*
X111507Y91999D01*
X111507Y89408D01*
X111510Y89388D01*
X111508Y89369D01*
X111530Y89267D01*
X111546Y89165D01*
X111556Y89148D01*
X111560Y89128D01*
X111613Y89039D01*
X111662Y88948D01*
X111676Y88934D01*
X111686Y88917D01*
X111765Y88850D01*
X111840Y88778D01*
X111858Y88770D01*
X111873Y88757D01*
X111969Y88718D01*
X112063Y88675D01*
X112083Y88673D01*
X112101Y88665D01*
X112268Y88647D01*
X116299Y88647D01*
X119127Y85819D01*
X119127Y81821D01*
X116299Y78993D01*
X112610Y78993D01*
X112539Y78982D01*
X112468Y78980D01*
X112419Y78962D01*
X112367Y78954D01*
X112304Y78920D01*
X112237Y78895D01*
X112196Y78863D01*
X112150Y78838D01*
X112101Y78786D01*
X112045Y78742D01*
X112016Y78698D01*
X111980Y78660D01*
X111950Y78595D01*
X111912Y78535D01*
X111899Y78484D01*
X111877Y78437D01*
X111869Y78366D01*
X111851Y78296D01*
X111856Y78244D01*
X111850Y78193D01*
X111865Y78122D01*
X111871Y78051D01*
X111891Y78003D01*
X111902Y77952D01*
X111939Y77891D01*
X111967Y77825D01*
X112012Y77769D01*
X112028Y77741D01*
X112046Y77726D01*
X112072Y77694D01*
X115893Y73872D01*
X115967Y73819D01*
X116037Y73760D01*
X116067Y73748D01*
X116093Y73729D01*
X116180Y73702D01*
X116265Y73668D01*
X116306Y73663D01*
X116328Y73656D01*
X116360Y73657D01*
X116431Y73649D01*
X116835Y73649D01*
X117481Y73476D01*
X118061Y73142D01*
X119151Y72052D01*
X110933Y63834D01*
X110922Y63818D01*
X110906Y63806D01*
X110850Y63718D01*
X110790Y63635D01*
X110784Y63616D01*
X110773Y63599D01*
X110748Y63498D01*
X110722Y63415D01*
X110700Y63415D01*
X110682Y63408D01*
X110662Y63407D01*
X110567Y63366D01*
X110469Y63330D01*
X110454Y63318D01*
X110435Y63310D01*
X110304Y63205D01*
X102087Y54988D01*
X100997Y56078D01*
X100663Y56658D01*
X100489Y57304D01*
X100489Y57707D01*
X100475Y57797D01*
X100468Y57888D01*
X100455Y57918D01*
X100450Y57950D01*
X100407Y58031D01*
X100371Y58115D01*
X100346Y58147D01*
X100335Y58168D01*
X100311Y58190D01*
X100267Y58246D01*
X100157Y58355D01*
X100140Y58367D01*
X100128Y58383D01*
X100041Y58439D01*
X99957Y58499D01*
X99938Y58505D01*
X99921Y58516D01*
X99821Y58541D01*
X99722Y58571D01*
X99702Y58571D01*
X99683Y58576D01*
X99580Y58568D01*
X99476Y58565D01*
X99457Y58558D01*
X99437Y58557D01*
X99342Y58516D01*
X99245Y58481D01*
X99229Y58468D01*
X99211Y58460D01*
X99080Y58356D01*
X88761Y48036D01*
X88719Y47978D01*
X88670Y47926D01*
X88648Y47879D01*
X88617Y47837D01*
X88596Y47768D01*
X88566Y47703D01*
X88560Y47651D01*
X88545Y47601D01*
X88547Y47530D01*
X88539Y47459D01*
X88550Y47408D01*
X88551Y47356D01*
X88576Y47288D01*
X88591Y47218D01*
X88618Y47173D01*
X88636Y47125D01*
X88681Y47069D01*
X88717Y47007D01*
X88757Y46973D01*
X88789Y46933D01*
X88850Y46894D01*
X88904Y46847D01*
X88953Y46828D01*
X88996Y46800D01*
X89066Y46782D01*
X89132Y46755D01*
X89204Y46747D01*
X89235Y46739D01*
X89258Y46741D01*
X89299Y46737D01*
X94205Y46737D01*
X94295Y46751D01*
X94386Y46759D01*
X94416Y46771D01*
X94448Y46776D01*
X94529Y46819D01*
X94613Y46855D01*
X94645Y46881D01*
X94665Y46892D01*
X94688Y46915D01*
X94744Y46960D01*
X97061Y49277D01*
X101059Y49277D01*
X103887Y46449D01*
X103887Y42451D01*
X101059Y39623D01*
X97061Y39623D01*
X94744Y41940D01*
X94670Y41993D01*
X94600Y42053D01*
X94570Y42065D01*
X94544Y42084D01*
X94457Y42111D01*
X94372Y42145D01*
X94331Y42149D01*
X94309Y42156D01*
X94277Y42155D01*
X94205Y42163D01*
X85598Y42163D01*
X85578Y42160D01*
X85559Y42162D01*
X85457Y42140D01*
X85355Y42124D01*
X85338Y42114D01*
X85318Y42110D01*
X85229Y42057D01*
X85138Y42008D01*
X85124Y41994D01*
X85107Y41984D01*
X85040Y41905D01*
X84968Y41830D01*
X84960Y41812D01*
X84947Y41797D01*
X84908Y41701D01*
X84865Y41607D01*
X84863Y41587D01*
X84855Y41569D01*
X84837Y41402D01*
X84837Y35226D01*
X84840Y35206D01*
X84838Y35187D01*
X84860Y35085D01*
X84876Y34983D01*
X84886Y34966D01*
X84890Y34946D01*
X84943Y34857D01*
X84992Y34766D01*
X85006Y34752D01*
X85016Y34735D01*
X85095Y34668D01*
X85170Y34596D01*
X85188Y34588D01*
X85203Y34575D01*
X85299Y34536D01*
X85393Y34493D01*
X85413Y34491D01*
X85431Y34483D01*
X85598Y34465D01*
X86305Y34465D01*
X91615Y29155D01*
X91615Y21645D01*
X89130Y19160D01*
X89088Y19102D01*
X89038Y19050D01*
X89017Y19003D01*
X88986Y18961D01*
X88965Y18892D01*
X88935Y18827D01*
X88929Y18775D01*
X88914Y18725D01*
X88916Y18654D01*
X88908Y18583D01*
X88919Y18532D01*
X88920Y18480D01*
X88945Y18412D01*
X88960Y18342D01*
X88987Y18297D01*
X89005Y18249D01*
X89049Y18193D01*
X89086Y18131D01*
X89126Y18097D01*
X89158Y18057D01*
X89219Y18018D01*
X89273Y17971D01*
X89321Y17952D01*
X89365Y17924D01*
X89435Y17906D01*
X89501Y17879D01*
X89573Y17871D01*
X89604Y17863D01*
X89627Y17865D01*
X89668Y17861D01*
X100832Y17861D01*
X100903Y17872D01*
G37*
G36*
X346486Y27288D02*
X346486Y27288D01*
X346557Y27293D01*
X346605Y27313D01*
X346656Y27325D01*
X346717Y27361D01*
X346783Y27389D01*
X346839Y27434D01*
X346867Y27451D01*
X346882Y27469D01*
X346914Y27494D01*
X380088Y60668D01*
X381305Y61885D01*
X381317Y61902D01*
X381333Y61914D01*
X381389Y62001D01*
X381449Y62085D01*
X381455Y62104D01*
X381466Y62121D01*
X381491Y62221D01*
X381521Y62320D01*
X381521Y62340D01*
X381526Y62359D01*
X381518Y62462D01*
X381515Y62566D01*
X381508Y62585D01*
X381507Y62605D01*
X381466Y62700D01*
X381431Y62797D01*
X381418Y62813D01*
X381410Y62831D01*
X381305Y62962D01*
X378205Y66062D01*
X378205Y73638D01*
X378549Y73981D01*
X378561Y73998D01*
X378576Y74010D01*
X378632Y74097D01*
X378692Y74181D01*
X378698Y74200D01*
X378709Y74217D01*
X378734Y74317D01*
X378765Y74416D01*
X378764Y74436D01*
X378769Y74455D01*
X378761Y74558D01*
X378758Y74662D01*
X378752Y74681D01*
X378750Y74701D01*
X378710Y74796D01*
X378674Y74893D01*
X378661Y74909D01*
X378654Y74927D01*
X378549Y75058D01*
X365781Y87826D01*
X365707Y87879D01*
X365637Y87939D01*
X365607Y87951D01*
X365581Y87970D01*
X365494Y87997D01*
X365409Y88031D01*
X365368Y88035D01*
X365346Y88042D01*
X365314Y88041D01*
X365242Y88049D01*
X351271Y88049D01*
X351154Y88030D01*
X351036Y88012D01*
X351032Y88010D01*
X351028Y88010D01*
X350922Y87953D01*
X350817Y87899D01*
X350814Y87896D01*
X350811Y87894D01*
X350728Y87807D01*
X350646Y87723D01*
X350644Y87719D01*
X350641Y87716D01*
X350591Y87608D01*
X350540Y87501D01*
X350539Y87497D01*
X350538Y87493D01*
X350524Y87375D01*
X350510Y87257D01*
X350511Y87252D01*
X350510Y87249D01*
X350513Y87235D01*
X350535Y87091D01*
X350591Y86884D01*
X350591Y84073D01*
X344812Y84073D01*
X344792Y84070D01*
X344773Y84072D01*
X344671Y84050D01*
X344569Y84033D01*
X344552Y84024D01*
X344532Y84020D01*
X344443Y83967D01*
X344352Y83918D01*
X344338Y83904D01*
X344321Y83894D01*
X344254Y83815D01*
X344183Y83740D01*
X344174Y83722D01*
X344161Y83707D01*
X344122Y83611D01*
X344079Y83517D01*
X344077Y83497D01*
X344069Y83479D01*
X344051Y83312D01*
X344051Y82549D01*
X344049Y82549D01*
X344049Y83312D01*
X344046Y83332D01*
X344048Y83351D01*
X344026Y83453D01*
X344009Y83555D01*
X344000Y83572D01*
X343996Y83592D01*
X343943Y83681D01*
X343894Y83772D01*
X343880Y83786D01*
X343870Y83803D01*
X343791Y83870D01*
X343716Y83941D01*
X343698Y83950D01*
X343683Y83963D01*
X343587Y84002D01*
X343493Y84045D01*
X343473Y84047D01*
X343455Y84055D01*
X343288Y84073D01*
X337509Y84073D01*
X337509Y86884D01*
X337565Y87091D01*
X337577Y87210D01*
X337590Y87327D01*
X337589Y87332D01*
X337589Y87336D01*
X337562Y87452D01*
X337537Y87568D01*
X337535Y87571D01*
X337534Y87575D01*
X337472Y87678D01*
X337411Y87779D01*
X337408Y87782D01*
X337406Y87785D01*
X337314Y87862D01*
X337224Y87939D01*
X337220Y87940D01*
X337217Y87943D01*
X337107Y87986D01*
X336996Y88031D01*
X336991Y88031D01*
X336988Y88033D01*
X336974Y88033D01*
X336829Y88049D01*
X335336Y88049D01*
X335316Y88046D01*
X335297Y88048D01*
X335195Y88026D01*
X335093Y88010D01*
X335076Y88000D01*
X335056Y87996D01*
X334967Y87943D01*
X334876Y87894D01*
X334862Y87880D01*
X334845Y87870D01*
X334778Y87791D01*
X334706Y87716D01*
X334698Y87698D01*
X334685Y87683D01*
X334646Y87587D01*
X334603Y87493D01*
X334601Y87473D01*
X334593Y87455D01*
X334575Y87288D01*
X334575Y77918D01*
X333682Y77025D01*
X324418Y77025D01*
X323664Y77779D01*
X323606Y77821D01*
X323554Y77871D01*
X323507Y77893D01*
X323465Y77923D01*
X323396Y77944D01*
X323331Y77974D01*
X323279Y77980D01*
X323229Y77995D01*
X323158Y77993D01*
X323087Y78001D01*
X323036Y77990D01*
X322984Y77989D01*
X322916Y77964D01*
X322846Y77949D01*
X322801Y77922D01*
X322753Y77905D01*
X322697Y77860D01*
X322635Y77823D01*
X322601Y77783D01*
X322561Y77751D01*
X322522Y77691D01*
X322475Y77636D01*
X322456Y77588D01*
X322428Y77544D01*
X322410Y77474D01*
X322383Y77408D01*
X322375Y77337D01*
X322367Y77305D01*
X322369Y77282D01*
X322365Y77241D01*
X322365Y76418D01*
X321472Y75525D01*
X314204Y75525D01*
X314133Y75514D01*
X314061Y75512D01*
X314012Y75494D01*
X313961Y75486D01*
X313897Y75452D01*
X313830Y75427D01*
X313789Y75395D01*
X313743Y75370D01*
X313694Y75318D01*
X313638Y75273D01*
X313610Y75230D01*
X313574Y75192D01*
X313544Y75127D01*
X313505Y75066D01*
X313492Y75016D01*
X313470Y74969D01*
X313463Y74897D01*
X313445Y74828D01*
X313449Y74776D01*
X313443Y74725D01*
X313459Y74654D01*
X313464Y74583D01*
X313469Y74571D01*
X313469Y70372D01*
X313457Y70355D01*
X313436Y70286D01*
X313405Y70221D01*
X313400Y70169D01*
X313384Y70120D01*
X313386Y70048D01*
X313378Y69977D01*
X313389Y69926D01*
X313391Y69874D01*
X313415Y69806D01*
X313431Y69736D01*
X313457Y69692D01*
X313475Y69643D01*
X313520Y69587D01*
X313557Y69525D01*
X313596Y69491D01*
X313629Y69451D01*
X313689Y69412D01*
X313744Y69365D01*
X313792Y69346D01*
X313836Y69318D01*
X313905Y69300D01*
X313972Y69273D01*
X314043Y69265D01*
X314074Y69257D01*
X314098Y69259D01*
X314139Y69255D01*
X321472Y69255D01*
X322522Y68205D01*
X322538Y68193D01*
X322550Y68177D01*
X322638Y68121D01*
X322721Y68061D01*
X322740Y68055D01*
X322757Y68044D01*
X322858Y68019D01*
X322957Y67989D01*
X322976Y67989D01*
X322996Y67984D01*
X323099Y67992D01*
X323202Y67995D01*
X323221Y68002D01*
X323241Y68003D01*
X323336Y68044D01*
X323433Y68079D01*
X323449Y68092D01*
X323467Y68100D01*
X323598Y68205D01*
X324418Y69025D01*
X333682Y69025D01*
X334575Y68132D01*
X334575Y58868D01*
X333682Y57975D01*
X324418Y57975D01*
X323664Y58729D01*
X323606Y58771D01*
X323554Y58821D01*
X323507Y58843D01*
X323465Y58873D01*
X323396Y58894D01*
X323331Y58924D01*
X323279Y58930D01*
X323229Y58945D01*
X323158Y58943D01*
X323087Y58951D01*
X323036Y58940D01*
X322984Y58939D01*
X322916Y58914D01*
X322846Y58899D01*
X322801Y58872D01*
X322753Y58855D01*
X322697Y58810D01*
X322635Y58773D01*
X322601Y58733D01*
X322561Y58701D01*
X322522Y58641D01*
X322475Y58586D01*
X322456Y58538D01*
X322428Y58494D01*
X322410Y58424D01*
X322383Y58358D01*
X322375Y58287D01*
X322367Y58255D01*
X322369Y58232D01*
X322365Y58191D01*
X322365Y56098D01*
X321472Y55205D01*
X310208Y55205D01*
X309315Y56098D01*
X309315Y66835D01*
X309312Y66854D01*
X309314Y66874D01*
X309292Y66975D01*
X309276Y67077D01*
X309266Y67095D01*
X309262Y67114D01*
X309209Y67203D01*
X309160Y67295D01*
X309146Y67308D01*
X309136Y67325D01*
X309057Y67393D01*
X308982Y67464D01*
X308964Y67472D01*
X308949Y67485D01*
X308853Y67524D01*
X308759Y67568D01*
X308739Y67570D01*
X308721Y67577D01*
X308554Y67596D01*
X306635Y67596D01*
X306606Y67617D01*
X306554Y67666D01*
X306507Y67688D01*
X306465Y67718D01*
X306396Y67739D01*
X306331Y67770D01*
X306279Y67775D01*
X306230Y67791D01*
X306158Y67789D01*
X306087Y67797D01*
X306036Y67786D01*
X305984Y67784D01*
X305916Y67760D01*
X305846Y67744D01*
X305801Y67718D01*
X305753Y67700D01*
X305697Y67655D01*
X305635Y67618D01*
X305601Y67579D01*
X305561Y67546D01*
X305522Y67486D01*
X305475Y67431D01*
X305456Y67383D01*
X305428Y67339D01*
X305410Y67270D01*
X305383Y67203D01*
X305375Y67132D01*
X305367Y67101D01*
X305369Y67077D01*
X305365Y67036D01*
X305365Y56098D01*
X304472Y55205D01*
X293208Y55205D01*
X292315Y56098D01*
X292315Y58390D01*
X292304Y58460D01*
X292302Y58532D01*
X292284Y58581D01*
X292276Y58632D01*
X292242Y58696D01*
X292217Y58763D01*
X292185Y58804D01*
X292160Y58850D01*
X292108Y58899D01*
X292064Y58955D01*
X292020Y58983D01*
X291982Y59019D01*
X291917Y59049D01*
X291857Y59088D01*
X291806Y59101D01*
X291759Y59123D01*
X291688Y59131D01*
X291618Y59148D01*
X291566Y59144D01*
X291515Y59150D01*
X291444Y59135D01*
X291373Y59129D01*
X291325Y59109D01*
X291274Y59098D01*
X291213Y59061D01*
X291147Y59033D01*
X291091Y58988D01*
X291063Y58971D01*
X291048Y58954D01*
X291016Y58928D01*
X289530Y57442D01*
X289477Y57368D01*
X289417Y57298D01*
X289405Y57268D01*
X289386Y57242D01*
X289359Y57155D01*
X289325Y57070D01*
X289321Y57029D01*
X289314Y57007D01*
X289315Y56975D01*
X289307Y56903D01*
X289307Y53627D01*
X287780Y52100D01*
X287738Y52042D01*
X287689Y51990D01*
X287667Y51943D01*
X287637Y51901D01*
X287616Y51832D01*
X287585Y51767D01*
X287580Y51715D01*
X287564Y51665D01*
X287566Y51594D01*
X287558Y51523D01*
X287569Y51472D01*
X287571Y51420D01*
X287595Y51352D01*
X287611Y51282D01*
X287637Y51237D01*
X287655Y51189D01*
X287700Y51133D01*
X287737Y51071D01*
X287776Y51037D01*
X287809Y50997D01*
X287869Y50958D01*
X287924Y50911D01*
X287972Y50892D01*
X288016Y50864D01*
X288085Y50846D01*
X288152Y50819D01*
X288223Y50811D01*
X288254Y50803D01*
X288278Y50805D01*
X288319Y50801D01*
X328712Y50801D01*
X339091Y40422D01*
X339091Y35226D01*
X339094Y35206D01*
X339092Y35187D01*
X339114Y35085D01*
X339130Y34983D01*
X339140Y34966D01*
X339144Y34946D01*
X339197Y34857D01*
X339246Y34766D01*
X339260Y34752D01*
X339270Y34735D01*
X339349Y34668D01*
X339424Y34596D01*
X339442Y34588D01*
X339457Y34575D01*
X339553Y34536D01*
X339647Y34493D01*
X339667Y34491D01*
X339685Y34483D01*
X339852Y34465D01*
X340305Y34465D01*
X345615Y29155D01*
X345615Y28033D01*
X345626Y27962D01*
X345628Y27890D01*
X345646Y27841D01*
X345654Y27790D01*
X345688Y27726D01*
X345713Y27659D01*
X345745Y27618D01*
X345770Y27572D01*
X345822Y27523D01*
X345866Y27467D01*
X345910Y27439D01*
X345948Y27403D01*
X346013Y27373D01*
X346073Y27334D01*
X346124Y27321D01*
X346171Y27299D01*
X346242Y27291D01*
X346312Y27274D01*
X346364Y27278D01*
X346415Y27272D01*
X346486Y27288D01*
G37*
G36*
X395314Y100636D02*
X395314Y100636D01*
X395366Y100637D01*
X395434Y100662D01*
X395504Y100677D01*
X395549Y100704D01*
X395597Y100722D01*
X395653Y100767D01*
X395715Y100803D01*
X395749Y100843D01*
X395789Y100875D01*
X395828Y100936D01*
X395875Y100990D01*
X395894Y101039D01*
X395922Y101082D01*
X395940Y101152D01*
X395967Y101218D01*
X395975Y101290D01*
X395983Y101321D01*
X395981Y101344D01*
X395985Y101385D01*
X395985Y113078D01*
X395974Y113149D01*
X395972Y113220D01*
X395954Y113269D01*
X395946Y113321D01*
X395912Y113384D01*
X395887Y113451D01*
X395855Y113492D01*
X395830Y113538D01*
X395778Y113588D01*
X395734Y113644D01*
X395690Y113672D01*
X395652Y113708D01*
X395587Y113738D01*
X395527Y113777D01*
X395476Y113789D01*
X395429Y113811D01*
X395358Y113819D01*
X395288Y113837D01*
X395236Y113833D01*
X395185Y113838D01*
X395114Y113823D01*
X395043Y113817D01*
X394995Y113797D01*
X394944Y113786D01*
X394883Y113749D01*
X394817Y113721D01*
X394761Y113676D01*
X394733Y113660D01*
X394718Y113642D01*
X394686Y113616D01*
X391559Y110489D01*
X388873Y110489D01*
X388873Y119888D01*
X388870Y119908D01*
X388872Y119927D01*
X388850Y120029D01*
X388833Y120131D01*
X388824Y120148D01*
X388820Y120168D01*
X388767Y120257D01*
X388718Y120348D01*
X388704Y120362D01*
X388694Y120379D01*
X388615Y120446D01*
X388540Y120517D01*
X388522Y120526D01*
X388507Y120539D01*
X388411Y120577D01*
X388317Y120621D01*
X388297Y120623D01*
X388279Y120631D01*
X388112Y120649D01*
X387349Y120649D01*
X387349Y120651D01*
X388112Y120651D01*
X388132Y120654D01*
X388151Y120652D01*
X388253Y120674D01*
X388355Y120691D01*
X388372Y120700D01*
X388392Y120704D01*
X388481Y120757D01*
X388572Y120806D01*
X388586Y120820D01*
X388603Y120830D01*
X388670Y120909D01*
X388741Y120984D01*
X388750Y121002D01*
X388763Y121017D01*
X388802Y121113D01*
X388845Y121207D01*
X388847Y121227D01*
X388855Y121245D01*
X388873Y121412D01*
X388873Y130811D01*
X391559Y130811D01*
X394686Y127684D01*
X394744Y127642D01*
X394796Y127592D01*
X394843Y127571D01*
X394885Y127540D01*
X394954Y127519D01*
X395019Y127489D01*
X395071Y127483D01*
X395121Y127468D01*
X395192Y127470D01*
X395263Y127462D01*
X395314Y127473D01*
X395366Y127474D01*
X395434Y127499D01*
X395504Y127514D01*
X395549Y127541D01*
X395597Y127559D01*
X395653Y127603D01*
X395715Y127640D01*
X395749Y127680D01*
X395789Y127712D01*
X395828Y127773D01*
X395875Y127827D01*
X395894Y127875D01*
X395922Y127919D01*
X395940Y127989D01*
X395967Y128055D01*
X395975Y128127D01*
X395983Y128158D01*
X395981Y128181D01*
X395985Y128222D01*
X395985Y132813D01*
X395971Y132903D01*
X395963Y132994D01*
X395951Y133024D01*
X395946Y133056D01*
X395903Y133137D01*
X395867Y133221D01*
X395841Y133253D01*
X395830Y133273D01*
X395807Y133296D01*
X395762Y133352D01*
X393953Y135161D01*
X393953Y139159D01*
X396781Y141987D01*
X398682Y141987D01*
X398753Y141998D01*
X398825Y142000D01*
X398874Y142018D01*
X398925Y142026D01*
X398988Y142060D01*
X399056Y142085D01*
X399096Y142117D01*
X399142Y142142D01*
X399192Y142194D01*
X399248Y142238D01*
X399276Y142282D01*
X399312Y142320D01*
X399342Y142385D01*
X399381Y142445D01*
X399394Y142496D01*
X399415Y142543D01*
X399423Y142614D01*
X399441Y142684D01*
X399437Y142736D01*
X399443Y142787D01*
X399427Y142858D01*
X399422Y142929D01*
X399401Y142977D01*
X399390Y143028D01*
X399353Y143089D01*
X399325Y143155D01*
X399281Y143211D01*
X399264Y143239D01*
X399246Y143254D01*
X399221Y143286D01*
X390251Y152256D01*
X390177Y152309D01*
X390107Y152369D01*
X390077Y152381D01*
X390051Y152400D01*
X389964Y152427D01*
X389879Y152461D01*
X389838Y152465D01*
X389816Y152472D01*
X389784Y152471D01*
X389712Y152479D01*
X356722Y152479D01*
X355011Y154190D01*
X355011Y154191D01*
X348135Y161066D01*
X348061Y161119D01*
X347992Y161179D01*
X347962Y161191D01*
X347936Y161210D01*
X347849Y161237D01*
X347764Y161271D01*
X347723Y161275D01*
X347700Y161282D01*
X347668Y161281D01*
X347597Y161289D01*
X341302Y161289D01*
X341212Y161275D01*
X341121Y161267D01*
X341091Y161255D01*
X341059Y161250D01*
X340979Y161207D01*
X340895Y161171D01*
X340863Y161145D01*
X340842Y161134D01*
X340820Y161111D01*
X340764Y161066D01*
X340305Y160607D01*
X335966Y160607D01*
X335876Y160593D01*
X335785Y160585D01*
X335755Y160573D01*
X335723Y160568D01*
X335642Y160525D01*
X335558Y160489D01*
X335526Y160463D01*
X335506Y160452D01*
X335483Y160429D01*
X335427Y160384D01*
X313472Y138429D01*
X307485Y138429D01*
X307415Y138418D01*
X307343Y138416D01*
X307294Y138398D01*
X307243Y138390D01*
X307179Y138356D01*
X307112Y138331D01*
X307071Y138299D01*
X307025Y138274D01*
X306976Y138222D01*
X306920Y138178D01*
X306892Y138134D01*
X306856Y138096D01*
X306826Y138031D01*
X306787Y137971D01*
X306774Y137920D01*
X306752Y137873D01*
X306744Y137802D01*
X306727Y137732D01*
X306731Y137680D01*
X306725Y137629D01*
X306740Y137558D01*
X306746Y137487D01*
X306766Y137439D01*
X306777Y137388D01*
X306814Y137327D01*
X306842Y137261D01*
X306887Y137205D01*
X306904Y137177D01*
X306921Y137162D01*
X306947Y137130D01*
X308957Y135120D01*
X308973Y135108D01*
X308986Y135093D01*
X309073Y135037D01*
X309157Y134976D01*
X309176Y134970D01*
X309193Y134960D01*
X309293Y134934D01*
X309392Y134904D01*
X309412Y134904D01*
X309431Y134900D01*
X309534Y134908D01*
X309638Y134910D01*
X309656Y134917D01*
X309676Y134919D01*
X309772Y134959D01*
X309869Y134995D01*
X309884Y135007D01*
X309903Y135015D01*
X310034Y135120D01*
X310208Y135295D01*
X321472Y135295D01*
X322365Y134402D01*
X322365Y132309D01*
X322376Y132238D01*
X322378Y132166D01*
X322396Y132117D01*
X322404Y132066D01*
X322438Y132003D01*
X322463Y131935D01*
X322495Y131895D01*
X322520Y131849D01*
X322572Y131799D01*
X322616Y131743D01*
X322660Y131715D01*
X322698Y131679D01*
X322763Y131649D01*
X322823Y131610D01*
X322874Y131598D01*
X322921Y131576D01*
X322992Y131568D01*
X323062Y131550D01*
X323114Y131554D01*
X323165Y131549D01*
X323236Y131564D01*
X323307Y131569D01*
X323355Y131590D01*
X323406Y131601D01*
X323467Y131638D01*
X323533Y131666D01*
X323589Y131711D01*
X323617Y131727D01*
X323632Y131745D01*
X323664Y131771D01*
X324418Y132525D01*
X333682Y132525D01*
X334178Y132029D01*
X334236Y131987D01*
X334288Y131937D01*
X334335Y131915D01*
X334377Y131885D01*
X334446Y131864D01*
X334511Y131834D01*
X334563Y131828D01*
X334613Y131813D01*
X334684Y131815D01*
X334755Y131807D01*
X334806Y131818D01*
X334858Y131819D01*
X334926Y131844D01*
X334996Y131859D01*
X335041Y131886D01*
X335089Y131903D01*
X335145Y131948D01*
X335207Y131985D01*
X335241Y132025D01*
X335281Y132057D01*
X335320Y132117D01*
X335367Y132172D01*
X335386Y132220D01*
X335414Y132264D01*
X335432Y132334D01*
X335459Y132400D01*
X335467Y132471D01*
X335475Y132503D01*
X335473Y132526D01*
X335477Y132567D01*
X335477Y132894D01*
X336593Y134010D01*
X336594Y134010D01*
X338156Y135573D01*
X350261Y135573D01*
X381962Y103872D01*
X381979Y103860D01*
X381991Y103844D01*
X382078Y103788D01*
X382162Y103728D01*
X382181Y103722D01*
X382198Y103711D01*
X382298Y103686D01*
X382397Y103656D01*
X382417Y103656D01*
X382436Y103651D01*
X382539Y103659D01*
X382643Y103662D01*
X382662Y103669D01*
X382682Y103670D01*
X382777Y103711D01*
X382874Y103746D01*
X382890Y103759D01*
X382908Y103767D01*
X383039Y103872D01*
X383562Y104395D01*
X391138Y104395D01*
X394686Y100847D01*
X394744Y100805D01*
X394796Y100756D01*
X394843Y100734D01*
X394885Y100703D01*
X394954Y100682D01*
X395019Y100652D01*
X395071Y100646D01*
X395121Y100631D01*
X395192Y100633D01*
X395263Y100625D01*
X395314Y100636D01*
G37*
G36*
X244886Y24895D02*
X244886Y24895D01*
X244957Y24901D01*
X245005Y24921D01*
X245056Y24932D01*
X245117Y24969D01*
X245183Y24997D01*
X245239Y25042D01*
X245267Y25059D01*
X245282Y25076D01*
X245314Y25102D01*
X248014Y27802D01*
X248067Y27876D01*
X248127Y27946D01*
X248139Y27976D01*
X248158Y28002D01*
X248185Y28089D01*
X248219Y28174D01*
X248223Y28215D01*
X248230Y28237D01*
X248229Y28269D01*
X248237Y28340D01*
X248237Y30417D01*
X249800Y31980D01*
X253770Y35950D01*
X255333Y37513D01*
X316167Y37513D01*
X317730Y35950D01*
X326186Y27494D01*
X326244Y27452D01*
X326296Y27403D01*
X326343Y27381D01*
X326385Y27351D01*
X326454Y27330D01*
X326519Y27299D01*
X326571Y27294D01*
X326621Y27278D01*
X326692Y27280D01*
X326763Y27272D01*
X326814Y27283D01*
X326866Y27285D01*
X326934Y27309D01*
X327004Y27325D01*
X327049Y27351D01*
X327097Y27369D01*
X327153Y27414D01*
X327215Y27451D01*
X327249Y27490D01*
X327289Y27523D01*
X327328Y27583D01*
X327375Y27638D01*
X327394Y27686D01*
X327422Y27730D01*
X327440Y27799D01*
X327467Y27866D01*
X327475Y27937D01*
X327483Y27968D01*
X327481Y27992D01*
X327485Y28033D01*
X327485Y29155D01*
X332795Y34465D01*
X333248Y34465D01*
X333268Y34468D01*
X333287Y34466D01*
X333389Y34488D01*
X333491Y34504D01*
X333508Y34514D01*
X333528Y34518D01*
X333617Y34571D01*
X333708Y34620D01*
X333722Y34634D01*
X333739Y34644D01*
X333806Y34723D01*
X333878Y34798D01*
X333886Y34816D01*
X333899Y34831D01*
X333938Y34927D01*
X333981Y35021D01*
X333983Y35041D01*
X333991Y35059D01*
X334009Y35226D01*
X334009Y38002D01*
X333995Y38092D01*
X333987Y38183D01*
X333975Y38213D01*
X333970Y38245D01*
X333927Y38326D01*
X333891Y38410D01*
X333865Y38442D01*
X333854Y38462D01*
X333831Y38485D01*
X333786Y38541D01*
X326831Y45496D01*
X326757Y45549D01*
X326687Y45609D01*
X326657Y45621D01*
X326631Y45640D01*
X326544Y45667D01*
X326459Y45701D01*
X326418Y45705D01*
X326396Y45712D01*
X326364Y45711D01*
X326292Y45719D01*
X257977Y45719D01*
X244327Y59369D01*
X244311Y59380D01*
X244299Y59396D01*
X244212Y59452D01*
X244128Y59512D01*
X244109Y59518D01*
X244092Y59529D01*
X243991Y59554D01*
X243892Y59584D01*
X243872Y59584D01*
X243853Y59589D01*
X243750Y59581D01*
X243647Y59578D01*
X243628Y59571D01*
X243608Y59570D01*
X243513Y59529D01*
X243416Y59494D01*
X243400Y59481D01*
X243382Y59473D01*
X243251Y59369D01*
X242743Y58861D01*
X242743Y58860D01*
X241031Y57149D01*
X213643Y57149D01*
X213553Y57135D01*
X213462Y57127D01*
X213432Y57115D01*
X213400Y57110D01*
X213319Y57067D01*
X213235Y57031D01*
X213203Y57005D01*
X213182Y56994D01*
X213160Y56971D01*
X213104Y56926D01*
X210279Y54101D01*
X206281Y54101D01*
X203456Y56926D01*
X203382Y56979D01*
X203312Y57039D01*
X203282Y57051D01*
X203256Y57070D01*
X203169Y57097D01*
X203084Y57131D01*
X203043Y57135D01*
X203021Y57142D01*
X202989Y57141D01*
X202917Y57149D01*
X179157Y57149D01*
X178484Y57822D01*
X178468Y57834D01*
X178455Y57850D01*
X178369Y57906D01*
X178285Y57966D01*
X178265Y57972D01*
X178248Y57983D01*
X178148Y58008D01*
X178049Y58038D01*
X178029Y58038D01*
X178010Y58043D01*
X177907Y58035D01*
X177804Y58032D01*
X177785Y58025D01*
X177765Y58023D01*
X177720Y58004D01*
X177000Y58004D01*
X176980Y58001D01*
X176960Y58003D01*
X176859Y57981D01*
X176757Y57965D01*
X176739Y57955D01*
X176720Y57951D01*
X176631Y57898D01*
X176540Y57850D01*
X176526Y57835D01*
X176509Y57825D01*
X176441Y57746D01*
X176370Y57671D01*
X176362Y57653D01*
X176349Y57638D01*
X176310Y57542D01*
X176267Y57448D01*
X176264Y57428D01*
X176257Y57410D01*
X176239Y57243D01*
X176239Y56653D01*
X175400Y55815D01*
X175388Y55799D01*
X175373Y55786D01*
X175317Y55699D01*
X175257Y55615D01*
X175251Y55596D01*
X175240Y55579D01*
X175215Y55479D01*
X175184Y55380D01*
X175185Y55360D01*
X175180Y55341D01*
X175188Y55238D01*
X175191Y55134D01*
X175197Y55115D01*
X175199Y55095D01*
X175239Y55001D01*
X175275Y54903D01*
X175288Y54887D01*
X175295Y54869D01*
X175400Y54738D01*
X189435Y40703D01*
X189509Y40650D01*
X189579Y40590D01*
X189609Y40578D01*
X189635Y40559D01*
X189722Y40533D01*
X189807Y40498D01*
X189848Y40494D01*
X189870Y40487D01*
X189902Y40488D01*
X189974Y40480D01*
X223104Y40480D01*
X224667Y38917D01*
X229619Y33965D01*
X229635Y33953D01*
X229648Y33938D01*
X229720Y33891D01*
X229745Y33870D01*
X229759Y33864D01*
X229819Y33821D01*
X229838Y33816D01*
X229855Y33805D01*
X229955Y33779D01*
X230054Y33749D01*
X230074Y33750D01*
X230093Y33745D01*
X230196Y33753D01*
X230300Y33755D01*
X230318Y33762D01*
X230338Y33764D01*
X230433Y33804D01*
X230531Y33840D01*
X230546Y33852D01*
X230565Y33860D01*
X230627Y33910D01*
X230635Y33914D01*
X230643Y33923D01*
X230696Y33965D01*
X231195Y34465D01*
X238705Y34465D01*
X244015Y29155D01*
X244015Y25640D01*
X244026Y25570D01*
X244028Y25498D01*
X244046Y25449D01*
X244054Y25398D01*
X244088Y25334D01*
X244113Y25267D01*
X244145Y25226D01*
X244170Y25180D01*
X244222Y25131D01*
X244266Y25075D01*
X244310Y25047D01*
X244348Y25011D01*
X244413Y24981D01*
X244473Y24942D01*
X244524Y24929D01*
X244571Y24907D01*
X244642Y24899D01*
X244712Y24882D01*
X244764Y24886D01*
X244815Y24880D01*
X244886Y24895D01*
G37*
%LPC*%
G36*
X53403Y80757D02*
X53403Y80757D01*
X53403Y85060D01*
X53400Y85079D01*
X53402Y85099D01*
X53380Y85201D01*
X53364Y85303D01*
X53354Y85320D01*
X53350Y85340D01*
X53297Y85429D01*
X53248Y85520D01*
X53234Y85534D01*
X53224Y85551D01*
X53145Y85618D01*
X53070Y85689D01*
X53052Y85698D01*
X53037Y85711D01*
X52941Y85749D01*
X52888Y85774D01*
X52887Y85779D01*
X52878Y85796D01*
X52874Y85816D01*
X52821Y85905D01*
X52772Y85996D01*
X52758Y86010D01*
X52748Y86027D01*
X52669Y86094D01*
X52594Y86166D01*
X52576Y86174D01*
X52561Y86187D01*
X52464Y86226D01*
X52371Y86269D01*
X52351Y86271D01*
X52333Y86279D01*
X52166Y86297D01*
X43113Y86297D01*
X43113Y87632D01*
X43286Y88279D01*
X43621Y88858D01*
X43906Y89143D01*
X43959Y89217D01*
X44019Y89287D01*
X44031Y89317D01*
X44050Y89343D01*
X44077Y89430D01*
X44111Y89515D01*
X44115Y89556D01*
X44122Y89578D01*
X44121Y89610D01*
X44129Y89682D01*
X44129Y94430D01*
X44209Y94510D01*
X44221Y94526D01*
X44237Y94538D01*
X44293Y94626D01*
X44353Y94709D01*
X44359Y94728D01*
X44370Y94745D01*
X44395Y94846D01*
X44425Y94945D01*
X44425Y94965D01*
X44430Y94984D01*
X44422Y95087D01*
X44419Y95190D01*
X44412Y95209D01*
X44411Y95229D01*
X44370Y95324D01*
X44335Y95421D01*
X44322Y95437D01*
X44314Y95455D01*
X44209Y95586D01*
X44129Y95666D01*
X44129Y100930D01*
X44209Y101010D01*
X44221Y101026D01*
X44237Y101038D01*
X44293Y101126D01*
X44353Y101209D01*
X44359Y101228D01*
X44370Y101245D01*
X44395Y101346D01*
X44425Y101445D01*
X44425Y101464D01*
X44430Y101484D01*
X44422Y101587D01*
X44419Y101690D01*
X44412Y101709D01*
X44411Y101729D01*
X44370Y101824D01*
X44335Y101921D01*
X44322Y101937D01*
X44314Y101955D01*
X44209Y102086D01*
X44079Y102217D01*
X44063Y102228D01*
X44051Y102244D01*
X43963Y102300D01*
X43879Y102360D01*
X43860Y102366D01*
X43844Y102377D01*
X43743Y102402D01*
X43644Y102432D01*
X43624Y102432D01*
X43605Y102437D01*
X43502Y102429D01*
X43398Y102426D01*
X43380Y102419D01*
X43360Y102418D01*
X43265Y102377D01*
X43167Y102342D01*
X43152Y102329D01*
X43134Y102321D01*
X43003Y102217D01*
X42639Y101853D01*
X38456Y101853D01*
X38436Y101850D01*
X38417Y101852D01*
X38315Y101830D01*
X38213Y101814D01*
X38196Y101804D01*
X38176Y101800D01*
X38087Y101747D01*
X37996Y101698D01*
X37982Y101684D01*
X37965Y101674D01*
X37898Y101595D01*
X37826Y101520D01*
X37818Y101502D01*
X37805Y101487D01*
X37766Y101391D01*
X37723Y101297D01*
X37721Y101277D01*
X37713Y101259D01*
X37695Y101092D01*
X37695Y100464D01*
X37522Y99817D01*
X37187Y99238D01*
X36785Y98836D01*
X36774Y98820D01*
X36758Y98808D01*
X36702Y98721D01*
X36642Y98637D01*
X36636Y98618D01*
X36625Y98601D01*
X36600Y98500D01*
X36570Y98402D01*
X36570Y98382D01*
X36565Y98362D01*
X36573Y98259D01*
X36576Y98156D01*
X36583Y98137D01*
X36584Y98117D01*
X36625Y98022D01*
X36660Y97925D01*
X36673Y97909D01*
X36681Y97891D01*
X36785Y97760D01*
X37187Y97358D01*
X37522Y96779D01*
X37695Y96132D01*
X37695Y87821D01*
X27177Y87821D01*
X27177Y109536D01*
X27174Y109556D01*
X27176Y109575D01*
X27154Y109677D01*
X27137Y109779D01*
X27128Y109796D01*
X27124Y109816D01*
X27071Y109905D01*
X27022Y109996D01*
X27008Y110010D01*
X26998Y110027D01*
X26919Y110094D01*
X26844Y110165D01*
X26826Y110174D01*
X26811Y110187D01*
X26715Y110226D01*
X26621Y110269D01*
X26601Y110271D01*
X26583Y110279D01*
X26416Y110297D01*
X25653Y110297D01*
X25653Y110299D01*
X26416Y110299D01*
X26436Y110302D01*
X26455Y110300D01*
X26557Y110322D01*
X26659Y110339D01*
X26676Y110348D01*
X26696Y110352D01*
X26785Y110405D01*
X26876Y110454D01*
X26890Y110468D01*
X26907Y110478D01*
X26974Y110557D01*
X27045Y110632D01*
X27054Y110650D01*
X27067Y110665D01*
X27106Y110761D01*
X27149Y110855D01*
X27151Y110875D01*
X27159Y110893D01*
X27177Y111060D01*
X27177Y131025D01*
X34695Y131025D01*
X34695Y124964D01*
X34522Y124317D01*
X34187Y123738D01*
X34087Y123638D01*
X34046Y123580D01*
X33996Y123528D01*
X33974Y123481D01*
X33944Y123439D01*
X33923Y123370D01*
X33893Y123305D01*
X33887Y123253D01*
X33871Y123204D01*
X33873Y123132D01*
X33865Y123061D01*
X33877Y123010D01*
X33878Y122958D01*
X33902Y122890D01*
X33918Y122820D01*
X33944Y122775D01*
X33962Y122727D01*
X34007Y122671D01*
X34044Y122609D01*
X34083Y122575D01*
X34116Y122535D01*
X34176Y122496D01*
X34231Y122449D01*
X34279Y122430D01*
X34323Y122402D01*
X34392Y122384D01*
X34459Y122357D01*
X34530Y122349D01*
X34561Y122341D01*
X34585Y122343D01*
X34626Y122339D01*
X35488Y122339D01*
X36135Y122166D01*
X36714Y121831D01*
X37187Y121358D01*
X37522Y120779D01*
X37695Y120132D01*
X37695Y112268D01*
X37698Y112248D01*
X37696Y112229D01*
X37718Y112127D01*
X37734Y112025D01*
X37744Y112008D01*
X37748Y111988D01*
X37801Y111899D01*
X37850Y111808D01*
X37864Y111794D01*
X37874Y111777D01*
X37953Y111710D01*
X38028Y111638D01*
X38046Y111630D01*
X38061Y111617D01*
X38157Y111578D01*
X38251Y111535D01*
X38271Y111533D01*
X38289Y111525D01*
X38456Y111507D01*
X41917Y111507D01*
X42008Y111521D01*
X42098Y111529D01*
X42128Y111541D01*
X42160Y111546D01*
X42241Y111589D01*
X42325Y111625D01*
X42357Y111651D01*
X42378Y111662D01*
X42400Y111685D01*
X42456Y111730D01*
X43906Y113180D01*
X43952Y113244D01*
X43970Y113263D01*
X43973Y113270D01*
X44019Y113324D01*
X44031Y113354D01*
X44050Y113380D01*
X44077Y113467D01*
X44111Y113552D01*
X44115Y113593D01*
X44122Y113615D01*
X44121Y113647D01*
X44129Y113719D01*
X44129Y113930D01*
X45022Y114823D01*
X59786Y114823D01*
X60679Y113930D01*
X60679Y108666D01*
X60599Y108586D01*
X60587Y108570D01*
X60571Y108558D01*
X60515Y108471D01*
X60455Y108387D01*
X60449Y108368D01*
X60438Y108351D01*
X60413Y108251D01*
X60383Y108152D01*
X60383Y108132D01*
X60378Y108112D01*
X60386Y108009D01*
X60389Y107906D01*
X60396Y107887D01*
X60397Y107867D01*
X60438Y107772D01*
X60473Y107675D01*
X60486Y107659D01*
X60494Y107641D01*
X60599Y107510D01*
X60801Y107308D01*
X60875Y107255D01*
X60944Y107195D01*
X60974Y107183D01*
X61000Y107164D01*
X61087Y107137D01*
X61172Y107103D01*
X61213Y107099D01*
X61235Y107092D01*
X61268Y107093D01*
X61339Y107085D01*
X63807Y107085D01*
X63834Y107059D01*
X63881Y107037D01*
X63923Y107007D01*
X63992Y106986D01*
X64057Y106955D01*
X64109Y106950D01*
X64158Y106934D01*
X64230Y106936D01*
X64301Y106928D01*
X64352Y106939D01*
X64404Y106941D01*
X64472Y106965D01*
X64542Y106980D01*
X64587Y107007D01*
X64635Y107025D01*
X64691Y107070D01*
X64753Y107107D01*
X64787Y107146D01*
X64827Y107179D01*
X64866Y107239D01*
X64913Y107294D01*
X64932Y107342D01*
X64960Y107386D01*
X64978Y107455D01*
X65005Y107522D01*
X65013Y107593D01*
X65021Y107624D01*
X65019Y107647D01*
X65023Y107688D01*
X65023Y109441D01*
X66804Y111222D01*
X66815Y111238D01*
X66831Y111250D01*
X66887Y111338D01*
X66947Y111421D01*
X66953Y111440D01*
X66964Y111457D01*
X66989Y111558D01*
X67020Y111657D01*
X67019Y111676D01*
X67024Y111696D01*
X67016Y111799D01*
X67013Y111902D01*
X67006Y111921D01*
X67005Y111941D01*
X66964Y112036D01*
X66929Y112133D01*
X66916Y112149D01*
X66908Y112167D01*
X66804Y112298D01*
X65277Y113825D01*
X65277Y116840D01*
X65274Y116860D01*
X65276Y116879D01*
X65254Y116981D01*
X65238Y117083D01*
X65228Y117100D01*
X65224Y117120D01*
X65171Y117209D01*
X65122Y117300D01*
X65108Y117314D01*
X65098Y117331D01*
X65019Y117398D01*
X64944Y117470D01*
X64926Y117478D01*
X64911Y117491D01*
X64815Y117530D01*
X64721Y117573D01*
X64701Y117575D01*
X64683Y117583D01*
X64516Y117601D01*
X62263Y117601D01*
X59688Y120176D01*
X59653Y120201D01*
X59623Y120234D01*
X59553Y120273D01*
X59488Y120319D01*
X59447Y120332D01*
X59408Y120354D01*
X59330Y120368D01*
X59253Y120392D01*
X59209Y120391D01*
X59166Y120399D01*
X59087Y120387D01*
X59007Y120385D01*
X58966Y120370D01*
X58923Y120364D01*
X58790Y120306D01*
X58776Y120301D01*
X58774Y120299D01*
X58769Y120297D01*
X58135Y119930D01*
X57488Y119757D01*
X51677Y119757D01*
X51677Y128775D01*
X59695Y128775D01*
X59695Y126525D01*
X59706Y126454D01*
X59708Y126382D01*
X59726Y126333D01*
X59734Y126282D01*
X59768Y126218D01*
X59793Y126151D01*
X59825Y126110D01*
X59850Y126064D01*
X59902Y126015D01*
X59946Y125959D01*
X59990Y125931D01*
X60028Y125895D01*
X60093Y125865D01*
X60153Y125826D01*
X60204Y125813D01*
X60251Y125791D01*
X60322Y125784D01*
X60392Y125766D01*
X60444Y125770D01*
X60495Y125764D01*
X60566Y125780D01*
X60637Y125785D01*
X60685Y125806D01*
X60736Y125817D01*
X60797Y125853D01*
X60863Y125881D01*
X60919Y125926D01*
X60947Y125943D01*
X60962Y125961D01*
X60994Y125986D01*
X62263Y127255D01*
X66261Y127255D01*
X69089Y124427D01*
X69089Y121412D01*
X69092Y121392D01*
X69090Y121373D01*
X69112Y121271D01*
X69128Y121169D01*
X69138Y121152D01*
X69142Y121132D01*
X69195Y121043D01*
X69244Y120952D01*
X69258Y120938D01*
X69268Y120921D01*
X69347Y120854D01*
X69422Y120782D01*
X69440Y120774D01*
X69455Y120761D01*
X69551Y120722D01*
X69645Y120679D01*
X69665Y120677D01*
X69683Y120669D01*
X69850Y120651D01*
X72103Y120651D01*
X74931Y117823D01*
X74931Y113825D01*
X73150Y112044D01*
X73139Y112028D01*
X73123Y112016D01*
X73067Y111928D01*
X73007Y111845D01*
X73001Y111826D01*
X72990Y111809D01*
X72965Y111708D01*
X72934Y111609D01*
X72935Y111590D01*
X72930Y111570D01*
X72938Y111467D01*
X72941Y111364D01*
X72948Y111345D01*
X72949Y111325D01*
X72990Y111230D01*
X73025Y111133D01*
X73038Y111117D01*
X73046Y111099D01*
X73150Y110968D01*
X74677Y109441D01*
X74677Y105443D01*
X71849Y102615D01*
X70096Y102615D01*
X70026Y102604D01*
X69954Y102602D01*
X69905Y102584D01*
X69854Y102576D01*
X69790Y102542D01*
X69723Y102517D01*
X69682Y102485D01*
X69636Y102460D01*
X69587Y102408D01*
X69531Y102364D01*
X69503Y102320D01*
X69467Y102282D01*
X69437Y102217D01*
X69398Y102157D01*
X69385Y102106D01*
X69363Y102059D01*
X69355Y101988D01*
X69338Y101918D01*
X69342Y101866D01*
X69336Y101815D01*
X69351Y101744D01*
X69357Y101673D01*
X69377Y101625D01*
X69388Y101574D01*
X69425Y101513D01*
X69453Y101447D01*
X69498Y101391D01*
X69515Y101363D01*
X69532Y101348D01*
X69558Y101316D01*
X73114Y97760D01*
X73188Y97707D01*
X73258Y97647D01*
X73288Y97635D01*
X73314Y97616D01*
X73401Y97589D01*
X73486Y97555D01*
X73527Y97551D01*
X73549Y97544D01*
X73581Y97545D01*
X73653Y97537D01*
X76929Y97537D01*
X79757Y94709D01*
X79757Y90711D01*
X76929Y87883D01*
X72931Y87883D01*
X71582Y89232D01*
X71524Y89274D01*
X71472Y89323D01*
X71424Y89345D01*
X71382Y89376D01*
X71314Y89397D01*
X71249Y89427D01*
X71197Y89433D01*
X71147Y89448D01*
X71075Y89446D01*
X71004Y89454D01*
X70953Y89443D01*
X70901Y89442D01*
X70834Y89417D01*
X70764Y89402D01*
X70719Y89375D01*
X70670Y89357D01*
X70614Y89312D01*
X70553Y89276D01*
X70519Y89236D01*
X70478Y89203D01*
X70439Y89143D01*
X70393Y89089D01*
X70373Y89040D01*
X70345Y88997D01*
X70328Y88927D01*
X70301Y88861D01*
X70293Y88789D01*
X70285Y88758D01*
X70287Y88735D01*
X70282Y88694D01*
X70282Y87333D01*
X67455Y84505D01*
X63456Y84505D01*
X62994Y84967D01*
X62936Y85009D01*
X62884Y85059D01*
X62837Y85081D01*
X62795Y85111D01*
X62726Y85132D01*
X62661Y85162D01*
X62609Y85168D01*
X62559Y85183D01*
X62488Y85181D01*
X62416Y85189D01*
X62366Y85178D01*
X62314Y85177D01*
X62246Y85152D01*
X62176Y85137D01*
X62131Y85110D01*
X62083Y85092D01*
X62027Y85048D01*
X61965Y85011D01*
X61931Y84971D01*
X61890Y84939D01*
X61852Y84878D01*
X61805Y84824D01*
X61786Y84776D01*
X61757Y84732D01*
X61740Y84662D01*
X61713Y84596D01*
X61705Y84525D01*
X61697Y84493D01*
X61699Y84470D01*
X61695Y84429D01*
X61695Y82963D01*
X61522Y82317D01*
X61187Y81738D01*
X60714Y81265D01*
X60135Y80930D01*
X59488Y80757D01*
X53403Y80757D01*
G37*
%LPD*%
G36*
X311142Y143525D02*
X311142Y143525D01*
X311233Y143533D01*
X311263Y143545D01*
X311295Y143550D01*
X311376Y143593D01*
X311460Y143629D01*
X311492Y143655D01*
X311512Y143666D01*
X311535Y143689D01*
X311591Y143734D01*
X328863Y161006D01*
X328874Y161022D01*
X328890Y161034D01*
X328946Y161122D01*
X329006Y161205D01*
X329012Y161224D01*
X329023Y161241D01*
X329048Y161342D01*
X329078Y161441D01*
X329078Y161460D01*
X329083Y161480D01*
X329075Y161583D01*
X329072Y161686D01*
X329065Y161705D01*
X329064Y161725D01*
X329023Y161820D01*
X328988Y161917D01*
X328975Y161933D01*
X328967Y161951D01*
X328863Y162082D01*
X328167Y162778D01*
X328167Y164920D01*
X328153Y165010D01*
X328145Y165101D01*
X328133Y165131D01*
X328128Y165163D01*
X328085Y165243D01*
X328049Y165327D01*
X328023Y165360D01*
X328012Y165380D01*
X327989Y165402D01*
X327944Y165458D01*
X327485Y165917D01*
X327485Y173427D01*
X330224Y176166D01*
X330266Y176224D01*
X330316Y176276D01*
X330337Y176323D01*
X330368Y176365D01*
X330389Y176434D01*
X330419Y176499D01*
X330425Y176551D01*
X330440Y176601D01*
X330438Y176672D01*
X330446Y176743D01*
X330435Y176794D01*
X330434Y176846D01*
X330409Y176914D01*
X330394Y176984D01*
X330367Y177029D01*
X330349Y177077D01*
X330305Y177133D01*
X330268Y177195D01*
X330228Y177229D01*
X330196Y177269D01*
X330135Y177308D01*
X330081Y177355D01*
X330033Y177374D01*
X329989Y177402D01*
X329919Y177420D01*
X329853Y177447D01*
X329781Y177455D01*
X329750Y177463D01*
X329727Y177461D01*
X329686Y177465D01*
X319451Y177465D01*
X319380Y177454D01*
X319308Y177452D01*
X319259Y177434D01*
X319208Y177426D01*
X319145Y177392D01*
X319077Y177367D01*
X319037Y177335D01*
X318991Y177310D01*
X318941Y177258D01*
X318885Y177214D01*
X318857Y177170D01*
X318821Y177132D01*
X318791Y177067D01*
X318752Y177007D01*
X318740Y176956D01*
X318718Y176909D01*
X318710Y176838D01*
X318692Y176768D01*
X318696Y176716D01*
X318691Y176665D01*
X318706Y176594D01*
X318711Y176523D01*
X318732Y176475D01*
X318743Y176424D01*
X318780Y176363D01*
X318808Y176297D01*
X318853Y176241D01*
X318869Y176213D01*
X318887Y176198D01*
X318913Y176166D01*
X321231Y173848D01*
X321231Y171195D01*
X311912Y171195D01*
X311892Y171192D01*
X311873Y171194D01*
X311771Y171172D01*
X311669Y171155D01*
X311652Y171146D01*
X311632Y171142D01*
X311543Y171089D01*
X311452Y171040D01*
X311438Y171026D01*
X311421Y171016D01*
X311354Y170937D01*
X311283Y170862D01*
X311274Y170844D01*
X311261Y170829D01*
X311223Y170733D01*
X311179Y170639D01*
X311177Y170619D01*
X311169Y170601D01*
X311151Y170434D01*
X311151Y169671D01*
X311149Y169671D01*
X311149Y170434D01*
X311146Y170454D01*
X311148Y170473D01*
X311126Y170575D01*
X311109Y170677D01*
X311100Y170694D01*
X311096Y170714D01*
X311043Y170803D01*
X310994Y170894D01*
X310980Y170908D01*
X310970Y170925D01*
X310891Y170992D01*
X310816Y171063D01*
X310798Y171072D01*
X310783Y171085D01*
X310687Y171124D01*
X310593Y171167D01*
X310573Y171169D01*
X310555Y171177D01*
X310388Y171195D01*
X301069Y171195D01*
X301069Y173848D01*
X303387Y176166D01*
X303429Y176224D01*
X303479Y176276D01*
X303501Y176323D01*
X303531Y176365D01*
X303552Y176434D01*
X303582Y176499D01*
X303588Y176551D01*
X303603Y176601D01*
X303601Y176672D01*
X303609Y176743D01*
X303598Y176794D01*
X303597Y176846D01*
X303572Y176914D01*
X303557Y176984D01*
X303530Y177029D01*
X303513Y177077D01*
X303468Y177133D01*
X303431Y177195D01*
X303391Y177229D01*
X303359Y177269D01*
X303299Y177308D01*
X303244Y177355D01*
X303196Y177374D01*
X303152Y177402D01*
X303082Y177420D01*
X303016Y177447D01*
X302945Y177455D01*
X302913Y177463D01*
X302890Y177461D01*
X302849Y177465D01*
X292614Y177465D01*
X292543Y177454D01*
X292472Y177452D01*
X292423Y177434D01*
X292371Y177426D01*
X292308Y177392D01*
X292241Y177367D01*
X292200Y177335D01*
X292154Y177310D01*
X292105Y177258D01*
X292049Y177214D01*
X292020Y177170D01*
X291984Y177132D01*
X291954Y177067D01*
X291916Y177007D01*
X291903Y176956D01*
X291881Y176909D01*
X291873Y176838D01*
X291855Y176768D01*
X291860Y176716D01*
X291854Y176665D01*
X291869Y176594D01*
X291875Y176523D01*
X291895Y176475D01*
X291906Y176424D01*
X291943Y176363D01*
X291971Y176297D01*
X292016Y176241D01*
X292032Y176213D01*
X292050Y176198D01*
X292076Y176166D01*
X294815Y173427D01*
X294815Y165917D01*
X289505Y160607D01*
X281995Y160607D01*
X280520Y162082D01*
X280446Y162135D01*
X280377Y162195D01*
X280347Y162207D01*
X280321Y162226D01*
X280234Y162253D01*
X280149Y162287D01*
X280108Y162291D01*
X280085Y162298D01*
X280053Y162297D01*
X279982Y162305D01*
X277687Y162305D01*
X277597Y162291D01*
X277506Y162283D01*
X277476Y162271D01*
X277444Y162266D01*
X277364Y162223D01*
X277280Y162187D01*
X277248Y162161D01*
X277227Y162150D01*
X277205Y162127D01*
X277149Y162082D01*
X268513Y153446D01*
X268471Y153388D01*
X268422Y153336D01*
X268400Y153289D01*
X268369Y153247D01*
X268348Y153178D01*
X268318Y153113D01*
X268312Y153061D01*
X268297Y153011D01*
X268299Y152940D01*
X268291Y152869D01*
X268302Y152818D01*
X268303Y152766D01*
X268328Y152698D01*
X268343Y152628D01*
X268370Y152583D01*
X268388Y152535D01*
X268433Y152479D01*
X268469Y152417D01*
X268509Y152383D01*
X268541Y152343D01*
X268602Y152304D01*
X268656Y152257D01*
X268705Y152238D01*
X268748Y152210D01*
X268818Y152192D01*
X268884Y152165D01*
X268956Y152157D01*
X268987Y152149D01*
X269010Y152151D01*
X269051Y152147D01*
X271239Y152147D01*
X274068Y149318D01*
X274068Y149313D01*
X274090Y149211D01*
X274106Y149109D01*
X274116Y149092D01*
X274120Y149072D01*
X274173Y148983D01*
X274222Y148892D01*
X274236Y148878D01*
X274246Y148861D01*
X274325Y148794D01*
X274400Y148722D01*
X274418Y148714D01*
X274433Y148701D01*
X274529Y148662D01*
X274623Y148619D01*
X274643Y148617D01*
X274661Y148609D01*
X274828Y148591D01*
X299821Y148591D01*
X299840Y148594D01*
X299860Y148592D01*
X299961Y148614D01*
X300063Y148630D01*
X300081Y148640D01*
X300101Y148644D01*
X300190Y148697D01*
X300281Y148746D01*
X300295Y148760D01*
X300312Y148770D01*
X300379Y148849D01*
X300450Y148924D01*
X300459Y148942D01*
X300472Y148957D01*
X300510Y149053D01*
X300554Y149147D01*
X300556Y149167D01*
X300563Y149185D01*
X300578Y149315D01*
X303409Y152147D01*
X307408Y152147D01*
X310235Y149319D01*
X310235Y145321D01*
X309725Y144810D01*
X309683Y144752D01*
X309634Y144700D01*
X309612Y144653D01*
X309581Y144611D01*
X309560Y144542D01*
X309530Y144477D01*
X309524Y144425D01*
X309509Y144375D01*
X309511Y144304D01*
X309503Y144233D01*
X309514Y144182D01*
X309515Y144130D01*
X309540Y144062D01*
X309555Y143992D01*
X309582Y143947D01*
X309600Y143899D01*
X309645Y143843D01*
X309681Y143781D01*
X309721Y143747D01*
X309754Y143707D01*
X309814Y143668D01*
X309868Y143621D01*
X309917Y143602D01*
X309961Y143574D01*
X310030Y143556D01*
X310097Y143529D01*
X310168Y143521D01*
X310199Y143513D01*
X310222Y143515D01*
X310263Y143511D01*
X311052Y143511D01*
X311142Y143525D01*
G37*
%LPC*%
G36*
X310208Y95845D02*
X310208Y95845D01*
X309315Y96738D01*
X309315Y109002D01*
X310208Y109895D01*
X321472Y109895D01*
X322226Y109141D01*
X322284Y109099D01*
X322336Y109049D01*
X322383Y109027D01*
X322425Y108997D01*
X322494Y108976D01*
X322559Y108946D01*
X322611Y108940D01*
X322661Y108925D01*
X322732Y108927D01*
X322803Y108919D01*
X322854Y108930D01*
X322906Y108931D01*
X322974Y108956D01*
X323044Y108971D01*
X323089Y108998D01*
X323137Y109015D01*
X323193Y109060D01*
X323255Y109097D01*
X323289Y109137D01*
X323329Y109169D01*
X323368Y109229D01*
X323415Y109284D01*
X323434Y109332D01*
X323462Y109376D01*
X323480Y109446D01*
X323507Y109512D01*
X323515Y109583D01*
X323523Y109615D01*
X323521Y109638D01*
X323525Y109679D01*
X323525Y112582D01*
X324418Y113475D01*
X333682Y113475D01*
X334575Y112582D01*
X334575Y103318D01*
X333682Y102425D01*
X327074Y102425D01*
X326984Y102411D01*
X326893Y102403D01*
X326864Y102391D01*
X326832Y102386D01*
X326751Y102343D01*
X326667Y102307D01*
X326635Y102281D01*
X326614Y102270D01*
X326592Y102247D01*
X326536Y102202D01*
X326480Y102146D01*
X324917Y100583D01*
X323126Y100583D01*
X323106Y100580D01*
X323087Y100582D01*
X322985Y100560D01*
X322883Y100544D01*
X322866Y100534D01*
X322846Y100530D01*
X322757Y100477D01*
X322666Y100428D01*
X322652Y100414D01*
X322635Y100404D01*
X322568Y100325D01*
X322496Y100250D01*
X322488Y100232D01*
X322475Y100217D01*
X322436Y100121D01*
X322393Y100027D01*
X322391Y100007D01*
X322383Y99989D01*
X322365Y99822D01*
X322365Y96738D01*
X321472Y95845D01*
X310208Y95845D01*
G37*
%LPD*%
%LPC*%
G36*
X293208Y95845D02*
X293208Y95845D01*
X292315Y96738D01*
X292315Y99568D01*
X292312Y99588D01*
X292314Y99607D01*
X292292Y99709D01*
X292276Y99811D01*
X292266Y99828D01*
X292262Y99848D01*
X292209Y99937D01*
X292160Y100028D01*
X292146Y100042D01*
X292136Y100059D01*
X292057Y100126D01*
X291982Y100198D01*
X291964Y100206D01*
X291949Y100219D01*
X291853Y100258D01*
X291759Y100301D01*
X291739Y100303D01*
X291721Y100311D01*
X291554Y100329D01*
X291048Y100329D01*
X288477Y102900D01*
X288403Y102953D01*
X288333Y103013D01*
X288303Y103025D01*
X288277Y103044D01*
X288190Y103071D01*
X288105Y103105D01*
X288064Y103109D01*
X288042Y103116D01*
X288010Y103115D01*
X287938Y103123D01*
X285021Y103123D01*
X282193Y105951D01*
X282193Y109949D01*
X285021Y112777D01*
X289019Y112777D01*
X292017Y109779D01*
X292033Y109768D01*
X292045Y109752D01*
X292132Y109696D01*
X292216Y109636D01*
X292235Y109630D01*
X292252Y109619D01*
X292353Y109594D01*
X292451Y109564D01*
X292471Y109564D01*
X292491Y109559D01*
X292594Y109567D01*
X292697Y109570D01*
X292716Y109577D01*
X292736Y109578D01*
X292831Y109619D01*
X292928Y109654D01*
X292944Y109667D01*
X292962Y109675D01*
X293093Y109779D01*
X293208Y109895D01*
X304472Y109895D01*
X305365Y109002D01*
X305365Y96738D01*
X304472Y95845D01*
X293208Y95845D01*
G37*
%LPD*%
%LPC*%
G36*
X383595Y16335D02*
X383595Y16335D01*
X378285Y21645D01*
X378285Y29155D01*
X383595Y34465D01*
X391105Y34465D01*
X396415Y29155D01*
X396415Y21645D01*
X391105Y16335D01*
X383595Y16335D01*
G37*
%LPD*%
%LPC*%
G36*
X410931Y60705D02*
X410931Y60705D01*
X407570Y62097D01*
X404997Y64670D01*
X403605Y68031D01*
X403605Y71669D01*
X404997Y75030D01*
X407570Y77603D01*
X410931Y78995D01*
X414569Y78995D01*
X417930Y77603D01*
X420503Y75030D01*
X421895Y71669D01*
X421895Y68031D01*
X420503Y64670D01*
X417930Y62097D01*
X414569Y60705D01*
X410931Y60705D01*
G37*
%LPD*%
%LPC*%
G36*
X13613Y87821D02*
X13613Y87821D01*
X13613Y96132D01*
X13786Y96779D01*
X14121Y97358D01*
X14523Y97760D01*
X14534Y97776D01*
X14550Y97788D01*
X14606Y97875D01*
X14666Y97959D01*
X14672Y97978D01*
X14683Y97995D01*
X14708Y98096D01*
X14738Y98195D01*
X14738Y98215D01*
X14743Y98234D01*
X14735Y98337D01*
X14732Y98440D01*
X14725Y98459D01*
X14724Y98479D01*
X14683Y98574D01*
X14648Y98671D01*
X14635Y98687D01*
X14627Y98705D01*
X14523Y98836D01*
X14121Y99238D01*
X13786Y99817D01*
X13613Y100464D01*
X13613Y108775D01*
X24131Y108775D01*
X24131Y87821D01*
X13613Y87821D01*
G37*
%LPD*%
%LPC*%
G36*
X27177Y65571D02*
X27177Y65571D01*
X27177Y84775D01*
X37695Y84775D01*
X37695Y76464D01*
X37522Y75817D01*
X37187Y75238D01*
X36714Y74765D01*
X36135Y74430D01*
X35488Y74257D01*
X34626Y74257D01*
X34555Y74246D01*
X34483Y74244D01*
X34434Y74226D01*
X34383Y74218D01*
X34320Y74184D01*
X34252Y74159D01*
X34212Y74127D01*
X34166Y74102D01*
X34116Y74050D01*
X34060Y74006D01*
X34032Y73962D01*
X33996Y73924D01*
X33966Y73859D01*
X33927Y73799D01*
X33914Y73748D01*
X33893Y73701D01*
X33885Y73630D01*
X33867Y73560D01*
X33871Y73508D01*
X33865Y73457D01*
X33881Y73386D01*
X33886Y73315D01*
X33907Y73267D01*
X33918Y73216D01*
X33955Y73155D01*
X33983Y73089D01*
X34027Y73033D01*
X34044Y73005D01*
X34062Y72990D01*
X34087Y72958D01*
X34187Y72858D01*
X34522Y72279D01*
X34695Y71632D01*
X34695Y65571D01*
X27177Y65571D01*
G37*
%LPD*%
%LPC*%
G36*
X13613Y111821D02*
X13613Y111821D01*
X13613Y120132D01*
X13786Y120779D01*
X14121Y121358D01*
X14594Y121831D01*
X15173Y122166D01*
X15820Y122339D01*
X16682Y122339D01*
X16753Y122350D01*
X16825Y122352D01*
X16874Y122370D01*
X16925Y122378D01*
X16988Y122412D01*
X17056Y122437D01*
X17096Y122469D01*
X17142Y122494D01*
X17192Y122546D01*
X17248Y122590D01*
X17276Y122634D01*
X17312Y122672D01*
X17342Y122737D01*
X17381Y122797D01*
X17394Y122848D01*
X17415Y122895D01*
X17423Y122966D01*
X17441Y123036D01*
X17437Y123088D01*
X17443Y123139D01*
X17427Y123210D01*
X17422Y123281D01*
X17401Y123329D01*
X17390Y123380D01*
X17353Y123441D01*
X17325Y123507D01*
X17281Y123563D01*
X17264Y123591D01*
X17246Y123606D01*
X17221Y123638D01*
X17121Y123738D01*
X16786Y124317D01*
X16613Y124964D01*
X16613Y131025D01*
X24131Y131025D01*
X24131Y111821D01*
X13613Y111821D01*
G37*
%LPD*%
%LPC*%
G36*
X16613Y65571D02*
X16613Y65571D01*
X16613Y71632D01*
X16786Y72279D01*
X17121Y72858D01*
X17221Y72958D01*
X17262Y73016D01*
X17312Y73068D01*
X17334Y73115D01*
X17364Y73157D01*
X17385Y73226D01*
X17415Y73291D01*
X17421Y73343D01*
X17437Y73392D01*
X17435Y73464D01*
X17443Y73535D01*
X17431Y73586D01*
X17430Y73638D01*
X17406Y73706D01*
X17390Y73776D01*
X17364Y73821D01*
X17346Y73869D01*
X17301Y73925D01*
X17264Y73987D01*
X17225Y74021D01*
X17192Y74061D01*
X17132Y74100D01*
X17077Y74147D01*
X17029Y74166D01*
X16985Y74194D01*
X16916Y74212D01*
X16849Y74239D01*
X16778Y74247D01*
X16747Y74255D01*
X16723Y74253D01*
X16682Y74257D01*
X15820Y74257D01*
X15173Y74430D01*
X14594Y74765D01*
X14121Y75238D01*
X13786Y75817D01*
X13613Y76464D01*
X13613Y84775D01*
X24131Y84775D01*
X24131Y65571D01*
X16613Y65571D01*
G37*
%LPD*%
%LPC*%
G36*
X51677Y67821D02*
X51677Y67821D01*
X51677Y76839D01*
X57488Y76839D01*
X58135Y76666D01*
X58714Y76331D01*
X59187Y75858D01*
X59522Y75279D01*
X59695Y74632D01*
X59695Y67821D01*
X51677Y67821D01*
G37*
%LPD*%
%LPC*%
G36*
X51677Y55757D02*
X51677Y55757D01*
X51677Y64775D01*
X59695Y64775D01*
X59695Y57964D01*
X59522Y57317D01*
X59187Y56738D01*
X58714Y56265D01*
X58135Y55930D01*
X57488Y55757D01*
X51677Y55757D01*
G37*
%LPD*%
%LPC*%
G36*
X40613Y67821D02*
X40613Y67821D01*
X40613Y74632D01*
X40786Y75279D01*
X41121Y75858D01*
X41594Y76331D01*
X42173Y76666D01*
X42820Y76839D01*
X48631Y76839D01*
X48631Y67821D01*
X40613Y67821D01*
G37*
%LPD*%
%LPC*%
G36*
X40613Y131821D02*
X40613Y131821D01*
X40613Y138632D01*
X40786Y139279D01*
X41121Y139858D01*
X41594Y140331D01*
X42173Y140666D01*
X42820Y140839D01*
X48631Y140839D01*
X48631Y131821D01*
X40613Y131821D01*
G37*
%LPD*%
%LPC*%
G36*
X42820Y119757D02*
X42820Y119757D01*
X42173Y119930D01*
X41594Y120265D01*
X41121Y120738D01*
X40786Y121317D01*
X40613Y121964D01*
X40613Y128775D01*
X48631Y128775D01*
X48631Y119757D01*
X42820Y119757D01*
G37*
%LPD*%
%LPC*%
G36*
X42820Y55757D02*
X42820Y55757D01*
X42173Y55930D01*
X41594Y56265D01*
X41121Y56738D01*
X40786Y57317D01*
X40613Y57964D01*
X40613Y64775D01*
X48631Y64775D01*
X48631Y55757D01*
X42820Y55757D01*
G37*
%LPD*%
%LPC*%
G36*
X189146Y125426D02*
X189146Y125426D01*
X188812Y126005D01*
X188638Y126652D01*
X188638Y127321D01*
X188812Y127967D01*
X189146Y128546D01*
X197498Y136898D01*
X201046Y133350D01*
X191134Y123438D01*
X189146Y125426D01*
G37*
%LPD*%
%LPC*%
G36*
X196502Y118788D02*
X196502Y118788D01*
X195855Y118962D01*
X195276Y119296D01*
X193288Y121284D01*
X203200Y131196D01*
X206748Y127648D01*
X198396Y119296D01*
X197817Y118962D01*
X197171Y118788D01*
X196502Y118788D01*
G37*
%LPD*%
%LPC*%
G36*
X27177Y134071D02*
X27177Y134071D01*
X27177Y142339D01*
X32488Y142339D01*
X33135Y142166D01*
X33714Y141831D01*
X34187Y141358D01*
X34522Y140779D01*
X34695Y140132D01*
X34695Y134071D01*
X27177Y134071D01*
G37*
%LPD*%
%LPC*%
G36*
X27177Y54257D02*
X27177Y54257D01*
X27177Y62525D01*
X34695Y62525D01*
X34695Y56464D01*
X34522Y55817D01*
X34187Y55238D01*
X33714Y54765D01*
X33135Y54430D01*
X32488Y54257D01*
X27177Y54257D01*
G37*
%LPD*%
%LPC*%
G36*
X16613Y134071D02*
X16613Y134071D01*
X16613Y140132D01*
X16786Y140779D01*
X17121Y141358D01*
X17594Y141831D01*
X18173Y142166D01*
X18820Y142339D01*
X24131Y142339D01*
X24131Y134071D01*
X16613Y134071D01*
G37*
%LPD*%
%LPC*%
G36*
X18820Y54257D02*
X18820Y54257D01*
X18173Y54430D01*
X17594Y54765D01*
X17121Y55238D01*
X16786Y55817D01*
X16613Y56464D01*
X16613Y62525D01*
X24131Y62525D01*
X24131Y54257D01*
X18820Y54257D01*
G37*
%LPD*%
%LPC*%
G36*
X377189Y122173D02*
X377189Y122173D01*
X377189Y124859D01*
X383141Y130811D01*
X385827Y130811D01*
X385827Y122173D01*
X377189Y122173D01*
G37*
%LPD*%
%LPC*%
G36*
X383141Y110489D02*
X383141Y110489D01*
X377189Y116441D01*
X377189Y119127D01*
X385827Y119127D01*
X385827Y110489D01*
X383141Y110489D01*
G37*
%LPD*%
%LPC*%
G36*
X363473Y15319D02*
X363473Y15319D01*
X363473Y23877D01*
X372031Y23877D01*
X372031Y21224D01*
X366126Y15319D01*
X363473Y15319D01*
G37*
%LPD*%
%LPC*%
G36*
X312673Y159591D02*
X312673Y159591D01*
X312673Y168149D01*
X321231Y168149D01*
X321231Y165496D01*
X315326Y159591D01*
X312673Y159591D01*
G37*
%LPD*%
%LPC*%
G36*
X306974Y159591D02*
X306974Y159591D01*
X301069Y165496D01*
X301069Y168149D01*
X309627Y168149D01*
X309627Y159591D01*
X306974Y159591D01*
G37*
%LPD*%
%LPC*%
G36*
X268223Y61773D02*
X268223Y61773D01*
X268223Y67791D01*
X274034Y67791D01*
X274681Y67618D01*
X275260Y67283D01*
X275733Y66810D01*
X276068Y66231D01*
X276241Y65584D01*
X276241Y61773D01*
X268223Y61773D01*
G37*
%LPD*%
%LPC*%
G36*
X257159Y61773D02*
X257159Y61773D01*
X257159Y65584D01*
X257332Y66231D01*
X257667Y66810D01*
X258140Y67283D01*
X258719Y67618D01*
X259366Y67791D01*
X265177Y67791D01*
X265177Y61773D01*
X257159Y61773D01*
G37*
%LPD*%
%LPC*%
G36*
X268223Y52709D02*
X268223Y52709D01*
X268223Y58727D01*
X276241Y58727D01*
X276241Y54916D01*
X276068Y54269D01*
X275733Y53690D01*
X275260Y53217D01*
X274681Y52882D01*
X274034Y52709D01*
X268223Y52709D01*
G37*
%LPD*%
%LPC*%
G36*
X45320Y80757D02*
X45320Y80757D01*
X44673Y80930D01*
X44094Y81265D01*
X43621Y81738D01*
X43286Y82317D01*
X43113Y82964D01*
X43113Y84299D01*
X51405Y84299D01*
X51405Y80757D01*
X45320Y80757D01*
G37*
%LPD*%
%LPC*%
G36*
X345573Y65023D02*
X345573Y65023D01*
X345573Y70041D01*
X348384Y70041D01*
X349031Y69868D01*
X349610Y69533D01*
X350083Y69060D01*
X350418Y68481D01*
X350591Y67834D01*
X350591Y65023D01*
X345573Y65023D01*
G37*
%LPD*%
%LPC*%
G36*
X345573Y81027D02*
X345573Y81027D01*
X350591Y81027D01*
X350591Y78216D01*
X350418Y77569D01*
X350083Y76990D01*
X349610Y76517D01*
X349031Y76182D01*
X348384Y76009D01*
X345573Y76009D01*
X345573Y81027D01*
G37*
%LPD*%
%LPC*%
G36*
X345573Y61977D02*
X345573Y61977D01*
X350591Y61977D01*
X350591Y59166D01*
X350418Y58519D01*
X350083Y57940D01*
X349610Y57467D01*
X349031Y57132D01*
X348384Y56959D01*
X345573Y56959D01*
X345573Y61977D01*
G37*
%LPD*%
%LPC*%
G36*
X337509Y65023D02*
X337509Y65023D01*
X337509Y67834D01*
X337682Y68481D01*
X338017Y69060D01*
X338490Y69533D01*
X339069Y69868D01*
X339716Y70041D01*
X342527Y70041D01*
X342527Y65023D01*
X337509Y65023D01*
G37*
%LPD*%
%LPC*%
G36*
X339716Y76009D02*
X339716Y76009D01*
X339069Y76182D01*
X338490Y76517D01*
X338017Y76990D01*
X337682Y77569D01*
X337509Y78216D01*
X337509Y81027D01*
X342527Y81027D01*
X342527Y76009D01*
X339716Y76009D01*
G37*
%LPD*%
%LPC*%
G36*
X339716Y56959D02*
X339716Y56959D01*
X339069Y57132D01*
X338490Y57467D01*
X338017Y57940D01*
X337682Y58519D01*
X337509Y59166D01*
X337509Y61977D01*
X342527Y61977D01*
X342527Y56959D01*
X339716Y56959D01*
G37*
%LPD*%
%LPC*%
G36*
X25653Y132547D02*
X25653Y132547D01*
X25653Y132549D01*
X25655Y132549D01*
X25655Y132547D01*
X25653Y132547D01*
G37*
%LPD*%
%LPC*%
G36*
X50153Y130297D02*
X50153Y130297D01*
X50153Y130299D01*
X50155Y130299D01*
X50155Y130297D01*
X50153Y130297D01*
G37*
%LPD*%
%LPC*%
G36*
X266699Y60249D02*
X266699Y60249D01*
X266699Y60251D01*
X266701Y60251D01*
X266701Y60249D01*
X266699Y60249D01*
G37*
%LPD*%
%LPC*%
G36*
X25653Y64047D02*
X25653Y64047D01*
X25653Y64049D01*
X25655Y64049D01*
X25655Y64047D01*
X25653Y64047D01*
G37*
%LPD*%
%LPC*%
G36*
X25653Y86297D02*
X25653Y86297D01*
X25653Y86299D01*
X25655Y86299D01*
X25655Y86297D01*
X25653Y86297D01*
G37*
%LPD*%
%LPC*%
G36*
X50153Y66297D02*
X50153Y66297D01*
X50153Y66299D01*
X50155Y66299D01*
X50155Y66297D01*
X50153Y66297D01*
G37*
%LPD*%
%LPC*%
G36*
X344049Y63499D02*
X344049Y63499D01*
X344049Y63501D01*
X344051Y63501D01*
X344051Y63499D01*
X344049Y63499D01*
G37*
%LPD*%
D10*
X412750Y69850D03*
D11*
X412750Y95250D03*
X412750Y120650D03*
X387350Y69850D03*
X387350Y95250D03*
X387350Y120650D03*
D12*
X52404Y111298D03*
X52404Y104798D03*
X52404Y98298D03*
X52404Y91798D03*
X52404Y85298D03*
D13*
X50154Y130298D03*
X50154Y66298D03*
D14*
X25654Y64048D03*
X25654Y132548D03*
D15*
X25654Y110298D03*
X25654Y86298D03*
D16*
X344050Y82550D03*
X329050Y82550D03*
D17*
G36*
X186230Y131937D02*
X180573Y137594D01*
X198956Y155977D01*
X204613Y150320D01*
X186230Y131937D01*
G37*
G36*
X196837Y121330D02*
X191180Y126987D01*
X209563Y145370D01*
X215220Y139713D01*
X196837Y121330D01*
G37*
G36*
X207444Y110723D02*
X201787Y116380D01*
X220170Y134763D01*
X225827Y129106D01*
X207444Y110723D01*
G37*
D18*
X315840Y82550D03*
X298840Y82550D03*
X315840Y62230D03*
X298840Y62230D03*
X298840Y102870D03*
X315840Y102870D03*
X298840Y128270D03*
X315840Y128270D03*
D16*
X329050Y127000D03*
X344050Y127000D03*
D19*
X266700Y60250D03*
X266700Y130250D03*
D16*
X329050Y107950D03*
X344050Y107950D03*
D20*
G36*
X120001Y151134D02*
X123414Y154547D01*
X136883Y141078D01*
X133470Y137665D01*
X120001Y151134D01*
G37*
G36*
X114344Y145477D02*
X117757Y148890D01*
X131226Y135421D01*
X127813Y132008D01*
X114344Y145477D01*
G37*
G36*
X108687Y139820D02*
X112100Y143233D01*
X125569Y129764D01*
X122156Y126351D01*
X108687Y139820D01*
G37*
G36*
X103031Y134163D02*
X106444Y137576D01*
X119913Y124107D01*
X116500Y120694D01*
X103031Y134163D01*
G37*
G36*
X97374Y128506D02*
X100787Y131919D01*
X114256Y118450D01*
X110843Y115037D01*
X97374Y128506D01*
G37*
G36*
X91717Y122850D02*
X95130Y126263D01*
X108599Y112794D01*
X105186Y109381D01*
X91717Y122850D01*
G37*
G36*
X86060Y117193D02*
X89473Y120606D01*
X102942Y107137D01*
X99529Y103724D01*
X86060Y117193D01*
G37*
G36*
X80403Y111536D02*
X83816Y114949D01*
X97285Y101480D01*
X93872Y98067D01*
X80403Y111536D01*
G37*
G36*
X157743Y40315D02*
X154330Y36902D01*
X140861Y50371D01*
X144274Y53784D01*
X157743Y40315D01*
G37*
G36*
X146518Y56028D02*
X149931Y59441D01*
X163400Y45972D01*
X159987Y42559D01*
X146518Y56028D01*
G37*
G36*
X152174Y61685D02*
X155587Y65098D01*
X169056Y51629D01*
X165643Y48216D01*
X152174Y61685D01*
G37*
G36*
X157831Y67342D02*
X161244Y70755D01*
X174713Y57286D01*
X171300Y53873D01*
X157831Y67342D01*
G37*
G36*
X163488Y72999D02*
X166901Y76412D01*
X180370Y62943D01*
X176957Y59530D01*
X163488Y72999D01*
G37*
G36*
X169145Y78655D02*
X172558Y82068D01*
X186027Y68599D01*
X182614Y65186D01*
X169145Y78655D01*
G37*
G36*
X174802Y84312D02*
X178215Y87725D01*
X191684Y74256D01*
X188271Y70843D01*
X174802Y84312D01*
G37*
G36*
X180459Y89969D02*
X183872Y93382D01*
X197341Y79913D01*
X193928Y76500D01*
X180459Y89969D01*
G37*
D21*
G36*
X180105Y100773D02*
X193574Y114242D01*
X196987Y110829D01*
X183518Y97360D01*
X180105Y100773D01*
G37*
G36*
X174448Y106430D02*
X187917Y119899D01*
X191330Y116486D01*
X177861Y103017D01*
X174448Y106430D01*
G37*
G36*
X168792Y112086D02*
X182261Y125555D01*
X185674Y122142D01*
X172205Y108673D01*
X168792Y112086D01*
G37*
G36*
X163135Y117743D02*
X176604Y131212D01*
X180017Y127799D01*
X166548Y114330D01*
X163135Y117743D01*
G37*
G36*
X157478Y123400D02*
X170947Y136869D01*
X174360Y133456D01*
X160891Y119987D01*
X157478Y123400D01*
G37*
G36*
X151821Y129057D02*
X165290Y142526D01*
X168703Y139113D01*
X155234Y125644D01*
X151821Y129057D01*
G37*
G36*
X146164Y134714D02*
X159633Y148183D01*
X163046Y144770D01*
X149577Y131301D01*
X146164Y134714D01*
G37*
G36*
X140507Y140371D02*
X153976Y153840D01*
X157389Y150427D01*
X143920Y136958D01*
X140507Y140371D01*
G37*
G36*
X80050Y80620D02*
X93519Y94089D01*
X96932Y90676D01*
X83463Y77207D01*
X80050Y80620D01*
G37*
G36*
X86060Y74610D02*
X99529Y88079D01*
X102942Y84666D01*
X89473Y71197D01*
X86060Y74610D01*
G37*
G36*
X91717Y68953D02*
X105186Y82422D01*
X108599Y79009D01*
X95130Y65540D01*
X91717Y68953D01*
G37*
G36*
X97374Y63296D02*
X110843Y76765D01*
X114256Y73352D01*
X100787Y59883D01*
X97374Y63296D01*
G37*
G36*
X103031Y57639D02*
X116500Y71108D01*
X119913Y67695D01*
X106444Y54226D01*
X103031Y57639D01*
G37*
G36*
X108687Y51982D02*
X122156Y65451D01*
X125569Y62038D01*
X112100Y48569D01*
X108687Y51982D01*
G37*
G36*
X114344Y46326D02*
X127813Y59795D01*
X131226Y56382D01*
X117757Y42913D01*
X114344Y46326D01*
G37*
G36*
X120355Y40315D02*
X133824Y53784D01*
X137237Y50371D01*
X123768Y36902D01*
X120355Y40315D01*
G37*
D16*
X344050Y63500D03*
X329050Y63500D03*
D22*
X387350Y25400D03*
X361950Y25400D03*
X336550Y25400D03*
X311150Y25400D03*
X285750Y25400D03*
X260350Y25400D03*
X234950Y25400D03*
X209550Y25400D03*
X184150Y25400D03*
X158750Y25400D03*
X133350Y25400D03*
X107950Y25400D03*
X82550Y25400D03*
X57150Y25400D03*
X31750Y25400D03*
D23*
X31750Y169672D03*
X57150Y169672D03*
X82550Y169672D03*
X107950Y169672D03*
X133350Y169672D03*
X158750Y169672D03*
X184150Y169672D03*
X209550Y169672D03*
X234950Y169672D03*
X260350Y169672D03*
X285750Y169672D03*
X311150Y169672D03*
X336550Y169672D03*
X361950Y169672D03*
X387350Y169672D03*
D24*
X155950Y152400D02*
X148948Y145399D01*
X155950Y152400D02*
X192147Y152400D01*
X198010Y158263D01*
X199904Y158263D01*
X217507Y138093D02*
X222250Y133350D01*
X217507Y138093D02*
X217507Y140661D01*
X199904Y158263D01*
X222250Y133350D02*
X222250Y131187D01*
X213807Y122743D01*
X160913Y146050D02*
X154605Y139742D01*
X190500Y146050D02*
X192593Y143957D01*
X190500Y146050D02*
X160913Y146050D01*
D25*
X33020Y40640D03*
X38100Y63500D03*
X17780Y160020D03*
X154940Y111760D03*
X134196Y78599D03*
X368300Y76200D03*
X368300Y63500D03*
X355600Y63500D03*
X266700Y76200D03*
X295910Y13970D03*
X275590Y13970D03*
X332740Y53340D03*
X231140Y41910D03*
X245110Y52070D03*
X251460Y45720D03*
X335280Y138430D03*
X311150Y114300D03*
X300990Y115570D03*
X372110Y148844D03*
X366014Y143002D03*
X394716Y40132D03*
X394716Y48260D03*
X403352Y48514D03*
X411988Y48768D03*
X403606Y40132D03*
X415544Y28194D03*
X415544Y19812D03*
X407162Y19812D03*
X347218Y36322D03*
X353568Y42926D03*
X371856Y40386D03*
X379476Y37084D03*
X379476Y45212D03*
X373634Y119126D03*
X324866Y41402D03*
X316484Y41402D03*
X307848Y41402D03*
X279654Y152908D03*
D24*
X317110Y63500D02*
X329050Y63500D01*
X317110Y63500D02*
X315840Y62230D01*
X323970Y102870D02*
X329050Y107950D01*
X323970Y102870D02*
X315840Y102870D01*
X317110Y127000D02*
X329050Y127000D01*
X317110Y127000D02*
X315840Y128270D01*
D26*
X298840Y102870D02*
X292100Y102870D01*
X287020Y107950D01*
D25*
X287020Y107950D03*
D26*
X295910Y128270D02*
X298840Y128270D01*
X295910Y128270D02*
X287020Y119380D01*
D25*
X287020Y119380D03*
D26*
X180210Y59690D02*
X171929Y67971D01*
X248666Y112216D02*
X266700Y130250D01*
X248666Y112216D02*
X248666Y68377D01*
X243789Y63500D01*
X239979Y59690D01*
X208280Y59690D02*
X180210Y59690D01*
X208280Y59690D02*
X239979Y59690D01*
X243789Y63500D02*
X259029Y48260D01*
X327660Y48260D01*
X336550Y39370D01*
X336550Y25400D01*
X266700Y130250D02*
X272822Y136372D01*
X277420Y140970D01*
X312420Y140970D02*
X335280Y163830D01*
X330708Y163830D02*
X336550Y169672D01*
X312420Y140970D02*
X277420Y140970D01*
X407670Y125730D02*
X412750Y120650D01*
X407670Y125730D02*
X407670Y138430D01*
X391080Y155020D01*
X348965Y163830D02*
X335280Y163830D01*
X330708Y163830D01*
X348965Y163830D02*
X357775Y155020D01*
X391080Y155020D01*
D25*
X208280Y58928D03*
D24*
X208280Y59690D01*
D25*
X267754Y139245D03*
D24*
X269949Y139245D01*
X272822Y136372D01*
D26*
X186443Y64770D02*
X177586Y73627D01*
X240030Y64770D02*
X245110Y69850D01*
X245110Y91440D01*
X240030Y96520D01*
D25*
X240030Y96520D03*
D26*
X240030Y64770D02*
X186443Y64770D01*
X191407Y71120D02*
X183243Y79284D01*
X229870Y71120D02*
X234950Y76200D01*
D25*
X234950Y76200D03*
D26*
X229870Y71120D02*
X191407Y71120D01*
D24*
X315840Y82550D02*
X329050Y82550D01*
D26*
X301748Y82550D02*
X298840Y82550D01*
X301748Y82550D02*
X309788Y90590D01*
X344170Y90590D01*
X366610Y90590D01*
X387350Y69850D01*
X344170Y90590D02*
X344170Y107830D01*
X344050Y107950D01*
X344050Y127000D01*
D25*
X398780Y137160D03*
D27*
X398780Y86309D01*
X393700Y81229D01*
X393700Y76200D02*
X387350Y69850D01*
X393700Y76200D02*
X393700Y81229D01*
D25*
X106680Y91440D03*
D27*
X94878Y79638D01*
X94501Y79638D01*
X106680Y91440D02*
X142240Y127000D01*
X153177Y127000D02*
X160262Y134085D01*
X149860Y127000D02*
X142240Y127000D01*
X149860Y127000D02*
X153177Y127000D01*
X163104Y114300D02*
X171576Y122771D01*
X163104Y114300D02*
X162560Y114300D01*
X149860Y127000D01*
D25*
X238760Y107827D03*
X269240Y147320D03*
D27*
X256906Y125973D02*
X238760Y107827D01*
X256906Y125973D02*
X256906Y137272D01*
X266954Y147320D01*
X269240Y147320D01*
D25*
X308643Y72423D03*
D27*
X298840Y82225D01*
X298840Y82550D01*
D25*
X305409Y147320D03*
D27*
X309788Y90590D02*
X282536Y90590D01*
X265430Y107696D01*
D25*
X265430Y107696D03*
D27*
X303885Y145796D02*
X305409Y147320D01*
X303885Y145796D02*
X271018Y145796D01*
X269240Y147320D01*
D25*
X64262Y122428D03*
X70104Y115824D03*
X69850Y107442D03*
D24*
X62842Y104798D02*
X52404Y104798D01*
X62842Y104798D02*
X74930Y92710D01*
D25*
X74930Y92710D03*
X65456Y89332D03*
D24*
X65456Y92358D01*
X59516Y98298D01*
X52404Y98298D01*
X160615Y56657D02*
X182046Y35226D01*
X188220Y35226D01*
X198046Y25400D02*
X209550Y25400D01*
X198046Y25400D02*
X188220Y35226D01*
D25*
X109802Y148963D03*
D24*
X114271Y148963D01*
X122785Y140449D01*
X166272Y60632D02*
X188711Y38193D01*
X166272Y60632D02*
X166272Y62314D01*
X222157Y38193D02*
X234950Y25400D01*
X222157Y38193D02*
X188711Y38193D01*
X180559Y25400D02*
X154959Y51000D01*
X180559Y25400D02*
X184150Y25400D01*
X149302Y34848D02*
X149302Y45343D01*
X149302Y34848D02*
X158750Y25400D01*
X128796Y29954D02*
X128796Y45343D01*
X128796Y29954D02*
X133350Y25400D01*
X107950Y36518D02*
X122785Y51354D01*
X107950Y36518D02*
X107950Y25400D01*
D25*
X149860Y78740D03*
D24*
X142240Y78740D01*
X129540Y66040D01*
X126158Y66040D02*
X117128Y57010D01*
X126158Y66040D02*
X129540Y66040D01*
X109997Y83820D02*
X100158Y73981D01*
X109997Y83820D02*
X114300Y83820D01*
D25*
X114300Y83820D03*
D24*
X100158Y117822D02*
X82550Y135429D01*
X82550Y169672D01*
X88044Y141249D02*
X105815Y123478D01*
X88044Y152335D02*
X105381Y169672D01*
X107950Y169672D01*
X88044Y152335D02*
X88044Y141249D01*
X95250Y145357D02*
X111472Y129135D01*
D25*
X95250Y151638D03*
D24*
X95250Y145357D01*
X116717Y134792D02*
X116840Y134792D01*
X117128Y134792D01*
X122466Y156833D02*
X124360Y156833D01*
X107487Y154551D02*
X104214Y151278D01*
X104214Y146649D01*
X107487Y143375D01*
X144526Y155448D02*
X158750Y169672D01*
X144526Y155448D02*
X139925Y155448D01*
X139751Y155274D01*
X125919Y155274D01*
X124360Y156833D01*
X108257Y143375D02*
X107487Y143375D01*
X108257Y143375D02*
X116840Y134792D01*
X120184Y154551D02*
X122466Y156833D01*
X120184Y154551D02*
X107487Y154551D01*
X128442Y146106D02*
X132196Y149860D01*
X142240Y149860D01*
D25*
X142240Y149860D03*
X172720Y96520D03*
D24*
X179265Y96520D02*
X188546Y105801D01*
X179265Y96520D02*
X172720Y96520D01*
X234950Y168090D02*
X234950Y169672D01*
D25*
X163632Y99088D03*
D24*
X174020Y102588D02*
X182889Y111458D01*
X174020Y102588D02*
X170207Y102588D01*
X166707Y99088D01*
X163632Y99088D01*
D25*
X40640Y106680D03*
D24*
X44958Y110998D02*
X45500Y110998D01*
X44958Y110998D02*
X40640Y106680D01*
X45800Y111298D02*
X52404Y111298D01*
X45800Y111298D02*
X45500Y110998D01*
X57150Y149516D02*
X94501Y112165D01*
X57150Y149516D02*
X57150Y169672D01*
D25*
X115570Y109220D03*
D24*
X99169Y112165D02*
X94501Y112165D01*
X99169Y112165D02*
X104240Y107094D01*
X106134Y107094D01*
X108260Y109220D01*
X115570Y109220D01*
D25*
X130810Y100330D03*
D24*
X130810Y97790D01*
X143510Y85090D01*
D25*
X143510Y85090D03*
X191986Y96774D03*
X247926Y144250D03*
D24*
X203649Y108437D02*
X191986Y96774D01*
X203649Y108437D02*
X208390Y108437D01*
X244203Y144250D02*
X247926Y144250D01*
X244203Y144250D02*
X208390Y108437D01*
D25*
X277703Y122428D03*
D24*
X281487Y122428D01*
X284507Y125448D01*
X291554Y134717D02*
X292893Y136056D01*
X304787Y136056D01*
X308554Y121823D02*
X309893Y120484D01*
X337764Y131947D02*
X339103Y133286D01*
X337764Y131947D02*
X337764Y124481D01*
X285751Y125448D02*
X284507Y125448D01*
X285751Y125448D02*
X291554Y131251D01*
X291554Y134717D01*
X304787Y136056D02*
X308554Y132289D01*
X308554Y121823D01*
X309893Y120484D02*
X333767Y120484D01*
X337764Y124481D01*
X339103Y133286D02*
X349314Y133286D01*
X387350Y95250D01*
X88844Y112578D02*
X31750Y169672D01*
X88844Y112578D02*
X88844Y106508D01*
D25*
X403860Y172720D03*
D24*
X43000Y169672D02*
X31750Y169672D01*
X396754Y179752D02*
X403786Y172720D01*
X403860Y172720D01*
X53080Y179752D02*
X43000Y169672D01*
X53080Y179752D02*
X396754Y179752D01*
X52964Y46614D02*
X31750Y25400D01*
X52964Y46614D02*
X57847Y46614D01*
X76200Y64967D01*
X76200Y76200D01*
X85648Y85648D01*
X88491Y85648D01*
X61220Y35226D02*
X53080Y35226D01*
X72724Y21330D02*
X78480Y15574D01*
X250524Y29470D02*
X256280Y35226D01*
X326724Y21330D02*
X332480Y15574D01*
X340620Y15574D01*
X346376Y21330D01*
X391453Y59944D02*
X397256Y65747D01*
X43254Y25400D02*
X31750Y25400D01*
X72724Y23722D02*
X72724Y21330D01*
X250524Y27078D02*
X250524Y29470D01*
X326724Y23722D02*
X326724Y21330D01*
X397256Y79756D02*
X412750Y95250D01*
X53080Y35226D02*
X43254Y25400D01*
X61220Y35226D02*
X72724Y23722D01*
X239020Y15574D02*
X250524Y27078D01*
X315220Y35226D02*
X326724Y23722D01*
X397256Y65747D02*
X397256Y79756D01*
X346376Y23722D02*
X346376Y21330D01*
X346376Y23722D02*
X382598Y59944D01*
X391453Y59944D01*
X239020Y15574D02*
X78480Y15574D01*
X256280Y35226D02*
X315220Y35226D01*
D25*
X284480Y55626D03*
D24*
X291084Y62230D01*
X298840Y62230D01*
X196774Y84941D02*
X188900Y84941D01*
X196774Y84941D02*
X276425Y164592D01*
X280670Y164592D01*
X285750Y169672D01*
X105815Y68324D02*
X82550Y45059D01*
X82550Y25400D01*
X83159Y44450D02*
X82550Y45059D01*
X83159Y44450D02*
X99060Y44450D01*
D25*
X99060Y44450D03*
M02*
