G04 EAGLE Gerber RS-274X export*
G75*
%MOMM*%
%FSLAX34Y34*%
%LPD*%
%INBottom Copper*%
%IPPOS*%
%AMOC8*
5,1,8,0,0,1.08239X$1,22.5*%
G01*
%ADD10R,1.600000X1.800000*%
%ADD11R,1.100000X1.000000*%
%ADD12R,0.348000X1.397000*%
%ADD13C,1.524000*%
%ADD14P,1.649562X8X112.500000*%
%ADD15R,1.000000X1.100000*%
%ADD16R,1.400000X1.400000*%
%ADD17R,1.460500X0.838200*%
%ADD18R,1.460500X3.098800*%
%ADD19P,1.632244X8X202.500000*%
%ADD20P,1.632244X8X22.500000*%
%ADD21C,0.609600*%
%ADD22C,0.660400*%
%ADD23C,0.406400*%
%ADD24C,0.152400*%
%ADD25C,0.203200*%
%ADD26C,0.254000*%
%ADD27C,0.508000*%
%ADD28C,0.304800*%

G36*
X423238Y10164D02*
X423238Y10164D01*
X423257Y10162D01*
X423359Y10184D01*
X423461Y10200D01*
X423478Y10210D01*
X423498Y10214D01*
X423587Y10267D01*
X423678Y10316D01*
X423692Y10330D01*
X423709Y10340D01*
X423776Y10419D01*
X423848Y10494D01*
X423856Y10512D01*
X423869Y10527D01*
X423908Y10623D01*
X423951Y10717D01*
X423953Y10737D01*
X423961Y10755D01*
X423979Y10922D01*
X423979Y43061D01*
X423968Y43132D01*
X423966Y43204D01*
X423948Y43253D01*
X423940Y43304D01*
X423906Y43368D01*
X423881Y43435D01*
X423849Y43476D01*
X423824Y43522D01*
X423772Y43571D01*
X423728Y43627D01*
X423684Y43655D01*
X423646Y43691D01*
X423581Y43721D01*
X423521Y43760D01*
X423470Y43773D01*
X423423Y43795D01*
X423352Y43803D01*
X423282Y43820D01*
X423230Y43816D01*
X423179Y43822D01*
X423108Y43806D01*
X423037Y43801D01*
X422989Y43781D01*
X422938Y43769D01*
X422877Y43733D01*
X422811Y43705D01*
X422755Y43660D01*
X422727Y43643D01*
X422712Y43625D01*
X422680Y43600D01*
X392367Y13287D01*
X382333Y13287D01*
X376800Y18820D01*
X375237Y20383D01*
X375237Y22460D01*
X375223Y22550D01*
X375215Y22641D01*
X375203Y22670D01*
X375198Y22702D01*
X375155Y22783D01*
X375119Y22867D01*
X375093Y22899D01*
X375082Y22920D01*
X375059Y22942D01*
X375014Y22998D01*
X373330Y24682D01*
X373272Y24724D01*
X373220Y24773D01*
X373173Y24795D01*
X373131Y24825D01*
X373062Y24847D01*
X372997Y24877D01*
X372945Y24882D01*
X372895Y24898D01*
X372824Y24896D01*
X372753Y24904D01*
X372702Y24893D01*
X372650Y24891D01*
X372582Y24867D01*
X372512Y24852D01*
X372467Y24825D01*
X372419Y24807D01*
X372363Y24762D01*
X372301Y24725D01*
X372267Y24686D01*
X372227Y24653D01*
X372188Y24593D01*
X372141Y24538D01*
X372122Y24490D01*
X372094Y24446D01*
X372076Y24377D01*
X372049Y24310D01*
X372041Y24239D01*
X372033Y24208D01*
X372035Y24185D01*
X372031Y24144D01*
X372031Y21224D01*
X366126Y15319D01*
X363473Y15319D01*
X363473Y24638D01*
X363471Y24652D01*
X363472Y24664D01*
X363471Y24668D01*
X363472Y24677D01*
X363450Y24779D01*
X363433Y24881D01*
X363424Y24898D01*
X363420Y24918D01*
X363367Y25007D01*
X363318Y25098D01*
X363304Y25112D01*
X363294Y25129D01*
X363215Y25196D01*
X363140Y25267D01*
X363122Y25276D01*
X363107Y25289D01*
X363011Y25327D01*
X362917Y25371D01*
X362897Y25373D01*
X362879Y25381D01*
X362712Y25399D01*
X361188Y25399D01*
X361168Y25396D01*
X361149Y25398D01*
X361047Y25376D01*
X360945Y25359D01*
X360928Y25350D01*
X360908Y25346D01*
X360819Y25293D01*
X360728Y25244D01*
X360714Y25230D01*
X360697Y25220D01*
X360630Y25141D01*
X360559Y25066D01*
X360550Y25048D01*
X360537Y25033D01*
X360498Y24937D01*
X360455Y24843D01*
X360453Y24823D01*
X360445Y24805D01*
X360427Y24638D01*
X360427Y15319D01*
X357774Y15319D01*
X351869Y21224D01*
X351869Y24144D01*
X351858Y24214D01*
X351856Y24286D01*
X351838Y24335D01*
X351829Y24386D01*
X351796Y24450D01*
X351771Y24517D01*
X351739Y24558D01*
X351714Y24604D01*
X351662Y24653D01*
X351618Y24709D01*
X351574Y24737D01*
X351536Y24773D01*
X351471Y24803D01*
X351411Y24842D01*
X351360Y24855D01*
X351313Y24877D01*
X351242Y24885D01*
X351172Y24902D01*
X351120Y24898D01*
X351069Y24904D01*
X350998Y24889D01*
X350927Y24883D01*
X350879Y24863D01*
X350828Y24852D01*
X350767Y24815D01*
X350701Y24787D01*
X350645Y24742D01*
X350617Y24725D01*
X350602Y24708D01*
X350570Y24682D01*
X348886Y22998D01*
X348833Y22924D01*
X348773Y22854D01*
X348761Y22824D01*
X348742Y22798D01*
X348715Y22711D01*
X348681Y22626D01*
X348677Y22585D01*
X348670Y22563D01*
X348671Y22531D01*
X348663Y22460D01*
X348663Y20383D01*
X347100Y18820D01*
X343130Y14850D01*
X341567Y13287D01*
X306133Y13287D01*
X304570Y14850D01*
X300600Y18820D01*
X299037Y20383D01*
X299037Y22460D01*
X299023Y22550D01*
X299015Y22641D01*
X299003Y22670D01*
X298998Y22702D01*
X298955Y22783D01*
X298919Y22867D01*
X298893Y22899D01*
X298882Y22920D01*
X298859Y22942D01*
X298814Y22998D01*
X296114Y25698D01*
X296056Y25740D01*
X296004Y25789D01*
X295957Y25811D01*
X295915Y25841D01*
X295846Y25863D01*
X295781Y25893D01*
X295729Y25898D01*
X295679Y25914D01*
X295608Y25912D01*
X295537Y25920D01*
X295486Y25909D01*
X295434Y25907D01*
X295366Y25883D01*
X295296Y25868D01*
X295251Y25841D01*
X295203Y25823D01*
X295147Y25778D01*
X295085Y25741D01*
X295051Y25702D01*
X295011Y25669D01*
X294972Y25609D01*
X294925Y25554D01*
X294906Y25506D01*
X294878Y25462D01*
X294860Y25393D01*
X294833Y25326D01*
X294825Y25255D01*
X294817Y25224D01*
X294819Y25201D01*
X294815Y25160D01*
X294815Y21645D01*
X289505Y16335D01*
X281995Y16335D01*
X276685Y21645D01*
X276685Y29155D01*
X277185Y29654D01*
X277197Y29671D01*
X277212Y29683D01*
X277268Y29770D01*
X277329Y29854D01*
X277334Y29873D01*
X277345Y29890D01*
X277371Y29990D01*
X277401Y30089D01*
X277400Y30109D01*
X277405Y30129D01*
X277397Y30232D01*
X277395Y30335D01*
X277388Y30354D01*
X277386Y30374D01*
X277346Y30469D01*
X277310Y30566D01*
X277298Y30582D01*
X277290Y30600D01*
X277185Y30731D01*
X271992Y35924D01*
X271918Y35977D01*
X271848Y36037D01*
X271818Y36049D01*
X271792Y36068D01*
X271705Y36095D01*
X271620Y36129D01*
X271579Y36133D01*
X271557Y36140D01*
X271525Y36139D01*
X271453Y36147D01*
X244946Y36147D01*
X224566Y56527D01*
X224508Y56569D01*
X224456Y56618D01*
X224409Y56640D01*
X224367Y56670D01*
X224298Y56692D01*
X224233Y56722D01*
X224181Y56728D01*
X224131Y56743D01*
X224060Y56741D01*
X223989Y56749D01*
X223938Y56738D01*
X223886Y56736D01*
X223818Y56712D01*
X223748Y56697D01*
X223703Y56670D01*
X223655Y56652D01*
X223599Y56607D01*
X223537Y56570D01*
X223503Y56531D01*
X223463Y56498D01*
X223424Y56438D01*
X223377Y56384D01*
X223358Y56335D01*
X223330Y56291D01*
X223312Y56222D01*
X223285Y56155D01*
X223277Y56084D01*
X223269Y56053D01*
X223271Y56030D01*
X223267Y55989D01*
X223267Y42233D01*
X221927Y40893D01*
X221615Y40893D01*
X221525Y40879D01*
X221434Y40871D01*
X221405Y40859D01*
X221373Y40854D01*
X221292Y40811D01*
X221208Y40775D01*
X221176Y40749D01*
X221155Y40738D01*
X221133Y40715D01*
X221077Y40670D01*
X220657Y40250D01*
X219219Y38812D01*
X219177Y38754D01*
X219128Y38702D01*
X219106Y38655D01*
X219076Y38613D01*
X219054Y38544D01*
X219024Y38479D01*
X219018Y38427D01*
X219003Y38377D01*
X219005Y38306D01*
X218997Y38235D01*
X219008Y38184D01*
X219010Y38132D01*
X219034Y38064D01*
X219049Y37994D01*
X219076Y37949D01*
X219094Y37901D01*
X219139Y37845D01*
X219176Y37783D01*
X219215Y37749D01*
X219248Y37709D01*
X219308Y37670D01*
X219362Y37623D01*
X219411Y37604D01*
X219455Y37576D01*
X219524Y37558D01*
X219591Y37531D01*
X219662Y37523D01*
X219693Y37515D01*
X219716Y37517D01*
X219757Y37513D01*
X239967Y37513D01*
X241530Y35950D01*
X249570Y27910D01*
X249644Y27857D01*
X249714Y27797D01*
X249744Y27785D01*
X249770Y27766D01*
X249857Y27739D01*
X249942Y27705D01*
X249983Y27701D01*
X250005Y27694D01*
X250037Y27695D01*
X250109Y27687D01*
X250524Y27687D01*
X250544Y27690D01*
X250563Y27688D01*
X250665Y27710D01*
X250767Y27726D01*
X250784Y27736D01*
X250804Y27740D01*
X250893Y27793D01*
X250984Y27842D01*
X250998Y27856D01*
X251015Y27866D01*
X251082Y27945D01*
X251154Y28020D01*
X251162Y28038D01*
X251175Y28053D01*
X251214Y28149D01*
X251257Y28243D01*
X251259Y28263D01*
X251267Y28281D01*
X251285Y28448D01*
X251285Y29155D01*
X256595Y34465D01*
X264105Y34465D01*
X269415Y29155D01*
X269415Y21645D01*
X264105Y16335D01*
X256595Y16335D01*
X251285Y21645D01*
X251285Y22352D01*
X251283Y22367D01*
X251284Y22380D01*
X251283Y22384D01*
X251284Y22391D01*
X251262Y22493D01*
X251246Y22595D01*
X251236Y22612D01*
X251232Y22632D01*
X251179Y22721D01*
X251130Y22812D01*
X251116Y22826D01*
X251106Y22843D01*
X251027Y22910D01*
X250952Y22982D01*
X250934Y22990D01*
X250919Y23003D01*
X250823Y23042D01*
X250729Y23085D01*
X250709Y23087D01*
X250691Y23095D01*
X250524Y23113D01*
X247899Y23113D01*
X245314Y25698D01*
X245256Y25740D01*
X245204Y25789D01*
X245157Y25811D01*
X245115Y25841D01*
X245046Y25863D01*
X244981Y25893D01*
X244929Y25898D01*
X244879Y25914D01*
X244808Y25912D01*
X244737Y25920D01*
X244686Y25909D01*
X244634Y25907D01*
X244566Y25883D01*
X244496Y25868D01*
X244451Y25841D01*
X244403Y25823D01*
X244347Y25778D01*
X244285Y25741D01*
X244251Y25702D01*
X244211Y25669D01*
X244172Y25609D01*
X244125Y25554D01*
X244106Y25506D01*
X244078Y25462D01*
X244060Y25393D01*
X244033Y25326D01*
X244025Y25255D01*
X244017Y25224D01*
X244019Y25201D01*
X244015Y25160D01*
X244015Y21645D01*
X238705Y16335D01*
X231195Y16335D01*
X225885Y21645D01*
X225885Y29155D01*
X228370Y31640D01*
X228412Y31698D01*
X228462Y31750D01*
X228483Y31797D01*
X228514Y31839D01*
X228535Y31908D01*
X228565Y31973D01*
X228571Y32025D01*
X228586Y32075D01*
X228584Y32146D01*
X228592Y32217D01*
X228581Y32268D01*
X228580Y32320D01*
X228555Y32388D01*
X228540Y32458D01*
X228513Y32503D01*
X228495Y32551D01*
X228451Y32607D01*
X228414Y32669D01*
X228374Y32703D01*
X228342Y32743D01*
X228281Y32782D01*
X228227Y32829D01*
X228179Y32848D01*
X228135Y32876D01*
X228065Y32894D01*
X227999Y32921D01*
X227927Y32929D01*
X227896Y32937D01*
X227873Y32935D01*
X227832Y32939D01*
X216668Y32939D01*
X216597Y32928D01*
X216526Y32926D01*
X216477Y32908D01*
X216425Y32900D01*
X216362Y32866D01*
X216295Y32841D01*
X216254Y32809D01*
X216208Y32784D01*
X216159Y32732D01*
X216103Y32688D01*
X216074Y32644D01*
X216038Y32606D01*
X216008Y32541D01*
X215970Y32481D01*
X215957Y32430D01*
X215935Y32383D01*
X215927Y32312D01*
X215909Y32242D01*
X215914Y32190D01*
X215908Y32139D01*
X215923Y32068D01*
X215929Y31997D01*
X215949Y31949D01*
X215960Y31898D01*
X215997Y31837D01*
X216025Y31771D01*
X216070Y31715D01*
X216086Y31687D01*
X216104Y31672D01*
X216130Y31640D01*
X218615Y29155D01*
X218615Y21645D01*
X213305Y16335D01*
X205795Y16335D01*
X200485Y21645D01*
X200485Y29155D01*
X202970Y31640D01*
X203012Y31698D01*
X203062Y31750D01*
X203083Y31797D01*
X203114Y31839D01*
X203135Y31908D01*
X203165Y31973D01*
X203171Y32025D01*
X203186Y32075D01*
X203184Y32146D01*
X203192Y32217D01*
X203181Y32268D01*
X203180Y32320D01*
X203155Y32388D01*
X203140Y32458D01*
X203113Y32503D01*
X203095Y32551D01*
X203051Y32607D01*
X203014Y32669D01*
X202974Y32703D01*
X202942Y32743D01*
X202881Y32782D01*
X202827Y32829D01*
X202779Y32848D01*
X202735Y32876D01*
X202665Y32894D01*
X202599Y32921D01*
X202527Y32929D01*
X202496Y32937D01*
X202473Y32935D01*
X202432Y32939D01*
X191268Y32939D01*
X191197Y32928D01*
X191126Y32926D01*
X191077Y32908D01*
X191025Y32900D01*
X190962Y32866D01*
X190895Y32841D01*
X190854Y32809D01*
X190808Y32784D01*
X190759Y32732D01*
X190703Y32688D01*
X190674Y32644D01*
X190638Y32606D01*
X190608Y32541D01*
X190570Y32481D01*
X190557Y32430D01*
X190535Y32383D01*
X190527Y32312D01*
X190509Y32242D01*
X190514Y32190D01*
X190508Y32139D01*
X190523Y32068D01*
X190529Y31997D01*
X190549Y31949D01*
X190560Y31898D01*
X190597Y31837D01*
X190625Y31771D01*
X190670Y31715D01*
X190686Y31687D01*
X190704Y31672D01*
X190730Y31640D01*
X193215Y29155D01*
X193215Y21645D01*
X187905Y16335D01*
X180395Y16335D01*
X175085Y21645D01*
X175085Y29155D01*
X177570Y31640D01*
X177612Y31698D01*
X177662Y31750D01*
X177683Y31797D01*
X177714Y31839D01*
X177735Y31908D01*
X177765Y31973D01*
X177771Y32025D01*
X177786Y32075D01*
X177784Y32146D01*
X177792Y32217D01*
X177781Y32268D01*
X177780Y32320D01*
X177755Y32388D01*
X177740Y32458D01*
X177713Y32503D01*
X177695Y32551D01*
X177651Y32607D01*
X177614Y32669D01*
X177574Y32703D01*
X177542Y32743D01*
X177481Y32782D01*
X177427Y32829D01*
X177379Y32848D01*
X177335Y32876D01*
X177265Y32894D01*
X177199Y32921D01*
X177127Y32929D01*
X177096Y32937D01*
X177073Y32935D01*
X177032Y32939D01*
X165868Y32939D01*
X165797Y32928D01*
X165726Y32926D01*
X165677Y32908D01*
X165625Y32900D01*
X165562Y32866D01*
X165495Y32841D01*
X165454Y32809D01*
X165408Y32784D01*
X165359Y32732D01*
X165303Y32688D01*
X165274Y32644D01*
X165238Y32606D01*
X165208Y32541D01*
X165170Y32481D01*
X165157Y32430D01*
X165135Y32383D01*
X165127Y32312D01*
X165109Y32242D01*
X165114Y32190D01*
X165108Y32139D01*
X165123Y32068D01*
X165129Y31997D01*
X165149Y31949D01*
X165160Y31898D01*
X165197Y31837D01*
X165225Y31771D01*
X165270Y31715D01*
X165286Y31687D01*
X165304Y31672D01*
X165330Y31640D01*
X167815Y29155D01*
X167815Y21645D01*
X162505Y16335D01*
X154995Y16335D01*
X149685Y21645D01*
X149685Y29155D01*
X152170Y31640D01*
X152212Y31698D01*
X152262Y31750D01*
X152283Y31797D01*
X152314Y31839D01*
X152335Y31908D01*
X152365Y31973D01*
X152371Y32025D01*
X152386Y32075D01*
X152384Y32146D01*
X152392Y32217D01*
X152381Y32268D01*
X152380Y32320D01*
X152355Y32388D01*
X152340Y32458D01*
X152313Y32503D01*
X152295Y32551D01*
X152251Y32607D01*
X152214Y32669D01*
X152174Y32703D01*
X152142Y32743D01*
X152081Y32782D01*
X152027Y32829D01*
X151979Y32848D01*
X151935Y32876D01*
X151865Y32894D01*
X151799Y32921D01*
X151727Y32929D01*
X151696Y32937D01*
X151673Y32935D01*
X151632Y32939D01*
X140468Y32939D01*
X140397Y32928D01*
X140326Y32926D01*
X140277Y32908D01*
X140225Y32900D01*
X140162Y32866D01*
X140095Y32841D01*
X140054Y32809D01*
X140008Y32784D01*
X139959Y32732D01*
X139903Y32688D01*
X139874Y32644D01*
X139838Y32606D01*
X139808Y32541D01*
X139770Y32481D01*
X139757Y32430D01*
X139735Y32383D01*
X139727Y32312D01*
X139709Y32242D01*
X139714Y32190D01*
X139708Y32139D01*
X139723Y32068D01*
X139729Y31997D01*
X139749Y31949D01*
X139760Y31898D01*
X139797Y31837D01*
X139825Y31771D01*
X139870Y31715D01*
X139886Y31687D01*
X139904Y31672D01*
X139930Y31640D01*
X142415Y29155D01*
X142415Y21645D01*
X137105Y16335D01*
X129595Y16335D01*
X124285Y21645D01*
X124285Y29155D01*
X126770Y31640D01*
X126812Y31698D01*
X126862Y31750D01*
X126883Y31797D01*
X126914Y31839D01*
X126935Y31908D01*
X126965Y31973D01*
X126971Y32025D01*
X126986Y32075D01*
X126984Y32146D01*
X126992Y32217D01*
X126981Y32268D01*
X126980Y32320D01*
X126955Y32388D01*
X126940Y32458D01*
X126913Y32503D01*
X126895Y32551D01*
X126851Y32607D01*
X126814Y32669D01*
X126774Y32703D01*
X126742Y32743D01*
X126681Y32782D01*
X126627Y32829D01*
X126579Y32848D01*
X126535Y32876D01*
X126465Y32894D01*
X126399Y32921D01*
X126327Y32929D01*
X126296Y32937D01*
X126273Y32935D01*
X126232Y32939D01*
X115068Y32939D01*
X114997Y32928D01*
X114926Y32926D01*
X114877Y32908D01*
X114825Y32900D01*
X114762Y32866D01*
X114695Y32841D01*
X114654Y32809D01*
X114608Y32784D01*
X114559Y32732D01*
X114503Y32688D01*
X114474Y32644D01*
X114438Y32606D01*
X114408Y32541D01*
X114370Y32481D01*
X114357Y32430D01*
X114335Y32383D01*
X114327Y32312D01*
X114309Y32242D01*
X114314Y32190D01*
X114308Y32139D01*
X114323Y32068D01*
X114329Y31997D01*
X114349Y31949D01*
X114360Y31898D01*
X114397Y31837D01*
X114425Y31771D01*
X114470Y31715D01*
X114486Y31687D01*
X114504Y31672D01*
X114530Y31640D01*
X117015Y29155D01*
X117015Y21645D01*
X111705Y16335D01*
X104195Y16335D01*
X98885Y21645D01*
X98885Y29155D01*
X101370Y31640D01*
X101412Y31698D01*
X101462Y31750D01*
X101483Y31797D01*
X101514Y31839D01*
X101535Y31908D01*
X101565Y31973D01*
X101571Y32025D01*
X101586Y32075D01*
X101584Y32146D01*
X101592Y32217D01*
X101581Y32268D01*
X101580Y32320D01*
X101555Y32388D01*
X101540Y32458D01*
X101513Y32503D01*
X101495Y32551D01*
X101451Y32607D01*
X101414Y32669D01*
X101374Y32703D01*
X101342Y32743D01*
X101281Y32782D01*
X101227Y32829D01*
X101179Y32848D01*
X101135Y32876D01*
X101065Y32894D01*
X100999Y32921D01*
X100927Y32929D01*
X100896Y32937D01*
X100873Y32935D01*
X100832Y32939D01*
X89668Y32939D01*
X89597Y32928D01*
X89526Y32926D01*
X89477Y32908D01*
X89425Y32900D01*
X89362Y32866D01*
X89295Y32841D01*
X89254Y32809D01*
X89208Y32784D01*
X89159Y32732D01*
X89103Y32688D01*
X89074Y32644D01*
X89038Y32606D01*
X89008Y32541D01*
X88970Y32481D01*
X88957Y32430D01*
X88935Y32383D01*
X88927Y32312D01*
X88909Y32242D01*
X88914Y32190D01*
X88908Y32139D01*
X88923Y32068D01*
X88929Y31997D01*
X88949Y31949D01*
X88960Y31898D01*
X88997Y31837D01*
X89025Y31771D01*
X89070Y31715D01*
X89086Y31687D01*
X89104Y31672D01*
X89130Y31640D01*
X91615Y29155D01*
X91615Y21645D01*
X86305Y16335D01*
X78795Y16335D01*
X73485Y21645D01*
X73485Y29155D01*
X78795Y34465D01*
X82231Y34465D01*
X82301Y34476D01*
X82373Y34478D01*
X82422Y34496D01*
X82473Y34504D01*
X82537Y34538D01*
X82604Y34563D01*
X82645Y34595D01*
X82691Y34620D01*
X82740Y34671D01*
X82796Y34716D01*
X82824Y34760D01*
X82860Y34798D01*
X82890Y34863D01*
X82929Y34923D01*
X82942Y34974D01*
X82964Y35021D01*
X82972Y35092D01*
X82989Y35162D01*
X82985Y35214D01*
X82991Y35265D01*
X82976Y35336D01*
X82970Y35407D01*
X82950Y35455D01*
X82939Y35506D01*
X82902Y35567D01*
X82874Y35633D01*
X82829Y35689D01*
X82812Y35717D01*
X82795Y35732D01*
X82769Y35764D01*
X76447Y42086D01*
X76411Y42112D01*
X76382Y42144D01*
X76312Y42183D01*
X76247Y42230D01*
X76205Y42243D01*
X76167Y42264D01*
X76088Y42279D01*
X76012Y42302D01*
X75968Y42301D01*
X75925Y42309D01*
X75846Y42298D01*
X75766Y42296D01*
X75725Y42281D01*
X75682Y42274D01*
X75549Y42216D01*
X75535Y42211D01*
X75533Y42209D01*
X75528Y42207D01*
X75451Y42162D01*
X74804Y41989D01*
X70493Y41989D01*
X70493Y48768D01*
X70490Y48788D01*
X70492Y48807D01*
X70470Y48909D01*
X70453Y49011D01*
X70444Y49028D01*
X70440Y49048D01*
X70387Y49137D01*
X70338Y49228D01*
X70324Y49242D01*
X70314Y49259D01*
X70235Y49326D01*
X70160Y49397D01*
X70142Y49406D01*
X70127Y49419D01*
X70031Y49458D01*
X69937Y49501D01*
X69917Y49503D01*
X69899Y49511D01*
X69732Y49529D01*
X68969Y49529D01*
X68969Y49531D01*
X69732Y49531D01*
X69752Y49534D01*
X69771Y49532D01*
X69873Y49554D01*
X69975Y49571D01*
X69992Y49580D01*
X70012Y49584D01*
X70101Y49637D01*
X70192Y49686D01*
X70206Y49700D01*
X70223Y49710D01*
X70290Y49789D01*
X70361Y49864D01*
X70370Y49882D01*
X70383Y49897D01*
X70422Y49993D01*
X70465Y50087D01*
X70467Y50107D01*
X70475Y50125D01*
X70493Y50292D01*
X70493Y57071D01*
X74804Y57071D01*
X75451Y56898D01*
X75528Y56853D01*
X75569Y56837D01*
X75606Y56814D01*
X75683Y56794D01*
X75758Y56766D01*
X75802Y56764D01*
X75845Y56754D01*
X75924Y56760D01*
X76004Y56757D01*
X76046Y56769D01*
X76090Y56773D01*
X76163Y56804D01*
X76240Y56827D01*
X76276Y56852D01*
X76316Y56869D01*
X76430Y56960D01*
X76441Y56968D01*
X76443Y56971D01*
X76447Y56974D01*
X86499Y67026D01*
X86541Y67084D01*
X86590Y67136D01*
X86612Y67183D01*
X86642Y67225D01*
X86664Y67294D01*
X86694Y67359D01*
X86700Y67411D01*
X86715Y67461D01*
X86713Y67532D01*
X86721Y67603D01*
X86710Y67654D01*
X86708Y67706D01*
X86684Y67774D01*
X86669Y67844D01*
X86642Y67888D01*
X86624Y67937D01*
X86579Y67993D01*
X86542Y68055D01*
X86503Y68089D01*
X86470Y68129D01*
X86410Y68168D01*
X86356Y68215D01*
X86307Y68234D01*
X86263Y68262D01*
X86194Y68280D01*
X86127Y68307D01*
X86056Y68315D01*
X86025Y68323D01*
X86002Y68321D01*
X85961Y68325D01*
X82326Y68325D01*
X82306Y68322D01*
X82287Y68324D01*
X82185Y68302D01*
X82083Y68286D01*
X82066Y68276D01*
X82046Y68272D01*
X81957Y68219D01*
X81866Y68170D01*
X81852Y68156D01*
X81835Y68146D01*
X81768Y68067D01*
X81696Y67992D01*
X81688Y67974D01*
X81675Y67959D01*
X81636Y67863D01*
X81593Y67769D01*
X81591Y67749D01*
X81583Y67731D01*
X81565Y67564D01*
X81565Y65488D01*
X80672Y64595D01*
X68408Y64595D01*
X67515Y65488D01*
X67515Y73877D01*
X67501Y73967D01*
X67493Y74058D01*
X67481Y74088D01*
X67476Y74120D01*
X67433Y74200D01*
X67397Y74284D01*
X67371Y74317D01*
X67360Y74337D01*
X67337Y74359D01*
X67292Y74415D01*
X66880Y74827D01*
X66822Y74869D01*
X66770Y74919D01*
X66723Y74941D01*
X66681Y74971D01*
X66612Y74992D01*
X66547Y75022D01*
X66495Y75028D01*
X66445Y75043D01*
X66374Y75041D01*
X66303Y75049D01*
X66252Y75038D01*
X66200Y75037D01*
X66132Y75012D01*
X66062Y74997D01*
X66017Y74970D01*
X65969Y74952D01*
X65913Y74908D01*
X65851Y74871D01*
X65817Y74831D01*
X65777Y74799D01*
X65738Y74739D01*
X65691Y74684D01*
X65672Y74636D01*
X65644Y74592D01*
X65626Y74522D01*
X65599Y74456D01*
X65591Y74385D01*
X65583Y74353D01*
X65585Y74330D01*
X65581Y74289D01*
X65581Y72643D01*
X59063Y72643D01*
X59063Y78661D01*
X61037Y78661D01*
X61108Y78672D01*
X61179Y78674D01*
X61228Y78692D01*
X61280Y78700D01*
X61343Y78734D01*
X61410Y78759D01*
X61451Y78791D01*
X61497Y78816D01*
X61546Y78868D01*
X61602Y78912D01*
X61631Y78956D01*
X61666Y78994D01*
X61697Y79059D01*
X61735Y79119D01*
X61748Y79170D01*
X61770Y79217D01*
X61778Y79288D01*
X61795Y79358D01*
X61791Y79410D01*
X61797Y79461D01*
X61782Y79532D01*
X61776Y79603D01*
X61756Y79651D01*
X61745Y79702D01*
X61708Y79763D01*
X61680Y79829D01*
X61635Y79885D01*
X61619Y79913D01*
X61608Y79922D01*
X61606Y79925D01*
X61596Y79934D01*
X61575Y79960D01*
X56165Y85370D01*
X54305Y87230D01*
X54305Y96886D01*
X54302Y96906D01*
X54304Y96925D01*
X54282Y97027D01*
X54266Y97129D01*
X54256Y97146D01*
X54252Y97166D01*
X54199Y97255D01*
X54150Y97346D01*
X54136Y97360D01*
X54126Y97377D01*
X54047Y97444D01*
X53972Y97516D01*
X53954Y97524D01*
X53939Y97537D01*
X53843Y97576D01*
X53749Y97619D01*
X53729Y97621D01*
X53711Y97629D01*
X53544Y97647D01*
X49468Y97647D01*
X48575Y98540D01*
X48575Y101641D01*
X48564Y101712D01*
X48562Y101783D01*
X48544Y101832D01*
X48536Y101884D01*
X48502Y101947D01*
X48477Y102014D01*
X48445Y102055D01*
X48420Y102101D01*
X48368Y102150D01*
X48324Y102206D01*
X48280Y102235D01*
X48242Y102270D01*
X48177Y102301D01*
X48117Y102339D01*
X48066Y102352D01*
X48019Y102374D01*
X47948Y102382D01*
X47878Y102399D01*
X47826Y102395D01*
X47775Y102401D01*
X47704Y102386D01*
X47633Y102380D01*
X47585Y102360D01*
X47534Y102349D01*
X47473Y102312D01*
X47407Y102284D01*
X47351Y102239D01*
X47323Y102223D01*
X47308Y102205D01*
X47276Y102179D01*
X40085Y94989D01*
X40030Y94912D01*
X39969Y94838D01*
X39958Y94812D01*
X39942Y94789D01*
X39914Y94698D01*
X39879Y94609D01*
X39878Y94581D01*
X39870Y94554D01*
X39872Y94459D01*
X39867Y94363D01*
X39875Y94336D01*
X39876Y94308D01*
X39909Y94218D01*
X39935Y94127D01*
X39951Y94104D01*
X39960Y94077D01*
X40020Y94003D01*
X40074Y93924D01*
X40096Y93907D01*
X40114Y93885D01*
X40194Y93833D01*
X40271Y93776D01*
X40304Y93763D01*
X40321Y93752D01*
X40352Y93744D01*
X40960Y93393D01*
X41433Y92920D01*
X41768Y92341D01*
X41941Y91694D01*
X41941Y87883D01*
X34662Y87883D01*
X34642Y87880D01*
X34623Y87882D01*
X34521Y87860D01*
X34419Y87843D01*
X34402Y87834D01*
X34382Y87830D01*
X34293Y87777D01*
X34202Y87728D01*
X34188Y87714D01*
X34171Y87704D01*
X34104Y87625D01*
X34033Y87550D01*
X34024Y87532D01*
X34011Y87517D01*
X33972Y87421D01*
X33929Y87327D01*
X33927Y87307D01*
X33919Y87289D01*
X33901Y87122D01*
X33901Y86359D01*
X33138Y86359D01*
X33118Y86356D01*
X33099Y86358D01*
X32997Y86336D01*
X32895Y86319D01*
X32878Y86310D01*
X32858Y86306D01*
X32769Y86253D01*
X32678Y86204D01*
X32664Y86190D01*
X32647Y86180D01*
X32580Y86101D01*
X32509Y86026D01*
X32500Y86008D01*
X32487Y85993D01*
X32448Y85897D01*
X32405Y85803D01*
X32403Y85783D01*
X32395Y85765D01*
X32377Y85598D01*
X32377Y78819D01*
X29162Y78819D01*
X29142Y78816D01*
X29123Y78818D01*
X29021Y78796D01*
X28919Y78780D01*
X28902Y78770D01*
X28882Y78766D01*
X28793Y78713D01*
X28702Y78664D01*
X28688Y78650D01*
X28671Y78640D01*
X28604Y78561D01*
X28532Y78486D01*
X28524Y78468D01*
X28511Y78453D01*
X28472Y78357D01*
X28429Y78263D01*
X28427Y78243D01*
X28419Y78225D01*
X28401Y78058D01*
X28401Y60960D01*
X28404Y60940D01*
X28402Y60921D01*
X28424Y60819D01*
X28440Y60717D01*
X28450Y60700D01*
X28454Y60680D01*
X28507Y60591D01*
X28556Y60500D01*
X28570Y60486D01*
X28580Y60469D01*
X28659Y60402D01*
X28734Y60330D01*
X28752Y60322D01*
X28767Y60309D01*
X28863Y60270D01*
X28957Y60227D01*
X28977Y60225D01*
X28995Y60217D01*
X29162Y60199D01*
X47801Y60199D01*
X49141Y58859D01*
X49141Y56965D01*
X47801Y55625D01*
X29162Y55625D01*
X29142Y55622D01*
X29123Y55624D01*
X29021Y55602D01*
X28919Y55586D01*
X28902Y55576D01*
X28882Y55572D01*
X28793Y55519D01*
X28702Y55470D01*
X28688Y55456D01*
X28671Y55446D01*
X28604Y55367D01*
X28532Y55292D01*
X28524Y55274D01*
X28511Y55259D01*
X28472Y55163D01*
X28429Y55069D01*
X28427Y55049D01*
X28419Y55031D01*
X28401Y54864D01*
X28401Y41368D01*
X24434Y37401D01*
X24381Y37327D01*
X24321Y37258D01*
X24309Y37228D01*
X24290Y37202D01*
X24263Y37115D01*
X24229Y37030D01*
X24225Y36989D01*
X24218Y36966D01*
X24219Y36934D01*
X24211Y36863D01*
X24211Y32518D01*
X24222Y32447D01*
X24224Y32376D01*
X24242Y32327D01*
X24250Y32275D01*
X24284Y32212D01*
X24309Y32145D01*
X24341Y32104D01*
X24366Y32058D01*
X24418Y32009D01*
X24462Y31953D01*
X24506Y31924D01*
X24544Y31888D01*
X24609Y31858D01*
X24669Y31820D01*
X24720Y31807D01*
X24767Y31785D01*
X24838Y31777D01*
X24908Y31759D01*
X24960Y31764D01*
X25011Y31758D01*
X25082Y31773D01*
X25153Y31779D01*
X25201Y31799D01*
X25252Y31810D01*
X25313Y31847D01*
X25379Y31875D01*
X25435Y31920D01*
X25463Y31936D01*
X25478Y31954D01*
X25510Y31980D01*
X27995Y34465D01*
X35505Y34465D01*
X40815Y29155D01*
X40815Y25640D01*
X40826Y25570D01*
X40828Y25498D01*
X40846Y25449D01*
X40854Y25398D01*
X40888Y25334D01*
X40913Y25267D01*
X40945Y25226D01*
X40970Y25180D01*
X41022Y25131D01*
X41066Y25075D01*
X41110Y25047D01*
X41148Y25011D01*
X41213Y24981D01*
X41273Y24942D01*
X41324Y24929D01*
X41371Y24907D01*
X41442Y24899D01*
X41512Y24882D01*
X41564Y24886D01*
X41615Y24880D01*
X41686Y24895D01*
X41757Y24901D01*
X41805Y24921D01*
X41856Y24932D01*
X41917Y24969D01*
X41983Y24997D01*
X42039Y25042D01*
X42067Y25059D01*
X42082Y25076D01*
X42114Y25102D01*
X44699Y27687D01*
X47324Y27687D01*
X47344Y27690D01*
X47363Y27688D01*
X47465Y27710D01*
X47567Y27726D01*
X47584Y27736D01*
X47604Y27740D01*
X47693Y27793D01*
X47784Y27842D01*
X47798Y27856D01*
X47815Y27866D01*
X47882Y27945D01*
X47954Y28020D01*
X47962Y28038D01*
X47975Y28053D01*
X48014Y28149D01*
X48057Y28243D01*
X48059Y28263D01*
X48067Y28281D01*
X48085Y28448D01*
X48085Y29155D01*
X53395Y34465D01*
X60905Y34465D01*
X66215Y29155D01*
X66215Y21645D01*
X60905Y16335D01*
X53395Y16335D01*
X48085Y21645D01*
X48085Y22352D01*
X48083Y22367D01*
X48084Y22380D01*
X48083Y22384D01*
X48084Y22391D01*
X48062Y22493D01*
X48046Y22595D01*
X48036Y22612D01*
X48032Y22632D01*
X47979Y22721D01*
X47930Y22812D01*
X47916Y22826D01*
X47906Y22843D01*
X47827Y22910D01*
X47752Y22982D01*
X47734Y22990D01*
X47719Y23003D01*
X47623Y23042D01*
X47529Y23085D01*
X47509Y23087D01*
X47491Y23095D01*
X47324Y23113D01*
X46909Y23113D01*
X46818Y23099D01*
X46728Y23091D01*
X46698Y23079D01*
X46666Y23074D01*
X46585Y23031D01*
X46501Y22995D01*
X46469Y22969D01*
X46448Y22958D01*
X46438Y22948D01*
X46437Y22947D01*
X46424Y22933D01*
X46370Y22890D01*
X36767Y13287D01*
X26733Y13287D01*
X19637Y20383D01*
X19637Y39073D01*
X23604Y43040D01*
X23657Y43114D01*
X23717Y43183D01*
X23729Y43213D01*
X23748Y43239D01*
X23775Y43326D01*
X23809Y43411D01*
X23813Y43452D01*
X23820Y43475D01*
X23819Y43507D01*
X23827Y43578D01*
X23827Y79074D01*
X23824Y79094D01*
X23826Y79113D01*
X23804Y79215D01*
X23788Y79317D01*
X23778Y79334D01*
X23774Y79354D01*
X23721Y79443D01*
X23672Y79534D01*
X23658Y79548D01*
X23648Y79565D01*
X23569Y79632D01*
X23494Y79704D01*
X23476Y79712D01*
X23461Y79725D01*
X23365Y79764D01*
X23271Y79807D01*
X23251Y79809D01*
X23233Y79817D01*
X23066Y79835D01*
X10922Y79835D01*
X10902Y79832D01*
X10883Y79834D01*
X10781Y79812D01*
X10679Y79796D01*
X10662Y79786D01*
X10642Y79782D01*
X10553Y79729D01*
X10462Y79680D01*
X10448Y79666D01*
X10431Y79656D01*
X10364Y79577D01*
X10292Y79502D01*
X10284Y79484D01*
X10271Y79469D01*
X10232Y79373D01*
X10189Y79279D01*
X10187Y79259D01*
X10179Y79241D01*
X10161Y79074D01*
X10161Y10922D01*
X10164Y10902D01*
X10162Y10883D01*
X10184Y10781D01*
X10200Y10679D01*
X10210Y10662D01*
X10214Y10642D01*
X10267Y10553D01*
X10316Y10462D01*
X10330Y10448D01*
X10340Y10431D01*
X10419Y10364D01*
X10494Y10292D01*
X10512Y10284D01*
X10527Y10271D01*
X10623Y10232D01*
X10717Y10189D01*
X10737Y10187D01*
X10755Y10179D01*
X10922Y10161D01*
X423218Y10161D01*
X423238Y10164D01*
G37*
G36*
X319219Y30515D02*
X319219Y30515D01*
X319323Y30518D01*
X319341Y30525D01*
X319361Y30526D01*
X319456Y30567D01*
X319554Y30602D01*
X319569Y30615D01*
X319588Y30623D01*
X319719Y30727D01*
X330060Y41069D01*
X330090Y41069D01*
X330180Y41083D01*
X330271Y41091D01*
X330300Y41103D01*
X330332Y41108D01*
X330413Y41151D01*
X330497Y41187D01*
X330529Y41213D01*
X330550Y41224D01*
X330572Y41247D01*
X330628Y41292D01*
X339120Y49784D01*
X339173Y49858D01*
X339233Y49928D01*
X339245Y49958D01*
X339264Y49984D01*
X339291Y50071D01*
X339325Y50156D01*
X339329Y50197D01*
X339336Y50219D01*
X339335Y50251D01*
X339343Y50322D01*
X339343Y57909D01*
X340236Y58802D01*
X356105Y58802D01*
X356998Y57908D01*
X357001Y57892D01*
X356999Y57873D01*
X357021Y57771D01*
X357037Y57669D01*
X357047Y57652D01*
X357051Y57632D01*
X357104Y57543D01*
X357153Y57452D01*
X357167Y57438D01*
X357177Y57421D01*
X357256Y57354D01*
X357331Y57282D01*
X357349Y57274D01*
X357364Y57261D01*
X357460Y57222D01*
X357554Y57179D01*
X357574Y57177D01*
X357592Y57169D01*
X357759Y57151D01*
X367869Y57151D01*
X367959Y57165D01*
X368050Y57173D01*
X368079Y57185D01*
X368111Y57190D01*
X368192Y57233D01*
X368276Y57269D01*
X368308Y57295D01*
X368329Y57306D01*
X368351Y57329D01*
X368407Y57374D01*
X377982Y66949D01*
X378035Y67023D01*
X378095Y67093D01*
X378107Y67123D01*
X378126Y67149D01*
X378153Y67236D01*
X378187Y67321D01*
X378191Y67362D01*
X378198Y67384D01*
X378197Y67416D01*
X378205Y67487D01*
X378205Y73638D01*
X383562Y78995D01*
X391138Y78995D01*
X393670Y76463D01*
X393728Y76421D01*
X393780Y76372D01*
X393827Y76350D01*
X393869Y76319D01*
X393938Y76298D01*
X394003Y76268D01*
X394055Y76262D01*
X394105Y76247D01*
X394176Y76249D01*
X394247Y76241D01*
X394298Y76252D01*
X394350Y76253D01*
X394418Y76278D01*
X394488Y76293D01*
X394533Y76320D01*
X394581Y76338D01*
X394637Y76383D01*
X394699Y76419D01*
X394733Y76459D01*
X394773Y76491D01*
X394812Y76552D01*
X394859Y76606D01*
X394878Y76655D01*
X394906Y76698D01*
X394924Y76768D01*
X394951Y76834D01*
X394959Y76906D01*
X394967Y76937D01*
X394965Y76960D01*
X394969Y77001D01*
X394969Y88099D01*
X394958Y88170D01*
X394956Y88241D01*
X394938Y88290D01*
X394930Y88342D01*
X394896Y88405D01*
X394871Y88472D01*
X394839Y88513D01*
X394814Y88559D01*
X394762Y88608D01*
X394718Y88664D01*
X394674Y88693D01*
X394636Y88728D01*
X394571Y88759D01*
X394511Y88797D01*
X394460Y88810D01*
X394413Y88832D01*
X394342Y88840D01*
X394272Y88857D01*
X394220Y88853D01*
X394169Y88859D01*
X394098Y88844D01*
X394027Y88838D01*
X393979Y88818D01*
X393928Y88807D01*
X393867Y88770D01*
X393801Y88742D01*
X393745Y88697D01*
X393717Y88681D01*
X393702Y88663D01*
X393670Y88637D01*
X391138Y86105D01*
X383562Y86105D01*
X378205Y91462D01*
X378205Y99038D01*
X383562Y104395D01*
X391138Y104395D01*
X393670Y101863D01*
X393728Y101821D01*
X393780Y101772D01*
X393827Y101750D01*
X393869Y101719D01*
X393938Y101698D01*
X394003Y101668D01*
X394055Y101662D01*
X394105Y101647D01*
X394176Y101649D01*
X394247Y101641D01*
X394298Y101652D01*
X394350Y101653D01*
X394418Y101678D01*
X394488Y101693D01*
X394533Y101720D01*
X394581Y101738D01*
X394637Y101783D01*
X394699Y101819D01*
X394733Y101859D01*
X394773Y101891D01*
X394812Y101952D01*
X394859Y102006D01*
X394878Y102055D01*
X394906Y102098D01*
X394924Y102168D01*
X394951Y102234D01*
X394959Y102306D01*
X394967Y102337D01*
X394965Y102360D01*
X394969Y102401D01*
X394969Y112062D01*
X394958Y112133D01*
X394956Y112204D01*
X394938Y112253D01*
X394930Y112305D01*
X394896Y112368D01*
X394871Y112435D01*
X394839Y112476D01*
X394814Y112522D01*
X394762Y112572D01*
X394718Y112628D01*
X394674Y112656D01*
X394636Y112692D01*
X394571Y112722D01*
X394511Y112761D01*
X394460Y112773D01*
X394413Y112795D01*
X394342Y112803D01*
X394272Y112821D01*
X394220Y112817D01*
X394169Y112822D01*
X394098Y112807D01*
X394027Y112801D01*
X393979Y112781D01*
X393928Y112770D01*
X393867Y112733D01*
X393801Y112705D01*
X393745Y112660D01*
X393717Y112644D01*
X393702Y112626D01*
X393670Y112600D01*
X391559Y110489D01*
X388873Y110489D01*
X388873Y119888D01*
X388870Y119908D01*
X388872Y119927D01*
X388850Y120029D01*
X388833Y120131D01*
X388824Y120148D01*
X388820Y120168D01*
X388767Y120257D01*
X388718Y120348D01*
X388704Y120362D01*
X388694Y120379D01*
X388615Y120446D01*
X388540Y120517D01*
X388522Y120526D01*
X388507Y120539D01*
X388411Y120577D01*
X388317Y120621D01*
X388297Y120623D01*
X388279Y120631D01*
X388112Y120649D01*
X387349Y120649D01*
X387349Y121412D01*
X387346Y121432D01*
X387348Y121451D01*
X387326Y121553D01*
X387309Y121655D01*
X387300Y121672D01*
X387296Y121692D01*
X387243Y121781D01*
X387194Y121872D01*
X387180Y121886D01*
X387170Y121903D01*
X387091Y121970D01*
X387016Y122041D01*
X386998Y122050D01*
X386983Y122063D01*
X386887Y122102D01*
X386793Y122145D01*
X386773Y122147D01*
X386755Y122155D01*
X386588Y122173D01*
X377189Y122173D01*
X377189Y124859D01*
X379300Y126970D01*
X379342Y127028D01*
X379392Y127080D01*
X379413Y127127D01*
X379444Y127169D01*
X379465Y127238D01*
X379495Y127303D01*
X379501Y127355D01*
X379516Y127405D01*
X379514Y127476D01*
X379522Y127547D01*
X379511Y127598D01*
X379510Y127650D01*
X379485Y127718D01*
X379470Y127788D01*
X379443Y127833D01*
X379425Y127881D01*
X379381Y127937D01*
X379344Y127999D01*
X379304Y128033D01*
X379272Y128073D01*
X379211Y128112D01*
X379157Y128159D01*
X379109Y128178D01*
X379065Y128206D01*
X378995Y128224D01*
X378929Y128251D01*
X378857Y128259D01*
X378826Y128267D01*
X378803Y128265D01*
X378762Y128269D01*
X377241Y128269D01*
X377210Y128300D01*
X377136Y128353D01*
X377066Y128413D01*
X377036Y128425D01*
X377010Y128444D01*
X376923Y128471D01*
X376838Y128505D01*
X376797Y128509D01*
X376775Y128516D01*
X376743Y128515D01*
X376671Y128523D01*
X375169Y128523D01*
X375078Y128509D01*
X374988Y128501D01*
X374958Y128489D01*
X374926Y128484D01*
X374845Y128441D01*
X374761Y128405D01*
X374729Y128379D01*
X374708Y128368D01*
X374686Y128345D01*
X374630Y128300D01*
X367000Y120670D01*
X366947Y120596D01*
X366887Y120526D01*
X366875Y120496D01*
X366856Y120470D01*
X366829Y120383D01*
X366795Y120298D01*
X366791Y120257D01*
X366784Y120235D01*
X366785Y120203D01*
X366777Y120131D01*
X366777Y112382D01*
X357221Y102826D01*
X357168Y102752D01*
X357108Y102683D01*
X357096Y102653D01*
X357077Y102626D01*
X357050Y102540D01*
X357016Y102455D01*
X357012Y102414D01*
X357005Y102391D01*
X357006Y102359D01*
X356998Y102288D01*
X356998Y94491D01*
X356105Y93598D01*
X340236Y93598D01*
X339343Y94491D01*
X339343Y104137D01*
X340236Y105030D01*
X349049Y105030D01*
X349139Y105044D01*
X349230Y105052D01*
X349260Y105064D01*
X349292Y105069D01*
X349372Y105112D01*
X349456Y105148D01*
X349488Y105174D01*
X349509Y105185D01*
X349531Y105208D01*
X349587Y105253D01*
X356652Y112318D01*
X356694Y112376D01*
X356743Y112428D01*
X356765Y112475D01*
X356796Y112517D01*
X356817Y112586D01*
X356847Y112651D01*
X356853Y112703D01*
X356868Y112753D01*
X356866Y112824D01*
X356874Y112895D01*
X356863Y112946D01*
X356862Y112998D01*
X356837Y113066D01*
X356822Y113136D01*
X356795Y113181D01*
X356777Y113229D01*
X356732Y113285D01*
X356696Y113347D01*
X356656Y113381D01*
X356624Y113421D01*
X356563Y113460D01*
X356509Y113507D01*
X356461Y113526D01*
X356417Y113554D01*
X356347Y113572D01*
X356281Y113599D01*
X356209Y113607D01*
X356178Y113615D01*
X356155Y113613D01*
X356114Y113617D01*
X345262Y113617D01*
X345243Y113614D01*
X345223Y113616D01*
X345122Y113594D01*
X345020Y113578D01*
X345002Y113568D01*
X344983Y113564D01*
X344894Y113511D01*
X344802Y113462D01*
X344789Y113448D01*
X344771Y113438D01*
X344704Y113359D01*
X344633Y113284D01*
X344625Y113266D01*
X344612Y113251D01*
X344573Y113155D01*
X344529Y113061D01*
X344527Y113041D01*
X344520Y113023D01*
X344501Y112856D01*
X344501Y112006D01*
X328280Y95785D01*
X310799Y95785D01*
X310709Y95771D01*
X310618Y95763D01*
X310588Y95751D01*
X310556Y95746D01*
X310476Y95703D01*
X310392Y95667D01*
X310360Y95641D01*
X310339Y95630D01*
X310317Y95607D01*
X310261Y95562D01*
X310230Y95531D01*
X258190Y95531D01*
X258100Y95517D01*
X258009Y95509D01*
X257979Y95497D01*
X257947Y95492D01*
X257866Y95449D01*
X257782Y95413D01*
X257750Y95387D01*
X257730Y95376D01*
X257707Y95353D01*
X257651Y95308D01*
X240000Y77657D01*
X239953Y77591D01*
X239941Y77579D01*
X239938Y77573D01*
X239887Y77513D01*
X239875Y77483D01*
X239856Y77457D01*
X239829Y77370D01*
X239795Y77285D01*
X239791Y77244D01*
X239784Y77222D01*
X239785Y77190D01*
X239777Y77118D01*
X239777Y74201D01*
X236949Y71373D01*
X232951Y71373D01*
X230888Y73436D01*
X230814Y73489D01*
X230744Y73549D01*
X230714Y73561D01*
X230688Y73580D01*
X230601Y73607D01*
X230516Y73641D01*
X230475Y73645D01*
X230453Y73652D01*
X230421Y73651D01*
X230349Y73659D01*
X229146Y73659D01*
X229126Y73656D01*
X229107Y73658D01*
X229005Y73636D01*
X228903Y73620D01*
X228886Y73610D01*
X228866Y73606D01*
X228777Y73553D01*
X228686Y73504D01*
X228672Y73490D01*
X228655Y73480D01*
X228588Y73401D01*
X228516Y73326D01*
X228508Y73308D01*
X228495Y73293D01*
X228456Y73197D01*
X228413Y73103D01*
X228411Y73083D01*
X228403Y73065D01*
X228385Y72898D01*
X228385Y70068D01*
X227492Y69175D01*
X220224Y69175D01*
X220153Y69164D01*
X220081Y69162D01*
X220032Y69144D01*
X219981Y69136D01*
X219917Y69102D01*
X219850Y69077D01*
X219809Y69045D01*
X219763Y69020D01*
X219714Y68968D01*
X219658Y68924D01*
X219630Y68880D01*
X219594Y68842D01*
X219564Y68777D01*
X219525Y68717D01*
X219512Y68666D01*
X219490Y68619D01*
X219483Y68548D01*
X219465Y68478D01*
X219469Y68426D01*
X219463Y68375D01*
X219479Y68304D01*
X219484Y68233D01*
X219505Y68185D01*
X219516Y68134D01*
X219552Y68073D01*
X219580Y68007D01*
X219625Y67951D01*
X219642Y67923D01*
X219660Y67908D01*
X219685Y67876D01*
X246617Y40944D01*
X246691Y40891D01*
X246761Y40831D01*
X246791Y40819D01*
X246817Y40800D01*
X246904Y40773D01*
X246989Y40739D01*
X247030Y40735D01*
X247052Y40728D01*
X247084Y40729D01*
X247156Y40721D01*
X259558Y40721D01*
X259578Y40724D01*
X259597Y40722D01*
X259699Y40744D01*
X259801Y40760D01*
X259818Y40770D01*
X259838Y40774D01*
X259927Y40827D01*
X260018Y40876D01*
X260032Y40890D01*
X260049Y40900D01*
X260116Y40979D01*
X260188Y41054D01*
X260196Y41072D01*
X260209Y41087D01*
X260248Y41183D01*
X260291Y41277D01*
X260293Y41297D01*
X260301Y41315D01*
X260319Y41482D01*
X260319Y44197D01*
X267598Y44197D01*
X267618Y44200D01*
X267637Y44198D01*
X267739Y44220D01*
X267841Y44237D01*
X267858Y44246D01*
X267878Y44250D01*
X267967Y44303D01*
X268058Y44352D01*
X268072Y44366D01*
X268089Y44376D01*
X268156Y44455D01*
X268227Y44530D01*
X268236Y44548D01*
X268249Y44563D01*
X268288Y44659D01*
X268331Y44753D01*
X268333Y44773D01*
X268341Y44791D01*
X268359Y44958D01*
X268359Y45721D01*
X269122Y45721D01*
X269142Y45724D01*
X269161Y45722D01*
X269263Y45744D01*
X269365Y45761D01*
X269382Y45770D01*
X269402Y45774D01*
X269491Y45827D01*
X269582Y45876D01*
X269596Y45890D01*
X269613Y45900D01*
X269680Y45979D01*
X269751Y46054D01*
X269760Y46072D01*
X269773Y46087D01*
X269812Y46183D01*
X269855Y46277D01*
X269857Y46297D01*
X269865Y46315D01*
X269883Y46482D01*
X269883Y53261D01*
X274194Y53261D01*
X274841Y53088D01*
X274918Y53043D01*
X274959Y53027D01*
X274996Y53004D01*
X275073Y52984D01*
X275148Y52956D01*
X275192Y52954D01*
X275235Y52944D01*
X275314Y52950D01*
X275394Y52947D01*
X275436Y52959D01*
X275480Y52963D01*
X275553Y52994D01*
X275630Y53017D01*
X275666Y53042D01*
X275706Y53059D01*
X275820Y53150D01*
X275831Y53158D01*
X275833Y53161D01*
X275837Y53164D01*
X276403Y53730D01*
X276404Y53730D01*
X277966Y55293D01*
X278892Y55293D01*
X278912Y55296D01*
X278931Y55294D01*
X279033Y55316D01*
X279135Y55332D01*
X279152Y55342D01*
X279172Y55346D01*
X279261Y55399D01*
X279352Y55448D01*
X279366Y55462D01*
X279383Y55472D01*
X279450Y55551D01*
X279522Y55626D01*
X279530Y55644D01*
X279543Y55659D01*
X279582Y55755D01*
X279625Y55849D01*
X279627Y55869D01*
X279635Y55887D01*
X279653Y56054D01*
X279653Y57625D01*
X279910Y57882D01*
X279952Y57940D01*
X280001Y57992D01*
X280023Y58039D01*
X280053Y58081D01*
X280074Y58150D01*
X280105Y58215D01*
X280110Y58267D01*
X280126Y58317D01*
X280124Y58388D01*
X280132Y58459D01*
X280121Y58510D01*
X280119Y58562D01*
X280095Y58630D01*
X280079Y58700D01*
X280053Y58745D01*
X280035Y58793D01*
X279990Y58849D01*
X279953Y58911D01*
X279914Y58945D01*
X279881Y58985D01*
X279821Y59024D01*
X279766Y59071D01*
X279718Y59090D01*
X279674Y59118D01*
X279605Y59136D01*
X279538Y59163D01*
X279467Y59171D01*
X279436Y59179D01*
X279412Y59177D01*
X279371Y59181D01*
X278895Y59181D01*
X278002Y60074D01*
X278002Y92326D01*
X278895Y93219D01*
X294764Y93219D01*
X295657Y92326D01*
X295657Y61807D01*
X295668Y61736D01*
X295670Y61664D01*
X295688Y61615D01*
X295696Y61564D01*
X295730Y61501D01*
X295755Y61433D01*
X295787Y61393D01*
X295812Y61347D01*
X295864Y61297D01*
X295908Y61241D01*
X295952Y61213D01*
X295990Y61177D01*
X296055Y61147D01*
X296115Y61108D01*
X296166Y61096D01*
X296213Y61074D01*
X296284Y61066D01*
X296354Y61048D01*
X296406Y61052D01*
X296457Y61047D01*
X296528Y61062D01*
X296599Y61067D01*
X296647Y61088D01*
X296698Y61099D01*
X296759Y61136D01*
X296825Y61164D01*
X296881Y61209D01*
X296909Y61225D01*
X296924Y61243D01*
X296956Y61269D01*
X304355Y68667D01*
X304408Y68741D01*
X304467Y68811D01*
X304480Y68841D01*
X304498Y68867D01*
X304525Y68954D01*
X304559Y69039D01*
X304564Y69080D01*
X304571Y69102D01*
X304570Y69134D01*
X304578Y69205D01*
X304578Y69346D01*
X304563Y69436D01*
X304556Y69527D01*
X304543Y69557D01*
X304538Y69589D01*
X304495Y69669D01*
X304460Y69753D01*
X304434Y69785D01*
X304423Y69806D01*
X304400Y69828D01*
X304355Y69884D01*
X303816Y70423D01*
X303816Y74422D01*
X306643Y77249D01*
X310642Y77249D01*
X313469Y74422D01*
X313469Y70423D01*
X312930Y69884D01*
X312877Y69810D01*
X312818Y69741D01*
X312805Y69711D01*
X312787Y69684D01*
X312760Y69597D01*
X312726Y69513D01*
X312721Y69472D01*
X312714Y69449D01*
X312715Y69417D01*
X312707Y69346D01*
X312707Y50930D01*
X304770Y42992D01*
X304717Y42918D01*
X304657Y42849D01*
X304645Y42819D01*
X304626Y42793D01*
X304599Y42706D01*
X304565Y42621D01*
X304561Y42580D01*
X304554Y42558D01*
X304555Y42525D01*
X304547Y42454D01*
X304547Y38067D01*
X304561Y37977D01*
X304569Y37886D01*
X304581Y37856D01*
X304586Y37824D01*
X304629Y37744D01*
X304665Y37660D01*
X304691Y37628D01*
X304702Y37607D01*
X304725Y37585D01*
X304770Y37529D01*
X307611Y34688D01*
X307685Y34635D01*
X307754Y34575D01*
X307784Y34563D01*
X307810Y34544D01*
X307897Y34517D01*
X307982Y34483D01*
X308023Y34479D01*
X308046Y34472D01*
X308078Y34473D01*
X308149Y34465D01*
X314905Y34465D01*
X318642Y30727D01*
X318658Y30716D01*
X318671Y30700D01*
X318758Y30644D01*
X318842Y30584D01*
X318861Y30578D01*
X318878Y30567D01*
X318978Y30542D01*
X319077Y30512D01*
X319097Y30512D01*
X319116Y30507D01*
X319219Y30515D01*
G37*
G36*
X84977Y73929D02*
X84977Y73929D01*
X85068Y73937D01*
X85098Y73949D01*
X85130Y73954D01*
X85210Y73997D01*
X85294Y74033D01*
X85326Y74059D01*
X85347Y74070D01*
X85369Y74093D01*
X85425Y74138D01*
X101630Y90343D01*
X101676Y90407D01*
X101694Y90425D01*
X101697Y90433D01*
X101743Y90486D01*
X101755Y90516D01*
X101774Y90542D01*
X101801Y90629D01*
X101835Y90714D01*
X101839Y90755D01*
X101846Y90777D01*
X101845Y90810D01*
X101853Y90881D01*
X101853Y93439D01*
X104681Y96267D01*
X108679Y96267D01*
X110488Y94458D01*
X110562Y94405D01*
X110632Y94345D01*
X110662Y94333D01*
X110688Y94314D01*
X110775Y94287D01*
X110860Y94253D01*
X110901Y94249D01*
X110923Y94242D01*
X110955Y94243D01*
X111027Y94235D01*
X128241Y94235D01*
X128312Y94246D01*
X128384Y94248D01*
X128433Y94266D01*
X128484Y94274D01*
X128548Y94308D01*
X128615Y94333D01*
X128656Y94365D01*
X128702Y94390D01*
X128751Y94442D01*
X128807Y94486D01*
X128835Y94530D01*
X128871Y94568D01*
X128901Y94633D01*
X128940Y94693D01*
X128953Y94744D01*
X128975Y94791D01*
X128982Y94862D01*
X129000Y94932D01*
X128996Y94984D01*
X129002Y95035D01*
X128986Y95106D01*
X128981Y95177D01*
X128960Y95225D01*
X128949Y95276D01*
X128913Y95337D01*
X128885Y95403D01*
X128840Y95459D01*
X128823Y95487D01*
X128805Y95502D01*
X128780Y95534D01*
X126494Y97820D01*
X126420Y97873D01*
X126350Y97933D01*
X126320Y97945D01*
X126294Y97964D01*
X126207Y97991D01*
X126122Y98025D01*
X126081Y98029D01*
X126059Y98036D01*
X126027Y98035D01*
X125955Y98043D01*
X123513Y98043D01*
X117386Y104170D01*
X117312Y104223D01*
X117242Y104283D01*
X117212Y104295D01*
X117186Y104314D01*
X117099Y104341D01*
X117014Y104375D01*
X116973Y104379D01*
X116951Y104386D01*
X116919Y104385D01*
X116847Y104393D01*
X113571Y104393D01*
X110743Y107221D01*
X110743Y111219D01*
X113571Y114047D01*
X117569Y114047D01*
X120397Y111219D01*
X120397Y107943D01*
X120411Y107852D01*
X120419Y107762D01*
X120431Y107732D01*
X120436Y107700D01*
X120479Y107619D01*
X120515Y107535D01*
X120541Y107503D01*
X120552Y107482D01*
X120575Y107460D01*
X120620Y107404D01*
X125184Y102840D01*
X125258Y102787D01*
X125328Y102727D01*
X125358Y102715D01*
X125384Y102696D01*
X125471Y102669D01*
X125556Y102635D01*
X125597Y102631D01*
X125619Y102624D01*
X125651Y102625D01*
X125723Y102617D01*
X125955Y102617D01*
X126045Y102631D01*
X126136Y102639D01*
X126166Y102651D01*
X126198Y102656D01*
X126279Y102699D01*
X126363Y102735D01*
X126395Y102761D01*
X126415Y102772D01*
X126438Y102795D01*
X126494Y102840D01*
X128811Y105157D01*
X128814Y105157D01*
X128885Y105168D01*
X128957Y105170D01*
X129006Y105188D01*
X129057Y105196D01*
X129120Y105230D01*
X129188Y105255D01*
X129228Y105287D01*
X129274Y105312D01*
X129324Y105364D01*
X129380Y105408D01*
X129408Y105452D01*
X129444Y105490D01*
X129474Y105555D01*
X129513Y105615D01*
X129525Y105666D01*
X129547Y105713D01*
X129555Y105784D01*
X129573Y105854D01*
X129569Y105906D01*
X129574Y105957D01*
X129559Y106028D01*
X129554Y106099D01*
X129533Y106147D01*
X129522Y106198D01*
X129485Y106259D01*
X129457Y106325D01*
X129413Y106381D01*
X129396Y106409D01*
X129378Y106424D01*
X129353Y106456D01*
X126393Y109415D01*
X126393Y124170D01*
X126379Y124260D01*
X126371Y124351D01*
X126359Y124381D01*
X126354Y124413D01*
X126311Y124494D01*
X126275Y124577D01*
X126249Y124610D01*
X126238Y124630D01*
X126215Y124652D01*
X126170Y124708D01*
X125968Y124910D01*
X125952Y124922D01*
X125940Y124938D01*
X125863Y124987D01*
X125849Y124999D01*
X125840Y125003D01*
X125769Y125054D01*
X125750Y125060D01*
X125733Y125071D01*
X125632Y125096D01*
X125533Y125126D01*
X125514Y125126D01*
X125494Y125131D01*
X125391Y125123D01*
X125288Y125120D01*
X125269Y125113D01*
X125249Y125112D01*
X125154Y125071D01*
X125057Y125036D01*
X125041Y125023D01*
X125023Y125015D01*
X124949Y124956D01*
X124946Y124955D01*
X124943Y124951D01*
X124892Y124910D01*
X124552Y124570D01*
X119804Y124570D01*
X119714Y124556D01*
X119623Y124548D01*
X119593Y124536D01*
X119561Y124531D01*
X119480Y124488D01*
X119396Y124452D01*
X119364Y124426D01*
X119344Y124415D01*
X119321Y124392D01*
X119265Y124347D01*
X118980Y124062D01*
X118401Y123727D01*
X117754Y123554D01*
X116549Y123554D01*
X116549Y132972D01*
X116546Y132991D01*
X116548Y133011D01*
X116536Y133068D01*
X116549Y133188D01*
X116549Y142606D01*
X117754Y142606D01*
X118401Y142433D01*
X118980Y142098D01*
X119265Y141813D01*
X119339Y141760D01*
X119409Y141700D01*
X119439Y141688D01*
X119465Y141669D01*
X119552Y141642D01*
X119637Y141608D01*
X119678Y141604D01*
X119700Y141597D01*
X119732Y141598D01*
X119804Y141590D01*
X124552Y141590D01*
X124892Y141250D01*
X124908Y141238D01*
X124920Y141222D01*
X125007Y141166D01*
X125091Y141106D01*
X125110Y141100D01*
X125127Y141089D01*
X125228Y141064D01*
X125327Y141034D01*
X125346Y141034D01*
X125366Y141029D01*
X125469Y141037D01*
X125572Y141040D01*
X125591Y141047D01*
X125611Y141048D01*
X125706Y141089D01*
X125803Y141124D01*
X125819Y141137D01*
X125837Y141145D01*
X125968Y141250D01*
X126308Y141590D01*
X131056Y141590D01*
X131146Y141604D01*
X131237Y141612D01*
X131267Y141624D01*
X131299Y141629D01*
X131380Y141672D01*
X131464Y141708D01*
X131496Y141734D01*
X131516Y141745D01*
X131539Y141768D01*
X131595Y141813D01*
X131880Y142098D01*
X132459Y142433D01*
X133106Y142606D01*
X134311Y142606D01*
X134311Y133188D01*
X134314Y133169D01*
X134312Y133149D01*
X134324Y133092D01*
X134311Y132972D01*
X134311Y123554D01*
X133106Y123554D01*
X132459Y123727D01*
X132109Y123930D01*
X132019Y123964D01*
X131933Y124004D01*
X131905Y124007D01*
X131879Y124017D01*
X131783Y124020D01*
X131689Y124031D01*
X131661Y124025D01*
X131633Y124026D01*
X131541Y123999D01*
X131448Y123979D01*
X131424Y123964D01*
X131397Y123956D01*
X131319Y123901D01*
X131237Y123852D01*
X131219Y123831D01*
X131196Y123815D01*
X131139Y123738D01*
X131077Y123666D01*
X131067Y123639D01*
X131050Y123617D01*
X131021Y123526D01*
X130985Y123437D01*
X130981Y123402D01*
X130975Y123382D01*
X130975Y123350D01*
X130967Y123271D01*
X130967Y111625D01*
X130981Y111535D01*
X130989Y111444D01*
X131001Y111414D01*
X131006Y111382D01*
X131049Y111302D01*
X131085Y111218D01*
X131111Y111186D01*
X131122Y111165D01*
X131145Y111143D01*
X131190Y111087D01*
X138685Y103592D01*
X138685Y94996D01*
X138688Y94976D01*
X138686Y94957D01*
X138708Y94855D01*
X138724Y94753D01*
X138734Y94736D01*
X138738Y94716D01*
X138791Y94627D01*
X138840Y94536D01*
X138854Y94522D01*
X138864Y94505D01*
X138943Y94438D01*
X139018Y94366D01*
X139036Y94358D01*
X139051Y94345D01*
X139147Y94306D01*
X139241Y94263D01*
X139261Y94261D01*
X139279Y94253D01*
X139446Y94235D01*
X150521Y94235D01*
X150592Y94246D01*
X150664Y94248D01*
X150713Y94266D01*
X150764Y94274D01*
X150828Y94308D01*
X150895Y94333D01*
X150936Y94365D01*
X150982Y94390D01*
X151031Y94442D01*
X151087Y94486D01*
X151115Y94530D01*
X151151Y94568D01*
X151181Y94633D01*
X151220Y94693D01*
X151233Y94744D01*
X151255Y94791D01*
X151263Y94862D01*
X151280Y94932D01*
X151276Y94984D01*
X151282Y95035D01*
X151266Y95106D01*
X151261Y95177D01*
X151241Y95225D01*
X151229Y95276D01*
X151193Y95337D01*
X151165Y95403D01*
X151120Y95459D01*
X151103Y95487D01*
X151085Y95502D01*
X151060Y95534D01*
X139393Y107201D01*
X139393Y123271D01*
X139378Y123365D01*
X139369Y123460D01*
X139358Y123486D01*
X139354Y123513D01*
X139309Y123597D01*
X139271Y123685D01*
X139252Y123706D01*
X139238Y123731D01*
X139169Y123796D01*
X139105Y123867D01*
X139081Y123881D01*
X139060Y123900D01*
X138974Y123940D01*
X138890Y123987D01*
X138863Y123992D01*
X138837Y124004D01*
X138742Y124014D01*
X138649Y124032D01*
X138621Y124028D01*
X138593Y124031D01*
X138499Y124011D01*
X138405Y123997D01*
X138373Y123983D01*
X138352Y123979D01*
X138324Y123962D01*
X138251Y123930D01*
X137901Y123727D01*
X137254Y123554D01*
X136049Y123554D01*
X136049Y132972D01*
X136046Y132991D01*
X136048Y133011D01*
X136036Y133068D01*
X136049Y133188D01*
X136049Y142606D01*
X137254Y142606D01*
X137901Y142433D01*
X138480Y142098D01*
X138765Y141813D01*
X138839Y141760D01*
X138909Y141700D01*
X138939Y141688D01*
X138965Y141669D01*
X139052Y141642D01*
X139137Y141608D01*
X139178Y141604D01*
X139200Y141597D01*
X139232Y141598D01*
X139304Y141590D01*
X144052Y141590D01*
X144392Y141250D01*
X144408Y141238D01*
X144420Y141222D01*
X144507Y141166D01*
X144591Y141106D01*
X144610Y141100D01*
X144627Y141089D01*
X144728Y141064D01*
X144827Y141034D01*
X144846Y141034D01*
X144866Y141029D01*
X144969Y141037D01*
X145072Y141040D01*
X145091Y141047D01*
X145111Y141048D01*
X145206Y141089D01*
X145303Y141124D01*
X145319Y141137D01*
X145337Y141145D01*
X145468Y141250D01*
X145808Y141590D01*
X150552Y141590D01*
X150892Y141250D01*
X150908Y141238D01*
X150920Y141222D01*
X151007Y141166D01*
X151091Y141106D01*
X151110Y141100D01*
X151127Y141089D01*
X151228Y141064D01*
X151327Y141034D01*
X151346Y141034D01*
X151366Y141029D01*
X151469Y141037D01*
X151572Y141040D01*
X151591Y141047D01*
X151611Y141048D01*
X151706Y141089D01*
X151803Y141124D01*
X151819Y141137D01*
X151837Y141145D01*
X151968Y141250D01*
X152308Y141590D01*
X157056Y141590D01*
X157146Y141604D01*
X157237Y141612D01*
X157267Y141624D01*
X157299Y141629D01*
X157380Y141672D01*
X157464Y141708D01*
X157496Y141734D01*
X157516Y141745D01*
X157539Y141768D01*
X157595Y141813D01*
X157880Y142098D01*
X158459Y142433D01*
X159106Y142606D01*
X160311Y142606D01*
X160311Y133188D01*
X160314Y133169D01*
X160312Y133149D01*
X160324Y133092D01*
X160311Y132972D01*
X160311Y123554D01*
X159106Y123554D01*
X158459Y123727D01*
X157880Y124062D01*
X157595Y124347D01*
X157521Y124400D01*
X157451Y124460D01*
X157421Y124472D01*
X157395Y124491D01*
X157308Y124518D01*
X157223Y124552D01*
X157182Y124556D01*
X157160Y124563D01*
X157128Y124562D01*
X157056Y124570D01*
X152308Y124570D01*
X152020Y124858D01*
X151962Y124900D01*
X151910Y124950D01*
X151863Y124972D01*
X151821Y125002D01*
X151752Y125023D01*
X151687Y125053D01*
X151635Y125059D01*
X151585Y125074D01*
X151514Y125072D01*
X151443Y125080D01*
X151392Y125069D01*
X151340Y125068D01*
X151272Y125043D01*
X151202Y125028D01*
X151157Y125001D01*
X151109Y124984D01*
X151053Y124939D01*
X150991Y124902D01*
X150957Y124862D01*
X150917Y124830D01*
X150878Y124770D01*
X150831Y124715D01*
X150812Y124667D01*
X150784Y124623D01*
X150766Y124554D01*
X150739Y124487D01*
X150732Y124418D01*
X149216Y122903D01*
X149147Y122897D01*
X149118Y122885D01*
X149086Y122880D01*
X149005Y122837D01*
X148921Y122801D01*
X148889Y122775D01*
X148868Y122764D01*
X148846Y122741D01*
X148790Y122696D01*
X147290Y121196D01*
X147237Y121122D01*
X147177Y121052D01*
X147165Y121022D01*
X147146Y120996D01*
X147119Y120909D01*
X147085Y120824D01*
X147081Y120783D01*
X147074Y120761D01*
X147075Y120729D01*
X147067Y120657D01*
X147067Y110621D01*
X147068Y110611D01*
X147068Y110606D01*
X147073Y110580D01*
X147081Y110531D01*
X147089Y110440D01*
X147101Y110410D01*
X147106Y110378D01*
X147149Y110298D01*
X147185Y110214D01*
X147211Y110182D01*
X147222Y110161D01*
X147245Y110139D01*
X147290Y110083D01*
X157506Y99867D01*
X157564Y99825D01*
X157616Y99775D01*
X157663Y99754D01*
X157705Y99723D01*
X157774Y99702D01*
X157839Y99672D01*
X157891Y99666D01*
X157941Y99651D01*
X158012Y99653D01*
X158083Y99645D01*
X158134Y99656D01*
X158186Y99657D01*
X158254Y99682D01*
X158324Y99697D01*
X158369Y99724D01*
X158417Y99742D01*
X158473Y99786D01*
X158535Y99823D01*
X158569Y99863D01*
X158609Y99895D01*
X158648Y99956D01*
X158695Y100010D01*
X158714Y100058D01*
X158742Y100102D01*
X158760Y100172D01*
X158787Y100238D01*
X158795Y100310D01*
X158803Y100341D01*
X158801Y100364D01*
X158805Y100405D01*
X158805Y101087D01*
X161633Y103915D01*
X164909Y103915D01*
X165000Y103929D01*
X165090Y103937D01*
X165120Y103949D01*
X165152Y103954D01*
X165233Y103997D01*
X165317Y104033D01*
X165349Y104059D01*
X165370Y104070D01*
X165392Y104093D01*
X165448Y104138D01*
X167162Y105852D01*
X167215Y105926D01*
X167275Y105996D01*
X167287Y106026D01*
X167306Y106052D01*
X167333Y106139D01*
X167367Y106224D01*
X167371Y106265D01*
X167378Y106287D01*
X167377Y106319D01*
X167380Y106345D01*
X225881Y164845D01*
X225892Y164861D01*
X225908Y164874D01*
X225964Y164961D01*
X226024Y165045D01*
X226030Y165064D01*
X226041Y165081D01*
X226066Y165181D01*
X226097Y165280D01*
X226096Y165300D01*
X226101Y165319D01*
X226093Y165422D01*
X226090Y165526D01*
X226083Y165545D01*
X226082Y165565D01*
X226041Y165660D01*
X226006Y165757D01*
X225993Y165773D01*
X225986Y165791D01*
X225885Y165916D01*
X225885Y173427D01*
X230738Y178280D01*
X230780Y178338D01*
X230830Y178390D01*
X230851Y178437D01*
X230882Y178479D01*
X230903Y178548D01*
X230933Y178613D01*
X230939Y178665D01*
X230954Y178715D01*
X230952Y178786D01*
X230960Y178857D01*
X230949Y178908D01*
X230948Y178960D01*
X230923Y179028D01*
X230908Y179098D01*
X230881Y179143D01*
X230863Y179191D01*
X230819Y179247D01*
X230782Y179309D01*
X230742Y179343D01*
X230710Y179383D01*
X230649Y179422D01*
X230595Y179469D01*
X230547Y179488D01*
X230503Y179516D01*
X230433Y179534D01*
X230367Y179561D01*
X230295Y179569D01*
X230264Y179577D01*
X230241Y179575D01*
X230200Y179579D01*
X214300Y179579D01*
X214229Y179568D01*
X214158Y179566D01*
X214109Y179548D01*
X214057Y179540D01*
X213994Y179506D01*
X213927Y179481D01*
X213886Y179449D01*
X213840Y179424D01*
X213791Y179372D01*
X213735Y179328D01*
X213706Y179284D01*
X213670Y179246D01*
X213640Y179181D01*
X213602Y179121D01*
X213589Y179070D01*
X213567Y179023D01*
X213559Y178952D01*
X213541Y178882D01*
X213546Y178830D01*
X213540Y178779D01*
X213555Y178708D01*
X213561Y178637D01*
X213581Y178589D01*
X213592Y178538D01*
X213629Y178477D01*
X213657Y178411D01*
X213702Y178355D01*
X213718Y178327D01*
X213736Y178312D01*
X213762Y178280D01*
X218615Y173427D01*
X218615Y165917D01*
X213305Y160607D01*
X205795Y160607D01*
X205296Y161107D01*
X205279Y161119D01*
X205267Y161134D01*
X205180Y161190D01*
X205096Y161251D01*
X205077Y161256D01*
X205060Y161267D01*
X204960Y161293D01*
X204861Y161323D01*
X204841Y161322D01*
X204821Y161327D01*
X204718Y161319D01*
X204615Y161317D01*
X204596Y161310D01*
X204576Y161308D01*
X204481Y161268D01*
X204384Y161232D01*
X204368Y161220D01*
X204350Y161212D01*
X204219Y161107D01*
X192248Y149136D01*
X190685Y147573D01*
X147095Y147573D01*
X147005Y147559D01*
X146914Y147551D01*
X146884Y147539D01*
X146852Y147534D01*
X146771Y147491D01*
X146687Y147455D01*
X146655Y147429D01*
X146635Y147418D01*
X146612Y147395D01*
X146556Y147350D01*
X144239Y145033D01*
X140241Y145033D01*
X137413Y147861D01*
X137413Y147864D01*
X137402Y147935D01*
X137400Y148007D01*
X137382Y148056D01*
X137374Y148107D01*
X137340Y148170D01*
X137315Y148238D01*
X137283Y148278D01*
X137258Y148324D01*
X137206Y148374D01*
X137162Y148430D01*
X137118Y148458D01*
X137080Y148494D01*
X137015Y148524D01*
X136955Y148563D01*
X136904Y148575D01*
X136857Y148597D01*
X136786Y148605D01*
X136716Y148623D01*
X136664Y148619D01*
X136613Y148624D01*
X136542Y148609D01*
X136471Y148604D01*
X136423Y148583D01*
X136372Y148572D01*
X136311Y148535D01*
X136245Y148507D01*
X136189Y148463D01*
X136161Y148446D01*
X136146Y148428D01*
X136114Y148403D01*
X134388Y146677D01*
X114657Y146677D01*
X114567Y146662D01*
X114476Y146655D01*
X114446Y146642D01*
X114414Y146637D01*
X114333Y146594D01*
X114249Y146558D01*
X114217Y146533D01*
X114197Y146522D01*
X114174Y146498D01*
X114118Y146454D01*
X111801Y144137D01*
X111125Y144137D01*
X111054Y144125D01*
X110983Y144123D01*
X110934Y144105D01*
X110882Y144097D01*
X110819Y144063D01*
X110752Y144039D01*
X110711Y144006D01*
X110665Y143982D01*
X110616Y143930D01*
X110560Y143885D01*
X110531Y143841D01*
X110496Y143803D01*
X110465Y143738D01*
X110427Y143678D01*
X110414Y143628D01*
X110392Y143580D01*
X110384Y143509D01*
X110367Y143440D01*
X110371Y143388D01*
X110365Y143336D01*
X110380Y143266D01*
X110386Y143194D01*
X110406Y143147D01*
X110417Y143096D01*
X110454Y143034D01*
X110482Y142968D01*
X110527Y142912D01*
X110543Y142884D01*
X110561Y142869D01*
X110587Y142837D01*
X111315Y142109D01*
X111331Y142098D01*
X111343Y142082D01*
X111430Y142026D01*
X111514Y141966D01*
X111533Y141960D01*
X111550Y141949D01*
X111651Y141924D01*
X111749Y141893D01*
X111769Y141894D01*
X111789Y141889D01*
X111892Y141897D01*
X111995Y141900D01*
X112014Y141907D01*
X112034Y141908D01*
X112129Y141949D01*
X112226Y141984D01*
X112242Y141997D01*
X112260Y142005D01*
X112370Y142092D01*
X112959Y142433D01*
X113606Y142606D01*
X114811Y142606D01*
X114811Y133188D01*
X114814Y133169D01*
X114812Y133149D01*
X114824Y133092D01*
X114811Y132972D01*
X114811Y123554D01*
X113606Y123554D01*
X112959Y123727D01*
X112380Y124062D01*
X112095Y124347D01*
X112021Y124400D01*
X111951Y124460D01*
X111921Y124472D01*
X111895Y124491D01*
X111808Y124518D01*
X111723Y124552D01*
X111682Y124556D01*
X111660Y124563D01*
X111628Y124562D01*
X111556Y124570D01*
X106808Y124570D01*
X106468Y124910D01*
X106452Y124922D01*
X106440Y124938D01*
X106363Y124987D01*
X106349Y124999D01*
X106340Y125003D01*
X106269Y125054D01*
X106250Y125060D01*
X106233Y125071D01*
X106132Y125096D01*
X106033Y125126D01*
X106014Y125126D01*
X105994Y125131D01*
X105891Y125123D01*
X105788Y125120D01*
X105769Y125113D01*
X105749Y125112D01*
X105654Y125071D01*
X105557Y125036D01*
X105541Y125023D01*
X105523Y125015D01*
X105449Y124956D01*
X105446Y124955D01*
X105443Y124951D01*
X105392Y124910D01*
X105190Y124708D01*
X105137Y124634D01*
X105077Y124565D01*
X105065Y124535D01*
X105046Y124509D01*
X105019Y124422D01*
X104985Y124337D01*
X104981Y124296D01*
X104974Y124274D01*
X104975Y124241D01*
X104967Y124170D01*
X104967Y119513D01*
X79980Y94526D01*
X79927Y94452D01*
X79867Y94382D01*
X79855Y94352D01*
X79836Y94326D01*
X79809Y94239D01*
X79775Y94154D01*
X79771Y94113D01*
X79764Y94091D01*
X79765Y94059D01*
X79757Y93987D01*
X79757Y90711D01*
X76929Y87883D01*
X72931Y87883D01*
X71582Y89232D01*
X71524Y89274D01*
X71472Y89323D01*
X71424Y89345D01*
X71382Y89376D01*
X71314Y89397D01*
X71249Y89427D01*
X71197Y89433D01*
X71147Y89448D01*
X71075Y89446D01*
X71004Y89454D01*
X70953Y89443D01*
X70901Y89442D01*
X70834Y89417D01*
X70764Y89402D01*
X70719Y89375D01*
X70670Y89357D01*
X70614Y89312D01*
X70553Y89276D01*
X70519Y89236D01*
X70478Y89203D01*
X70439Y89143D01*
X70393Y89089D01*
X70373Y89040D01*
X70345Y88997D01*
X70328Y88927D01*
X70301Y88861D01*
X70293Y88789D01*
X70285Y88758D01*
X70287Y88735D01*
X70282Y88694D01*
X70282Y87333D01*
X67455Y84505D01*
X66945Y84505D01*
X66874Y84494D01*
X66802Y84492D01*
X66753Y84474D01*
X66702Y84466D01*
X66639Y84432D01*
X66571Y84407D01*
X66531Y84375D01*
X66485Y84350D01*
X66435Y84298D01*
X66379Y84254D01*
X66351Y84210D01*
X66315Y84172D01*
X66285Y84107D01*
X66246Y84047D01*
X66234Y83996D01*
X66212Y83949D01*
X66204Y83878D01*
X66186Y83808D01*
X66190Y83756D01*
X66185Y83705D01*
X66200Y83634D01*
X66205Y83563D01*
X66226Y83515D01*
X66237Y83464D01*
X66274Y83403D01*
X66302Y83337D01*
X66347Y83281D01*
X66363Y83253D01*
X66381Y83238D01*
X66407Y83206D01*
X71745Y77868D01*
X71819Y77815D01*
X71888Y77755D01*
X71918Y77743D01*
X71944Y77724D01*
X72031Y77697D01*
X72116Y77663D01*
X72157Y77659D01*
X72179Y77652D01*
X72212Y77653D01*
X72283Y77645D01*
X80672Y77645D01*
X81565Y76752D01*
X81565Y74676D01*
X81568Y74656D01*
X81566Y74637D01*
X81588Y74535D01*
X81604Y74433D01*
X81614Y74416D01*
X81618Y74396D01*
X81671Y74307D01*
X81720Y74216D01*
X81734Y74202D01*
X81744Y74185D01*
X81823Y74118D01*
X81898Y74046D01*
X81916Y74038D01*
X81931Y74025D01*
X82027Y73986D01*
X82121Y73943D01*
X82141Y73941D01*
X82159Y73933D01*
X82326Y73915D01*
X84887Y73915D01*
X84977Y73929D01*
G37*
G36*
X326160Y100373D02*
X326160Y100373D01*
X326251Y100381D01*
X326281Y100393D01*
X326313Y100398D01*
X326394Y100441D01*
X326478Y100477D01*
X326510Y100503D01*
X326530Y100514D01*
X326553Y100537D01*
X326609Y100582D01*
X337329Y111302D01*
X337371Y111360D01*
X337420Y111412D01*
X337442Y111459D01*
X337472Y111501D01*
X337493Y111570D01*
X337524Y111635D01*
X337529Y111687D01*
X337545Y111737D01*
X337543Y111808D01*
X337551Y111879D01*
X337540Y111930D01*
X337538Y111982D01*
X337514Y112050D01*
X337498Y112120D01*
X337472Y112165D01*
X337454Y112213D01*
X337409Y112269D01*
X337372Y112331D01*
X337333Y112365D01*
X337300Y112405D01*
X337240Y112444D01*
X337185Y112491D01*
X337137Y112510D01*
X337093Y112538D01*
X337024Y112556D01*
X336957Y112583D01*
X336886Y112591D01*
X336855Y112599D01*
X336831Y112597D01*
X336790Y112601D01*
X335923Y112601D01*
X335923Y119380D01*
X335920Y119400D01*
X335922Y119419D01*
X335900Y119521D01*
X335883Y119623D01*
X335874Y119640D01*
X335870Y119660D01*
X335817Y119749D01*
X335768Y119840D01*
X335754Y119854D01*
X335744Y119871D01*
X335665Y119938D01*
X335590Y120009D01*
X335572Y120018D01*
X335557Y120031D01*
X335461Y120070D01*
X335367Y120113D01*
X335347Y120115D01*
X335329Y120123D01*
X335162Y120141D01*
X334399Y120141D01*
X334399Y120143D01*
X335162Y120143D01*
X335182Y120146D01*
X335201Y120144D01*
X335303Y120166D01*
X335405Y120183D01*
X335422Y120192D01*
X335442Y120196D01*
X335531Y120249D01*
X335622Y120298D01*
X335636Y120312D01*
X335653Y120322D01*
X335720Y120401D01*
X335791Y120476D01*
X335800Y120494D01*
X335813Y120509D01*
X335852Y120605D01*
X335895Y120699D01*
X335897Y120719D01*
X335905Y120737D01*
X335923Y120904D01*
X335923Y127683D01*
X339881Y127683D01*
X339971Y127697D01*
X340062Y127705D01*
X340091Y127717D01*
X340123Y127722D01*
X340204Y127765D01*
X340288Y127801D01*
X340320Y127827D01*
X340341Y127838D01*
X340363Y127861D01*
X340419Y127906D01*
X342452Y129939D01*
X360774Y129939D01*
X360864Y129953D01*
X360955Y129961D01*
X360985Y129973D01*
X361017Y129978D01*
X361098Y130021D01*
X361182Y130057D01*
X361214Y130083D01*
X361234Y130094D01*
X361257Y130117D01*
X361313Y130162D01*
X384840Y153689D01*
X384893Y153763D01*
X384953Y153833D01*
X384965Y153863D01*
X384984Y153889D01*
X385011Y153976D01*
X385045Y154061D01*
X385049Y154102D01*
X385056Y154124D01*
X385055Y154156D01*
X385063Y154228D01*
X385063Y159846D01*
X385060Y159866D01*
X385062Y159885D01*
X385040Y159987D01*
X385024Y160089D01*
X385014Y160106D01*
X385010Y160126D01*
X384957Y160215D01*
X384908Y160306D01*
X384894Y160320D01*
X384884Y160337D01*
X384805Y160404D01*
X384730Y160476D01*
X384712Y160484D01*
X384697Y160497D01*
X384601Y160536D01*
X384507Y160579D01*
X384487Y160581D01*
X384469Y160589D01*
X384302Y160607D01*
X383595Y160607D01*
X380348Y163855D01*
X380332Y163866D01*
X380319Y163882D01*
X380232Y163938D01*
X380148Y163998D01*
X380129Y164004D01*
X380112Y164015D01*
X380012Y164040D01*
X379913Y164070D01*
X379893Y164070D01*
X379874Y164075D01*
X379771Y164067D01*
X379667Y164064D01*
X379649Y164057D01*
X379629Y164056D01*
X379534Y164015D01*
X379436Y163980D01*
X379421Y163967D01*
X379402Y163959D01*
X379271Y163855D01*
X377951Y162534D01*
X359536Y144119D01*
X359483Y144045D01*
X359423Y143975D01*
X359411Y143945D01*
X359392Y143919D01*
X359365Y143832D01*
X359331Y143747D01*
X359327Y143706D01*
X359320Y143684D01*
X359321Y143652D01*
X359313Y143581D01*
X359313Y133116D01*
X358420Y132223D01*
X341156Y132223D01*
X340263Y133116D01*
X340263Y150986D01*
X340260Y151006D01*
X340262Y151025D01*
X340240Y151127D01*
X340224Y151229D01*
X340214Y151246D01*
X340210Y151266D01*
X340157Y151355D01*
X340108Y151446D01*
X340094Y151460D01*
X340084Y151477D01*
X340005Y151544D01*
X339930Y151616D01*
X339912Y151624D01*
X339897Y151637D01*
X339801Y151676D01*
X339707Y151719D01*
X339687Y151721D01*
X339669Y151729D01*
X339502Y151747D01*
X333090Y151747D01*
X333070Y151744D01*
X333051Y151746D01*
X332949Y151724D01*
X332847Y151708D01*
X332830Y151698D01*
X332810Y151694D01*
X332721Y151641D01*
X332630Y151592D01*
X332616Y151578D01*
X332599Y151568D01*
X332532Y151489D01*
X332460Y151414D01*
X332452Y151396D01*
X332439Y151381D01*
X332400Y151285D01*
X332357Y151191D01*
X332355Y151171D01*
X332347Y151153D01*
X332329Y150986D01*
X332329Y144271D01*
X322550Y144271D01*
X322530Y144268D01*
X322511Y144270D01*
X322409Y144248D01*
X322307Y144231D01*
X322290Y144222D01*
X322270Y144218D01*
X322181Y144165D01*
X322090Y144116D01*
X322076Y144102D01*
X322059Y144092D01*
X321992Y144013D01*
X321921Y143938D01*
X321912Y143920D01*
X321899Y143905D01*
X321860Y143809D01*
X321817Y143715D01*
X321815Y143695D01*
X321807Y143677D01*
X321789Y143510D01*
X321789Y142747D01*
X321787Y142747D01*
X321787Y143510D01*
X321784Y143530D01*
X321786Y143549D01*
X321764Y143651D01*
X321747Y143753D01*
X321738Y143770D01*
X321734Y143790D01*
X321681Y143879D01*
X321632Y143970D01*
X321618Y143984D01*
X321608Y144001D01*
X321529Y144068D01*
X321454Y144139D01*
X321436Y144148D01*
X321421Y144161D01*
X321325Y144200D01*
X321231Y144243D01*
X321211Y144245D01*
X321193Y144253D01*
X321026Y144271D01*
X311247Y144271D01*
X311247Y144495D01*
X311236Y144565D01*
X311234Y144637D01*
X311216Y144686D01*
X311208Y144737D01*
X311174Y144801D01*
X311149Y144868D01*
X311117Y144909D01*
X311092Y144955D01*
X311040Y145004D01*
X310996Y145060D01*
X310952Y145088D01*
X310914Y145124D01*
X310849Y145154D01*
X310789Y145193D01*
X310738Y145206D01*
X310691Y145228D01*
X310620Y145236D01*
X310550Y145253D01*
X310498Y145249D01*
X310447Y145255D01*
X310376Y145240D01*
X310305Y145234D01*
X310257Y145214D01*
X310206Y145203D01*
X310145Y145166D01*
X310079Y145138D01*
X310023Y145093D01*
X309995Y145077D01*
X309980Y145059D01*
X309948Y145033D01*
X307408Y142493D01*
X303409Y142493D01*
X300582Y145321D01*
X300582Y149319D01*
X303409Y152147D01*
X305968Y152147D01*
X306058Y152161D01*
X306149Y152169D01*
X306179Y152181D01*
X306210Y152186D01*
X306291Y152229D01*
X306375Y152265D01*
X306407Y152291D01*
X306428Y152302D01*
X306450Y152325D01*
X306506Y152370D01*
X309613Y155477D01*
X311473Y157337D01*
X348867Y157337D01*
X350727Y155477D01*
X352708Y153496D01*
X352782Y153443D01*
X352851Y153383D01*
X352882Y153371D01*
X352908Y153352D01*
X352995Y153325D01*
X353080Y153291D01*
X353120Y153287D01*
X353143Y153280D01*
X353175Y153281D01*
X353246Y153273D01*
X358420Y153273D01*
X359064Y152628D01*
X359080Y152617D01*
X359093Y152601D01*
X359180Y152545D01*
X359264Y152485D01*
X359283Y152479D01*
X359299Y152468D01*
X359400Y152443D01*
X359499Y152412D01*
X359519Y152413D01*
X359538Y152408D01*
X359641Y152416D01*
X359745Y152419D01*
X359763Y152426D01*
X359783Y152427D01*
X359878Y152468D01*
X359976Y152503D01*
X359991Y152516D01*
X360010Y152524D01*
X360141Y152628D01*
X373998Y166486D01*
X374051Y166560D01*
X374111Y166630D01*
X374123Y166660D01*
X374142Y166686D01*
X374169Y166773D01*
X374203Y166858D01*
X374207Y166899D01*
X374214Y166921D01*
X374213Y166953D01*
X374221Y167024D01*
X374221Y177142D01*
X375359Y178280D01*
X375401Y178338D01*
X375450Y178390D01*
X375472Y178437D01*
X375502Y178479D01*
X375524Y178548D01*
X375554Y178613D01*
X375559Y178665D01*
X375575Y178715D01*
X375573Y178786D01*
X375581Y178857D01*
X375570Y178908D01*
X375568Y178960D01*
X375544Y179028D01*
X375529Y179098D01*
X375502Y179143D01*
X375484Y179191D01*
X375439Y179247D01*
X375402Y179309D01*
X375363Y179343D01*
X375330Y179383D01*
X375270Y179422D01*
X375215Y179469D01*
X375167Y179488D01*
X375123Y179516D01*
X375054Y179534D01*
X374987Y179561D01*
X374916Y179569D01*
X374885Y179577D01*
X374862Y179575D01*
X374821Y179579D01*
X366700Y179579D01*
X366629Y179568D01*
X366558Y179566D01*
X366509Y179548D01*
X366457Y179540D01*
X366394Y179506D01*
X366327Y179481D01*
X366286Y179449D01*
X366240Y179424D01*
X366191Y179372D01*
X366135Y179328D01*
X366106Y179284D01*
X366070Y179246D01*
X366040Y179181D01*
X366002Y179121D01*
X365989Y179070D01*
X365967Y179023D01*
X365959Y178952D01*
X365941Y178882D01*
X365946Y178830D01*
X365940Y178779D01*
X365955Y178708D01*
X365961Y178637D01*
X365981Y178589D01*
X365992Y178538D01*
X366029Y178477D01*
X366057Y178411D01*
X366102Y178355D01*
X366118Y178327D01*
X366136Y178312D01*
X366162Y178280D01*
X371015Y173427D01*
X371015Y165917D01*
X365705Y160607D01*
X358195Y160607D01*
X353344Y165459D01*
X353270Y165512D01*
X353200Y165571D01*
X353170Y165583D01*
X353144Y165602D01*
X353057Y165629D01*
X352972Y165663D01*
X352931Y165668D01*
X352909Y165675D01*
X352883Y165674D01*
X351387Y167170D01*
X351387Y167214D01*
X351372Y167304D01*
X351365Y167395D01*
X351352Y167425D01*
X351347Y167457D01*
X351304Y167537D01*
X351269Y167621D01*
X351243Y167653D01*
X351232Y167674D01*
X351209Y167696D01*
X351164Y167752D01*
X346914Y172002D01*
X346856Y172044D01*
X346804Y172093D01*
X346757Y172115D01*
X346715Y172145D01*
X346646Y172167D01*
X346581Y172197D01*
X346529Y172202D01*
X346479Y172218D01*
X346408Y172216D01*
X346337Y172224D01*
X346286Y172213D01*
X346234Y172211D01*
X346166Y172187D01*
X346096Y172172D01*
X346051Y172145D01*
X346003Y172127D01*
X345947Y172082D01*
X345885Y172045D01*
X345851Y172006D01*
X345811Y171973D01*
X345772Y171913D01*
X345725Y171858D01*
X345706Y171810D01*
X345678Y171766D01*
X345660Y171697D01*
X345633Y171630D01*
X345625Y171559D01*
X345617Y171528D01*
X345619Y171505D01*
X345615Y171464D01*
X345615Y165917D01*
X340305Y160607D01*
X332795Y160607D01*
X327485Y165917D01*
X327485Y173427D01*
X330224Y176166D01*
X330266Y176224D01*
X330316Y176276D01*
X330337Y176323D01*
X330368Y176365D01*
X330389Y176434D01*
X330419Y176499D01*
X330425Y176551D01*
X330440Y176601D01*
X330438Y176672D01*
X330446Y176743D01*
X330435Y176794D01*
X330434Y176846D01*
X330409Y176914D01*
X330394Y176984D01*
X330367Y177029D01*
X330349Y177077D01*
X330305Y177133D01*
X330268Y177195D01*
X330228Y177229D01*
X330196Y177269D01*
X330135Y177308D01*
X330081Y177355D01*
X330033Y177374D01*
X329989Y177402D01*
X329919Y177420D01*
X329853Y177447D01*
X329781Y177455D01*
X329750Y177463D01*
X329727Y177461D01*
X329686Y177465D01*
X319451Y177465D01*
X319380Y177454D01*
X319308Y177452D01*
X319259Y177434D01*
X319208Y177426D01*
X319145Y177392D01*
X319077Y177367D01*
X319037Y177335D01*
X318991Y177310D01*
X318941Y177258D01*
X318885Y177214D01*
X318857Y177170D01*
X318821Y177132D01*
X318791Y177067D01*
X318752Y177007D01*
X318740Y176956D01*
X318718Y176909D01*
X318710Y176838D01*
X318692Y176768D01*
X318696Y176716D01*
X318691Y176665D01*
X318706Y176594D01*
X318711Y176523D01*
X318732Y176475D01*
X318743Y176424D01*
X318780Y176363D01*
X318808Y176297D01*
X318853Y176241D01*
X318869Y176213D01*
X318887Y176198D01*
X318913Y176166D01*
X321231Y173848D01*
X321231Y171195D01*
X311912Y171195D01*
X311892Y171192D01*
X311873Y171194D01*
X311771Y171172D01*
X311669Y171155D01*
X311652Y171146D01*
X311632Y171142D01*
X311543Y171089D01*
X311452Y171040D01*
X311438Y171026D01*
X311421Y171016D01*
X311354Y170937D01*
X311283Y170862D01*
X311274Y170844D01*
X311261Y170829D01*
X311223Y170733D01*
X311179Y170639D01*
X311177Y170619D01*
X311169Y170601D01*
X311151Y170434D01*
X311151Y169671D01*
X310388Y169671D01*
X310368Y169668D01*
X310349Y169670D01*
X310247Y169648D01*
X310145Y169631D01*
X310128Y169622D01*
X310108Y169618D01*
X310019Y169565D01*
X309928Y169516D01*
X309914Y169502D01*
X309897Y169492D01*
X309830Y169413D01*
X309759Y169338D01*
X309750Y169320D01*
X309737Y169305D01*
X309698Y169209D01*
X309655Y169115D01*
X309653Y169095D01*
X309645Y169077D01*
X309627Y168910D01*
X309627Y159591D01*
X306974Y159591D01*
X301354Y165211D01*
X301296Y165253D01*
X301244Y165303D01*
X301197Y165325D01*
X301155Y165355D01*
X301086Y165376D01*
X301021Y165406D01*
X300969Y165412D01*
X300919Y165427D01*
X300848Y165425D01*
X300777Y165433D01*
X300726Y165422D01*
X300674Y165421D01*
X300606Y165396D01*
X300536Y165381D01*
X300491Y165354D01*
X300443Y165337D01*
X300387Y165292D01*
X300325Y165255D01*
X300291Y165215D01*
X300251Y165183D01*
X300212Y165123D01*
X300165Y165068D01*
X300146Y165020D01*
X300118Y164976D01*
X300100Y164906D01*
X300073Y164840D01*
X300065Y164769D01*
X300057Y164737D01*
X300059Y164714D01*
X300055Y164673D01*
X300055Y154530D01*
X293594Y148069D01*
X293541Y147995D01*
X293481Y147925D01*
X293469Y147895D01*
X293450Y147869D01*
X293423Y147782D01*
X293389Y147697D01*
X293385Y147656D01*
X293378Y147634D01*
X293379Y147602D01*
X293371Y147530D01*
X293371Y147110D01*
X293385Y147019D01*
X293393Y146929D01*
X293405Y146899D01*
X293410Y146867D01*
X293453Y146786D01*
X293489Y146702D01*
X293515Y146670D01*
X293526Y146649D01*
X293549Y146627D01*
X293594Y146571D01*
X295375Y144790D01*
X295375Y104489D01*
X292798Y101912D01*
X292756Y101854D01*
X292706Y101802D01*
X292685Y101755D01*
X292654Y101713D01*
X292633Y101644D01*
X292603Y101579D01*
X292597Y101527D01*
X292582Y101477D01*
X292584Y101406D01*
X292576Y101335D01*
X292587Y101284D01*
X292588Y101232D01*
X292613Y101164D01*
X292628Y101094D01*
X292655Y101049D01*
X292673Y101001D01*
X292717Y100945D01*
X292754Y100883D01*
X292794Y100849D01*
X292826Y100809D01*
X292887Y100770D01*
X292941Y100723D01*
X292989Y100704D01*
X293033Y100676D01*
X293103Y100658D01*
X293169Y100631D01*
X293241Y100623D01*
X293272Y100615D01*
X293295Y100617D01*
X293336Y100613D01*
X310230Y100613D01*
X310261Y100582D01*
X310335Y100529D01*
X310404Y100469D01*
X310434Y100457D01*
X310461Y100438D01*
X310547Y100411D01*
X310632Y100377D01*
X310673Y100373D01*
X310696Y100366D01*
X310728Y100367D01*
X310799Y100359D01*
X326070Y100359D01*
X326160Y100373D01*
G37*
G36*
X35367Y108473D02*
X35367Y108473D01*
X35458Y108481D01*
X35488Y108493D01*
X35520Y108498D01*
X35601Y108541D01*
X35685Y108577D01*
X35717Y108603D01*
X35737Y108614D01*
X35760Y108637D01*
X35816Y108682D01*
X37416Y110282D01*
X37469Y110356D01*
X37529Y110426D01*
X37541Y110456D01*
X37560Y110482D01*
X37587Y110569D01*
X37621Y110654D01*
X37625Y110695D01*
X37632Y110717D01*
X37631Y110749D01*
X37639Y110821D01*
X37639Y116158D01*
X37636Y116178D01*
X37638Y116197D01*
X37616Y116299D01*
X37600Y116401D01*
X37590Y116418D01*
X37586Y116438D01*
X37533Y116527D01*
X37484Y116618D01*
X37470Y116632D01*
X37460Y116649D01*
X37381Y116716D01*
X37306Y116788D01*
X37288Y116796D01*
X37273Y116809D01*
X37177Y116848D01*
X37083Y116891D01*
X37063Y116893D01*
X37045Y116901D01*
X36878Y116919D01*
X33663Y116919D01*
X33663Y123698D01*
X33660Y123718D01*
X33662Y123737D01*
X33640Y123839D01*
X33623Y123941D01*
X33614Y123958D01*
X33610Y123978D01*
X33557Y124067D01*
X33508Y124158D01*
X33494Y124172D01*
X33484Y124189D01*
X33405Y124256D01*
X33330Y124327D01*
X33312Y124336D01*
X33297Y124349D01*
X33201Y124388D01*
X33107Y124431D01*
X33087Y124433D01*
X33069Y124441D01*
X32902Y124459D01*
X32139Y124459D01*
X32139Y124461D01*
X32902Y124461D01*
X32922Y124464D01*
X32941Y124462D01*
X33043Y124484D01*
X33145Y124501D01*
X33162Y124510D01*
X33182Y124514D01*
X33271Y124567D01*
X33362Y124616D01*
X33376Y124630D01*
X33393Y124640D01*
X33460Y124719D01*
X33531Y124794D01*
X33540Y124812D01*
X33553Y124827D01*
X33592Y124923D01*
X33635Y125017D01*
X33637Y125037D01*
X33645Y125055D01*
X33663Y125222D01*
X33663Y132001D01*
X37974Y132001D01*
X38621Y131828D01*
X38698Y131783D01*
X38739Y131767D01*
X38776Y131744D01*
X38853Y131724D01*
X38928Y131696D01*
X38972Y131694D01*
X39015Y131684D01*
X39094Y131690D01*
X39174Y131687D01*
X39216Y131699D01*
X39260Y131703D01*
X39333Y131734D01*
X39410Y131757D01*
X39446Y131782D01*
X39486Y131799D01*
X39600Y131890D01*
X39611Y131898D01*
X39613Y131901D01*
X39617Y131904D01*
X40910Y133197D01*
X40922Y133213D01*
X40937Y133226D01*
X40993Y133313D01*
X41054Y133397D01*
X41060Y133416D01*
X41070Y133433D01*
X41096Y133533D01*
X41126Y133632D01*
X41126Y133652D01*
X41130Y133671D01*
X41122Y133774D01*
X41120Y133878D01*
X41113Y133896D01*
X41111Y133916D01*
X41071Y134011D01*
X41035Y134109D01*
X41023Y134124D01*
X41015Y134143D01*
X40910Y134274D01*
X40035Y135148D01*
X40035Y154412D01*
X40928Y155305D01*
X58192Y155305D01*
X59085Y154412D01*
X59085Y139144D01*
X59096Y139073D01*
X59098Y139001D01*
X59116Y138952D01*
X59124Y138901D01*
X59158Y138837D01*
X59183Y138770D01*
X59215Y138729D01*
X59240Y138683D01*
X59292Y138634D01*
X59336Y138578D01*
X59380Y138550D01*
X59418Y138514D01*
X59483Y138484D01*
X59543Y138445D01*
X59594Y138432D01*
X59641Y138410D01*
X59712Y138403D01*
X59782Y138385D01*
X59834Y138389D01*
X59885Y138383D01*
X59956Y138399D01*
X60027Y138404D01*
X60075Y138425D01*
X60126Y138436D01*
X60187Y138472D01*
X60253Y138500D01*
X60309Y138545D01*
X60337Y138562D01*
X60352Y138580D01*
X60384Y138605D01*
X70116Y148337D01*
X89887Y148337D01*
X89958Y148348D01*
X90030Y148350D01*
X90079Y148368D01*
X90130Y148376D01*
X90193Y148410D01*
X90261Y148435D01*
X90302Y148467D01*
X90348Y148492D01*
X90397Y148543D01*
X90453Y148588D01*
X90481Y148632D01*
X90517Y148670D01*
X90547Y148735D01*
X90586Y148795D01*
X90599Y148846D01*
X90621Y148893D01*
X90628Y148964D01*
X90646Y149034D01*
X90642Y149086D01*
X90648Y149137D01*
X90632Y149208D01*
X90627Y149279D01*
X90606Y149327D01*
X90595Y149378D01*
X90559Y149439D01*
X90531Y149505D01*
X90486Y149561D01*
X90469Y149589D01*
X90451Y149604D01*
X90426Y149636D01*
X90423Y149639D01*
X90423Y153637D01*
X93251Y156465D01*
X97249Y156465D01*
X99566Y154148D01*
X99640Y154095D01*
X99710Y154035D01*
X99740Y154023D01*
X99766Y154004D01*
X99853Y153977D01*
X99938Y153943D01*
X99979Y153939D01*
X100001Y153932D01*
X100033Y153933D01*
X100105Y153925D01*
X103312Y153925D01*
X103402Y153939D01*
X103493Y153947D01*
X103522Y153959D01*
X103554Y153964D01*
X103635Y154007D01*
X103719Y154043D01*
X103751Y154069D01*
X103772Y154080D01*
X103794Y154103D01*
X103850Y154148D01*
X106540Y156838D01*
X116967Y156838D01*
X117057Y156853D01*
X117148Y156860D01*
X117178Y156873D01*
X117210Y156878D01*
X117290Y156921D01*
X117374Y156956D01*
X117406Y156982D01*
X117427Y156993D01*
X117449Y157016D01*
X117505Y157061D01*
X124785Y164341D01*
X124797Y164357D01*
X124812Y164370D01*
X124868Y164457D01*
X124929Y164541D01*
X124934Y164560D01*
X124945Y164577D01*
X124971Y164677D01*
X125001Y164776D01*
X125000Y164796D01*
X125005Y164815D01*
X124997Y164918D01*
X124995Y165022D01*
X124988Y165040D01*
X124986Y165060D01*
X124946Y165155D01*
X124910Y165253D01*
X124898Y165268D01*
X124890Y165287D01*
X124785Y165418D01*
X124285Y165917D01*
X124285Y173427D01*
X129138Y178280D01*
X129180Y178338D01*
X129230Y178390D01*
X129251Y178437D01*
X129282Y178479D01*
X129303Y178548D01*
X129333Y178613D01*
X129339Y178665D01*
X129354Y178715D01*
X129352Y178786D01*
X129360Y178857D01*
X129349Y178908D01*
X129348Y178960D01*
X129323Y179028D01*
X129308Y179098D01*
X129281Y179143D01*
X129263Y179191D01*
X129219Y179247D01*
X129182Y179309D01*
X129142Y179343D01*
X129110Y179383D01*
X129049Y179422D01*
X128995Y179469D01*
X128947Y179488D01*
X128903Y179516D01*
X128833Y179534D01*
X128767Y179561D01*
X128695Y179569D01*
X128664Y179577D01*
X128641Y179575D01*
X128600Y179579D01*
X112700Y179579D01*
X112629Y179568D01*
X112558Y179566D01*
X112509Y179548D01*
X112457Y179540D01*
X112394Y179506D01*
X112327Y179481D01*
X112286Y179449D01*
X112240Y179424D01*
X112191Y179372D01*
X112135Y179328D01*
X112106Y179284D01*
X112070Y179246D01*
X112040Y179181D01*
X112002Y179121D01*
X111989Y179070D01*
X111967Y179023D01*
X111959Y178952D01*
X111941Y178882D01*
X111946Y178830D01*
X111940Y178779D01*
X111955Y178708D01*
X111961Y178637D01*
X111981Y178589D01*
X111992Y178538D01*
X112029Y178477D01*
X112057Y178411D01*
X112102Y178355D01*
X112118Y178327D01*
X112136Y178312D01*
X112162Y178280D01*
X117015Y173427D01*
X117015Y165917D01*
X111705Y160607D01*
X104195Y160607D01*
X98885Y165917D01*
X98885Y173427D01*
X103738Y178280D01*
X103780Y178338D01*
X103830Y178390D01*
X103851Y178437D01*
X103882Y178479D01*
X103903Y178548D01*
X103933Y178613D01*
X103939Y178665D01*
X103954Y178715D01*
X103952Y178786D01*
X103960Y178857D01*
X103949Y178908D01*
X103948Y178960D01*
X103923Y179028D01*
X103908Y179098D01*
X103881Y179143D01*
X103863Y179191D01*
X103819Y179247D01*
X103782Y179309D01*
X103742Y179343D01*
X103710Y179383D01*
X103649Y179422D01*
X103595Y179469D01*
X103547Y179488D01*
X103503Y179516D01*
X103433Y179534D01*
X103367Y179561D01*
X103295Y179569D01*
X103264Y179577D01*
X103241Y179575D01*
X103200Y179579D01*
X87300Y179579D01*
X87229Y179568D01*
X87158Y179566D01*
X87109Y179548D01*
X87057Y179540D01*
X86994Y179506D01*
X86927Y179481D01*
X86886Y179449D01*
X86840Y179424D01*
X86791Y179372D01*
X86735Y179328D01*
X86706Y179284D01*
X86670Y179246D01*
X86640Y179181D01*
X86602Y179121D01*
X86589Y179070D01*
X86567Y179023D01*
X86559Y178952D01*
X86541Y178882D01*
X86546Y178830D01*
X86540Y178779D01*
X86555Y178708D01*
X86561Y178637D01*
X86581Y178589D01*
X86592Y178538D01*
X86629Y178477D01*
X86657Y178411D01*
X86702Y178355D01*
X86718Y178327D01*
X86736Y178312D01*
X86762Y178280D01*
X91615Y173427D01*
X91615Y165917D01*
X86305Y160607D01*
X78795Y160607D01*
X73485Y165917D01*
X73485Y173427D01*
X78338Y178280D01*
X78380Y178338D01*
X78430Y178390D01*
X78451Y178437D01*
X78482Y178479D01*
X78503Y178548D01*
X78533Y178613D01*
X78539Y178665D01*
X78554Y178715D01*
X78552Y178786D01*
X78560Y178857D01*
X78549Y178908D01*
X78548Y178960D01*
X78523Y179028D01*
X78508Y179098D01*
X78481Y179143D01*
X78463Y179191D01*
X78419Y179247D01*
X78382Y179309D01*
X78342Y179343D01*
X78310Y179383D01*
X78249Y179422D01*
X78195Y179469D01*
X78147Y179488D01*
X78103Y179516D01*
X78033Y179534D01*
X77967Y179561D01*
X77895Y179569D01*
X77864Y179577D01*
X77841Y179575D01*
X77800Y179579D01*
X61900Y179579D01*
X61829Y179568D01*
X61758Y179566D01*
X61709Y179548D01*
X61657Y179540D01*
X61594Y179506D01*
X61527Y179481D01*
X61486Y179449D01*
X61440Y179424D01*
X61391Y179372D01*
X61335Y179328D01*
X61306Y179284D01*
X61270Y179246D01*
X61240Y179181D01*
X61202Y179121D01*
X61189Y179070D01*
X61167Y179023D01*
X61159Y178952D01*
X61141Y178882D01*
X61146Y178830D01*
X61140Y178779D01*
X61155Y178708D01*
X61161Y178637D01*
X61181Y178589D01*
X61192Y178538D01*
X61229Y178477D01*
X61257Y178411D01*
X61302Y178355D01*
X61318Y178327D01*
X61336Y178312D01*
X61362Y178280D01*
X66215Y173427D01*
X66215Y165917D01*
X60905Y160607D01*
X53395Y160607D01*
X48085Y165917D01*
X48085Y173427D01*
X52938Y178280D01*
X52980Y178338D01*
X53030Y178390D01*
X53051Y178437D01*
X53082Y178479D01*
X53103Y178548D01*
X53133Y178613D01*
X53139Y178665D01*
X53154Y178715D01*
X53152Y178786D01*
X53160Y178857D01*
X53149Y178908D01*
X53148Y178960D01*
X53123Y179028D01*
X53108Y179098D01*
X53081Y179143D01*
X53063Y179191D01*
X53019Y179247D01*
X52982Y179309D01*
X52942Y179343D01*
X52910Y179383D01*
X52849Y179422D01*
X52795Y179469D01*
X52747Y179488D01*
X52703Y179516D01*
X52633Y179534D01*
X52567Y179561D01*
X52495Y179569D01*
X52464Y179577D01*
X52441Y179575D01*
X52400Y179579D01*
X36500Y179579D01*
X36429Y179568D01*
X36358Y179566D01*
X36309Y179548D01*
X36257Y179540D01*
X36194Y179506D01*
X36127Y179481D01*
X36086Y179449D01*
X36040Y179424D01*
X35991Y179372D01*
X35935Y179328D01*
X35906Y179284D01*
X35870Y179246D01*
X35840Y179181D01*
X35802Y179121D01*
X35789Y179070D01*
X35767Y179023D01*
X35759Y178952D01*
X35741Y178882D01*
X35746Y178830D01*
X35740Y178779D01*
X35755Y178708D01*
X35761Y178637D01*
X35781Y178589D01*
X35792Y178538D01*
X35829Y178477D01*
X35857Y178411D01*
X35902Y178355D01*
X35918Y178327D01*
X35936Y178312D01*
X35962Y178280D01*
X40815Y173427D01*
X40815Y165917D01*
X35505Y160607D01*
X27995Y160607D01*
X22685Y165917D01*
X22685Y173427D01*
X27538Y178280D01*
X27580Y178338D01*
X27630Y178390D01*
X27651Y178437D01*
X27682Y178479D01*
X27703Y178548D01*
X27733Y178613D01*
X27739Y178665D01*
X27754Y178715D01*
X27752Y178786D01*
X27760Y178857D01*
X27749Y178908D01*
X27748Y178960D01*
X27723Y179028D01*
X27708Y179098D01*
X27681Y179143D01*
X27663Y179191D01*
X27619Y179247D01*
X27582Y179309D01*
X27542Y179343D01*
X27510Y179383D01*
X27449Y179422D01*
X27395Y179469D01*
X27347Y179488D01*
X27303Y179516D01*
X27233Y179534D01*
X27167Y179561D01*
X27095Y179569D01*
X27064Y179577D01*
X27041Y179575D01*
X27000Y179579D01*
X10922Y179579D01*
X10902Y179576D01*
X10883Y179578D01*
X10781Y179556D01*
X10679Y179540D01*
X10662Y179530D01*
X10642Y179526D01*
X10553Y179473D01*
X10462Y179424D01*
X10448Y179410D01*
X10431Y179400D01*
X10364Y179321D01*
X10292Y179246D01*
X10284Y179228D01*
X10271Y179213D01*
X10232Y179117D01*
X10189Y179023D01*
X10187Y179003D01*
X10179Y178985D01*
X10161Y178818D01*
X10161Y155812D01*
X10172Y155741D01*
X10174Y155669D01*
X10192Y155620D01*
X10200Y155569D01*
X10234Y155506D01*
X10259Y155438D01*
X10291Y155397D01*
X10316Y155352D01*
X10367Y155302D01*
X10412Y155246D01*
X10456Y155218D01*
X10494Y155182D01*
X10559Y155152D01*
X10619Y155113D01*
X10670Y155100D01*
X10717Y155079D01*
X10788Y155071D01*
X10858Y155053D01*
X10910Y155057D01*
X10961Y155051D01*
X11032Y155067D01*
X11103Y155072D01*
X11151Y155093D01*
X11202Y155104D01*
X11263Y155141D01*
X11329Y155169D01*
X11385Y155213D01*
X11413Y155230D01*
X11428Y155248D01*
X11460Y155273D01*
X12000Y155813D01*
X12579Y156148D01*
X13226Y156321D01*
X20037Y156321D01*
X20037Y145542D01*
X20040Y145522D01*
X20038Y145503D01*
X20060Y145401D01*
X20077Y145299D01*
X20086Y145282D01*
X20090Y145262D01*
X20143Y145173D01*
X20192Y145082D01*
X20206Y145068D01*
X20216Y145051D01*
X20295Y144984D01*
X20370Y144913D01*
X20388Y144904D01*
X20403Y144891D01*
X20499Y144852D01*
X20593Y144809D01*
X20613Y144807D01*
X20631Y144799D01*
X20798Y144781D01*
X21561Y144781D01*
X21561Y144779D01*
X20798Y144779D01*
X20778Y144776D01*
X20759Y144778D01*
X20657Y144756D01*
X20555Y144739D01*
X20538Y144730D01*
X20518Y144726D01*
X20429Y144673D01*
X20338Y144624D01*
X20324Y144610D01*
X20307Y144600D01*
X20240Y144521D01*
X20169Y144446D01*
X20160Y144428D01*
X20147Y144413D01*
X20108Y144317D01*
X20065Y144223D01*
X20063Y144203D01*
X20055Y144185D01*
X20037Y144018D01*
X20037Y133239D01*
X13226Y133239D01*
X12579Y133412D01*
X12000Y133747D01*
X11460Y134287D01*
X11402Y134329D01*
X11350Y134378D01*
X11303Y134400D01*
X11261Y134430D01*
X11192Y134451D01*
X11127Y134481D01*
X11075Y134487D01*
X11025Y134503D01*
X10954Y134501D01*
X10883Y134509D01*
X10832Y134497D01*
X10780Y134496D01*
X10712Y134472D01*
X10642Y134456D01*
X10597Y134430D01*
X10549Y134412D01*
X10493Y134367D01*
X10431Y134330D01*
X10397Y134291D01*
X10357Y134258D01*
X10318Y134198D01*
X10271Y134143D01*
X10252Y134095D01*
X10224Y134051D01*
X10206Y133982D01*
X10179Y133915D01*
X10171Y133844D01*
X10163Y133813D01*
X10165Y133789D01*
X10161Y133748D01*
X10161Y115227D01*
X10172Y115156D01*
X10174Y115084D01*
X10192Y115035D01*
X10200Y114984D01*
X10234Y114921D01*
X10259Y114853D01*
X10291Y114813D01*
X10316Y114767D01*
X10367Y114717D01*
X10412Y114661D01*
X10456Y114633D01*
X10494Y114597D01*
X10559Y114567D01*
X10619Y114528D01*
X10670Y114516D01*
X10717Y114494D01*
X10788Y114486D01*
X10858Y114468D01*
X10910Y114472D01*
X10961Y114467D01*
X11032Y114482D01*
X11103Y114487D01*
X11151Y114508D01*
X11202Y114519D01*
X11263Y114556D01*
X11329Y114584D01*
X11385Y114629D01*
X11413Y114645D01*
X11428Y114663D01*
X11460Y114689D01*
X11468Y114697D01*
X26732Y114697D01*
X27625Y113804D01*
X27625Y109220D01*
X27628Y109200D01*
X27626Y109181D01*
X27648Y109079D01*
X27664Y108977D01*
X27674Y108960D01*
X27678Y108940D01*
X27731Y108851D01*
X27780Y108760D01*
X27794Y108746D01*
X27804Y108729D01*
X27883Y108662D01*
X27958Y108590D01*
X27976Y108582D01*
X27991Y108569D01*
X28087Y108530D01*
X28181Y108487D01*
X28201Y108485D01*
X28219Y108477D01*
X28386Y108459D01*
X35277Y108459D01*
X35367Y108473D01*
G37*
G36*
X272411Y119138D02*
X272411Y119138D01*
X272483Y119140D01*
X272532Y119158D01*
X272583Y119166D01*
X272646Y119200D01*
X272714Y119225D01*
X272755Y119257D01*
X272801Y119282D01*
X272850Y119333D01*
X272906Y119378D01*
X272934Y119422D01*
X272970Y119460D01*
X273000Y119525D01*
X273039Y119585D01*
X273052Y119636D01*
X273074Y119683D01*
X273081Y119754D01*
X273099Y119824D01*
X273095Y119876D01*
X273101Y119927D01*
X273085Y119998D01*
X273080Y120069D01*
X273059Y120117D01*
X273048Y120168D01*
X273012Y120229D01*
X272984Y120295D01*
X272939Y120351D01*
X272922Y120379D01*
X272904Y120394D01*
X272879Y120426D01*
X272876Y120429D01*
X272876Y121754D01*
X272873Y121774D01*
X272875Y121793D01*
X272853Y121895D01*
X272837Y121997D01*
X272827Y122014D01*
X272823Y122034D01*
X272770Y122123D01*
X272721Y122214D01*
X272707Y122228D01*
X272697Y122245D01*
X272618Y122312D01*
X272543Y122384D01*
X272525Y122392D01*
X272510Y122405D01*
X272414Y122444D01*
X272320Y122487D01*
X272300Y122489D01*
X272282Y122497D01*
X272115Y122515D01*
X261948Y122515D01*
X261055Y123408D01*
X261055Y135631D01*
X261044Y135702D01*
X261042Y135774D01*
X261024Y135823D01*
X261016Y135874D01*
X260982Y135937D01*
X260957Y136005D01*
X260925Y136045D01*
X260900Y136091D01*
X260848Y136141D01*
X260804Y136197D01*
X260760Y136225D01*
X260722Y136261D01*
X260657Y136291D01*
X260597Y136330D01*
X260546Y136342D01*
X260499Y136364D01*
X260428Y136372D01*
X260358Y136390D01*
X260306Y136386D01*
X260255Y136391D01*
X260184Y136376D01*
X260113Y136371D01*
X260065Y136350D01*
X260014Y136339D01*
X259953Y136302D01*
X259887Y136274D01*
X259831Y136229D01*
X259803Y136213D01*
X259788Y136195D01*
X259756Y136169D01*
X257328Y133741D01*
X257275Y133667D01*
X257215Y133598D01*
X257203Y133568D01*
X257184Y133542D01*
X257157Y133454D01*
X257123Y133370D01*
X257119Y133329D01*
X257112Y133307D01*
X257113Y133274D01*
X257105Y133203D01*
X257105Y123408D01*
X256212Y122515D01*
X244948Y122515D01*
X244055Y123408D01*
X244055Y135672D01*
X244948Y136565D01*
X251931Y136565D01*
X252021Y136579D01*
X252112Y136587D01*
X252142Y136599D01*
X252174Y136604D01*
X252254Y136647D01*
X252338Y136683D01*
X252370Y136709D01*
X252391Y136720D01*
X252413Y136743D01*
X252469Y136788D01*
X256345Y140664D01*
X256387Y140722D01*
X256437Y140774D01*
X256459Y140821D01*
X256489Y140863D01*
X256510Y140932D01*
X256540Y140997D01*
X256546Y141049D01*
X256561Y141099D01*
X256559Y141170D01*
X256567Y141242D01*
X256556Y141292D01*
X256555Y141344D01*
X256530Y141412D01*
X256515Y141482D01*
X256488Y141527D01*
X256471Y141575D01*
X256426Y141632D01*
X256389Y141693D01*
X256349Y141727D01*
X256317Y141768D01*
X256257Y141806D01*
X256202Y141853D01*
X256154Y141872D01*
X256110Y141901D01*
X256040Y141918D01*
X255974Y141945D01*
X255903Y141953D01*
X255871Y141961D01*
X255848Y141959D01*
X255807Y141963D01*
X252781Y141963D01*
X252691Y141949D01*
X252600Y141941D01*
X252570Y141929D01*
X252538Y141924D01*
X252457Y141881D01*
X252373Y141845D01*
X252341Y141819D01*
X252320Y141808D01*
X252298Y141785D01*
X252242Y141740D01*
X249925Y139423D01*
X245927Y139423D01*
X243099Y142251D01*
X243099Y146249D01*
X245927Y149077D01*
X249925Y149077D01*
X252242Y146760D01*
X252316Y146707D01*
X252386Y146647D01*
X252416Y146635D01*
X252442Y146616D01*
X252529Y146589D01*
X252614Y146555D01*
X252655Y146551D01*
X252677Y146544D01*
X252709Y146545D01*
X252781Y146537D01*
X257005Y146537D01*
X257095Y146552D01*
X257186Y146559D01*
X257216Y146571D01*
X257248Y146577D01*
X257328Y146619D01*
X257412Y146655D01*
X257444Y146681D01*
X257465Y146692D01*
X257487Y146715D01*
X257543Y146760D01*
X265978Y155195D01*
X272502Y155195D01*
X277153Y150544D01*
X277153Y128016D01*
X277156Y127996D01*
X277154Y127977D01*
X277176Y127875D01*
X277192Y127773D01*
X277202Y127756D01*
X277206Y127736D01*
X277259Y127647D01*
X277308Y127556D01*
X277322Y127542D01*
X277332Y127525D01*
X277411Y127458D01*
X277486Y127386D01*
X277504Y127378D01*
X277519Y127365D01*
X277615Y127326D01*
X277709Y127283D01*
X277729Y127281D01*
X277747Y127273D01*
X277914Y127255D01*
X279702Y127255D01*
X282530Y124427D01*
X282530Y123554D01*
X282541Y123483D01*
X282543Y123411D01*
X282561Y123362D01*
X282569Y123311D01*
X282603Y123247D01*
X282628Y123180D01*
X282660Y123139D01*
X282685Y123093D01*
X282737Y123044D01*
X282781Y122988D01*
X282825Y122960D01*
X282863Y122924D01*
X282928Y122894D01*
X282988Y122855D01*
X283039Y122842D01*
X283086Y122820D01*
X283157Y122813D01*
X283227Y122795D01*
X283279Y122799D01*
X283330Y122793D01*
X283401Y122809D01*
X283472Y122814D01*
X283520Y122835D01*
X283571Y122846D01*
X283632Y122882D01*
X283698Y122910D01*
X283754Y122955D01*
X283782Y122972D01*
X283797Y122990D01*
X283829Y123015D01*
X285021Y124207D01*
X289019Y124207D01*
X289502Y123724D01*
X289560Y123682D01*
X289612Y123633D01*
X289659Y123611D01*
X289701Y123581D01*
X289770Y123560D01*
X289835Y123529D01*
X289887Y123524D01*
X289937Y123508D01*
X290008Y123510D01*
X290079Y123502D01*
X290130Y123513D01*
X290182Y123515D01*
X290250Y123539D01*
X290320Y123555D01*
X290365Y123581D01*
X290413Y123599D01*
X290469Y123644D01*
X290531Y123681D01*
X290565Y123720D01*
X290605Y123753D01*
X290644Y123813D01*
X290691Y123868D01*
X290710Y123916D01*
X290738Y123960D01*
X290756Y124029D01*
X290783Y124096D01*
X290791Y124167D01*
X290799Y124198D01*
X290797Y124222D01*
X290801Y124263D01*
X290801Y142580D01*
X290787Y142671D01*
X290779Y142761D01*
X290767Y142791D01*
X290762Y142823D01*
X290719Y142904D01*
X290683Y142988D01*
X290657Y143020D01*
X290646Y143041D01*
X290623Y143063D01*
X290578Y143119D01*
X288797Y144900D01*
X288797Y149740D01*
X295258Y156201D01*
X295311Y156275D01*
X295371Y156345D01*
X295383Y156375D01*
X295402Y156401D01*
X295429Y156488D01*
X295463Y156573D01*
X295467Y156614D01*
X295474Y156636D01*
X295473Y156668D01*
X295481Y156740D01*
X295481Y164746D01*
X295470Y164817D01*
X295468Y164888D01*
X295450Y164937D01*
X295442Y164989D01*
X295408Y165052D01*
X295383Y165119D01*
X295351Y165160D01*
X295326Y165206D01*
X295274Y165255D01*
X295230Y165311D01*
X295186Y165340D01*
X295148Y165376D01*
X295083Y165406D01*
X295023Y165444D01*
X294972Y165457D01*
X294925Y165479D01*
X294854Y165487D01*
X294784Y165505D01*
X294732Y165500D01*
X294681Y165506D01*
X294610Y165491D01*
X294539Y165485D01*
X294491Y165465D01*
X294440Y165454D01*
X294379Y165417D01*
X294313Y165389D01*
X294257Y165344D01*
X294229Y165328D01*
X294214Y165310D01*
X294182Y165284D01*
X289505Y160607D01*
X281995Y160607D01*
X276685Y165917D01*
X276685Y173427D01*
X281538Y178280D01*
X281580Y178338D01*
X281630Y178390D01*
X281651Y178437D01*
X281682Y178479D01*
X281703Y178548D01*
X281733Y178613D01*
X281739Y178665D01*
X281754Y178715D01*
X281752Y178786D01*
X281760Y178857D01*
X281749Y178908D01*
X281748Y178960D01*
X281723Y179028D01*
X281708Y179098D01*
X281681Y179143D01*
X281663Y179191D01*
X281619Y179247D01*
X281582Y179309D01*
X281542Y179343D01*
X281510Y179383D01*
X281449Y179422D01*
X281395Y179469D01*
X281347Y179488D01*
X281303Y179516D01*
X281233Y179534D01*
X281167Y179561D01*
X281095Y179569D01*
X281064Y179577D01*
X281041Y179575D01*
X281000Y179579D01*
X265100Y179579D01*
X265029Y179568D01*
X264958Y179566D01*
X264909Y179548D01*
X264857Y179540D01*
X264794Y179506D01*
X264727Y179481D01*
X264686Y179449D01*
X264640Y179424D01*
X264591Y179372D01*
X264535Y179328D01*
X264506Y179284D01*
X264470Y179246D01*
X264440Y179181D01*
X264402Y179121D01*
X264389Y179070D01*
X264367Y179023D01*
X264359Y178952D01*
X264341Y178882D01*
X264346Y178830D01*
X264340Y178779D01*
X264355Y178708D01*
X264361Y178637D01*
X264381Y178589D01*
X264392Y178538D01*
X264429Y178477D01*
X264457Y178411D01*
X264502Y178355D01*
X264518Y178327D01*
X264536Y178312D01*
X264562Y178280D01*
X269415Y173427D01*
X269415Y165917D01*
X264105Y160607D01*
X256595Y160607D01*
X256096Y161107D01*
X256079Y161119D01*
X256067Y161134D01*
X255980Y161190D01*
X255896Y161251D01*
X255877Y161256D01*
X255860Y161267D01*
X255760Y161293D01*
X255661Y161323D01*
X255641Y161322D01*
X255621Y161327D01*
X255518Y161319D01*
X255415Y161317D01*
X255396Y161310D01*
X255376Y161308D01*
X255281Y161268D01*
X255184Y161232D01*
X255168Y161220D01*
X255150Y161212D01*
X255019Y161107D01*
X222728Y128816D01*
X221165Y127253D01*
X199383Y127253D01*
X199292Y127239D01*
X199202Y127231D01*
X199172Y127219D01*
X199140Y127214D01*
X199059Y127171D01*
X198975Y127135D01*
X198943Y127109D01*
X198922Y127098D01*
X198900Y127075D01*
X198844Y127030D01*
X192240Y120426D01*
X192198Y120368D01*
X192149Y120316D01*
X192127Y120269D01*
X192097Y120227D01*
X192076Y120158D01*
X192045Y120093D01*
X192040Y120041D01*
X192024Y119991D01*
X192026Y119920D01*
X192018Y119849D01*
X192029Y119798D01*
X192031Y119746D01*
X192055Y119678D01*
X192070Y119608D01*
X192097Y119563D01*
X192115Y119515D01*
X192160Y119459D01*
X192197Y119397D01*
X192236Y119363D01*
X192269Y119323D01*
X192329Y119284D01*
X192384Y119237D01*
X192432Y119218D01*
X192476Y119190D01*
X192545Y119172D01*
X192612Y119145D01*
X192683Y119137D01*
X192714Y119129D01*
X192738Y119131D01*
X192778Y119127D01*
X272340Y119127D01*
X272411Y119138D01*
G37*
G36*
X165506Y37524D02*
X165506Y37524D01*
X165578Y37526D01*
X165627Y37544D01*
X165678Y37552D01*
X165742Y37586D01*
X165809Y37611D01*
X165850Y37643D01*
X165896Y37668D01*
X165945Y37720D01*
X166001Y37764D01*
X166029Y37808D01*
X166065Y37846D01*
X166095Y37911D01*
X166134Y37971D01*
X166147Y38022D01*
X166169Y38069D01*
X166177Y38140D01*
X166194Y38210D01*
X166190Y38262D01*
X166196Y38313D01*
X166181Y38384D01*
X166175Y38455D01*
X166155Y38503D01*
X166144Y38554D01*
X166107Y38615D01*
X166079Y38681D01*
X166034Y38737D01*
X166017Y38765D01*
X166000Y38780D01*
X165974Y38812D01*
X164536Y40250D01*
X155220Y49566D01*
X155146Y49619D01*
X155076Y49679D01*
X155046Y49691D01*
X155020Y49710D01*
X154933Y49737D01*
X154848Y49771D01*
X154807Y49775D01*
X154785Y49782D01*
X154753Y49781D01*
X154681Y49789D01*
X153628Y49789D01*
X152127Y51290D01*
X152126Y51343D01*
X152108Y51392D01*
X152100Y51443D01*
X152066Y51506D01*
X152041Y51574D01*
X152009Y51614D01*
X151984Y51660D01*
X151932Y51710D01*
X151888Y51766D01*
X151844Y51794D01*
X151806Y51830D01*
X151741Y51860D01*
X151681Y51899D01*
X151630Y51911D01*
X151583Y51933D01*
X151512Y51941D01*
X151442Y51959D01*
X151390Y51955D01*
X151339Y51960D01*
X151268Y51945D01*
X151197Y51940D01*
X151149Y51919D01*
X151098Y51908D01*
X151037Y51871D01*
X150971Y51843D01*
X150915Y51798D01*
X150887Y51782D01*
X150872Y51764D01*
X150840Y51738D01*
X150552Y51450D01*
X145804Y51450D01*
X145714Y51436D01*
X145623Y51428D01*
X145593Y51416D01*
X145561Y51411D01*
X145480Y51368D01*
X145396Y51332D01*
X145364Y51306D01*
X145344Y51295D01*
X145321Y51272D01*
X145265Y51227D01*
X144980Y50942D01*
X144401Y50607D01*
X143754Y50434D01*
X142549Y50434D01*
X142549Y59852D01*
X142546Y59871D01*
X142548Y59891D01*
X142536Y59948D01*
X142549Y60068D01*
X142549Y69486D01*
X143754Y69486D01*
X144401Y69313D01*
X144980Y68978D01*
X145265Y68693D01*
X145339Y68640D01*
X145409Y68580D01*
X145439Y68568D01*
X145465Y68549D01*
X145552Y68522D01*
X145637Y68488D01*
X145678Y68484D01*
X145700Y68477D01*
X145732Y68478D01*
X145804Y68470D01*
X147156Y68470D01*
X147227Y68481D01*
X147298Y68483D01*
X147347Y68501D01*
X147399Y68509D01*
X147462Y68543D01*
X147529Y68568D01*
X147570Y68600D01*
X147616Y68625D01*
X147665Y68676D01*
X147721Y68721D01*
X147749Y68765D01*
X147785Y68803D01*
X147816Y68868D01*
X147854Y68928D01*
X147867Y68979D01*
X147889Y69026D01*
X147897Y69097D01*
X147914Y69167D01*
X147910Y69219D01*
X147916Y69270D01*
X147901Y69341D01*
X147895Y69412D01*
X147875Y69460D01*
X147864Y69511D01*
X147827Y69572D01*
X147799Y69638D01*
X147754Y69694D01*
X147738Y69722D01*
X147720Y69737D01*
X147694Y69769D01*
X147068Y70396D01*
X147067Y70396D01*
X136436Y81028D01*
X134873Y82590D01*
X134873Y87884D01*
X134870Y87904D01*
X134872Y87923D01*
X134850Y88025D01*
X134834Y88127D01*
X134824Y88144D01*
X134820Y88164D01*
X134767Y88253D01*
X134718Y88344D01*
X134704Y88358D01*
X134694Y88375D01*
X134615Y88442D01*
X134540Y88514D01*
X134522Y88522D01*
X134507Y88535D01*
X134411Y88574D01*
X134317Y88617D01*
X134297Y88619D01*
X134279Y88627D01*
X134112Y88645D01*
X118139Y88645D01*
X118068Y88634D01*
X117996Y88632D01*
X117947Y88614D01*
X117896Y88606D01*
X117832Y88572D01*
X117765Y88547D01*
X117724Y88515D01*
X117678Y88490D01*
X117629Y88438D01*
X117573Y88394D01*
X117545Y88350D01*
X117509Y88312D01*
X117479Y88247D01*
X117440Y88187D01*
X117427Y88136D01*
X117405Y88089D01*
X117398Y88018D01*
X117380Y87948D01*
X117384Y87896D01*
X117378Y87845D01*
X117394Y87774D01*
X117399Y87703D01*
X117420Y87655D01*
X117431Y87604D01*
X117467Y87543D01*
X117495Y87477D01*
X117540Y87421D01*
X117557Y87393D01*
X117575Y87378D01*
X117600Y87346D01*
X119127Y85819D01*
X119127Y81821D01*
X116299Y78993D01*
X113022Y78993D01*
X112932Y78979D01*
X112841Y78971D01*
X112812Y78959D01*
X112780Y78954D01*
X112699Y78911D01*
X112615Y78875D01*
X112583Y78849D01*
X112562Y78838D01*
X112540Y78815D01*
X112484Y78770D01*
X103483Y69769D01*
X103441Y69711D01*
X103392Y69659D01*
X103370Y69612D01*
X103340Y69570D01*
X103319Y69501D01*
X103288Y69436D01*
X103283Y69384D01*
X103267Y69334D01*
X103269Y69263D01*
X103261Y69192D01*
X103272Y69141D01*
X103274Y69089D01*
X103298Y69021D01*
X103313Y68951D01*
X103340Y68907D01*
X103358Y68858D01*
X103403Y68802D01*
X103440Y68740D01*
X103479Y68706D01*
X103512Y68666D01*
X103572Y68627D01*
X103627Y68580D01*
X103675Y68561D01*
X103719Y68533D01*
X103788Y68515D01*
X103855Y68488D01*
X103926Y68480D01*
X103957Y68472D01*
X103981Y68474D01*
X104021Y68470D01*
X105052Y68470D01*
X105392Y68130D01*
X105408Y68118D01*
X105420Y68102D01*
X105507Y68046D01*
X105591Y67986D01*
X105610Y67980D01*
X105627Y67969D01*
X105728Y67944D01*
X105827Y67914D01*
X105846Y67914D01*
X105866Y67909D01*
X105969Y67917D01*
X106072Y67920D01*
X106091Y67927D01*
X106111Y67928D01*
X106206Y67969D01*
X106303Y68004D01*
X106319Y68017D01*
X106337Y68025D01*
X106468Y68130D01*
X106808Y68470D01*
X111552Y68470D01*
X111892Y68130D01*
X111908Y68118D01*
X111920Y68102D01*
X112007Y68046D01*
X112091Y67986D01*
X112110Y67980D01*
X112127Y67969D01*
X112228Y67944D01*
X112327Y67914D01*
X112346Y67914D01*
X112366Y67909D01*
X112469Y67917D01*
X112572Y67920D01*
X112591Y67927D01*
X112611Y67928D01*
X112706Y67969D01*
X112803Y68004D01*
X112819Y68017D01*
X112837Y68025D01*
X112968Y68130D01*
X113308Y68470D01*
X118052Y68470D01*
X118392Y68130D01*
X118408Y68118D01*
X118420Y68102D01*
X118507Y68046D01*
X118591Y67986D01*
X118610Y67980D01*
X118627Y67969D01*
X118728Y67944D01*
X118827Y67914D01*
X118846Y67914D01*
X118866Y67909D01*
X118969Y67917D01*
X119072Y67920D01*
X119091Y67927D01*
X119111Y67928D01*
X119206Y67969D01*
X119303Y68004D01*
X119319Y68017D01*
X119337Y68025D01*
X119468Y68130D01*
X119808Y68470D01*
X124552Y68470D01*
X124892Y68130D01*
X124908Y68118D01*
X124920Y68102D01*
X125007Y68046D01*
X125091Y67986D01*
X125110Y67980D01*
X125127Y67969D01*
X125228Y67944D01*
X125327Y67914D01*
X125346Y67914D01*
X125366Y67909D01*
X125469Y67917D01*
X125572Y67920D01*
X125591Y67927D01*
X125611Y67928D01*
X125706Y67969D01*
X125803Y68004D01*
X125819Y68017D01*
X125837Y68025D01*
X125968Y68130D01*
X126308Y68470D01*
X131052Y68470D01*
X131392Y68130D01*
X131408Y68118D01*
X131420Y68102D01*
X131507Y68046D01*
X131591Y67986D01*
X131610Y67980D01*
X131627Y67969D01*
X131728Y67944D01*
X131827Y67914D01*
X131846Y67914D01*
X131866Y67909D01*
X131969Y67917D01*
X132072Y67920D01*
X132091Y67927D01*
X132111Y67928D01*
X132206Y67969D01*
X132303Y68004D01*
X132319Y68017D01*
X132337Y68025D01*
X132468Y68130D01*
X132808Y68470D01*
X137556Y68470D01*
X137646Y68484D01*
X137737Y68492D01*
X137767Y68504D01*
X137799Y68509D01*
X137880Y68552D01*
X137964Y68588D01*
X137996Y68614D01*
X138016Y68625D01*
X138039Y68648D01*
X138095Y68693D01*
X138380Y68978D01*
X138959Y69313D01*
X139606Y69486D01*
X140811Y69486D01*
X140811Y60068D01*
X140814Y60049D01*
X140812Y60029D01*
X140824Y59972D01*
X140811Y59852D01*
X140811Y50434D01*
X139606Y50434D01*
X138959Y50607D01*
X138380Y50942D01*
X138095Y51227D01*
X138021Y51280D01*
X137951Y51340D01*
X137921Y51352D01*
X137895Y51371D01*
X137808Y51398D01*
X137723Y51432D01*
X137682Y51436D01*
X137660Y51443D01*
X137628Y51442D01*
X137556Y51450D01*
X132808Y51450D01*
X132468Y51790D01*
X132452Y51802D01*
X132440Y51818D01*
X132353Y51874D01*
X132269Y51934D01*
X132250Y51940D01*
X132233Y51951D01*
X132132Y51976D01*
X132033Y52006D01*
X132014Y52006D01*
X131994Y52011D01*
X131891Y52003D01*
X131788Y52000D01*
X131769Y51993D01*
X131749Y51992D01*
X131654Y51951D01*
X131557Y51916D01*
X131541Y51903D01*
X131523Y51895D01*
X131392Y51790D01*
X131052Y51450D01*
X126308Y51450D01*
X125968Y51790D01*
X125952Y51802D01*
X125940Y51818D01*
X125853Y51874D01*
X125769Y51934D01*
X125750Y51940D01*
X125733Y51951D01*
X125632Y51976D01*
X125533Y52006D01*
X125514Y52006D01*
X125494Y52011D01*
X125391Y52003D01*
X125288Y52000D01*
X125269Y51993D01*
X125249Y51992D01*
X125154Y51951D01*
X125057Y51916D01*
X125041Y51903D01*
X125023Y51895D01*
X124892Y51790D01*
X124552Y51450D01*
X119808Y51450D01*
X119468Y51790D01*
X119452Y51802D01*
X119440Y51818D01*
X119353Y51874D01*
X119269Y51934D01*
X119250Y51940D01*
X119233Y51951D01*
X119132Y51976D01*
X119033Y52006D01*
X119014Y52006D01*
X118994Y52011D01*
X118891Y52003D01*
X118788Y52000D01*
X118769Y51993D01*
X118749Y51992D01*
X118654Y51951D01*
X118557Y51916D01*
X118541Y51903D01*
X118523Y51895D01*
X118392Y51790D01*
X118052Y51450D01*
X113308Y51450D01*
X112968Y51790D01*
X112952Y51802D01*
X112940Y51818D01*
X112853Y51874D01*
X112769Y51934D01*
X112750Y51940D01*
X112733Y51951D01*
X112632Y51976D01*
X112533Y52006D01*
X112514Y52006D01*
X112494Y52011D01*
X112391Y52003D01*
X112288Y52000D01*
X112269Y51993D01*
X112249Y51992D01*
X112154Y51951D01*
X112057Y51916D01*
X112041Y51903D01*
X112023Y51895D01*
X111892Y51790D01*
X111552Y51450D01*
X106808Y51450D01*
X106468Y51790D01*
X106452Y51802D01*
X106440Y51818D01*
X106353Y51874D01*
X106269Y51934D01*
X106250Y51940D01*
X106233Y51951D01*
X106132Y51976D01*
X106033Y52006D01*
X106014Y52006D01*
X105994Y52011D01*
X105891Y52003D01*
X105788Y52000D01*
X105769Y51993D01*
X105749Y51992D01*
X105654Y51951D01*
X105557Y51916D01*
X105541Y51903D01*
X105523Y51895D01*
X105392Y51790D01*
X105052Y51450D01*
X100308Y51450D01*
X99968Y51790D01*
X99952Y51802D01*
X99940Y51818D01*
X99853Y51874D01*
X99769Y51934D01*
X99750Y51940D01*
X99733Y51951D01*
X99632Y51976D01*
X99533Y52006D01*
X99514Y52006D01*
X99494Y52011D01*
X99391Y52003D01*
X99288Y52000D01*
X99269Y51993D01*
X99249Y51992D01*
X99154Y51951D01*
X99057Y51916D01*
X99041Y51903D01*
X99023Y51895D01*
X98892Y51790D01*
X98552Y51450D01*
X93756Y51450D01*
X93736Y51447D01*
X93717Y51449D01*
X93615Y51427D01*
X93513Y51411D01*
X93496Y51401D01*
X93476Y51397D01*
X93387Y51344D01*
X93296Y51295D01*
X93282Y51281D01*
X93265Y51271D01*
X93198Y51192D01*
X93126Y51117D01*
X93118Y51099D01*
X93105Y51084D01*
X93066Y50988D01*
X93023Y50894D01*
X93021Y50874D01*
X93013Y50856D01*
X92995Y50689D01*
X92995Y47498D01*
X92998Y47478D01*
X92996Y47459D01*
X93018Y47357D01*
X93034Y47255D01*
X93044Y47238D01*
X93048Y47218D01*
X93101Y47129D01*
X93150Y47038D01*
X93164Y47024D01*
X93174Y47007D01*
X93253Y46940D01*
X93328Y46868D01*
X93346Y46860D01*
X93361Y46847D01*
X93457Y46808D01*
X93551Y46765D01*
X93571Y46763D01*
X93589Y46755D01*
X93756Y46737D01*
X94205Y46737D01*
X94295Y46751D01*
X94386Y46759D01*
X94416Y46771D01*
X94448Y46776D01*
X94529Y46819D01*
X94613Y46855D01*
X94645Y46881D01*
X94665Y46892D01*
X94688Y46915D01*
X94744Y46960D01*
X97061Y49277D01*
X101059Y49277D01*
X103887Y46449D01*
X103887Y42451D01*
X101059Y39623D01*
X97061Y39623D01*
X94744Y41940D01*
X94670Y41993D01*
X94600Y42053D01*
X94570Y42065D01*
X94544Y42084D01*
X94457Y42111D01*
X94372Y42145D01*
X94331Y42149D01*
X94309Y42156D01*
X94277Y42155D01*
X94205Y42163D01*
X90103Y42163D01*
X89484Y42782D01*
X89410Y42835D01*
X89340Y42895D01*
X89310Y42907D01*
X89284Y42926D01*
X89197Y42953D01*
X89112Y42987D01*
X89071Y42991D01*
X89049Y42998D01*
X89017Y42997D01*
X88945Y43005D01*
X83834Y43005D01*
X83763Y42994D01*
X83691Y42992D01*
X83642Y42974D01*
X83591Y42966D01*
X83527Y42932D01*
X83460Y42907D01*
X83419Y42875D01*
X83373Y42850D01*
X83324Y42798D01*
X83268Y42754D01*
X83240Y42710D01*
X83204Y42672D01*
X83174Y42607D01*
X83135Y42547D01*
X83122Y42496D01*
X83100Y42449D01*
X83093Y42378D01*
X83075Y42308D01*
X83079Y42256D01*
X83073Y42205D01*
X83089Y42134D01*
X83094Y42063D01*
X83115Y42015D01*
X83126Y41964D01*
X83162Y41903D01*
X83190Y41837D01*
X83235Y41781D01*
X83252Y41753D01*
X83270Y41738D01*
X83295Y41706D01*
X87265Y37736D01*
X87339Y37683D01*
X87409Y37623D01*
X87439Y37611D01*
X87465Y37592D01*
X87552Y37565D01*
X87637Y37531D01*
X87678Y37527D01*
X87700Y37520D01*
X87732Y37521D01*
X87804Y37513D01*
X165436Y37513D01*
X165506Y37524D01*
G37*
G36*
X397286Y24895D02*
X397286Y24895D01*
X397357Y24901D01*
X397405Y24921D01*
X397456Y24932D01*
X397517Y24969D01*
X397583Y24997D01*
X397639Y25042D01*
X397667Y25059D01*
X397682Y25076D01*
X397714Y25102D01*
X420146Y47534D01*
X420199Y47608D01*
X420259Y47678D01*
X420271Y47708D01*
X420290Y47734D01*
X420317Y47821D01*
X420351Y47906D01*
X420355Y47947D01*
X420362Y47969D01*
X420361Y48001D01*
X420369Y48072D01*
X420369Y62699D01*
X420367Y62714D01*
X420368Y62726D01*
X420358Y62776D01*
X420356Y62841D01*
X420338Y62890D01*
X420330Y62942D01*
X420296Y63005D01*
X420271Y63072D01*
X420239Y63113D01*
X420214Y63159D01*
X420162Y63208D01*
X420118Y63264D01*
X420074Y63293D01*
X420036Y63328D01*
X419971Y63359D01*
X419911Y63397D01*
X419860Y63410D01*
X419813Y63432D01*
X419742Y63440D01*
X419672Y63457D01*
X419620Y63453D01*
X419569Y63459D01*
X419498Y63444D01*
X419427Y63438D01*
X419379Y63418D01*
X419328Y63407D01*
X419267Y63370D01*
X419201Y63342D01*
X419148Y63300D01*
X419136Y63293D01*
X419133Y63290D01*
X419117Y63281D01*
X419102Y63263D01*
X419070Y63237D01*
X417930Y62097D01*
X414569Y60705D01*
X410931Y60705D01*
X407570Y62097D01*
X404997Y64670D01*
X403605Y68031D01*
X403605Y71669D01*
X404609Y74092D01*
X404636Y74206D01*
X404664Y74320D01*
X404664Y74326D01*
X404665Y74332D01*
X404654Y74448D01*
X404645Y74565D01*
X404643Y74570D01*
X404642Y74577D01*
X404594Y74684D01*
X404549Y74791D01*
X404544Y74797D01*
X404542Y74801D01*
X404529Y74815D01*
X404444Y74922D01*
X403382Y75984D01*
X403324Y76026D01*
X403272Y76075D01*
X403225Y76097D01*
X403183Y76127D01*
X403114Y76148D01*
X403049Y76179D01*
X402997Y76184D01*
X402947Y76200D01*
X402876Y76198D01*
X402805Y76206D01*
X402754Y76195D01*
X402702Y76193D01*
X402634Y76169D01*
X402564Y76154D01*
X402520Y76127D01*
X402471Y76109D01*
X402415Y76064D01*
X402353Y76027D01*
X402319Y75988D01*
X402279Y75955D01*
X402240Y75895D01*
X402193Y75840D01*
X402174Y75792D01*
X402146Y75748D01*
X402128Y75679D01*
X402101Y75612D01*
X402093Y75541D01*
X402085Y75510D01*
X402087Y75486D01*
X402083Y75446D01*
X402083Y63747D01*
X399776Y61441D01*
X391130Y52794D01*
X391077Y52720D01*
X391017Y52651D01*
X391005Y52621D01*
X390986Y52595D01*
X390959Y52508D01*
X390925Y52423D01*
X390921Y52382D01*
X390914Y52360D01*
X390915Y52327D01*
X390907Y52256D01*
X390907Y34978D01*
X390921Y34888D01*
X390929Y34797D01*
X390941Y34767D01*
X390946Y34735D01*
X390989Y34655D01*
X391025Y34571D01*
X391051Y34539D01*
X391062Y34518D01*
X391085Y34496D01*
X391130Y34440D01*
X396415Y29155D01*
X396415Y25640D01*
X396426Y25570D01*
X396428Y25498D01*
X396446Y25449D01*
X396454Y25398D01*
X396488Y25334D01*
X396513Y25267D01*
X396545Y25226D01*
X396570Y25180D01*
X396622Y25131D01*
X396666Y25075D01*
X396710Y25047D01*
X396748Y25011D01*
X396813Y24981D01*
X396873Y24942D01*
X396924Y24929D01*
X396971Y24907D01*
X397042Y24899D01*
X397112Y24882D01*
X397164Y24886D01*
X397215Y24880D01*
X397286Y24895D01*
G37*
G36*
X377614Y27283D02*
X377614Y27283D01*
X377666Y27285D01*
X377734Y27309D01*
X377804Y27325D01*
X377849Y27351D01*
X377897Y27369D01*
X377953Y27414D01*
X378015Y27451D01*
X378049Y27490D01*
X378089Y27523D01*
X378128Y27583D01*
X378175Y27638D01*
X378194Y27686D01*
X378222Y27730D01*
X378240Y27799D01*
X378267Y27866D01*
X378275Y27937D01*
X378283Y27968D01*
X378281Y27992D01*
X378285Y28033D01*
X378285Y29155D01*
X383570Y34440D01*
X383623Y34514D01*
X383683Y34583D01*
X383695Y34613D01*
X383714Y34640D01*
X383741Y34726D01*
X383775Y34811D01*
X383779Y34852D01*
X383786Y34875D01*
X383785Y34907D01*
X383793Y34978D01*
X383793Y55518D01*
X387681Y59406D01*
X387723Y59464D01*
X387772Y59516D01*
X387794Y59563D01*
X387825Y59605D01*
X387846Y59674D01*
X387876Y59739D01*
X387882Y59791D01*
X387897Y59841D01*
X387895Y59912D01*
X387903Y59983D01*
X387892Y60034D01*
X387891Y60086D01*
X387866Y60154D01*
X387851Y60224D01*
X387824Y60269D01*
X387806Y60317D01*
X387761Y60373D01*
X387725Y60435D01*
X387685Y60469D01*
X387652Y60509D01*
X387592Y60548D01*
X387538Y60595D01*
X387489Y60614D01*
X387446Y60642D01*
X387376Y60660D01*
X387310Y60687D01*
X387238Y60695D01*
X387207Y60703D01*
X387184Y60701D01*
X387143Y60705D01*
X384987Y60705D01*
X384897Y60691D01*
X384806Y60683D01*
X384777Y60671D01*
X384745Y60666D01*
X384664Y60623D01*
X384580Y60587D01*
X384548Y60561D01*
X384527Y60550D01*
X384505Y60527D01*
X384449Y60482D01*
X372480Y48513D01*
X368692Y48513D01*
X368407Y48798D01*
X368333Y48851D01*
X368263Y48911D01*
X368233Y48923D01*
X368207Y48942D01*
X368120Y48969D01*
X368035Y49003D01*
X367994Y49007D01*
X367972Y49014D01*
X367940Y49013D01*
X367869Y49021D01*
X357759Y49021D01*
X357739Y49018D01*
X357720Y49020D01*
X357618Y48998D01*
X357516Y48982D01*
X357499Y48972D01*
X357479Y48968D01*
X357390Y48915D01*
X357299Y48866D01*
X357285Y48852D01*
X357268Y48842D01*
X357201Y48763D01*
X357129Y48688D01*
X357121Y48670D01*
X357108Y48655D01*
X357069Y48559D01*
X357026Y48465D01*
X357024Y48445D01*
X357016Y48427D01*
X356998Y48264D01*
X356105Y47370D01*
X348518Y47370D01*
X348428Y47356D01*
X348337Y47348D01*
X348308Y47336D01*
X348276Y47331D01*
X348195Y47288D01*
X348111Y47252D01*
X348079Y47226D01*
X348058Y47215D01*
X348036Y47192D01*
X347980Y47147D01*
X336597Y35764D01*
X336555Y35706D01*
X336506Y35654D01*
X336484Y35607D01*
X336454Y35565D01*
X336433Y35496D01*
X336402Y35431D01*
X336397Y35379D01*
X336381Y35329D01*
X336383Y35258D01*
X336375Y35187D01*
X336386Y35136D01*
X336388Y35084D01*
X336412Y35016D01*
X336427Y34946D01*
X336454Y34901D01*
X336472Y34853D01*
X336517Y34797D01*
X336554Y34735D01*
X336593Y34701D01*
X336626Y34661D01*
X336686Y34622D01*
X336741Y34575D01*
X336789Y34556D01*
X336833Y34528D01*
X336902Y34510D01*
X336969Y34483D01*
X337040Y34475D01*
X337071Y34467D01*
X337094Y34469D01*
X337135Y34465D01*
X340305Y34465D01*
X345615Y29155D01*
X345615Y28033D01*
X345626Y27962D01*
X345628Y27890D01*
X345646Y27841D01*
X345654Y27790D01*
X345688Y27726D01*
X345713Y27659D01*
X345745Y27618D01*
X345770Y27572D01*
X345822Y27523D01*
X345866Y27467D01*
X345910Y27439D01*
X345948Y27403D01*
X346013Y27373D01*
X346073Y27334D01*
X346124Y27321D01*
X346171Y27299D01*
X346242Y27291D01*
X346312Y27274D01*
X346364Y27278D01*
X346415Y27272D01*
X346486Y27288D01*
X346557Y27293D01*
X346605Y27313D01*
X346656Y27325D01*
X346717Y27361D01*
X346783Y27389D01*
X346839Y27434D01*
X346867Y27451D01*
X346882Y27469D01*
X346914Y27494D01*
X355370Y35950D01*
X356933Y37513D01*
X366967Y37513D01*
X368530Y35950D01*
X376986Y27494D01*
X377044Y27452D01*
X377096Y27403D01*
X377143Y27381D01*
X377185Y27351D01*
X377254Y27330D01*
X377319Y27299D01*
X377371Y27294D01*
X377421Y27278D01*
X377492Y27280D01*
X377563Y27272D01*
X377614Y27283D01*
G37*
%LPC*%
G36*
X168549Y123554D02*
X168549Y123554D01*
X168549Y132972D01*
X168546Y132991D01*
X168548Y133011D01*
X168536Y133068D01*
X168549Y133188D01*
X168549Y142606D01*
X169754Y142606D01*
X170401Y142433D01*
X170980Y142098D01*
X171265Y141813D01*
X171339Y141760D01*
X171409Y141700D01*
X171439Y141688D01*
X171465Y141669D01*
X171552Y141642D01*
X171637Y141608D01*
X171678Y141604D01*
X171700Y141597D01*
X171732Y141598D01*
X171804Y141590D01*
X176552Y141590D01*
X176892Y141250D01*
X176908Y141238D01*
X176920Y141222D01*
X177007Y141166D01*
X177091Y141106D01*
X177110Y141100D01*
X177127Y141089D01*
X177228Y141064D01*
X177327Y141034D01*
X177346Y141034D01*
X177366Y141029D01*
X177469Y141037D01*
X177572Y141040D01*
X177591Y141047D01*
X177611Y141048D01*
X177706Y141089D01*
X177803Y141124D01*
X177819Y141137D01*
X177837Y141145D01*
X177968Y141250D01*
X178308Y141590D01*
X183052Y141590D01*
X183945Y140697D01*
X183945Y125463D01*
X183052Y124570D01*
X178308Y124570D01*
X177968Y124910D01*
X177952Y124922D01*
X177940Y124938D01*
X177863Y124987D01*
X177849Y124999D01*
X177840Y125003D01*
X177769Y125054D01*
X177750Y125060D01*
X177733Y125071D01*
X177632Y125096D01*
X177533Y125126D01*
X177514Y125126D01*
X177494Y125131D01*
X177391Y125123D01*
X177288Y125120D01*
X177269Y125113D01*
X177249Y125112D01*
X177154Y125071D01*
X177057Y125036D01*
X177041Y125023D01*
X177023Y125015D01*
X176949Y124956D01*
X176946Y124955D01*
X176943Y124951D01*
X176892Y124910D01*
X176552Y124570D01*
X171804Y124570D01*
X171714Y124556D01*
X171623Y124548D01*
X171593Y124536D01*
X171561Y124531D01*
X171480Y124488D01*
X171396Y124452D01*
X171364Y124426D01*
X171344Y124415D01*
X171321Y124392D01*
X171265Y124347D01*
X170980Y124062D01*
X170401Y123727D01*
X169754Y123554D01*
X168549Y123554D01*
G37*
%LPD*%
%LPC*%
G36*
X24099Y125983D02*
X24099Y125983D01*
X24099Y129794D01*
X24272Y130441D01*
X24607Y131020D01*
X25080Y131493D01*
X25644Y131819D01*
X25681Y131849D01*
X25724Y131872D01*
X25776Y131927D01*
X25834Y131975D01*
X25860Y132015D01*
X25893Y132050D01*
X25925Y132119D01*
X25965Y132183D01*
X25976Y132229D01*
X25997Y132273D01*
X26005Y132348D01*
X26023Y132422D01*
X26018Y132470D01*
X26024Y132517D01*
X26008Y132592D01*
X26001Y132667D01*
X25982Y132711D01*
X25971Y132758D01*
X25932Y132823D01*
X25902Y132892D01*
X25870Y132928D01*
X25845Y132969D01*
X25788Y133018D01*
X25737Y133074D01*
X25695Y133098D01*
X25658Y133129D01*
X25588Y133157D01*
X25522Y133194D01*
X25475Y133203D01*
X25430Y133221D01*
X25302Y133235D01*
X25280Y133239D01*
X25273Y133238D01*
X25263Y133239D01*
X23083Y133239D01*
X23083Y143257D01*
X32101Y143257D01*
X32101Y135446D01*
X31928Y134799D01*
X31593Y134220D01*
X31120Y133747D01*
X30556Y133421D01*
X30519Y133391D01*
X30476Y133368D01*
X30424Y133313D01*
X30366Y133265D01*
X30340Y133225D01*
X30307Y133190D01*
X30275Y133121D01*
X30235Y133057D01*
X30224Y133011D01*
X30203Y132967D01*
X30195Y132892D01*
X30177Y132818D01*
X30182Y132770D01*
X30176Y132723D01*
X30192Y132648D01*
X30199Y132573D01*
X30218Y132529D01*
X30229Y132482D01*
X30268Y132417D01*
X30298Y132348D01*
X30330Y132312D01*
X30355Y132271D01*
X30412Y132222D01*
X30463Y132166D01*
X30505Y132142D01*
X30542Y132111D01*
X30612Y132083D01*
X30617Y132080D01*
X30617Y125983D01*
X24099Y125983D01*
G37*
%LPD*%
%LPC*%
G36*
X23083Y146303D02*
X23083Y146303D01*
X23083Y156321D01*
X29894Y156321D01*
X30541Y156148D01*
X31120Y155813D01*
X31593Y155340D01*
X31928Y154761D01*
X32101Y154114D01*
X32101Y146303D01*
X23083Y146303D01*
G37*
%LPD*%
%LPC*%
G36*
X323311Y131207D02*
X323311Y131207D01*
X323311Y141225D01*
X332329Y141225D01*
X332329Y133414D01*
X332156Y132767D01*
X331821Y132188D01*
X331348Y131715D01*
X330769Y131380D01*
X330122Y131207D01*
X323311Y131207D01*
G37*
%LPD*%
%LPC*%
G36*
X313454Y131207D02*
X313454Y131207D01*
X312807Y131380D01*
X312228Y131715D01*
X311755Y132188D01*
X311420Y132767D01*
X311247Y133414D01*
X311247Y141225D01*
X320265Y141225D01*
X320265Y131207D01*
X313454Y131207D01*
G37*
%LPD*%
%LPC*%
G36*
X383141Y110489D02*
X383141Y110489D01*
X377189Y116441D01*
X377189Y119127D01*
X385827Y119127D01*
X385827Y110489D01*
X383141Y110489D01*
G37*
%LPD*%
%LPC*%
G36*
X312673Y159591D02*
X312673Y159591D01*
X312673Y168149D01*
X321231Y168149D01*
X321231Y165496D01*
X315326Y159591D01*
X312673Y159591D01*
G37*
%LPD*%
%LPC*%
G36*
X349694Y77723D02*
X349694Y77723D01*
X349694Y82932D01*
X355807Y82932D01*
X356454Y82759D01*
X357033Y82424D01*
X357506Y81951D01*
X357841Y81372D01*
X358014Y80725D01*
X358014Y77723D01*
X349694Y77723D01*
G37*
%LPD*%
%LPC*%
G36*
X338327Y77723D02*
X338327Y77723D01*
X338327Y80725D01*
X338500Y81372D01*
X338835Y81951D01*
X339308Y82424D01*
X339887Y82759D01*
X340534Y82932D01*
X346647Y82932D01*
X346647Y77723D01*
X338327Y77723D01*
G37*
%LPD*%
%LPC*%
G36*
X349694Y69468D02*
X349694Y69468D01*
X349694Y74677D01*
X358014Y74677D01*
X358014Y71675D01*
X357841Y71028D01*
X357506Y70449D01*
X357033Y69976D01*
X356454Y69641D01*
X355807Y69468D01*
X349694Y69468D01*
G37*
%LPD*%
%LPC*%
G36*
X340534Y69468D02*
X340534Y69468D01*
X339887Y69641D01*
X339308Y69976D01*
X338835Y70449D01*
X338500Y71028D01*
X338327Y71675D01*
X338327Y74677D01*
X346647Y74677D01*
X346647Y69468D01*
X340534Y69468D01*
G37*
%LPD*%
%LPC*%
G36*
X162049Y133949D02*
X162049Y133949D01*
X162049Y142606D01*
X163254Y142606D01*
X163901Y142433D01*
X164049Y142347D01*
X164113Y142323D01*
X164172Y142290D01*
X164227Y142280D01*
X164279Y142260D01*
X164347Y142257D01*
X164414Y142245D01*
X164469Y142253D01*
X164525Y142251D01*
X164590Y142270D01*
X164657Y142279D01*
X164729Y142311D01*
X164761Y142321D01*
X164778Y142333D01*
X164811Y142347D01*
X164959Y142433D01*
X165606Y142606D01*
X166811Y142606D01*
X166811Y133949D01*
X162049Y133949D01*
G37*
%LPD*%
%LPC*%
G36*
X165606Y123554D02*
X165606Y123554D01*
X164959Y123727D01*
X164811Y123813D01*
X164747Y123837D01*
X164688Y123870D01*
X164633Y123880D01*
X164581Y123900D01*
X164513Y123903D01*
X164447Y123915D01*
X164391Y123907D01*
X164335Y123909D01*
X164270Y123890D01*
X164203Y123881D01*
X164131Y123849D01*
X164099Y123840D01*
X164082Y123827D01*
X164049Y123813D01*
X163901Y123727D01*
X163254Y123554D01*
X162049Y123554D01*
X162049Y132211D01*
X166811Y132211D01*
X166811Y123554D01*
X165606Y123554D01*
G37*
%LPD*%
%LPC*%
G36*
X49499Y72643D02*
X49499Y72643D01*
X49499Y76454D01*
X49672Y77101D01*
X50007Y77680D01*
X50480Y78153D01*
X51059Y78488D01*
X51706Y78661D01*
X56017Y78661D01*
X56017Y72643D01*
X49499Y72643D01*
G37*
%LPD*%
%LPC*%
G36*
X326359Y121665D02*
X326359Y121665D01*
X326359Y125476D01*
X326532Y126123D01*
X326867Y126702D01*
X327340Y127175D01*
X327919Y127510D01*
X328566Y127683D01*
X332877Y127683D01*
X332877Y121665D01*
X326359Y121665D01*
G37*
%LPD*%
%LPC*%
G36*
X260319Y47243D02*
X260319Y47243D01*
X260319Y51054D01*
X260492Y51701D01*
X260827Y52280D01*
X261300Y52753D01*
X261879Y53088D01*
X262526Y53261D01*
X266837Y53261D01*
X266837Y47243D01*
X260319Y47243D01*
G37*
%LPD*%
%LPC*%
G36*
X60929Y51053D02*
X60929Y51053D01*
X60929Y54864D01*
X61102Y55511D01*
X61437Y56090D01*
X61910Y56563D01*
X62489Y56898D01*
X63136Y57071D01*
X67447Y57071D01*
X67447Y51053D01*
X60929Y51053D01*
G37*
%LPD*%
%LPC*%
G36*
X35423Y78819D02*
X35423Y78819D01*
X35423Y84837D01*
X41941Y84837D01*
X41941Y81025D01*
X41768Y80379D01*
X41433Y79800D01*
X40960Y79327D01*
X40381Y78992D01*
X39734Y78819D01*
X35423Y78819D01*
G37*
%LPD*%
%LPC*%
G36*
X59063Y63579D02*
X59063Y63579D01*
X59063Y69597D01*
X65581Y69597D01*
X65581Y65785D01*
X65408Y65139D01*
X65073Y64560D01*
X64600Y64087D01*
X64021Y63752D01*
X63374Y63579D01*
X59063Y63579D01*
G37*
%LPD*%
%LPC*%
G36*
X63136Y41989D02*
X63136Y41989D01*
X62489Y42162D01*
X61910Y42497D01*
X61437Y42970D01*
X61102Y43549D01*
X60929Y44196D01*
X60929Y48007D01*
X67447Y48007D01*
X67447Y41989D01*
X63136Y41989D01*
G37*
%LPD*%
%LPC*%
G36*
X51706Y63579D02*
X51706Y63579D01*
X51059Y63752D01*
X50480Y64087D01*
X50007Y64560D01*
X49672Y65139D01*
X49499Y65786D01*
X49499Y69597D01*
X56017Y69597D01*
X56017Y63579D01*
X51706Y63579D01*
G37*
%LPD*%
%LPC*%
G36*
X26306Y116919D02*
X26306Y116919D01*
X25659Y117092D01*
X25080Y117427D01*
X24607Y117900D01*
X24272Y118479D01*
X24099Y119126D01*
X24099Y122937D01*
X30617Y122937D01*
X30617Y116919D01*
X26306Y116919D01*
G37*
%LPD*%
%LPC*%
G36*
X328566Y112601D02*
X328566Y112601D01*
X327919Y112774D01*
X327340Y113109D01*
X326867Y113582D01*
X326532Y114161D01*
X326359Y114808D01*
X326359Y118619D01*
X332877Y118619D01*
X332877Y112601D01*
X328566Y112601D01*
G37*
%LPD*%
%LPC*%
G36*
X57539Y71119D02*
X57539Y71119D01*
X57539Y71121D01*
X57541Y71121D01*
X57541Y71119D01*
X57539Y71119D01*
G37*
%LPD*%
%LPC*%
G36*
X348170Y76199D02*
X348170Y76199D01*
X348170Y76201D01*
X348171Y76201D01*
X348171Y76199D01*
X348170Y76199D01*
G37*
%LPD*%
D10*
X49560Y144780D03*
X21560Y144780D03*
X349788Y142748D03*
X321788Y142748D03*
D11*
X285360Y45720D03*
X268360Y45720D03*
X85970Y49530D03*
X68970Y49530D03*
X16900Y86360D03*
X33900Y86360D03*
X49140Y124460D03*
X32140Y124460D03*
X351400Y120142D03*
X334400Y120142D03*
X74540Y71120D03*
X57540Y71120D03*
X211700Y48260D03*
X194700Y48260D03*
D12*
X180680Y133080D03*
X174180Y133080D03*
X167680Y133080D03*
X161180Y133080D03*
X154680Y133080D03*
X148180Y133080D03*
X141680Y133080D03*
X128680Y133080D03*
X135180Y133080D03*
X122180Y133080D03*
X115680Y133080D03*
X109180Y133080D03*
X102680Y133080D03*
X96180Y133080D03*
X180680Y59960D03*
X174180Y59960D03*
X167680Y59960D03*
X161180Y59960D03*
X154680Y59960D03*
X148180Y59960D03*
X141680Y59960D03*
X135180Y59960D03*
X128680Y59960D03*
X122180Y59960D03*
X115680Y59960D03*
X109180Y59960D03*
X102680Y59960D03*
X96180Y59960D03*
D13*
X412750Y69850D03*
D14*
X412750Y95250D03*
X412750Y120650D03*
X387350Y69850D03*
X387350Y95250D03*
X387350Y120650D03*
D15*
X267580Y129540D03*
X250580Y129540D03*
X221860Y96520D03*
X204860Y96520D03*
X221860Y76200D03*
X204860Y76200D03*
D16*
X19100Y106172D03*
X57100Y106172D03*
D17*
X348171Y99314D03*
X348171Y76200D03*
X348171Y53086D03*
D18*
X286830Y76200D03*
D19*
X387350Y25400D03*
X361950Y25400D03*
X336550Y25400D03*
X311150Y25400D03*
X285750Y25400D03*
X260350Y25400D03*
X234950Y25400D03*
X209550Y25400D03*
X184150Y25400D03*
X158750Y25400D03*
X133350Y25400D03*
X107950Y25400D03*
X82550Y25400D03*
X57150Y25400D03*
X31750Y25400D03*
D20*
X31750Y169672D03*
X57150Y169672D03*
X82550Y169672D03*
X107950Y169672D03*
X133350Y169672D03*
X158750Y169672D03*
X184150Y169672D03*
X209550Y169672D03*
X234950Y169672D03*
X260350Y169672D03*
X285750Y169672D03*
X311150Y169672D03*
X336550Y169672D03*
X361950Y169672D03*
X387350Y169672D03*
D21*
X387350Y114872D02*
X348171Y76200D01*
X387350Y114872D02*
X387350Y120650D01*
D22*
X33020Y40640D03*
D23*
X334400Y120142D02*
X334400Y130136D01*
X321788Y142748D01*
D24*
X44890Y75370D02*
X33900Y86360D01*
X44890Y75370D02*
X49140Y71120D01*
X57540Y71120D01*
X44890Y70290D02*
X44890Y75370D01*
X44890Y70290D02*
X38100Y63500D01*
D22*
X38100Y63500D03*
D24*
X32140Y124460D02*
X21560Y135040D01*
X21560Y144780D01*
X21560Y156240D01*
X17780Y160020D01*
D22*
X17780Y160020D03*
D24*
X161180Y133080D02*
X161180Y118000D01*
X154940Y111760D01*
D22*
X154940Y111760D03*
D24*
X138882Y142240D02*
X138993Y142351D01*
X138882Y142240D02*
X137160Y142240D01*
X138993Y142351D02*
X157367Y142351D01*
X137160Y142240D02*
X135180Y140260D01*
X135180Y133080D01*
X137160Y142240D02*
X131478Y142240D01*
X131367Y142351D01*
X119493Y142351D02*
X119382Y142240D01*
X116840Y142240D01*
X119493Y142351D02*
X131367Y142351D01*
X116840Y142240D02*
X115680Y141080D01*
X115680Y133080D01*
X141680Y71115D02*
X141680Y59960D01*
X141680Y71115D02*
X134196Y78599D01*
D22*
X134196Y78599D03*
X368300Y76200D03*
X368300Y63500D03*
X355600Y63500D03*
X266700Y76200D03*
X295910Y13970D03*
X275590Y13970D03*
X332740Y53340D03*
X231140Y41910D03*
X245110Y52070D03*
X251460Y45720D03*
X335280Y138430D03*
X311150Y114300D03*
X300990Y115570D03*
X372110Y148844D03*
X366014Y143002D03*
X394716Y40132D03*
X394716Y48260D03*
X403352Y48514D03*
X411988Y48768D03*
X403606Y40132D03*
X415544Y28194D03*
X415544Y19812D03*
X407162Y19812D03*
X347218Y36322D03*
X353568Y42926D03*
X371856Y40386D03*
X379476Y37084D03*
X379476Y45212D03*
X373634Y119126D03*
X324866Y41402D03*
X316484Y41402D03*
X307848Y41402D03*
X279654Y152908D03*
X287020Y107950D03*
D25*
X141680Y125020D02*
X141680Y133080D01*
D24*
X181836Y103865D02*
X191385Y113415D01*
X176496Y87404D02*
X162424Y87404D01*
X176496Y87404D02*
X181836Y92744D01*
X181836Y103865D01*
X141680Y108148D02*
X141680Y125020D01*
X141680Y108148D02*
X162424Y87404D01*
X286512Y108458D02*
X287020Y107950D01*
X286512Y108458D02*
X278032Y108458D01*
X273076Y113415D02*
X191385Y113415D01*
X273076Y113415D02*
X278032Y108458D01*
D22*
X287020Y119380D03*
D25*
X148180Y125460D02*
X148180Y133080D01*
D24*
X178788Y94007D02*
X175234Y90452D01*
X178788Y94007D02*
X178788Y105128D01*
X190500Y116840D01*
X175234Y90452D02*
X163687Y90452D01*
X284480Y116840D02*
X287020Y119380D01*
X284480Y116840D02*
X190500Y116840D01*
X148180Y125320D02*
X148180Y125460D01*
X148180Y125320D02*
X144780Y121920D01*
X144780Y109359D01*
X163687Y90452D01*
X109180Y133080D02*
X109180Y141010D01*
X104140Y146050D01*
X58507Y133494D02*
X58174Y133494D01*
X49140Y124460D01*
X71063Y146050D02*
X104140Y146050D01*
X71063Y146050D02*
X58507Y133494D01*
X35820Y15574D02*
X27680Y15574D01*
X21924Y21330D01*
X26114Y92307D02*
X27453Y93646D01*
X47814Y114119D02*
X49140Y115445D01*
X49140Y124460D01*
X21924Y38126D02*
X21924Y21330D01*
X45646Y25400D02*
X57150Y25400D01*
X45646Y25400D02*
X35820Y15574D01*
X35509Y93646D02*
X27453Y93646D01*
X35509Y93646D02*
X47814Y105951D01*
X47814Y114119D01*
X26114Y42316D02*
X21924Y38126D01*
X26114Y42316D02*
X26114Y57912D01*
X26114Y92307D01*
X26114Y57912D02*
X46854Y57912D01*
X208280Y51680D02*
X211700Y48260D01*
X208280Y51680D02*
X208280Y58928D01*
D22*
X208280Y58928D03*
D24*
X267580Y129540D02*
X267754Y129714D01*
X267754Y139245D01*
D22*
X267754Y139245D03*
X240030Y96520D03*
D25*
X221860Y96520D01*
X355377Y169672D02*
X361950Y169672D01*
X355377Y169672D02*
X353928Y168222D01*
X245138Y101628D02*
X240030Y96520D01*
X245138Y101628D02*
X284480Y101628D01*
X289639Y101628D01*
D24*
X297768Y170440D02*
X307080Y179752D01*
X291084Y148793D02*
X291084Y145847D01*
X289534Y101882D02*
X284734Y101882D01*
X284480Y101628D01*
X353928Y168222D02*
X342398Y179752D01*
X297768Y170440D02*
X297768Y155477D01*
X291084Y148793D01*
X291084Y145847D02*
X293088Y143843D01*
X293088Y105437D01*
X289534Y101882D01*
X307080Y179752D02*
X342398Y179752D01*
D22*
X234950Y76200D03*
D25*
X221860Y76200D01*
X234950Y76200D02*
X256822Y98072D01*
X309177Y98072D01*
D24*
X387350Y152965D02*
X387350Y169672D01*
X387350Y152965D02*
X362037Y127652D01*
X343399Y127652D01*
X342186Y126439D01*
X342186Y112925D01*
X327333Y98072D02*
X309177Y98072D01*
X342186Y112925D02*
X342214Y112954D01*
X342186Y112925D02*
X327333Y98072D01*
X174180Y59960D02*
X174114Y59894D01*
X174114Y54568D01*
X180422Y48260D01*
X194700Y48260D01*
D21*
X370586Y53086D02*
X387350Y69850D01*
D26*
X347709Y154542D02*
X312631Y154542D01*
X349788Y152463D02*
X349788Y142748D01*
X349788Y152463D02*
X347709Y154542D01*
X377016Y175985D02*
X381800Y180768D01*
X393409Y180768D01*
X397684Y176493D01*
X354213Y142748D02*
X349788Y142748D01*
X354213Y142748D02*
X377016Y165552D01*
X377016Y175985D01*
X397684Y138256D02*
X398780Y137160D01*
X397684Y138256D02*
X397684Y176493D01*
D22*
X398780Y137160D03*
D26*
X74540Y71120D02*
X62904Y82756D01*
X62732Y82756D01*
X57100Y88388D01*
X57100Y106172D01*
X74540Y71120D02*
X86360Y71120D01*
X106680Y91440D01*
D22*
X106680Y91440D03*
D26*
X137160Y91440D01*
X153359Y91440D01*
X160951Y83848D01*
X185392Y102334D02*
X192786Y109728D01*
X177969Y83848D02*
X160951Y83848D01*
X177969Y83848D02*
X185392Y91271D01*
X185392Y102334D01*
X192786Y109728D02*
X236859Y109728D01*
X238760Y107827D01*
D22*
X238760Y107827D03*
X269240Y147320D03*
D26*
X266954Y147320D01*
X250580Y130946D01*
X250580Y129540D01*
X308643Y69003D02*
X285360Y45720D01*
X308643Y69003D02*
X308643Y72423D01*
D22*
X308643Y72423D03*
D26*
X311150Y25400D02*
X320993Y25400D01*
D24*
X161180Y59960D02*
X161180Y69960D01*
X160020Y71120D01*
X149577Y71120D02*
X137160Y83537D01*
X149577Y71120D02*
X160020Y71120D01*
X137160Y83537D02*
X137160Y91440D01*
D22*
X305409Y147320D03*
D26*
X312631Y154542D01*
D22*
X265430Y107696D03*
D26*
X238891Y107696D02*
X238760Y107827D01*
X238891Y107696D02*
X265430Y107696D01*
D24*
X128680Y110363D02*
X128680Y133080D01*
X136398Y92202D02*
X137160Y91440D01*
X136398Y102645D02*
X128680Y110363D01*
X136398Y102645D02*
X136398Y92202D01*
D27*
X348171Y53086D02*
X370586Y53086D01*
X332089Y37004D02*
X331743Y37004D01*
X332089Y37004D02*
X348171Y53086D01*
X320139Y25400D02*
X311150Y25400D01*
X320139Y25400D02*
X331743Y37004D01*
X308643Y52614D02*
X308643Y72423D01*
X308643Y52614D02*
X300482Y44453D01*
X300482Y36068D02*
X311150Y25400D01*
X300482Y36068D02*
X300482Y44453D01*
D22*
X64262Y122428D03*
X70104Y115824D03*
X69850Y107442D03*
D28*
X58370Y107442D02*
X57100Y106172D01*
X58370Y107442D02*
X69850Y107442D01*
X66752Y115824D02*
X57100Y106172D01*
X66752Y115824D02*
X70104Y115824D01*
X64262Y113334D02*
X57100Y106172D01*
X64262Y113334D02*
X64262Y122428D01*
D22*
X74930Y92710D03*
D24*
X102680Y120460D01*
X102680Y133080D01*
X96180Y133080D02*
X96180Y125460D01*
X65456Y94736D01*
X65456Y89332D01*
D22*
X65456Y89332D03*
X109802Y148963D03*
D24*
X139925Y155448D02*
X144555Y155448D01*
X133441Y148963D02*
X109802Y148963D01*
X133441Y148963D02*
X139925Y155448D01*
X169752Y155274D02*
X184150Y169672D01*
X169752Y155274D02*
X144729Y155274D01*
X144555Y155448D01*
D25*
X154680Y53340D02*
X154680Y52330D01*
X154680Y53340D02*
X154680Y59960D01*
D24*
X220353Y43180D02*
X220980Y43180D01*
X220353Y43180D02*
X218147Y40974D01*
X167046Y40974D02*
X154680Y53340D01*
X167046Y40974D02*
X218147Y40974D01*
X220980Y59037D02*
X209098Y70919D01*
X209098Y71962D01*
X204860Y76200D01*
X220980Y59037D02*
X220980Y43180D01*
D25*
X204860Y90678D02*
X204860Y96520D01*
X204860Y90678D02*
X180680Y66498D01*
X180680Y59960D01*
D24*
X272716Y38434D02*
X285750Y25400D01*
X212146Y102967D02*
X210807Y104306D01*
X198913Y104306D01*
X197574Y102967D01*
X197574Y90550D01*
X183224Y76200D01*
X152400Y76200D01*
X149860Y78740D01*
X245893Y38434D02*
X272716Y38434D01*
X245893Y38434D02*
X212146Y72181D01*
X212146Y102967D01*
D22*
X149860Y78740D03*
X114300Y83820D03*
D24*
X78184Y55477D02*
X78184Y43583D01*
X248846Y25400D02*
X260350Y25400D01*
X248846Y25400D02*
X239020Y35226D01*
X91938Y69231D02*
X78184Y55477D01*
X99711Y69231D02*
X114300Y83820D01*
X99711Y69231D02*
X91938Y69231D01*
X78184Y43583D02*
X86541Y35226D01*
X239020Y35226D01*
D22*
X95250Y151638D03*
D24*
X104574Y151638D02*
X107487Y154551D01*
X104574Y151638D02*
X95250Y151638D01*
X118229Y154551D02*
X133350Y169672D01*
X118229Y154551D02*
X107487Y154551D01*
D22*
X142240Y149860D03*
D24*
X189738Y149860D02*
X209550Y169672D01*
X189738Y149860D02*
X142240Y149860D01*
X220218Y129540D02*
X260350Y169672D01*
X220218Y129540D02*
X198120Y129540D01*
X172720Y104140D01*
X172720Y96520D01*
D22*
X172720Y96520D03*
X163632Y99088D03*
D24*
X169672Y105128D01*
X169672Y105403D01*
X233941Y169672D01*
X234950Y169672D01*
X16900Y103972D02*
X16900Y86360D01*
X16900Y103972D02*
X19100Y106172D01*
X40132Y106172D01*
X40640Y106680D01*
D22*
X40640Y106680D03*
D24*
X49560Y138613D02*
X49560Y144780D01*
X49560Y138613D02*
X39926Y128979D01*
X39926Y107394D02*
X40640Y106680D01*
X39926Y107394D02*
X39926Y128979D01*
D23*
X391979Y131826D02*
X398526Y125279D01*
X387350Y54045D02*
X387350Y25400D01*
X378714Y131826D02*
X378460Y132080D01*
X398526Y65221D02*
X387350Y54045D01*
X391979Y131826D02*
X378714Y131826D01*
X398526Y125279D02*
X398526Y65221D01*
X378460Y132080D02*
X373380Y132080D01*
X363220Y121920D01*
X363220Y120142D02*
X351400Y120142D01*
X363220Y120142D02*
X363220Y113856D01*
X363220Y120142D02*
X363220Y121920D01*
X363220Y113856D02*
X348679Y99314D01*
X348171Y99314D01*
D22*
X115570Y109220D03*
D24*
X124460Y100330D01*
D22*
X130810Y100330D03*
X143510Y85090D03*
D24*
X153670Y85090D01*
X130810Y100330D02*
X124460Y100330D01*
X153670Y85090D02*
X159004Y79756D01*
X178406Y79756D01*
D22*
X191986Y96774D03*
D24*
X178942Y80292D02*
X178406Y79756D01*
X178942Y80292D02*
X179442Y80292D01*
X191986Y92836D01*
X191986Y96774D01*
D22*
X247926Y144250D03*
X277703Y122428D03*
D24*
X271555Y152908D02*
X266925Y152908D01*
X274866Y125265D02*
X277703Y122428D01*
X258267Y144250D02*
X247926Y144250D01*
X258267Y144250D02*
X266925Y152908D01*
X271555Y152908D02*
X274866Y149597D01*
X274866Y125265D01*
D22*
X403860Y172720D03*
D24*
X403860Y140662D01*
X404848Y139674D01*
X404848Y126757D01*
X402844Y124753D01*
X402844Y79756D01*
X412750Y69850D01*
D22*
X284480Y55626D03*
D24*
X383280Y15574D02*
X391420Y15574D01*
X383280Y15574D02*
X377524Y21330D01*
X346376Y21330D02*
X340620Y15574D01*
X307080Y15574D02*
X301324Y21330D01*
X278913Y38434D02*
X277574Y39773D01*
X277574Y51667D01*
X278913Y53006D01*
X281860Y53006D01*
X284480Y55626D01*
X307080Y15574D02*
X340620Y15574D01*
X346376Y21330D02*
X346376Y23722D01*
X412750Y83859D02*
X412750Y95250D01*
X412750Y83859D02*
X422656Y73953D01*
X357880Y35226D02*
X346376Y23722D01*
X301324Y23722D02*
X301324Y21330D01*
X301324Y23722D02*
X286612Y38434D01*
X278913Y38434D01*
X377524Y23722D02*
X377524Y21330D01*
X377524Y23722D02*
X366020Y35226D01*
X357880Y35226D01*
X422656Y46810D02*
X422656Y73953D01*
X422656Y46810D02*
X391420Y15574D01*
D22*
X99060Y44450D03*
D24*
X91050Y44450D01*
X85970Y49530D01*
M02*
