G04 EAGLE Gerber RS-274X export*
G75*
%MOMM*%
%FSLAX34Y34*%
%LPD*%
%INCopper Layer 2*%
%IPPOS*%
%AMOC8*
5,1,8,0,0,1.08239X$1,22.5*%
G01*
%ADD10C,1.524000*%
%ADD11C,1.508000*%
%ADD12C,0.756400*%
%ADD13C,0.203200*%


D10*
X76200Y444500D03*
X101600Y444500D03*
X127000Y444500D03*
X76200Y469900D03*
X101600Y469900D03*
X127000Y469900D03*
D11*
X190500Y444500D03*
X190500Y419100D03*
X190500Y393700D03*
X190500Y368300D03*
X190500Y342900D03*
X190500Y317500D03*
X190500Y292100D03*
X190500Y266700D03*
X190500Y241300D03*
X190500Y215900D03*
X190500Y190500D03*
X190500Y165100D03*
X190500Y139700D03*
X190500Y114300D03*
X190500Y88900D03*
X12700Y88900D03*
X12700Y114300D03*
X12700Y139700D03*
X12700Y165100D03*
X12700Y190500D03*
X12700Y215900D03*
X12700Y241300D03*
X12700Y266700D03*
X12700Y292100D03*
X12700Y317500D03*
X12700Y342900D03*
X12700Y368300D03*
X12700Y393700D03*
X12700Y419100D03*
X12700Y444500D03*
D12*
X25400Y13942D03*
X50800Y342900D03*
X82550Y101600D03*
X107950Y127000D03*
X146050Y431800D03*
X134938Y233363D03*
X98425Y215900D03*
X160020Y55880D03*
X52550Y132080D03*
D13*
X52550Y171930D01*
X53340Y172720D01*
X53340Y171399D01*
X52749Y170808D01*
D12*
X52749Y170808D03*
X68580Y355600D03*
X81280Y157480D03*
D13*
X60960Y177800D01*
X60960Y176996D01*
D12*
X60960Y176996D03*
X63020Y228443D03*
D13*
X57783Y233680D01*
X43347Y233680D02*
X43264Y233764D01*
D12*
X43264Y233764D03*
X53340Y358140D03*
D13*
X57783Y233680D02*
X43347Y233680D01*
X66675Y114300D02*
X190500Y114300D01*
X66675Y114300D02*
X52388Y100013D01*
D12*
X52388Y100013D03*
X101600Y165100D03*
X139700Y269335D03*
X165100Y412270D03*
D13*
X161925Y219075D02*
X130175Y219075D01*
X120650Y228600D01*
D12*
X161925Y219075D03*
X120650Y228600D03*
X34925Y401638D03*
D13*
X141288Y152400D02*
X160338Y133350D01*
X141288Y152400D02*
X141288Y187325D01*
X101600Y227013D01*
X12700Y433388D02*
X12700Y444500D01*
X12700Y433388D02*
X104775Y341313D01*
X104775Y263525D01*
D12*
X160338Y133350D03*
X101600Y227013D03*
X104775Y263525D03*
X114300Y158750D03*
X153988Y158750D03*
X120650Y146050D03*
X125869Y171664D03*
X88900Y234950D03*
X76200Y426600D03*
X95250Y82550D03*
X102080Y69850D03*
X153988Y149225D03*
X134938Y177800D03*
X155575Y184150D03*
D13*
X111125Y228600D02*
X111125Y231775D01*
X190500Y311150D01*
X190500Y317500D01*
D12*
X111125Y228600D03*
D13*
X87313Y292100D02*
X38100Y292100D01*
X12700Y317500D01*
D12*
X87313Y292100D03*
D13*
X95250Y260350D02*
X44450Y260350D01*
X12700Y292100D01*
D12*
X95250Y260350D03*
X82550Y57150D03*
D13*
X101600Y460375D02*
X101600Y469900D01*
X101600Y460375D02*
X90488Y449263D01*
X90488Y361950D01*
X119063Y333375D01*
X119063Y254000D01*
X23813Y158750D01*
X23813Y125413D01*
X12700Y114300D01*
X128588Y373063D02*
X128588Y417513D01*
X101600Y444500D01*
D12*
X128588Y373063D03*
D13*
X96838Y301625D02*
X93663Y301625D01*
X58738Y336550D01*
X19050Y336550D01*
X12700Y342900D01*
D12*
X96838Y301625D03*
X149119Y174519D03*
M02*
