G04 EAGLE Gerber RS-274X export*
G75*
%MOMM*%
%FSLAX34Y34*%
%LPD*%
%INSilkscreen Top*%
%IPPOS*%
%AMOC8*
5,1,8,0,0,1.08239X$1,22.5*%
G01*
%ADD10C,0.076200*%
%ADD11C,0.152400*%
%ADD12C,0.127000*%
%ADD13C,0.200000*%
%ADD14C,0.101600*%
%ADD15R,0.150000X0.300000*%
%ADD16R,0.300000X0.300000*%
%ADD17C,0.203200*%


D10*
X25393Y441516D02*
X25393Y449263D01*
X23241Y449263D02*
X27545Y449263D01*
X35123Y449263D02*
X29958Y441516D01*
X35123Y441516D02*
X29958Y449263D01*
X23241Y423736D02*
X23241Y415989D01*
X23241Y423736D02*
X25393Y423736D01*
X25484Y423734D01*
X25576Y423728D01*
X25666Y423719D01*
X25757Y423705D01*
X25846Y423688D01*
X25935Y423667D01*
X26023Y423642D01*
X26110Y423613D01*
X26195Y423581D01*
X26279Y423545D01*
X26362Y423506D01*
X26443Y423463D01*
X26521Y423416D01*
X26598Y423367D01*
X26673Y423314D01*
X26745Y423258D01*
X26815Y423199D01*
X26882Y423138D01*
X26947Y423073D01*
X27008Y423006D01*
X27067Y422936D01*
X27123Y422864D01*
X27176Y422789D01*
X27225Y422712D01*
X27272Y422634D01*
X27315Y422553D01*
X27354Y422470D01*
X27390Y422386D01*
X27422Y422301D01*
X27451Y422214D01*
X27476Y422126D01*
X27497Y422037D01*
X27514Y421948D01*
X27528Y421857D01*
X27537Y421767D01*
X27543Y421675D01*
X27545Y421584D01*
X27543Y421493D01*
X27537Y421401D01*
X27528Y421311D01*
X27514Y421220D01*
X27497Y421131D01*
X27476Y421042D01*
X27451Y420954D01*
X27422Y420867D01*
X27390Y420782D01*
X27354Y420698D01*
X27315Y420615D01*
X27272Y420534D01*
X27225Y420456D01*
X27176Y420379D01*
X27123Y420304D01*
X27067Y420232D01*
X27008Y420162D01*
X26947Y420095D01*
X26882Y420030D01*
X26815Y419969D01*
X26745Y419910D01*
X26673Y419854D01*
X26598Y419801D01*
X26521Y419752D01*
X26443Y419705D01*
X26362Y419662D01*
X26279Y419623D01*
X26195Y419587D01*
X26110Y419555D01*
X26023Y419526D01*
X25935Y419501D01*
X25846Y419480D01*
X25757Y419463D01*
X25666Y419449D01*
X25576Y419440D01*
X25484Y419434D01*
X25393Y419432D01*
X23241Y419432D01*
X25823Y419432D02*
X27545Y415989D01*
X30416Y415989D02*
X35581Y423736D01*
X30416Y423736D02*
X35581Y415989D01*
X23241Y398209D02*
X23241Y390462D01*
X23241Y398209D02*
X25393Y398209D01*
X25484Y398207D01*
X25576Y398201D01*
X25666Y398192D01*
X25757Y398178D01*
X25846Y398161D01*
X25935Y398140D01*
X26023Y398115D01*
X26110Y398086D01*
X26195Y398054D01*
X26279Y398018D01*
X26362Y397979D01*
X26443Y397936D01*
X26521Y397889D01*
X26598Y397840D01*
X26673Y397787D01*
X26745Y397731D01*
X26815Y397672D01*
X26882Y397611D01*
X26947Y397546D01*
X27008Y397479D01*
X27067Y397409D01*
X27123Y397337D01*
X27176Y397262D01*
X27225Y397185D01*
X27272Y397107D01*
X27315Y397026D01*
X27354Y396943D01*
X27390Y396859D01*
X27422Y396774D01*
X27451Y396687D01*
X27476Y396599D01*
X27497Y396510D01*
X27514Y396421D01*
X27528Y396330D01*
X27537Y396240D01*
X27543Y396148D01*
X27545Y396057D01*
X27543Y395966D01*
X27537Y395874D01*
X27528Y395784D01*
X27514Y395693D01*
X27497Y395604D01*
X27476Y395515D01*
X27451Y395427D01*
X27422Y395340D01*
X27390Y395255D01*
X27354Y395171D01*
X27315Y395088D01*
X27272Y395007D01*
X27225Y394929D01*
X27176Y394852D01*
X27123Y394777D01*
X27067Y394705D01*
X27008Y394635D01*
X26947Y394568D01*
X26882Y394503D01*
X26815Y394442D01*
X26745Y394383D01*
X26673Y394327D01*
X26598Y394274D01*
X26521Y394225D01*
X26443Y394178D01*
X26362Y394135D01*
X26279Y394096D01*
X26195Y394060D01*
X26110Y394028D01*
X26023Y393999D01*
X25935Y393974D01*
X25846Y393953D01*
X25757Y393936D01*
X25666Y393922D01*
X25576Y393913D01*
X25484Y393907D01*
X25393Y393905D01*
X23241Y393905D01*
X25823Y393905D02*
X27545Y390462D01*
X33174Y390461D02*
X33256Y390463D01*
X33338Y390469D01*
X33419Y390479D01*
X33500Y390492D01*
X33580Y390510D01*
X33659Y390531D01*
X33737Y390556D01*
X33814Y390584D01*
X33889Y390617D01*
X33963Y390652D01*
X34035Y390692D01*
X34105Y390734D01*
X34173Y390780D01*
X34238Y390829D01*
X34302Y390882D01*
X34362Y390937D01*
X34420Y390995D01*
X34475Y391055D01*
X34528Y391119D01*
X34577Y391184D01*
X34623Y391252D01*
X34665Y391322D01*
X34705Y391394D01*
X34740Y391468D01*
X34773Y391543D01*
X34801Y391620D01*
X34826Y391698D01*
X34847Y391777D01*
X34865Y391857D01*
X34878Y391938D01*
X34888Y392019D01*
X34894Y392101D01*
X34896Y392183D01*
X33174Y390461D02*
X33054Y390463D01*
X32935Y390469D01*
X32816Y390479D01*
X32697Y390492D01*
X32578Y390510D01*
X32461Y390532D01*
X32344Y390557D01*
X32228Y390586D01*
X32113Y390619D01*
X31999Y390656D01*
X31886Y390697D01*
X31775Y390741D01*
X31665Y390789D01*
X31557Y390840D01*
X31451Y390895D01*
X31347Y390953D01*
X31244Y391015D01*
X31144Y391080D01*
X31046Y391149D01*
X30950Y391220D01*
X30856Y391295D01*
X30766Y391373D01*
X30677Y391453D01*
X30592Y391537D01*
X30806Y396487D02*
X30808Y396569D01*
X30814Y396651D01*
X30824Y396732D01*
X30837Y396813D01*
X30855Y396893D01*
X30876Y396972D01*
X30901Y397050D01*
X30929Y397127D01*
X30962Y397202D01*
X30997Y397276D01*
X31037Y397348D01*
X31079Y397418D01*
X31125Y397486D01*
X31174Y397551D01*
X31227Y397615D01*
X31282Y397675D01*
X31340Y397733D01*
X31400Y397788D01*
X31464Y397841D01*
X31529Y397890D01*
X31597Y397936D01*
X31667Y397978D01*
X31739Y398018D01*
X31813Y398053D01*
X31888Y398086D01*
X31965Y398114D01*
X32043Y398139D01*
X32122Y398160D01*
X32202Y398178D01*
X32283Y398191D01*
X32364Y398201D01*
X32446Y398207D01*
X32528Y398209D01*
X32637Y398207D01*
X32746Y398202D01*
X32855Y398192D01*
X32964Y398179D01*
X33072Y398163D01*
X33179Y398143D01*
X33286Y398119D01*
X33392Y398091D01*
X33497Y398060D01*
X33600Y398026D01*
X33703Y397988D01*
X33804Y397946D01*
X33904Y397901D01*
X34002Y397853D01*
X34098Y397801D01*
X34193Y397747D01*
X34286Y397689D01*
X34376Y397627D01*
X34465Y397563D01*
X31668Y394981D02*
X31597Y395025D01*
X31530Y395071D01*
X31464Y395121D01*
X31401Y395174D01*
X31340Y395230D01*
X31282Y395289D01*
X31227Y395350D01*
X31175Y395414D01*
X31126Y395481D01*
X31080Y395549D01*
X31037Y395620D01*
X30998Y395692D01*
X30962Y395767D01*
X30930Y395843D01*
X30902Y395920D01*
X30877Y395999D01*
X30855Y396078D01*
X30838Y396159D01*
X30824Y396240D01*
X30815Y396322D01*
X30809Y396405D01*
X30807Y396487D01*
X34035Y393690D02*
X34105Y393646D01*
X34173Y393599D01*
X34239Y393549D01*
X34302Y393496D01*
X34363Y393440D01*
X34421Y393382D01*
X34476Y393320D01*
X34528Y393256D01*
X34577Y393190D01*
X34623Y393121D01*
X34666Y393051D01*
X34705Y392978D01*
X34741Y392904D01*
X34773Y392828D01*
X34801Y392750D01*
X34826Y392672D01*
X34848Y392592D01*
X34865Y392511D01*
X34878Y392430D01*
X34888Y392348D01*
X34894Y392266D01*
X34896Y392183D01*
X34035Y393689D02*
X31668Y394981D01*
X39636Y398209D02*
X39636Y390462D01*
X37484Y398209D02*
X41788Y398209D01*
X27545Y369238D02*
X26254Y369238D01*
X27545Y369238D02*
X27545Y364935D01*
X24963Y364935D01*
X24963Y364934D02*
X24881Y364936D01*
X24799Y364942D01*
X24718Y364952D01*
X24637Y364965D01*
X24557Y364983D01*
X24478Y365004D01*
X24400Y365029D01*
X24323Y365057D01*
X24248Y365090D01*
X24174Y365125D01*
X24102Y365165D01*
X24032Y365207D01*
X23964Y365253D01*
X23899Y365302D01*
X23835Y365355D01*
X23775Y365410D01*
X23717Y365468D01*
X23662Y365528D01*
X23609Y365592D01*
X23560Y365657D01*
X23514Y365725D01*
X23472Y365795D01*
X23432Y365867D01*
X23397Y365941D01*
X23364Y366016D01*
X23336Y366093D01*
X23311Y366171D01*
X23290Y366250D01*
X23272Y366330D01*
X23259Y366411D01*
X23249Y366492D01*
X23243Y366574D01*
X23241Y366656D01*
X23241Y370960D01*
X23243Y371042D01*
X23249Y371124D01*
X23259Y371205D01*
X23272Y371286D01*
X23290Y371366D01*
X23311Y371445D01*
X23336Y371523D01*
X23364Y371600D01*
X23397Y371675D01*
X23432Y371749D01*
X23472Y371821D01*
X23514Y371891D01*
X23560Y371959D01*
X23609Y372024D01*
X23662Y372088D01*
X23717Y372148D01*
X23775Y372206D01*
X23835Y372261D01*
X23899Y372314D01*
X23964Y372363D01*
X24032Y372409D01*
X24102Y372451D01*
X24174Y372491D01*
X24248Y372526D01*
X24323Y372559D01*
X24400Y372587D01*
X24478Y372612D01*
X24557Y372633D01*
X24637Y372651D01*
X24718Y372664D01*
X24799Y372674D01*
X24881Y372680D01*
X24963Y372682D01*
X27545Y372682D01*
X31410Y372682D02*
X31410Y364935D01*
X35714Y364935D02*
X31410Y372682D01*
X35714Y372682D02*
X35714Y364935D01*
X39578Y364935D02*
X39578Y372682D01*
X41730Y372682D01*
X41821Y372680D01*
X41913Y372674D01*
X42003Y372665D01*
X42094Y372651D01*
X42183Y372634D01*
X42272Y372613D01*
X42360Y372588D01*
X42447Y372559D01*
X42532Y372527D01*
X42616Y372491D01*
X42699Y372452D01*
X42780Y372409D01*
X42858Y372362D01*
X42935Y372313D01*
X43010Y372260D01*
X43082Y372204D01*
X43152Y372145D01*
X43219Y372084D01*
X43284Y372019D01*
X43345Y371952D01*
X43404Y371882D01*
X43460Y371810D01*
X43513Y371735D01*
X43562Y371658D01*
X43609Y371580D01*
X43652Y371499D01*
X43691Y371416D01*
X43727Y371332D01*
X43759Y371247D01*
X43788Y371160D01*
X43813Y371072D01*
X43834Y370983D01*
X43851Y370894D01*
X43865Y370803D01*
X43874Y370713D01*
X43880Y370621D01*
X43882Y370530D01*
X43882Y367086D01*
X43880Y366995D01*
X43874Y366903D01*
X43865Y366813D01*
X43851Y366722D01*
X43834Y366633D01*
X43813Y366544D01*
X43788Y366456D01*
X43759Y366369D01*
X43727Y366284D01*
X43691Y366200D01*
X43652Y366117D01*
X43609Y366036D01*
X43562Y365958D01*
X43513Y365881D01*
X43460Y365806D01*
X43404Y365734D01*
X43345Y365664D01*
X43284Y365597D01*
X43219Y365532D01*
X43152Y365471D01*
X43082Y365412D01*
X43010Y365356D01*
X42935Y365303D01*
X42858Y365254D01*
X42780Y365207D01*
X42699Y365164D01*
X42616Y365125D01*
X42532Y365089D01*
X42447Y365057D01*
X42360Y365028D01*
X42272Y365003D01*
X42183Y364982D01*
X42094Y364965D01*
X42003Y364951D01*
X41913Y364942D01*
X41821Y364936D01*
X41730Y364934D01*
X41730Y364935D02*
X39578Y364935D01*
X23241Y347155D02*
X23241Y339408D01*
X23241Y347155D02*
X25393Y347155D01*
X25484Y347153D01*
X25576Y347147D01*
X25666Y347138D01*
X25757Y347124D01*
X25846Y347107D01*
X25935Y347086D01*
X26023Y347061D01*
X26110Y347032D01*
X26195Y347000D01*
X26279Y346964D01*
X26362Y346925D01*
X26443Y346882D01*
X26521Y346835D01*
X26598Y346786D01*
X26673Y346733D01*
X26745Y346677D01*
X26815Y346618D01*
X26882Y346557D01*
X26947Y346492D01*
X27008Y346425D01*
X27067Y346355D01*
X27123Y346283D01*
X27176Y346208D01*
X27225Y346131D01*
X27272Y346053D01*
X27315Y345972D01*
X27354Y345889D01*
X27390Y345805D01*
X27422Y345720D01*
X27451Y345633D01*
X27476Y345545D01*
X27497Y345456D01*
X27514Y345367D01*
X27528Y345276D01*
X27537Y345186D01*
X27543Y345094D01*
X27545Y345003D01*
X27545Y341559D01*
X27543Y341468D01*
X27537Y341376D01*
X27528Y341286D01*
X27514Y341195D01*
X27497Y341106D01*
X27476Y341017D01*
X27451Y340929D01*
X27422Y340842D01*
X27390Y340757D01*
X27354Y340673D01*
X27315Y340590D01*
X27272Y340509D01*
X27225Y340431D01*
X27176Y340354D01*
X27123Y340279D01*
X27067Y340207D01*
X27008Y340137D01*
X26947Y340070D01*
X26882Y340005D01*
X26815Y339944D01*
X26745Y339885D01*
X26673Y339829D01*
X26598Y339776D01*
X26521Y339727D01*
X26443Y339680D01*
X26362Y339637D01*
X26279Y339598D01*
X26195Y339562D01*
X26110Y339530D01*
X26023Y339501D01*
X25935Y339476D01*
X25846Y339455D01*
X25757Y339438D01*
X25666Y339424D01*
X25576Y339415D01*
X25484Y339409D01*
X25393Y339407D01*
X25393Y339408D02*
X23241Y339408D01*
X33521Y347155D02*
X33608Y347153D01*
X33695Y347147D01*
X33781Y347137D01*
X33867Y347124D01*
X33952Y347106D01*
X34036Y347085D01*
X34120Y347060D01*
X34202Y347031D01*
X34282Y346999D01*
X34361Y346963D01*
X34439Y346924D01*
X34514Y346881D01*
X34588Y346835D01*
X34660Y346785D01*
X34729Y346732D01*
X34795Y346677D01*
X34860Y346618D01*
X34921Y346557D01*
X34980Y346492D01*
X35035Y346426D01*
X35088Y346357D01*
X35138Y346285D01*
X35184Y346211D01*
X35227Y346136D01*
X35266Y346058D01*
X35302Y345979D01*
X35334Y345899D01*
X35363Y345817D01*
X35388Y345733D01*
X35409Y345649D01*
X35427Y345564D01*
X35440Y345478D01*
X35450Y345392D01*
X35456Y345305D01*
X35458Y345218D01*
X33521Y347154D02*
X33423Y347152D01*
X33326Y347146D01*
X33228Y347137D01*
X33131Y347123D01*
X33035Y347106D01*
X32940Y347085D01*
X32845Y347060D01*
X32752Y347032D01*
X32659Y347000D01*
X32568Y346964D01*
X32479Y346925D01*
X32391Y346882D01*
X32304Y346836D01*
X32220Y346787D01*
X32138Y346734D01*
X32058Y346678D01*
X31980Y346619D01*
X31904Y346557D01*
X31831Y346492D01*
X31761Y346424D01*
X31693Y346354D01*
X31628Y346281D01*
X31566Y346205D01*
X31507Y346127D01*
X31451Y346047D01*
X31399Y345964D01*
X31349Y345880D01*
X31303Y345794D01*
X31261Y345706D01*
X31222Y345616D01*
X31186Y345525D01*
X31154Y345433D01*
X34812Y343712D02*
X34875Y343774D01*
X34936Y343839D01*
X34993Y343907D01*
X35047Y343977D01*
X35099Y344049D01*
X35147Y344124D01*
X35192Y344200D01*
X35234Y344278D01*
X35272Y344358D01*
X35307Y344440D01*
X35338Y344522D01*
X35366Y344607D01*
X35390Y344692D01*
X35411Y344778D01*
X35428Y344865D01*
X35441Y344953D01*
X35450Y345041D01*
X35456Y345129D01*
X35458Y345218D01*
X34813Y343711D02*
X31154Y339408D01*
X35458Y339408D01*
X23241Y321628D02*
X23241Y313881D01*
X23241Y321628D02*
X25393Y321628D01*
X25484Y321626D01*
X25576Y321620D01*
X25666Y321611D01*
X25757Y321597D01*
X25846Y321580D01*
X25935Y321559D01*
X26023Y321534D01*
X26110Y321505D01*
X26195Y321473D01*
X26279Y321437D01*
X26362Y321398D01*
X26443Y321355D01*
X26521Y321308D01*
X26598Y321259D01*
X26673Y321206D01*
X26745Y321150D01*
X26815Y321091D01*
X26882Y321030D01*
X26947Y320965D01*
X27008Y320898D01*
X27067Y320828D01*
X27123Y320756D01*
X27176Y320681D01*
X27225Y320604D01*
X27272Y320526D01*
X27315Y320445D01*
X27354Y320362D01*
X27390Y320278D01*
X27422Y320193D01*
X27451Y320106D01*
X27476Y320018D01*
X27497Y319929D01*
X27514Y319840D01*
X27528Y319749D01*
X27537Y319659D01*
X27543Y319567D01*
X27545Y319476D01*
X27545Y316032D01*
X27543Y315941D01*
X27537Y315849D01*
X27528Y315759D01*
X27514Y315668D01*
X27497Y315579D01*
X27476Y315490D01*
X27451Y315402D01*
X27422Y315315D01*
X27390Y315230D01*
X27354Y315146D01*
X27315Y315063D01*
X27272Y314982D01*
X27225Y314904D01*
X27176Y314827D01*
X27123Y314752D01*
X27067Y314680D01*
X27008Y314610D01*
X26947Y314543D01*
X26882Y314478D01*
X26815Y314417D01*
X26745Y314358D01*
X26673Y314302D01*
X26598Y314249D01*
X26521Y314200D01*
X26443Y314153D01*
X26362Y314110D01*
X26279Y314071D01*
X26195Y314035D01*
X26110Y314003D01*
X26023Y313974D01*
X25935Y313949D01*
X25846Y313928D01*
X25757Y313911D01*
X25666Y313897D01*
X25576Y313888D01*
X25484Y313882D01*
X25393Y313880D01*
X25393Y313881D02*
X23241Y313881D01*
X31154Y313881D02*
X33306Y313881D01*
X33306Y313880D02*
X33397Y313882D01*
X33489Y313888D01*
X33579Y313897D01*
X33670Y313911D01*
X33759Y313928D01*
X33848Y313949D01*
X33936Y313974D01*
X34023Y314003D01*
X34108Y314035D01*
X34192Y314071D01*
X34275Y314110D01*
X34356Y314153D01*
X34434Y314200D01*
X34511Y314249D01*
X34586Y314302D01*
X34658Y314358D01*
X34728Y314417D01*
X34795Y314478D01*
X34860Y314543D01*
X34921Y314610D01*
X34980Y314680D01*
X35036Y314752D01*
X35089Y314827D01*
X35138Y314904D01*
X35185Y314982D01*
X35228Y315063D01*
X35267Y315146D01*
X35303Y315230D01*
X35335Y315315D01*
X35364Y315402D01*
X35389Y315490D01*
X35410Y315579D01*
X35427Y315668D01*
X35441Y315759D01*
X35450Y315849D01*
X35456Y315941D01*
X35458Y316032D01*
X35456Y316123D01*
X35450Y316215D01*
X35441Y316305D01*
X35427Y316396D01*
X35410Y316485D01*
X35389Y316574D01*
X35364Y316662D01*
X35335Y316749D01*
X35303Y316834D01*
X35267Y316918D01*
X35228Y317001D01*
X35185Y317082D01*
X35138Y317160D01*
X35089Y317237D01*
X35036Y317312D01*
X34980Y317384D01*
X34921Y317454D01*
X34860Y317521D01*
X34795Y317586D01*
X34728Y317647D01*
X34658Y317706D01*
X34586Y317762D01*
X34511Y317815D01*
X34434Y317864D01*
X34356Y317911D01*
X34275Y317954D01*
X34192Y317993D01*
X34108Y318029D01*
X34023Y318061D01*
X33936Y318090D01*
X33848Y318115D01*
X33759Y318136D01*
X33670Y318153D01*
X33579Y318167D01*
X33489Y318176D01*
X33397Y318182D01*
X33306Y318184D01*
X33737Y321628D02*
X31154Y321628D01*
X33737Y321628D02*
X33819Y321626D01*
X33901Y321620D01*
X33982Y321610D01*
X34063Y321597D01*
X34143Y321579D01*
X34222Y321558D01*
X34300Y321533D01*
X34377Y321505D01*
X34452Y321472D01*
X34526Y321437D01*
X34598Y321397D01*
X34668Y321355D01*
X34736Y321309D01*
X34801Y321260D01*
X34865Y321207D01*
X34925Y321152D01*
X34983Y321094D01*
X35038Y321034D01*
X35091Y320970D01*
X35140Y320905D01*
X35186Y320837D01*
X35228Y320767D01*
X35268Y320695D01*
X35303Y320621D01*
X35336Y320546D01*
X35364Y320469D01*
X35389Y320391D01*
X35410Y320312D01*
X35428Y320232D01*
X35441Y320151D01*
X35451Y320070D01*
X35457Y319988D01*
X35459Y319906D01*
X35457Y319824D01*
X35451Y319742D01*
X35441Y319661D01*
X35428Y319580D01*
X35410Y319500D01*
X35389Y319421D01*
X35364Y319343D01*
X35336Y319266D01*
X35303Y319191D01*
X35268Y319117D01*
X35228Y319045D01*
X35186Y318975D01*
X35140Y318907D01*
X35091Y318842D01*
X35038Y318778D01*
X34983Y318718D01*
X34925Y318660D01*
X34865Y318605D01*
X34801Y318552D01*
X34736Y318503D01*
X34668Y318457D01*
X34598Y318415D01*
X34526Y318375D01*
X34452Y318340D01*
X34377Y318307D01*
X34300Y318279D01*
X34222Y318254D01*
X34143Y318233D01*
X34063Y318215D01*
X33982Y318202D01*
X33901Y318192D01*
X33819Y318186D01*
X33737Y318184D01*
X32015Y318184D01*
X23241Y296101D02*
X23241Y288354D01*
X23241Y296101D02*
X25393Y296101D01*
X25484Y296099D01*
X25576Y296093D01*
X25666Y296084D01*
X25757Y296070D01*
X25846Y296053D01*
X25935Y296032D01*
X26023Y296007D01*
X26110Y295978D01*
X26195Y295946D01*
X26279Y295910D01*
X26362Y295871D01*
X26443Y295828D01*
X26521Y295781D01*
X26598Y295732D01*
X26673Y295679D01*
X26745Y295623D01*
X26815Y295564D01*
X26882Y295503D01*
X26947Y295438D01*
X27008Y295371D01*
X27067Y295301D01*
X27123Y295229D01*
X27176Y295154D01*
X27225Y295077D01*
X27272Y294999D01*
X27315Y294918D01*
X27354Y294835D01*
X27390Y294751D01*
X27422Y294666D01*
X27451Y294579D01*
X27476Y294491D01*
X27497Y294402D01*
X27514Y294313D01*
X27528Y294222D01*
X27537Y294132D01*
X27543Y294040D01*
X27545Y293949D01*
X27545Y290505D01*
X27543Y290414D01*
X27537Y290322D01*
X27528Y290232D01*
X27514Y290141D01*
X27497Y290052D01*
X27476Y289963D01*
X27451Y289875D01*
X27422Y289788D01*
X27390Y289703D01*
X27354Y289619D01*
X27315Y289536D01*
X27272Y289455D01*
X27225Y289377D01*
X27176Y289300D01*
X27123Y289225D01*
X27067Y289153D01*
X27008Y289083D01*
X26947Y289016D01*
X26882Y288951D01*
X26815Y288890D01*
X26745Y288831D01*
X26673Y288775D01*
X26598Y288722D01*
X26521Y288673D01*
X26443Y288626D01*
X26362Y288583D01*
X26279Y288544D01*
X26195Y288508D01*
X26110Y288476D01*
X26023Y288447D01*
X25935Y288422D01*
X25846Y288401D01*
X25757Y288384D01*
X25666Y288370D01*
X25576Y288361D01*
X25484Y288355D01*
X25393Y288353D01*
X25393Y288354D02*
X23241Y288354D01*
X31154Y290075D02*
X32876Y296101D01*
X31154Y290075D02*
X35458Y290075D01*
X34167Y288354D02*
X34167Y291797D01*
X23241Y270574D02*
X23241Y262827D01*
X23241Y270574D02*
X25393Y270574D01*
X25484Y270572D01*
X25576Y270566D01*
X25666Y270557D01*
X25757Y270543D01*
X25846Y270526D01*
X25935Y270505D01*
X26023Y270480D01*
X26110Y270451D01*
X26195Y270419D01*
X26279Y270383D01*
X26362Y270344D01*
X26443Y270301D01*
X26521Y270254D01*
X26598Y270205D01*
X26673Y270152D01*
X26745Y270096D01*
X26815Y270037D01*
X26882Y269976D01*
X26947Y269911D01*
X27008Y269844D01*
X27067Y269774D01*
X27123Y269702D01*
X27176Y269627D01*
X27225Y269550D01*
X27272Y269472D01*
X27315Y269391D01*
X27354Y269308D01*
X27390Y269224D01*
X27422Y269139D01*
X27451Y269052D01*
X27476Y268964D01*
X27497Y268875D01*
X27514Y268786D01*
X27528Y268695D01*
X27537Y268605D01*
X27543Y268513D01*
X27545Y268422D01*
X27545Y264978D01*
X27543Y264887D01*
X27537Y264795D01*
X27528Y264705D01*
X27514Y264614D01*
X27497Y264525D01*
X27476Y264436D01*
X27451Y264348D01*
X27422Y264261D01*
X27390Y264176D01*
X27354Y264092D01*
X27315Y264009D01*
X27272Y263928D01*
X27225Y263850D01*
X27176Y263773D01*
X27123Y263698D01*
X27067Y263626D01*
X27008Y263556D01*
X26947Y263489D01*
X26882Y263424D01*
X26815Y263363D01*
X26745Y263304D01*
X26673Y263248D01*
X26598Y263195D01*
X26521Y263146D01*
X26443Y263099D01*
X26362Y263056D01*
X26279Y263017D01*
X26195Y262981D01*
X26110Y262949D01*
X26023Y262920D01*
X25935Y262895D01*
X25846Y262874D01*
X25757Y262857D01*
X25666Y262843D01*
X25576Y262834D01*
X25484Y262828D01*
X25393Y262826D01*
X25393Y262827D02*
X23241Y262827D01*
X31154Y262827D02*
X33737Y262827D01*
X33737Y262826D02*
X33819Y262828D01*
X33901Y262834D01*
X33982Y262844D01*
X34063Y262857D01*
X34143Y262875D01*
X34222Y262896D01*
X34300Y262921D01*
X34377Y262949D01*
X34452Y262982D01*
X34526Y263017D01*
X34598Y263057D01*
X34668Y263099D01*
X34736Y263145D01*
X34801Y263194D01*
X34865Y263247D01*
X34925Y263302D01*
X34983Y263360D01*
X35038Y263420D01*
X35091Y263484D01*
X35140Y263549D01*
X35186Y263617D01*
X35228Y263687D01*
X35268Y263759D01*
X35303Y263833D01*
X35336Y263908D01*
X35364Y263985D01*
X35389Y264063D01*
X35410Y264142D01*
X35428Y264222D01*
X35441Y264303D01*
X35451Y264384D01*
X35457Y264466D01*
X35459Y264548D01*
X35458Y264548D02*
X35458Y265409D01*
X35459Y265409D02*
X35457Y265491D01*
X35451Y265573D01*
X35441Y265654D01*
X35428Y265735D01*
X35410Y265815D01*
X35389Y265894D01*
X35364Y265972D01*
X35336Y266049D01*
X35303Y266124D01*
X35268Y266198D01*
X35228Y266270D01*
X35186Y266340D01*
X35140Y266408D01*
X35091Y266473D01*
X35038Y266537D01*
X34983Y266597D01*
X34925Y266655D01*
X34865Y266710D01*
X34801Y266763D01*
X34736Y266812D01*
X34668Y266858D01*
X34598Y266900D01*
X34526Y266940D01*
X34452Y266975D01*
X34377Y267008D01*
X34300Y267036D01*
X34222Y267061D01*
X34143Y267082D01*
X34063Y267100D01*
X33982Y267113D01*
X33901Y267123D01*
X33819Y267129D01*
X33737Y267131D01*
X33737Y267130D02*
X31154Y267130D01*
X31154Y270574D01*
X35458Y270574D01*
X23241Y245047D02*
X23241Y237300D01*
X23241Y245047D02*
X25393Y245047D01*
X25484Y245045D01*
X25576Y245039D01*
X25666Y245030D01*
X25757Y245016D01*
X25846Y244999D01*
X25935Y244978D01*
X26023Y244953D01*
X26110Y244924D01*
X26195Y244892D01*
X26279Y244856D01*
X26362Y244817D01*
X26443Y244774D01*
X26521Y244727D01*
X26598Y244678D01*
X26673Y244625D01*
X26745Y244569D01*
X26815Y244510D01*
X26882Y244449D01*
X26947Y244384D01*
X27008Y244317D01*
X27067Y244247D01*
X27123Y244175D01*
X27176Y244100D01*
X27225Y244023D01*
X27272Y243945D01*
X27315Y243864D01*
X27354Y243781D01*
X27390Y243697D01*
X27422Y243612D01*
X27451Y243525D01*
X27476Y243437D01*
X27497Y243348D01*
X27514Y243259D01*
X27528Y243168D01*
X27537Y243078D01*
X27543Y242986D01*
X27545Y242895D01*
X27545Y239451D01*
X27543Y239360D01*
X27537Y239268D01*
X27528Y239178D01*
X27514Y239087D01*
X27497Y238998D01*
X27476Y238909D01*
X27451Y238821D01*
X27422Y238734D01*
X27390Y238649D01*
X27354Y238565D01*
X27315Y238482D01*
X27272Y238401D01*
X27225Y238323D01*
X27176Y238246D01*
X27123Y238171D01*
X27067Y238099D01*
X27008Y238029D01*
X26947Y237962D01*
X26882Y237897D01*
X26815Y237836D01*
X26745Y237777D01*
X26673Y237721D01*
X26598Y237668D01*
X26521Y237619D01*
X26443Y237572D01*
X26362Y237529D01*
X26279Y237490D01*
X26195Y237454D01*
X26110Y237422D01*
X26023Y237393D01*
X25935Y237368D01*
X25846Y237347D01*
X25757Y237330D01*
X25666Y237316D01*
X25576Y237307D01*
X25484Y237301D01*
X25393Y237299D01*
X25393Y237300D02*
X23241Y237300D01*
X31154Y241603D02*
X33737Y241603D01*
X33737Y241604D02*
X33819Y241602D01*
X33901Y241596D01*
X33982Y241586D01*
X34063Y241573D01*
X34143Y241555D01*
X34222Y241534D01*
X34300Y241509D01*
X34377Y241481D01*
X34452Y241448D01*
X34526Y241413D01*
X34598Y241373D01*
X34668Y241331D01*
X34736Y241285D01*
X34801Y241236D01*
X34865Y241183D01*
X34925Y241128D01*
X34983Y241070D01*
X35038Y241010D01*
X35091Y240946D01*
X35140Y240881D01*
X35186Y240813D01*
X35228Y240743D01*
X35268Y240671D01*
X35303Y240597D01*
X35336Y240522D01*
X35364Y240445D01*
X35389Y240367D01*
X35410Y240288D01*
X35428Y240208D01*
X35441Y240127D01*
X35451Y240046D01*
X35457Y239964D01*
X35459Y239882D01*
X35458Y239882D02*
X35458Y239451D01*
X35456Y239360D01*
X35450Y239268D01*
X35441Y239178D01*
X35427Y239087D01*
X35410Y238998D01*
X35389Y238909D01*
X35364Y238821D01*
X35335Y238734D01*
X35303Y238649D01*
X35267Y238565D01*
X35228Y238482D01*
X35185Y238401D01*
X35138Y238323D01*
X35089Y238246D01*
X35036Y238171D01*
X34980Y238099D01*
X34921Y238029D01*
X34860Y237962D01*
X34795Y237897D01*
X34728Y237836D01*
X34658Y237777D01*
X34586Y237721D01*
X34511Y237668D01*
X34434Y237619D01*
X34356Y237572D01*
X34275Y237529D01*
X34192Y237490D01*
X34108Y237454D01*
X34023Y237422D01*
X33936Y237393D01*
X33848Y237368D01*
X33759Y237347D01*
X33670Y237330D01*
X33579Y237316D01*
X33489Y237307D01*
X33397Y237301D01*
X33306Y237299D01*
X33215Y237301D01*
X33123Y237307D01*
X33033Y237316D01*
X32942Y237330D01*
X32853Y237347D01*
X32764Y237368D01*
X32676Y237393D01*
X32589Y237422D01*
X32504Y237454D01*
X32420Y237490D01*
X32337Y237529D01*
X32256Y237572D01*
X32178Y237619D01*
X32101Y237668D01*
X32026Y237721D01*
X31954Y237777D01*
X31884Y237836D01*
X31817Y237897D01*
X31752Y237962D01*
X31691Y238029D01*
X31632Y238099D01*
X31576Y238171D01*
X31523Y238246D01*
X31474Y238323D01*
X31427Y238401D01*
X31384Y238482D01*
X31345Y238565D01*
X31309Y238649D01*
X31277Y238734D01*
X31248Y238821D01*
X31223Y238909D01*
X31202Y238998D01*
X31185Y239087D01*
X31171Y239178D01*
X31162Y239268D01*
X31156Y239360D01*
X31154Y239451D01*
X31154Y241603D01*
X31156Y241718D01*
X31162Y241833D01*
X31171Y241948D01*
X31185Y242062D01*
X31202Y242176D01*
X31223Y242289D01*
X31248Y242401D01*
X31276Y242513D01*
X31309Y242623D01*
X31345Y242732D01*
X31384Y242840D01*
X31427Y242947D01*
X31474Y243052D01*
X31524Y243156D01*
X31578Y243258D01*
X31635Y243358D01*
X31695Y243456D01*
X31758Y243552D01*
X31825Y243645D01*
X31895Y243737D01*
X31968Y243826D01*
X32043Y243913D01*
X32122Y243997D01*
X32203Y244078D01*
X32287Y244156D01*
X32374Y244232D01*
X32463Y244305D01*
X32555Y244375D01*
X32648Y244442D01*
X32744Y244505D01*
X32842Y244565D01*
X32942Y244622D01*
X33044Y244676D01*
X33148Y244726D01*
X33253Y244773D01*
X33360Y244816D01*
X33468Y244855D01*
X33577Y244891D01*
X33687Y244924D01*
X33799Y244952D01*
X33911Y244977D01*
X34024Y244998D01*
X34138Y245015D01*
X34252Y245029D01*
X34367Y245038D01*
X34482Y245044D01*
X34597Y245046D01*
X23241Y219520D02*
X23241Y211773D01*
X23241Y219520D02*
X25393Y219520D01*
X25484Y219518D01*
X25576Y219512D01*
X25666Y219503D01*
X25757Y219489D01*
X25846Y219472D01*
X25935Y219451D01*
X26023Y219426D01*
X26110Y219397D01*
X26195Y219365D01*
X26279Y219329D01*
X26362Y219290D01*
X26443Y219247D01*
X26521Y219200D01*
X26598Y219151D01*
X26673Y219098D01*
X26745Y219042D01*
X26815Y218983D01*
X26882Y218922D01*
X26947Y218857D01*
X27008Y218790D01*
X27067Y218720D01*
X27123Y218648D01*
X27176Y218573D01*
X27225Y218496D01*
X27272Y218418D01*
X27315Y218337D01*
X27354Y218254D01*
X27390Y218170D01*
X27422Y218085D01*
X27451Y217998D01*
X27476Y217910D01*
X27497Y217821D01*
X27514Y217732D01*
X27528Y217641D01*
X27537Y217551D01*
X27543Y217459D01*
X27545Y217368D01*
X27545Y213924D01*
X27543Y213833D01*
X27537Y213741D01*
X27528Y213651D01*
X27514Y213560D01*
X27497Y213471D01*
X27476Y213382D01*
X27451Y213294D01*
X27422Y213207D01*
X27390Y213122D01*
X27354Y213038D01*
X27315Y212955D01*
X27272Y212874D01*
X27225Y212796D01*
X27176Y212719D01*
X27123Y212644D01*
X27067Y212572D01*
X27008Y212502D01*
X26947Y212435D01*
X26882Y212370D01*
X26815Y212309D01*
X26745Y212250D01*
X26673Y212194D01*
X26598Y212141D01*
X26521Y212092D01*
X26443Y212045D01*
X26362Y212002D01*
X26279Y211963D01*
X26195Y211927D01*
X26110Y211895D01*
X26023Y211866D01*
X25935Y211841D01*
X25846Y211820D01*
X25757Y211803D01*
X25666Y211789D01*
X25576Y211780D01*
X25484Y211774D01*
X25393Y211772D01*
X25393Y211773D02*
X23241Y211773D01*
X31154Y218659D02*
X31154Y219520D01*
X35458Y219520D01*
X33306Y211773D01*
X23241Y193993D02*
X23241Y186246D01*
X23241Y193993D02*
X25393Y193993D01*
X25484Y193991D01*
X25576Y193985D01*
X25666Y193976D01*
X25757Y193962D01*
X25846Y193945D01*
X25935Y193924D01*
X26023Y193899D01*
X26110Y193870D01*
X26195Y193838D01*
X26279Y193802D01*
X26362Y193763D01*
X26443Y193720D01*
X26521Y193673D01*
X26598Y193624D01*
X26673Y193571D01*
X26745Y193515D01*
X26815Y193456D01*
X26882Y193395D01*
X26947Y193330D01*
X27008Y193263D01*
X27067Y193193D01*
X27123Y193121D01*
X27176Y193046D01*
X27225Y192969D01*
X27272Y192891D01*
X27315Y192810D01*
X27354Y192727D01*
X27390Y192643D01*
X27422Y192558D01*
X27451Y192471D01*
X27476Y192383D01*
X27497Y192294D01*
X27514Y192205D01*
X27528Y192114D01*
X27537Y192024D01*
X27543Y191932D01*
X27545Y191841D01*
X27545Y188397D01*
X27543Y188306D01*
X27537Y188214D01*
X27528Y188124D01*
X27514Y188033D01*
X27497Y187944D01*
X27476Y187855D01*
X27451Y187767D01*
X27422Y187680D01*
X27390Y187595D01*
X27354Y187511D01*
X27315Y187428D01*
X27272Y187347D01*
X27225Y187269D01*
X27176Y187192D01*
X27123Y187117D01*
X27067Y187045D01*
X27008Y186975D01*
X26947Y186908D01*
X26882Y186843D01*
X26815Y186782D01*
X26745Y186723D01*
X26673Y186667D01*
X26598Y186614D01*
X26521Y186565D01*
X26443Y186518D01*
X26362Y186475D01*
X26279Y186436D01*
X26195Y186400D01*
X26110Y186368D01*
X26023Y186339D01*
X25935Y186314D01*
X25846Y186293D01*
X25757Y186276D01*
X25666Y186262D01*
X25576Y186253D01*
X25484Y186247D01*
X25393Y186245D01*
X25393Y186246D02*
X23241Y186246D01*
X31154Y188397D02*
X31156Y188488D01*
X31162Y188580D01*
X31171Y188670D01*
X31185Y188761D01*
X31202Y188850D01*
X31223Y188939D01*
X31248Y189027D01*
X31277Y189114D01*
X31309Y189199D01*
X31345Y189283D01*
X31384Y189366D01*
X31427Y189447D01*
X31474Y189525D01*
X31523Y189602D01*
X31576Y189677D01*
X31632Y189749D01*
X31691Y189819D01*
X31752Y189886D01*
X31817Y189951D01*
X31884Y190012D01*
X31954Y190071D01*
X32026Y190127D01*
X32101Y190180D01*
X32178Y190229D01*
X32256Y190276D01*
X32337Y190319D01*
X32420Y190358D01*
X32504Y190394D01*
X32589Y190426D01*
X32676Y190455D01*
X32764Y190480D01*
X32853Y190501D01*
X32942Y190518D01*
X33033Y190532D01*
X33123Y190541D01*
X33215Y190547D01*
X33306Y190549D01*
X33397Y190547D01*
X33489Y190541D01*
X33579Y190532D01*
X33670Y190518D01*
X33759Y190501D01*
X33848Y190480D01*
X33936Y190455D01*
X34023Y190426D01*
X34108Y190394D01*
X34192Y190358D01*
X34275Y190319D01*
X34356Y190276D01*
X34434Y190229D01*
X34511Y190180D01*
X34586Y190127D01*
X34658Y190071D01*
X34728Y190012D01*
X34795Y189951D01*
X34860Y189886D01*
X34921Y189819D01*
X34980Y189749D01*
X35036Y189677D01*
X35089Y189602D01*
X35138Y189525D01*
X35185Y189447D01*
X35228Y189366D01*
X35267Y189283D01*
X35303Y189199D01*
X35335Y189114D01*
X35364Y189027D01*
X35389Y188939D01*
X35410Y188850D01*
X35427Y188761D01*
X35441Y188670D01*
X35450Y188580D01*
X35456Y188488D01*
X35458Y188397D01*
X35456Y188306D01*
X35450Y188214D01*
X35441Y188124D01*
X35427Y188033D01*
X35410Y187944D01*
X35389Y187855D01*
X35364Y187767D01*
X35335Y187680D01*
X35303Y187595D01*
X35267Y187511D01*
X35228Y187428D01*
X35185Y187347D01*
X35138Y187269D01*
X35089Y187192D01*
X35036Y187117D01*
X34980Y187045D01*
X34921Y186975D01*
X34860Y186908D01*
X34795Y186843D01*
X34728Y186782D01*
X34658Y186723D01*
X34586Y186667D01*
X34511Y186614D01*
X34434Y186565D01*
X34356Y186518D01*
X34275Y186475D01*
X34192Y186436D01*
X34108Y186400D01*
X34023Y186368D01*
X33936Y186339D01*
X33848Y186314D01*
X33759Y186293D01*
X33670Y186276D01*
X33579Y186262D01*
X33489Y186253D01*
X33397Y186247D01*
X33306Y186245D01*
X33215Y186247D01*
X33123Y186253D01*
X33033Y186262D01*
X32942Y186276D01*
X32853Y186293D01*
X32764Y186314D01*
X32676Y186339D01*
X32589Y186368D01*
X32504Y186400D01*
X32420Y186436D01*
X32337Y186475D01*
X32256Y186518D01*
X32178Y186565D01*
X32101Y186614D01*
X32026Y186667D01*
X31954Y186723D01*
X31884Y186782D01*
X31817Y186843D01*
X31752Y186908D01*
X31691Y186975D01*
X31632Y187045D01*
X31576Y187117D01*
X31523Y187192D01*
X31474Y187269D01*
X31427Y187347D01*
X31384Y187428D01*
X31345Y187511D01*
X31309Y187595D01*
X31277Y187680D01*
X31248Y187767D01*
X31223Y187855D01*
X31202Y187944D01*
X31185Y188033D01*
X31171Y188124D01*
X31162Y188214D01*
X31156Y188306D01*
X31154Y188397D01*
X31584Y192271D02*
X31586Y192353D01*
X31592Y192435D01*
X31602Y192516D01*
X31615Y192597D01*
X31633Y192677D01*
X31654Y192756D01*
X31679Y192834D01*
X31707Y192911D01*
X31740Y192986D01*
X31775Y193060D01*
X31815Y193132D01*
X31857Y193202D01*
X31903Y193270D01*
X31952Y193335D01*
X32005Y193399D01*
X32060Y193459D01*
X32118Y193517D01*
X32178Y193572D01*
X32242Y193625D01*
X32307Y193674D01*
X32375Y193720D01*
X32445Y193762D01*
X32517Y193802D01*
X32591Y193837D01*
X32666Y193870D01*
X32743Y193898D01*
X32821Y193923D01*
X32900Y193944D01*
X32980Y193962D01*
X33061Y193975D01*
X33142Y193985D01*
X33224Y193991D01*
X33306Y193993D01*
X33388Y193991D01*
X33470Y193985D01*
X33551Y193975D01*
X33632Y193962D01*
X33712Y193944D01*
X33791Y193923D01*
X33869Y193898D01*
X33946Y193870D01*
X34021Y193837D01*
X34095Y193802D01*
X34167Y193762D01*
X34237Y193720D01*
X34305Y193674D01*
X34370Y193625D01*
X34434Y193572D01*
X34494Y193517D01*
X34552Y193459D01*
X34607Y193399D01*
X34660Y193335D01*
X34709Y193270D01*
X34755Y193202D01*
X34797Y193132D01*
X34837Y193060D01*
X34872Y192986D01*
X34905Y192911D01*
X34933Y192834D01*
X34958Y192756D01*
X34979Y192677D01*
X34997Y192597D01*
X35010Y192516D01*
X35020Y192435D01*
X35026Y192353D01*
X35028Y192271D01*
X35026Y192189D01*
X35020Y192107D01*
X35010Y192026D01*
X34997Y191945D01*
X34979Y191865D01*
X34958Y191786D01*
X34933Y191708D01*
X34905Y191631D01*
X34872Y191556D01*
X34837Y191482D01*
X34797Y191410D01*
X34755Y191340D01*
X34709Y191272D01*
X34660Y191207D01*
X34607Y191143D01*
X34552Y191083D01*
X34494Y191025D01*
X34434Y190970D01*
X34370Y190917D01*
X34305Y190868D01*
X34237Y190822D01*
X34167Y190780D01*
X34095Y190740D01*
X34021Y190705D01*
X33946Y190672D01*
X33869Y190644D01*
X33791Y190619D01*
X33712Y190598D01*
X33632Y190580D01*
X33551Y190567D01*
X33470Y190557D01*
X33388Y190551D01*
X33306Y190549D01*
X33224Y190551D01*
X33142Y190557D01*
X33061Y190567D01*
X32980Y190580D01*
X32900Y190598D01*
X32821Y190619D01*
X32743Y190644D01*
X32666Y190672D01*
X32591Y190705D01*
X32517Y190740D01*
X32445Y190780D01*
X32375Y190822D01*
X32307Y190868D01*
X32242Y190917D01*
X32178Y190970D01*
X32118Y191025D01*
X32060Y191083D01*
X32005Y191143D01*
X31952Y191207D01*
X31903Y191272D01*
X31857Y191340D01*
X31815Y191410D01*
X31775Y191482D01*
X31740Y191556D01*
X31707Y191631D01*
X31679Y191708D01*
X31654Y191786D01*
X31633Y191865D01*
X31615Y191945D01*
X31602Y192026D01*
X31592Y192107D01*
X31586Y192189D01*
X31584Y192271D01*
X23241Y168466D02*
X23241Y160719D01*
X23241Y168466D02*
X25393Y168466D01*
X25484Y168464D01*
X25576Y168458D01*
X25666Y168449D01*
X25757Y168435D01*
X25846Y168418D01*
X25935Y168397D01*
X26023Y168372D01*
X26110Y168343D01*
X26195Y168311D01*
X26279Y168275D01*
X26362Y168236D01*
X26443Y168193D01*
X26521Y168146D01*
X26598Y168097D01*
X26673Y168044D01*
X26745Y167988D01*
X26815Y167929D01*
X26882Y167868D01*
X26947Y167803D01*
X27008Y167736D01*
X27067Y167666D01*
X27123Y167594D01*
X27176Y167519D01*
X27225Y167442D01*
X27272Y167364D01*
X27315Y167283D01*
X27354Y167200D01*
X27390Y167116D01*
X27422Y167031D01*
X27451Y166944D01*
X27476Y166856D01*
X27497Y166767D01*
X27514Y166678D01*
X27528Y166587D01*
X27537Y166497D01*
X27543Y166405D01*
X27545Y166314D01*
X27545Y162870D01*
X27543Y162779D01*
X27537Y162687D01*
X27528Y162597D01*
X27514Y162506D01*
X27497Y162417D01*
X27476Y162328D01*
X27451Y162240D01*
X27422Y162153D01*
X27390Y162068D01*
X27354Y161984D01*
X27315Y161901D01*
X27272Y161820D01*
X27225Y161742D01*
X27176Y161665D01*
X27123Y161590D01*
X27067Y161518D01*
X27008Y161448D01*
X26947Y161381D01*
X26882Y161316D01*
X26815Y161255D01*
X26745Y161196D01*
X26673Y161140D01*
X26598Y161087D01*
X26521Y161038D01*
X26443Y160991D01*
X26362Y160948D01*
X26279Y160909D01*
X26195Y160873D01*
X26110Y160841D01*
X26023Y160812D01*
X25935Y160787D01*
X25846Y160766D01*
X25757Y160749D01*
X25666Y160735D01*
X25576Y160726D01*
X25484Y160720D01*
X25393Y160718D01*
X25393Y160719D02*
X23241Y160719D01*
X32876Y164162D02*
X35458Y164162D01*
X32876Y164161D02*
X32794Y164163D01*
X32712Y164169D01*
X32631Y164179D01*
X32550Y164192D01*
X32470Y164210D01*
X32391Y164231D01*
X32313Y164256D01*
X32236Y164284D01*
X32161Y164317D01*
X32087Y164352D01*
X32015Y164392D01*
X31945Y164434D01*
X31877Y164480D01*
X31812Y164529D01*
X31748Y164582D01*
X31688Y164637D01*
X31630Y164695D01*
X31575Y164755D01*
X31522Y164819D01*
X31473Y164884D01*
X31427Y164952D01*
X31385Y165022D01*
X31345Y165094D01*
X31310Y165168D01*
X31277Y165243D01*
X31249Y165320D01*
X31224Y165398D01*
X31203Y165477D01*
X31185Y165557D01*
X31172Y165638D01*
X31162Y165719D01*
X31156Y165801D01*
X31154Y165883D01*
X31154Y166314D01*
X31156Y166405D01*
X31162Y166497D01*
X31171Y166587D01*
X31185Y166678D01*
X31202Y166767D01*
X31223Y166856D01*
X31248Y166944D01*
X31277Y167031D01*
X31309Y167116D01*
X31345Y167200D01*
X31384Y167283D01*
X31427Y167364D01*
X31474Y167442D01*
X31523Y167519D01*
X31576Y167594D01*
X31632Y167666D01*
X31691Y167736D01*
X31752Y167803D01*
X31817Y167868D01*
X31884Y167929D01*
X31954Y167988D01*
X32026Y168044D01*
X32101Y168097D01*
X32178Y168146D01*
X32256Y168193D01*
X32337Y168236D01*
X32420Y168275D01*
X32504Y168311D01*
X32589Y168343D01*
X32676Y168372D01*
X32764Y168397D01*
X32853Y168418D01*
X32942Y168435D01*
X33033Y168449D01*
X33123Y168458D01*
X33215Y168464D01*
X33306Y168466D01*
X33397Y168464D01*
X33489Y168458D01*
X33579Y168449D01*
X33670Y168435D01*
X33759Y168418D01*
X33848Y168397D01*
X33936Y168372D01*
X34023Y168343D01*
X34108Y168311D01*
X34192Y168275D01*
X34275Y168236D01*
X34356Y168193D01*
X34434Y168146D01*
X34511Y168097D01*
X34586Y168044D01*
X34658Y167988D01*
X34728Y167929D01*
X34795Y167868D01*
X34860Y167803D01*
X34921Y167736D01*
X34980Y167666D01*
X35036Y167594D01*
X35089Y167519D01*
X35138Y167442D01*
X35185Y167364D01*
X35228Y167283D01*
X35267Y167200D01*
X35303Y167116D01*
X35335Y167031D01*
X35364Y166944D01*
X35389Y166856D01*
X35410Y166767D01*
X35427Y166678D01*
X35441Y166587D01*
X35450Y166497D01*
X35456Y166405D01*
X35458Y166314D01*
X35458Y164162D01*
X35456Y164047D01*
X35450Y163932D01*
X35441Y163817D01*
X35427Y163703D01*
X35410Y163589D01*
X35389Y163476D01*
X35364Y163364D01*
X35336Y163252D01*
X35303Y163142D01*
X35267Y163033D01*
X35228Y162925D01*
X35185Y162818D01*
X35138Y162713D01*
X35088Y162609D01*
X35034Y162507D01*
X34977Y162407D01*
X34917Y162309D01*
X34854Y162213D01*
X34787Y162120D01*
X34717Y162028D01*
X34644Y161939D01*
X34569Y161852D01*
X34490Y161768D01*
X34409Y161687D01*
X34325Y161608D01*
X34238Y161533D01*
X34149Y161460D01*
X34057Y161390D01*
X33964Y161323D01*
X33868Y161260D01*
X33770Y161200D01*
X33670Y161143D01*
X33568Y161089D01*
X33464Y161039D01*
X33359Y160992D01*
X33252Y160949D01*
X33144Y160910D01*
X33035Y160874D01*
X32925Y160841D01*
X32813Y160813D01*
X32701Y160788D01*
X32588Y160767D01*
X32474Y160750D01*
X32360Y160736D01*
X32245Y160727D01*
X32130Y160721D01*
X32015Y160719D01*
X23241Y142939D02*
X23241Y135192D01*
X23241Y142939D02*
X25393Y142939D01*
X25484Y142937D01*
X25576Y142931D01*
X25666Y142922D01*
X25757Y142908D01*
X25846Y142891D01*
X25935Y142870D01*
X26023Y142845D01*
X26110Y142816D01*
X26195Y142784D01*
X26279Y142748D01*
X26362Y142709D01*
X26443Y142666D01*
X26521Y142619D01*
X26598Y142570D01*
X26673Y142517D01*
X26745Y142461D01*
X26815Y142402D01*
X26882Y142341D01*
X26947Y142276D01*
X27008Y142209D01*
X27067Y142139D01*
X27123Y142067D01*
X27176Y141992D01*
X27225Y141915D01*
X27272Y141837D01*
X27315Y141756D01*
X27354Y141673D01*
X27390Y141589D01*
X27422Y141504D01*
X27451Y141417D01*
X27476Y141329D01*
X27497Y141240D01*
X27514Y141151D01*
X27528Y141060D01*
X27537Y140970D01*
X27543Y140878D01*
X27545Y140787D01*
X27545Y137343D01*
X27543Y137252D01*
X27537Y137160D01*
X27528Y137070D01*
X27514Y136979D01*
X27497Y136890D01*
X27476Y136801D01*
X27451Y136713D01*
X27422Y136626D01*
X27390Y136541D01*
X27354Y136457D01*
X27315Y136374D01*
X27272Y136293D01*
X27225Y136215D01*
X27176Y136138D01*
X27123Y136063D01*
X27067Y135991D01*
X27008Y135921D01*
X26947Y135854D01*
X26882Y135789D01*
X26815Y135728D01*
X26745Y135669D01*
X26673Y135613D01*
X26598Y135560D01*
X26521Y135511D01*
X26443Y135464D01*
X26362Y135421D01*
X26279Y135382D01*
X26195Y135346D01*
X26110Y135314D01*
X26023Y135285D01*
X25935Y135260D01*
X25846Y135239D01*
X25757Y135222D01*
X25666Y135208D01*
X25576Y135199D01*
X25484Y135193D01*
X25393Y135191D01*
X25393Y135192D02*
X23241Y135192D01*
X31154Y141217D02*
X33306Y142939D01*
X33306Y135192D01*
X31154Y135192D02*
X35458Y135192D01*
X38813Y139065D02*
X38815Y139217D01*
X38820Y139370D01*
X38829Y139522D01*
X38842Y139674D01*
X38858Y139825D01*
X38878Y139976D01*
X38902Y140127D01*
X38929Y140277D01*
X38960Y140426D01*
X38994Y140575D01*
X39032Y140722D01*
X39073Y140869D01*
X39118Y141015D01*
X39166Y141159D01*
X39218Y141303D01*
X39273Y141445D01*
X39332Y141585D01*
X39393Y141725D01*
X39459Y141862D01*
X39458Y141862D02*
X39486Y141936D01*
X39517Y142009D01*
X39551Y142080D01*
X39589Y142149D01*
X39631Y142216D01*
X39676Y142281D01*
X39724Y142344D01*
X39775Y142404D01*
X39829Y142462D01*
X39885Y142517D01*
X39945Y142569D01*
X40007Y142618D01*
X40071Y142664D01*
X40138Y142707D01*
X40206Y142746D01*
X40276Y142782D01*
X40348Y142814D01*
X40422Y142843D01*
X40497Y142868D01*
X40573Y142889D01*
X40650Y142907D01*
X40728Y142920D01*
X40806Y142930D01*
X40885Y142936D01*
X40964Y142938D01*
X41043Y142936D01*
X41122Y142930D01*
X41200Y142920D01*
X41278Y142907D01*
X41355Y142889D01*
X41431Y142868D01*
X41506Y142843D01*
X41580Y142814D01*
X41652Y142782D01*
X41722Y142746D01*
X41790Y142707D01*
X41857Y142664D01*
X41921Y142618D01*
X41983Y142569D01*
X42043Y142517D01*
X42099Y142462D01*
X42153Y142404D01*
X42204Y142344D01*
X42252Y142281D01*
X42297Y142216D01*
X42339Y142149D01*
X42377Y142080D01*
X42411Y142009D01*
X42443Y141936D01*
X42470Y141862D01*
X42470Y141863D02*
X42536Y141725D01*
X42597Y141585D01*
X42656Y141445D01*
X42711Y141303D01*
X42763Y141159D01*
X42811Y141015D01*
X42856Y140869D01*
X42897Y140722D01*
X42935Y140575D01*
X42969Y140426D01*
X43000Y140277D01*
X43027Y140127D01*
X43051Y139976D01*
X43071Y139825D01*
X43087Y139674D01*
X43100Y139522D01*
X43109Y139370D01*
X43114Y139217D01*
X43116Y139065D01*
X38813Y139065D02*
X38815Y138913D01*
X38820Y138760D01*
X38829Y138608D01*
X38842Y138456D01*
X38858Y138305D01*
X38878Y138154D01*
X38902Y138003D01*
X38929Y137853D01*
X38960Y137704D01*
X38994Y137555D01*
X39032Y137408D01*
X39073Y137261D01*
X39118Y137115D01*
X39166Y136971D01*
X39218Y136828D01*
X39273Y136685D01*
X39332Y136545D01*
X39393Y136405D01*
X39459Y136268D01*
X39458Y136268D02*
X39486Y136194D01*
X39517Y136121D01*
X39551Y136050D01*
X39589Y135981D01*
X39631Y135914D01*
X39676Y135849D01*
X39724Y135786D01*
X39775Y135726D01*
X39829Y135668D01*
X39885Y135613D01*
X39945Y135561D01*
X40007Y135512D01*
X40071Y135466D01*
X40138Y135423D01*
X40206Y135384D01*
X40276Y135348D01*
X40349Y135316D01*
X40422Y135287D01*
X40497Y135262D01*
X40573Y135241D01*
X40650Y135223D01*
X40728Y135210D01*
X40806Y135200D01*
X40885Y135194D01*
X40964Y135192D01*
X42470Y136268D02*
X42536Y136405D01*
X42597Y136545D01*
X42656Y136685D01*
X42711Y136827D01*
X42763Y136971D01*
X42811Y137115D01*
X42856Y137261D01*
X42897Y137408D01*
X42935Y137555D01*
X42969Y137704D01*
X43000Y137853D01*
X43027Y138003D01*
X43051Y138154D01*
X43071Y138305D01*
X43087Y138456D01*
X43100Y138608D01*
X43109Y138760D01*
X43114Y138913D01*
X43116Y139065D01*
X42470Y136268D02*
X42443Y136194D01*
X42411Y136121D01*
X42377Y136050D01*
X42339Y135981D01*
X42297Y135914D01*
X42252Y135849D01*
X42204Y135786D01*
X42153Y135726D01*
X42099Y135668D01*
X42043Y135613D01*
X41983Y135561D01*
X41921Y135512D01*
X41857Y135466D01*
X41790Y135423D01*
X41722Y135384D01*
X41652Y135348D01*
X41580Y135316D01*
X41506Y135287D01*
X41431Y135262D01*
X41355Y135241D01*
X41278Y135223D01*
X41200Y135210D01*
X41122Y135200D01*
X41043Y135194D01*
X40964Y135192D01*
X39243Y136913D02*
X42686Y141217D01*
X23241Y117412D02*
X23241Y109665D01*
X23241Y117412D02*
X25393Y117412D01*
X25484Y117410D01*
X25576Y117404D01*
X25666Y117395D01*
X25757Y117381D01*
X25846Y117364D01*
X25935Y117343D01*
X26023Y117318D01*
X26110Y117289D01*
X26195Y117257D01*
X26279Y117221D01*
X26362Y117182D01*
X26443Y117139D01*
X26521Y117092D01*
X26598Y117043D01*
X26673Y116990D01*
X26745Y116934D01*
X26815Y116875D01*
X26882Y116814D01*
X26947Y116749D01*
X27008Y116682D01*
X27067Y116612D01*
X27123Y116540D01*
X27176Y116465D01*
X27225Y116388D01*
X27272Y116310D01*
X27315Y116229D01*
X27354Y116146D01*
X27390Y116062D01*
X27422Y115977D01*
X27451Y115890D01*
X27476Y115802D01*
X27497Y115713D01*
X27514Y115624D01*
X27528Y115533D01*
X27537Y115443D01*
X27543Y115351D01*
X27545Y115260D01*
X27545Y111816D01*
X27543Y111725D01*
X27537Y111633D01*
X27528Y111543D01*
X27514Y111452D01*
X27497Y111363D01*
X27476Y111274D01*
X27451Y111186D01*
X27422Y111099D01*
X27390Y111014D01*
X27354Y110930D01*
X27315Y110847D01*
X27272Y110766D01*
X27225Y110688D01*
X27176Y110611D01*
X27123Y110536D01*
X27067Y110464D01*
X27008Y110394D01*
X26947Y110327D01*
X26882Y110262D01*
X26815Y110201D01*
X26745Y110142D01*
X26673Y110086D01*
X26598Y110033D01*
X26521Y109984D01*
X26443Y109937D01*
X26362Y109894D01*
X26279Y109855D01*
X26195Y109819D01*
X26110Y109787D01*
X26023Y109758D01*
X25935Y109733D01*
X25846Y109712D01*
X25757Y109695D01*
X25666Y109681D01*
X25576Y109672D01*
X25484Y109666D01*
X25393Y109664D01*
X25393Y109665D02*
X23241Y109665D01*
X31154Y115690D02*
X33306Y117412D01*
X33306Y109665D01*
X31154Y109665D02*
X35458Y109665D01*
X38812Y115690D02*
X40964Y117412D01*
X40964Y109665D01*
X38812Y109665D02*
X43116Y109665D01*
X23241Y91885D02*
X23241Y84138D01*
X23241Y91885D02*
X25393Y91885D01*
X25484Y91883D01*
X25576Y91877D01*
X25666Y91868D01*
X25757Y91854D01*
X25846Y91837D01*
X25935Y91816D01*
X26023Y91791D01*
X26110Y91762D01*
X26195Y91730D01*
X26279Y91694D01*
X26362Y91655D01*
X26443Y91612D01*
X26521Y91565D01*
X26598Y91516D01*
X26673Y91463D01*
X26745Y91407D01*
X26815Y91348D01*
X26882Y91287D01*
X26947Y91222D01*
X27008Y91155D01*
X27067Y91085D01*
X27123Y91013D01*
X27176Y90938D01*
X27225Y90861D01*
X27272Y90783D01*
X27315Y90702D01*
X27354Y90619D01*
X27390Y90535D01*
X27422Y90450D01*
X27451Y90363D01*
X27476Y90275D01*
X27497Y90186D01*
X27514Y90097D01*
X27528Y90006D01*
X27537Y89916D01*
X27543Y89824D01*
X27545Y89733D01*
X27545Y86289D01*
X27543Y86198D01*
X27537Y86106D01*
X27528Y86016D01*
X27514Y85925D01*
X27497Y85836D01*
X27476Y85747D01*
X27451Y85659D01*
X27422Y85572D01*
X27390Y85487D01*
X27354Y85403D01*
X27315Y85320D01*
X27272Y85239D01*
X27225Y85161D01*
X27176Y85084D01*
X27123Y85009D01*
X27067Y84937D01*
X27008Y84867D01*
X26947Y84800D01*
X26882Y84735D01*
X26815Y84674D01*
X26745Y84615D01*
X26673Y84559D01*
X26598Y84506D01*
X26521Y84457D01*
X26443Y84410D01*
X26362Y84367D01*
X26279Y84328D01*
X26195Y84292D01*
X26110Y84260D01*
X26023Y84231D01*
X25935Y84206D01*
X25846Y84185D01*
X25757Y84168D01*
X25666Y84154D01*
X25576Y84145D01*
X25484Y84139D01*
X25393Y84137D01*
X25393Y84138D02*
X23241Y84138D01*
X31154Y90163D02*
X33306Y91885D01*
X33306Y84138D01*
X31154Y84138D02*
X35458Y84138D01*
X43117Y89948D02*
X43115Y90035D01*
X43109Y90122D01*
X43099Y90208D01*
X43086Y90294D01*
X43068Y90379D01*
X43047Y90463D01*
X43022Y90547D01*
X42993Y90629D01*
X42961Y90709D01*
X42925Y90788D01*
X42886Y90866D01*
X42843Y90941D01*
X42797Y91015D01*
X42747Y91087D01*
X42694Y91156D01*
X42639Y91222D01*
X42580Y91287D01*
X42519Y91348D01*
X42454Y91407D01*
X42388Y91462D01*
X42319Y91515D01*
X42247Y91565D01*
X42173Y91611D01*
X42098Y91654D01*
X42020Y91693D01*
X41941Y91729D01*
X41861Y91761D01*
X41779Y91790D01*
X41695Y91815D01*
X41611Y91836D01*
X41526Y91854D01*
X41440Y91867D01*
X41354Y91877D01*
X41267Y91883D01*
X41180Y91885D01*
X41180Y91884D02*
X41082Y91882D01*
X40985Y91876D01*
X40887Y91867D01*
X40790Y91853D01*
X40694Y91836D01*
X40599Y91815D01*
X40504Y91790D01*
X40411Y91762D01*
X40318Y91730D01*
X40227Y91694D01*
X40138Y91655D01*
X40050Y91612D01*
X39963Y91566D01*
X39879Y91517D01*
X39797Y91464D01*
X39717Y91408D01*
X39639Y91349D01*
X39563Y91287D01*
X39490Y91222D01*
X39420Y91154D01*
X39352Y91084D01*
X39287Y91011D01*
X39225Y90935D01*
X39166Y90857D01*
X39110Y90777D01*
X39058Y90694D01*
X39008Y90610D01*
X38962Y90524D01*
X38920Y90436D01*
X38881Y90346D01*
X38845Y90255D01*
X38813Y90163D01*
X42470Y88442D02*
X42533Y88504D01*
X42594Y88569D01*
X42651Y88637D01*
X42705Y88707D01*
X42757Y88779D01*
X42805Y88854D01*
X42850Y88930D01*
X42892Y89008D01*
X42930Y89088D01*
X42965Y89170D01*
X42996Y89252D01*
X43024Y89337D01*
X43048Y89422D01*
X43069Y89508D01*
X43086Y89595D01*
X43099Y89683D01*
X43108Y89771D01*
X43114Y89859D01*
X43116Y89948D01*
X42471Y88441D02*
X38812Y84138D01*
X43116Y84138D01*
X165299Y441516D02*
X162717Y449263D01*
X167881Y449263D02*
X165299Y441516D01*
X171425Y441516D02*
X171425Y449263D01*
X170565Y441516D02*
X172286Y441516D01*
X172286Y449263D02*
X170565Y449263D01*
X175655Y449263D02*
X175655Y441516D01*
X179959Y441516D02*
X175655Y449263D01*
X179959Y449263D02*
X179959Y441516D01*
X163622Y420292D02*
X162331Y420292D01*
X163622Y420292D02*
X163622Y415989D01*
X161039Y415989D01*
X161039Y415988D02*
X160957Y415990D01*
X160875Y415996D01*
X160794Y416006D01*
X160713Y416019D01*
X160633Y416037D01*
X160554Y416058D01*
X160476Y416083D01*
X160399Y416111D01*
X160324Y416144D01*
X160250Y416179D01*
X160178Y416219D01*
X160108Y416261D01*
X160040Y416307D01*
X159975Y416356D01*
X159911Y416409D01*
X159851Y416464D01*
X159793Y416522D01*
X159738Y416582D01*
X159685Y416646D01*
X159636Y416711D01*
X159590Y416779D01*
X159548Y416849D01*
X159508Y416921D01*
X159473Y416995D01*
X159440Y417070D01*
X159412Y417147D01*
X159387Y417225D01*
X159366Y417304D01*
X159348Y417384D01*
X159335Y417465D01*
X159325Y417546D01*
X159319Y417628D01*
X159317Y417710D01*
X159318Y417710D02*
X159318Y422014D01*
X159317Y422014D02*
X159319Y422096D01*
X159325Y422178D01*
X159335Y422259D01*
X159348Y422340D01*
X159366Y422420D01*
X159387Y422499D01*
X159412Y422577D01*
X159440Y422654D01*
X159473Y422729D01*
X159508Y422803D01*
X159548Y422875D01*
X159590Y422945D01*
X159636Y423013D01*
X159685Y423078D01*
X159738Y423142D01*
X159793Y423202D01*
X159851Y423260D01*
X159911Y423315D01*
X159975Y423368D01*
X160040Y423417D01*
X160108Y423463D01*
X160178Y423505D01*
X160250Y423545D01*
X160324Y423580D01*
X160399Y423613D01*
X160476Y423641D01*
X160554Y423666D01*
X160633Y423687D01*
X160713Y423705D01*
X160794Y423718D01*
X160875Y423728D01*
X160957Y423734D01*
X161039Y423736D01*
X163622Y423736D01*
X167487Y423736D02*
X167487Y415989D01*
X171790Y415989D02*
X167487Y423736D01*
X171790Y423736D02*
X171790Y415989D01*
X175655Y415989D02*
X175655Y423736D01*
X177807Y423736D01*
X177898Y423734D01*
X177990Y423728D01*
X178080Y423719D01*
X178171Y423705D01*
X178260Y423688D01*
X178349Y423667D01*
X178437Y423642D01*
X178524Y423613D01*
X178609Y423581D01*
X178693Y423545D01*
X178776Y423506D01*
X178857Y423463D01*
X178935Y423416D01*
X179012Y423367D01*
X179087Y423314D01*
X179159Y423258D01*
X179229Y423199D01*
X179296Y423138D01*
X179361Y423073D01*
X179422Y423006D01*
X179481Y422936D01*
X179537Y422864D01*
X179590Y422789D01*
X179639Y422712D01*
X179686Y422634D01*
X179729Y422553D01*
X179768Y422470D01*
X179804Y422386D01*
X179836Y422301D01*
X179865Y422214D01*
X179890Y422126D01*
X179911Y422037D01*
X179928Y421948D01*
X179942Y421857D01*
X179951Y421767D01*
X179957Y421675D01*
X179959Y421584D01*
X179959Y418140D01*
X179957Y418049D01*
X179951Y417957D01*
X179942Y417867D01*
X179928Y417776D01*
X179911Y417687D01*
X179890Y417598D01*
X179865Y417510D01*
X179836Y417423D01*
X179804Y417338D01*
X179768Y417254D01*
X179729Y417171D01*
X179686Y417090D01*
X179639Y417012D01*
X179590Y416935D01*
X179537Y416860D01*
X179481Y416788D01*
X179422Y416718D01*
X179361Y416651D01*
X179296Y416586D01*
X179229Y416525D01*
X179159Y416466D01*
X179087Y416410D01*
X179012Y416357D01*
X178935Y416308D01*
X178857Y416261D01*
X178776Y416218D01*
X178693Y416179D01*
X178609Y416143D01*
X178524Y416111D01*
X178437Y416082D01*
X178349Y416057D01*
X178260Y416036D01*
X178171Y416019D01*
X178080Y416005D01*
X177990Y415996D01*
X177898Y415990D01*
X177807Y415988D01*
X177807Y415989D02*
X175655Y415989D01*
X161412Y398209D02*
X161412Y390462D01*
X161412Y398209D02*
X163564Y398209D01*
X163655Y398207D01*
X163747Y398201D01*
X163837Y398192D01*
X163928Y398178D01*
X164017Y398161D01*
X164106Y398140D01*
X164194Y398115D01*
X164281Y398086D01*
X164366Y398054D01*
X164450Y398018D01*
X164533Y397979D01*
X164614Y397936D01*
X164692Y397889D01*
X164769Y397840D01*
X164844Y397787D01*
X164916Y397731D01*
X164986Y397672D01*
X165053Y397611D01*
X165118Y397546D01*
X165179Y397479D01*
X165238Y397409D01*
X165294Y397337D01*
X165347Y397262D01*
X165396Y397185D01*
X165443Y397107D01*
X165486Y397026D01*
X165525Y396943D01*
X165561Y396859D01*
X165593Y396774D01*
X165622Y396687D01*
X165647Y396599D01*
X165668Y396510D01*
X165685Y396421D01*
X165699Y396330D01*
X165708Y396240D01*
X165714Y396148D01*
X165716Y396057D01*
X165714Y395966D01*
X165708Y395874D01*
X165699Y395784D01*
X165685Y395693D01*
X165668Y395604D01*
X165647Y395515D01*
X165622Y395427D01*
X165593Y395340D01*
X165561Y395255D01*
X165525Y395171D01*
X165486Y395088D01*
X165443Y395007D01*
X165396Y394929D01*
X165347Y394852D01*
X165294Y394777D01*
X165238Y394705D01*
X165179Y394635D01*
X165118Y394568D01*
X165053Y394503D01*
X164986Y394442D01*
X164916Y394383D01*
X164844Y394327D01*
X164769Y394274D01*
X164692Y394225D01*
X164614Y394178D01*
X164533Y394135D01*
X164450Y394096D01*
X164366Y394060D01*
X164281Y394028D01*
X164194Y393999D01*
X164106Y393974D01*
X164017Y393953D01*
X163928Y393936D01*
X163837Y393922D01*
X163747Y393913D01*
X163655Y393907D01*
X163564Y393905D01*
X161412Y393905D01*
X163995Y393905D02*
X165716Y390462D01*
X171345Y390461D02*
X171427Y390463D01*
X171509Y390469D01*
X171590Y390479D01*
X171671Y390492D01*
X171751Y390510D01*
X171830Y390531D01*
X171908Y390556D01*
X171985Y390584D01*
X172060Y390617D01*
X172134Y390652D01*
X172206Y390692D01*
X172276Y390734D01*
X172344Y390780D01*
X172409Y390829D01*
X172473Y390882D01*
X172533Y390937D01*
X172591Y390995D01*
X172646Y391055D01*
X172699Y391119D01*
X172748Y391184D01*
X172794Y391252D01*
X172836Y391322D01*
X172876Y391394D01*
X172911Y391468D01*
X172944Y391543D01*
X172972Y391620D01*
X172997Y391698D01*
X173018Y391777D01*
X173036Y391857D01*
X173049Y391938D01*
X173059Y392019D01*
X173065Y392101D01*
X173067Y392183D01*
X171345Y390461D02*
X171225Y390463D01*
X171106Y390469D01*
X170987Y390479D01*
X170868Y390492D01*
X170749Y390510D01*
X170632Y390532D01*
X170515Y390557D01*
X170399Y390586D01*
X170284Y390619D01*
X170170Y390656D01*
X170057Y390697D01*
X169946Y390741D01*
X169836Y390789D01*
X169728Y390840D01*
X169622Y390895D01*
X169518Y390953D01*
X169415Y391015D01*
X169315Y391080D01*
X169217Y391149D01*
X169121Y391220D01*
X169027Y391295D01*
X168937Y391373D01*
X168848Y391453D01*
X168763Y391537D01*
X168978Y396487D02*
X168980Y396569D01*
X168986Y396651D01*
X168996Y396732D01*
X169009Y396813D01*
X169027Y396893D01*
X169048Y396972D01*
X169073Y397050D01*
X169101Y397127D01*
X169134Y397202D01*
X169169Y397276D01*
X169209Y397348D01*
X169251Y397418D01*
X169297Y397486D01*
X169346Y397551D01*
X169399Y397615D01*
X169454Y397675D01*
X169512Y397733D01*
X169572Y397788D01*
X169636Y397841D01*
X169701Y397890D01*
X169769Y397936D01*
X169839Y397978D01*
X169911Y398018D01*
X169985Y398053D01*
X170060Y398086D01*
X170137Y398114D01*
X170215Y398139D01*
X170294Y398160D01*
X170374Y398178D01*
X170455Y398191D01*
X170536Y398201D01*
X170618Y398207D01*
X170700Y398209D01*
X170809Y398207D01*
X170918Y398202D01*
X171027Y398192D01*
X171136Y398179D01*
X171244Y398163D01*
X171351Y398143D01*
X171458Y398119D01*
X171564Y398091D01*
X171669Y398060D01*
X171772Y398026D01*
X171875Y397988D01*
X171976Y397946D01*
X172076Y397901D01*
X172174Y397853D01*
X172270Y397801D01*
X172365Y397747D01*
X172458Y397689D01*
X172548Y397627D01*
X172637Y397563D01*
X169840Y394981D02*
X169769Y395025D01*
X169702Y395071D01*
X169636Y395121D01*
X169573Y395174D01*
X169512Y395230D01*
X169454Y395289D01*
X169399Y395350D01*
X169347Y395414D01*
X169298Y395481D01*
X169252Y395549D01*
X169209Y395620D01*
X169170Y395692D01*
X169134Y395767D01*
X169102Y395843D01*
X169074Y395920D01*
X169049Y395999D01*
X169027Y396078D01*
X169010Y396159D01*
X168996Y396240D01*
X168987Y396322D01*
X168981Y396405D01*
X168979Y396487D01*
X172206Y393690D02*
X172276Y393646D01*
X172344Y393599D01*
X172410Y393549D01*
X172473Y393496D01*
X172534Y393440D01*
X172592Y393382D01*
X172647Y393320D01*
X172699Y393256D01*
X172748Y393190D01*
X172794Y393121D01*
X172837Y393051D01*
X172876Y392978D01*
X172912Y392904D01*
X172944Y392828D01*
X172972Y392750D01*
X172997Y392672D01*
X173019Y392592D01*
X173036Y392511D01*
X173049Y392430D01*
X173059Y392348D01*
X173065Y392266D01*
X173067Y392183D01*
X172206Y393689D02*
X169839Y394981D01*
X177807Y398209D02*
X177807Y390462D01*
X175655Y398209D02*
X179959Y398209D01*
X164132Y367947D02*
X158968Y367947D01*
X161550Y365365D02*
X161550Y370530D01*
X167567Y364935D02*
X170149Y364935D01*
X170149Y364934D02*
X170231Y364936D01*
X170313Y364942D01*
X170394Y364952D01*
X170475Y364965D01*
X170555Y364983D01*
X170634Y365004D01*
X170712Y365029D01*
X170789Y365057D01*
X170864Y365090D01*
X170938Y365125D01*
X171010Y365165D01*
X171080Y365207D01*
X171148Y365253D01*
X171213Y365302D01*
X171277Y365355D01*
X171337Y365410D01*
X171395Y365468D01*
X171450Y365528D01*
X171503Y365592D01*
X171552Y365657D01*
X171598Y365725D01*
X171640Y365795D01*
X171680Y365867D01*
X171715Y365941D01*
X171748Y366016D01*
X171776Y366093D01*
X171801Y366171D01*
X171822Y366250D01*
X171840Y366330D01*
X171853Y366411D01*
X171863Y366492D01*
X171869Y366574D01*
X171871Y366656D01*
X171871Y367517D01*
X171869Y367599D01*
X171863Y367681D01*
X171853Y367762D01*
X171840Y367843D01*
X171822Y367923D01*
X171801Y368002D01*
X171776Y368080D01*
X171748Y368157D01*
X171715Y368232D01*
X171680Y368306D01*
X171640Y368378D01*
X171598Y368448D01*
X171552Y368516D01*
X171503Y368581D01*
X171450Y368645D01*
X171395Y368705D01*
X171337Y368763D01*
X171277Y368818D01*
X171213Y368871D01*
X171148Y368920D01*
X171080Y368966D01*
X171010Y369008D01*
X170938Y369048D01*
X170864Y369083D01*
X170789Y369116D01*
X170712Y369144D01*
X170634Y369169D01*
X170555Y369190D01*
X170475Y369208D01*
X170394Y369221D01*
X170313Y369231D01*
X170231Y369237D01*
X170149Y369239D01*
X170149Y369238D02*
X167567Y369238D01*
X167567Y372682D01*
X171871Y372682D01*
X174794Y372682D02*
X177377Y364935D01*
X179959Y372682D01*
X170149Y347155D02*
X167567Y339408D01*
X172731Y339408D02*
X170149Y347155D01*
X172086Y341344D02*
X168212Y341344D01*
X175655Y346294D02*
X175655Y347155D01*
X179959Y347155D01*
X177807Y339408D01*
X170149Y321628D02*
X167567Y313881D01*
X172731Y313881D02*
X170149Y321628D01*
X172086Y315817D02*
X168212Y315817D01*
X175655Y318184D02*
X178237Y318184D01*
X178237Y318185D02*
X178319Y318183D01*
X178401Y318177D01*
X178482Y318167D01*
X178563Y318154D01*
X178643Y318136D01*
X178722Y318115D01*
X178800Y318090D01*
X178877Y318062D01*
X178952Y318029D01*
X179026Y317994D01*
X179098Y317954D01*
X179168Y317912D01*
X179236Y317866D01*
X179301Y317817D01*
X179365Y317764D01*
X179425Y317709D01*
X179483Y317651D01*
X179538Y317591D01*
X179591Y317527D01*
X179640Y317462D01*
X179686Y317394D01*
X179728Y317324D01*
X179768Y317252D01*
X179803Y317178D01*
X179836Y317103D01*
X179864Y317026D01*
X179889Y316948D01*
X179910Y316869D01*
X179928Y316789D01*
X179941Y316708D01*
X179951Y316627D01*
X179957Y316545D01*
X179959Y316463D01*
X179959Y316032D01*
X179957Y315941D01*
X179951Y315849D01*
X179942Y315759D01*
X179928Y315668D01*
X179911Y315579D01*
X179890Y315490D01*
X179865Y315402D01*
X179836Y315315D01*
X179804Y315230D01*
X179768Y315146D01*
X179729Y315063D01*
X179686Y314982D01*
X179639Y314904D01*
X179590Y314827D01*
X179537Y314752D01*
X179481Y314680D01*
X179422Y314610D01*
X179361Y314543D01*
X179296Y314478D01*
X179229Y314417D01*
X179159Y314358D01*
X179087Y314302D01*
X179012Y314249D01*
X178935Y314200D01*
X178857Y314153D01*
X178776Y314110D01*
X178693Y314071D01*
X178609Y314035D01*
X178524Y314003D01*
X178437Y313974D01*
X178349Y313949D01*
X178260Y313928D01*
X178171Y313911D01*
X178080Y313897D01*
X177990Y313888D01*
X177898Y313882D01*
X177807Y313880D01*
X177716Y313882D01*
X177624Y313888D01*
X177534Y313897D01*
X177443Y313911D01*
X177354Y313928D01*
X177265Y313949D01*
X177177Y313974D01*
X177090Y314003D01*
X177005Y314035D01*
X176921Y314071D01*
X176838Y314110D01*
X176757Y314153D01*
X176679Y314200D01*
X176602Y314249D01*
X176527Y314302D01*
X176455Y314358D01*
X176385Y314417D01*
X176318Y314478D01*
X176253Y314543D01*
X176192Y314610D01*
X176133Y314680D01*
X176077Y314752D01*
X176024Y314827D01*
X175975Y314904D01*
X175928Y314982D01*
X175885Y315063D01*
X175846Y315146D01*
X175810Y315230D01*
X175778Y315315D01*
X175749Y315402D01*
X175724Y315490D01*
X175703Y315579D01*
X175686Y315668D01*
X175672Y315759D01*
X175663Y315849D01*
X175657Y315941D01*
X175655Y316032D01*
X175655Y318184D01*
X175657Y318299D01*
X175663Y318414D01*
X175672Y318529D01*
X175686Y318643D01*
X175703Y318757D01*
X175724Y318870D01*
X175749Y318982D01*
X175777Y319094D01*
X175810Y319204D01*
X175846Y319313D01*
X175885Y319421D01*
X175928Y319528D01*
X175975Y319633D01*
X176025Y319737D01*
X176079Y319839D01*
X176136Y319939D01*
X176196Y320037D01*
X176259Y320133D01*
X176326Y320226D01*
X176396Y320318D01*
X176469Y320407D01*
X176544Y320494D01*
X176623Y320578D01*
X176704Y320659D01*
X176788Y320737D01*
X176875Y320813D01*
X176964Y320886D01*
X177056Y320956D01*
X177149Y321023D01*
X177245Y321086D01*
X177343Y321146D01*
X177443Y321203D01*
X177545Y321257D01*
X177649Y321307D01*
X177754Y321354D01*
X177861Y321397D01*
X177969Y321436D01*
X178078Y321472D01*
X178188Y321505D01*
X178300Y321533D01*
X178412Y321558D01*
X178525Y321579D01*
X178639Y321596D01*
X178753Y321610D01*
X178868Y321619D01*
X178983Y321625D01*
X179098Y321627D01*
X170149Y296101D02*
X167567Y288354D01*
X172731Y288354D02*
X170149Y296101D01*
X172086Y290290D02*
X168212Y290290D01*
X175655Y288354D02*
X178237Y288354D01*
X178237Y288353D02*
X178319Y288355D01*
X178401Y288361D01*
X178482Y288371D01*
X178563Y288384D01*
X178643Y288402D01*
X178722Y288423D01*
X178800Y288448D01*
X178877Y288476D01*
X178952Y288509D01*
X179026Y288544D01*
X179098Y288584D01*
X179168Y288626D01*
X179236Y288672D01*
X179301Y288721D01*
X179365Y288774D01*
X179425Y288829D01*
X179483Y288887D01*
X179538Y288947D01*
X179591Y289011D01*
X179640Y289076D01*
X179686Y289144D01*
X179728Y289214D01*
X179768Y289286D01*
X179803Y289360D01*
X179836Y289435D01*
X179864Y289512D01*
X179889Y289590D01*
X179910Y289669D01*
X179928Y289749D01*
X179941Y289830D01*
X179951Y289911D01*
X179957Y289993D01*
X179959Y290075D01*
X179959Y290936D01*
X179957Y291018D01*
X179951Y291100D01*
X179941Y291181D01*
X179928Y291262D01*
X179910Y291342D01*
X179889Y291421D01*
X179864Y291499D01*
X179836Y291576D01*
X179803Y291651D01*
X179768Y291725D01*
X179728Y291797D01*
X179686Y291867D01*
X179640Y291935D01*
X179591Y292000D01*
X179538Y292064D01*
X179483Y292124D01*
X179425Y292182D01*
X179365Y292237D01*
X179301Y292290D01*
X179236Y292339D01*
X179168Y292385D01*
X179098Y292427D01*
X179026Y292467D01*
X178952Y292502D01*
X178877Y292535D01*
X178800Y292563D01*
X178722Y292588D01*
X178643Y292609D01*
X178563Y292627D01*
X178482Y292640D01*
X178401Y292650D01*
X178319Y292656D01*
X178237Y292658D01*
X178237Y292657D02*
X175655Y292657D01*
X175655Y296101D01*
X179959Y296101D01*
X170149Y270574D02*
X167567Y262827D01*
X172731Y262827D02*
X170149Y270574D01*
X172086Y264763D02*
X168212Y264763D01*
X175655Y264548D02*
X177377Y270574D01*
X175655Y264548D02*
X179959Y264548D01*
X178668Y262827D02*
X178668Y266270D01*
X170149Y245047D02*
X167567Y237300D01*
X172731Y237300D02*
X170149Y245047D01*
X172086Y239236D02*
X168212Y239236D01*
X175655Y237300D02*
X177807Y237300D01*
X177807Y237299D02*
X177898Y237301D01*
X177990Y237307D01*
X178080Y237316D01*
X178171Y237330D01*
X178260Y237347D01*
X178349Y237368D01*
X178437Y237393D01*
X178524Y237422D01*
X178609Y237454D01*
X178693Y237490D01*
X178776Y237529D01*
X178857Y237572D01*
X178935Y237619D01*
X179012Y237668D01*
X179087Y237721D01*
X179159Y237777D01*
X179229Y237836D01*
X179296Y237897D01*
X179361Y237962D01*
X179422Y238029D01*
X179481Y238099D01*
X179537Y238171D01*
X179590Y238246D01*
X179639Y238323D01*
X179686Y238401D01*
X179729Y238482D01*
X179768Y238565D01*
X179804Y238649D01*
X179836Y238734D01*
X179865Y238821D01*
X179890Y238909D01*
X179911Y238998D01*
X179928Y239087D01*
X179942Y239178D01*
X179951Y239268D01*
X179957Y239360D01*
X179959Y239451D01*
X179957Y239542D01*
X179951Y239634D01*
X179942Y239724D01*
X179928Y239815D01*
X179911Y239904D01*
X179890Y239993D01*
X179865Y240081D01*
X179836Y240168D01*
X179804Y240253D01*
X179768Y240337D01*
X179729Y240420D01*
X179686Y240501D01*
X179639Y240579D01*
X179590Y240656D01*
X179537Y240731D01*
X179481Y240803D01*
X179422Y240873D01*
X179361Y240940D01*
X179296Y241005D01*
X179229Y241066D01*
X179159Y241125D01*
X179087Y241181D01*
X179012Y241234D01*
X178935Y241283D01*
X178857Y241330D01*
X178776Y241373D01*
X178693Y241412D01*
X178609Y241448D01*
X178524Y241480D01*
X178437Y241509D01*
X178349Y241534D01*
X178260Y241555D01*
X178171Y241572D01*
X178080Y241586D01*
X177990Y241595D01*
X177898Y241601D01*
X177807Y241603D01*
X178237Y245047D02*
X175655Y245047D01*
X178237Y245047D02*
X178319Y245045D01*
X178401Y245039D01*
X178482Y245029D01*
X178563Y245016D01*
X178643Y244998D01*
X178722Y244977D01*
X178800Y244952D01*
X178877Y244924D01*
X178952Y244891D01*
X179026Y244856D01*
X179098Y244816D01*
X179168Y244774D01*
X179236Y244728D01*
X179301Y244679D01*
X179365Y244626D01*
X179425Y244571D01*
X179483Y244513D01*
X179538Y244453D01*
X179591Y244389D01*
X179640Y244324D01*
X179686Y244256D01*
X179728Y244186D01*
X179768Y244114D01*
X179803Y244040D01*
X179836Y243965D01*
X179864Y243888D01*
X179889Y243810D01*
X179910Y243731D01*
X179928Y243651D01*
X179941Y243570D01*
X179951Y243489D01*
X179957Y243407D01*
X179959Y243325D01*
X179957Y243243D01*
X179951Y243161D01*
X179941Y243080D01*
X179928Y242999D01*
X179910Y242919D01*
X179889Y242840D01*
X179864Y242762D01*
X179836Y242685D01*
X179803Y242610D01*
X179768Y242536D01*
X179728Y242464D01*
X179686Y242394D01*
X179640Y242326D01*
X179591Y242261D01*
X179538Y242197D01*
X179483Y242137D01*
X179425Y242079D01*
X179365Y242024D01*
X179301Y241971D01*
X179236Y241922D01*
X179168Y241876D01*
X179098Y241834D01*
X179026Y241794D01*
X178952Y241759D01*
X178877Y241726D01*
X178800Y241698D01*
X178722Y241673D01*
X178643Y241652D01*
X178563Y241634D01*
X178482Y241621D01*
X178401Y241611D01*
X178319Y241605D01*
X178237Y241603D01*
X176516Y241603D01*
X170149Y219520D02*
X167567Y211773D01*
X172731Y211773D02*
X170149Y219520D01*
X172086Y213709D02*
X168212Y213709D01*
X178022Y219520D02*
X178109Y219518D01*
X178196Y219512D01*
X178282Y219502D01*
X178368Y219489D01*
X178453Y219471D01*
X178537Y219450D01*
X178621Y219425D01*
X178703Y219396D01*
X178783Y219364D01*
X178862Y219328D01*
X178940Y219289D01*
X179015Y219246D01*
X179089Y219200D01*
X179161Y219150D01*
X179230Y219097D01*
X179296Y219042D01*
X179361Y218983D01*
X179422Y218922D01*
X179481Y218857D01*
X179536Y218791D01*
X179589Y218722D01*
X179639Y218650D01*
X179685Y218576D01*
X179728Y218501D01*
X179767Y218423D01*
X179803Y218344D01*
X179835Y218264D01*
X179864Y218182D01*
X179889Y218098D01*
X179910Y218014D01*
X179928Y217929D01*
X179941Y217843D01*
X179951Y217757D01*
X179957Y217670D01*
X179959Y217583D01*
X178022Y219519D02*
X177924Y219517D01*
X177827Y219511D01*
X177729Y219502D01*
X177632Y219488D01*
X177536Y219471D01*
X177441Y219450D01*
X177346Y219425D01*
X177253Y219397D01*
X177160Y219365D01*
X177069Y219329D01*
X176980Y219290D01*
X176892Y219247D01*
X176805Y219201D01*
X176721Y219152D01*
X176639Y219099D01*
X176559Y219043D01*
X176481Y218984D01*
X176405Y218922D01*
X176332Y218857D01*
X176262Y218789D01*
X176194Y218719D01*
X176129Y218646D01*
X176067Y218570D01*
X176008Y218492D01*
X175952Y218412D01*
X175900Y218329D01*
X175850Y218245D01*
X175804Y218159D01*
X175762Y218071D01*
X175723Y217981D01*
X175687Y217890D01*
X175655Y217798D01*
X179313Y216077D02*
X179376Y216139D01*
X179437Y216204D01*
X179494Y216272D01*
X179548Y216342D01*
X179600Y216414D01*
X179648Y216489D01*
X179693Y216565D01*
X179735Y216643D01*
X179773Y216723D01*
X179808Y216805D01*
X179839Y216887D01*
X179867Y216972D01*
X179891Y217057D01*
X179912Y217143D01*
X179929Y217230D01*
X179942Y217318D01*
X179951Y217406D01*
X179957Y217494D01*
X179959Y217583D01*
X179313Y216076D02*
X175655Y211773D01*
X179959Y211773D01*
X170149Y193993D02*
X167567Y186246D01*
X172731Y186246D02*
X170149Y193993D01*
X172086Y188182D02*
X168212Y188182D01*
X175655Y192271D02*
X177807Y193993D01*
X177807Y186246D01*
X175655Y186246D02*
X179959Y186246D01*
X170149Y168466D02*
X167567Y160719D01*
X172731Y160719D02*
X170149Y168466D01*
X172086Y162655D02*
X168212Y162655D01*
X175655Y164592D02*
X175657Y164744D01*
X175662Y164897D01*
X175671Y165049D01*
X175684Y165201D01*
X175700Y165352D01*
X175720Y165503D01*
X175744Y165654D01*
X175771Y165804D01*
X175802Y165953D01*
X175836Y166102D01*
X175874Y166249D01*
X175915Y166396D01*
X175960Y166542D01*
X176008Y166686D01*
X176060Y166830D01*
X176115Y166972D01*
X176174Y167112D01*
X176235Y167252D01*
X176301Y167389D01*
X176329Y167463D01*
X176360Y167536D01*
X176394Y167607D01*
X176432Y167676D01*
X176474Y167743D01*
X176519Y167808D01*
X176567Y167871D01*
X176618Y167931D01*
X176672Y167989D01*
X176728Y168044D01*
X176788Y168096D01*
X176850Y168145D01*
X176914Y168191D01*
X176981Y168234D01*
X177049Y168273D01*
X177119Y168309D01*
X177191Y168341D01*
X177265Y168370D01*
X177340Y168395D01*
X177416Y168416D01*
X177493Y168434D01*
X177571Y168447D01*
X177649Y168457D01*
X177728Y168463D01*
X177807Y168465D01*
X177886Y168463D01*
X177965Y168457D01*
X178043Y168447D01*
X178121Y168434D01*
X178198Y168416D01*
X178274Y168395D01*
X178349Y168370D01*
X178423Y168341D01*
X178495Y168309D01*
X178565Y168273D01*
X178633Y168234D01*
X178700Y168191D01*
X178764Y168145D01*
X178826Y168096D01*
X178886Y168044D01*
X178942Y167989D01*
X178996Y167931D01*
X179047Y167871D01*
X179095Y167808D01*
X179140Y167743D01*
X179182Y167676D01*
X179220Y167607D01*
X179254Y167536D01*
X179286Y167463D01*
X179313Y167389D01*
X179313Y167390D02*
X179379Y167252D01*
X179440Y167112D01*
X179499Y166972D01*
X179554Y166830D01*
X179606Y166686D01*
X179654Y166542D01*
X179699Y166396D01*
X179740Y166249D01*
X179778Y166102D01*
X179812Y165953D01*
X179843Y165804D01*
X179870Y165654D01*
X179894Y165503D01*
X179914Y165352D01*
X179930Y165201D01*
X179943Y165049D01*
X179952Y164897D01*
X179957Y164744D01*
X179959Y164592D01*
X175656Y164592D02*
X175658Y164440D01*
X175663Y164287D01*
X175672Y164135D01*
X175685Y163983D01*
X175701Y163832D01*
X175721Y163681D01*
X175745Y163530D01*
X175772Y163380D01*
X175803Y163231D01*
X175837Y163082D01*
X175875Y162935D01*
X175916Y162788D01*
X175961Y162642D01*
X176009Y162498D01*
X176061Y162355D01*
X176116Y162212D01*
X176175Y162072D01*
X176236Y161932D01*
X176302Y161795D01*
X176301Y161795D02*
X176329Y161721D01*
X176360Y161648D01*
X176394Y161577D01*
X176432Y161508D01*
X176474Y161441D01*
X176519Y161376D01*
X176567Y161313D01*
X176618Y161253D01*
X176672Y161195D01*
X176728Y161140D01*
X176788Y161088D01*
X176850Y161039D01*
X176914Y160993D01*
X176981Y160950D01*
X177049Y160911D01*
X177119Y160875D01*
X177192Y160843D01*
X177265Y160814D01*
X177340Y160789D01*
X177416Y160768D01*
X177493Y160750D01*
X177571Y160737D01*
X177649Y160727D01*
X177728Y160721D01*
X177807Y160719D01*
X179313Y161795D02*
X179379Y161932D01*
X179440Y162072D01*
X179499Y162212D01*
X179554Y162354D01*
X179606Y162498D01*
X179654Y162642D01*
X179699Y162788D01*
X179740Y162935D01*
X179778Y163082D01*
X179812Y163231D01*
X179843Y163380D01*
X179870Y163530D01*
X179894Y163681D01*
X179914Y163832D01*
X179930Y163983D01*
X179943Y164135D01*
X179952Y164287D01*
X179957Y164440D01*
X179959Y164592D01*
X179313Y161795D02*
X179286Y161721D01*
X179254Y161648D01*
X179220Y161577D01*
X179182Y161508D01*
X179140Y161441D01*
X179095Y161376D01*
X179047Y161313D01*
X178996Y161253D01*
X178942Y161195D01*
X178886Y161140D01*
X178826Y161088D01*
X178764Y161039D01*
X178700Y160993D01*
X178633Y160950D01*
X178565Y160911D01*
X178495Y160875D01*
X178423Y160843D01*
X178349Y160814D01*
X178274Y160789D01*
X178198Y160768D01*
X178121Y160750D01*
X178043Y160737D01*
X177965Y160727D01*
X177886Y160721D01*
X177807Y160719D01*
X176086Y162440D02*
X179529Y166744D01*
X156188Y142939D02*
X153606Y135192D01*
X158770Y135192D02*
X156188Y142939D01*
X158125Y137128D02*
X154251Y137128D01*
X162002Y135192D02*
X162002Y142939D01*
X164154Y142939D01*
X164245Y142937D01*
X164337Y142931D01*
X164427Y142922D01*
X164518Y142908D01*
X164607Y142891D01*
X164696Y142870D01*
X164784Y142845D01*
X164871Y142816D01*
X164956Y142784D01*
X165040Y142748D01*
X165123Y142709D01*
X165204Y142666D01*
X165282Y142619D01*
X165359Y142570D01*
X165434Y142517D01*
X165506Y142461D01*
X165576Y142402D01*
X165643Y142341D01*
X165708Y142276D01*
X165769Y142209D01*
X165828Y142139D01*
X165884Y142067D01*
X165937Y141992D01*
X165986Y141915D01*
X166033Y141837D01*
X166076Y141756D01*
X166115Y141673D01*
X166151Y141589D01*
X166183Y141504D01*
X166212Y141417D01*
X166237Y141329D01*
X166258Y141240D01*
X166275Y141151D01*
X166289Y141060D01*
X166298Y140970D01*
X166304Y140878D01*
X166306Y140787D01*
X166304Y140696D01*
X166298Y140604D01*
X166289Y140514D01*
X166275Y140423D01*
X166258Y140334D01*
X166237Y140245D01*
X166212Y140157D01*
X166183Y140070D01*
X166151Y139985D01*
X166115Y139901D01*
X166076Y139818D01*
X166033Y139737D01*
X165986Y139659D01*
X165937Y139582D01*
X165884Y139507D01*
X165828Y139435D01*
X165769Y139365D01*
X165708Y139298D01*
X165643Y139233D01*
X165576Y139172D01*
X165506Y139113D01*
X165434Y139057D01*
X165359Y139004D01*
X165282Y138955D01*
X165204Y138908D01*
X165123Y138865D01*
X165040Y138826D01*
X164956Y138790D01*
X164871Y138758D01*
X164784Y138729D01*
X164696Y138704D01*
X164607Y138683D01*
X164518Y138666D01*
X164427Y138652D01*
X164337Y138643D01*
X164245Y138637D01*
X164154Y138635D01*
X162002Y138635D01*
X164584Y138635D02*
X166306Y135192D01*
X169879Y135192D02*
X173322Y135192D01*
X169879Y135192D02*
X169879Y142939D01*
X173322Y142939D01*
X172461Y139495D02*
X169879Y139495D01*
X176516Y142939D02*
X176516Y135192D01*
X176516Y142939D02*
X179959Y142939D01*
X179959Y139495D02*
X176516Y139495D01*
X162491Y109665D02*
X160339Y109665D01*
X162491Y109664D02*
X162582Y109666D01*
X162674Y109672D01*
X162764Y109681D01*
X162855Y109695D01*
X162944Y109712D01*
X163033Y109733D01*
X163121Y109758D01*
X163208Y109787D01*
X163293Y109819D01*
X163377Y109855D01*
X163460Y109894D01*
X163541Y109937D01*
X163619Y109984D01*
X163696Y110033D01*
X163771Y110086D01*
X163843Y110142D01*
X163913Y110201D01*
X163980Y110262D01*
X164045Y110327D01*
X164106Y110394D01*
X164165Y110464D01*
X164221Y110536D01*
X164274Y110611D01*
X164323Y110688D01*
X164370Y110766D01*
X164413Y110847D01*
X164452Y110930D01*
X164488Y111014D01*
X164520Y111099D01*
X164549Y111186D01*
X164574Y111274D01*
X164595Y111363D01*
X164612Y111452D01*
X164626Y111543D01*
X164635Y111633D01*
X164641Y111725D01*
X164643Y111816D01*
X164641Y111907D01*
X164635Y111999D01*
X164626Y112089D01*
X164612Y112180D01*
X164595Y112269D01*
X164574Y112358D01*
X164549Y112446D01*
X164520Y112533D01*
X164488Y112618D01*
X164452Y112702D01*
X164413Y112785D01*
X164370Y112866D01*
X164323Y112944D01*
X164274Y113021D01*
X164221Y113096D01*
X164165Y113168D01*
X164106Y113238D01*
X164045Y113305D01*
X163980Y113370D01*
X163913Y113431D01*
X163843Y113490D01*
X163771Y113546D01*
X163696Y113599D01*
X163619Y113648D01*
X163541Y113695D01*
X163460Y113738D01*
X163377Y113777D01*
X163293Y113813D01*
X163208Y113845D01*
X163121Y113874D01*
X163033Y113899D01*
X162944Y113920D01*
X162855Y113937D01*
X162764Y113951D01*
X162674Y113960D01*
X162582Y113966D01*
X162491Y113968D01*
X162921Y117412D02*
X160339Y117412D01*
X162921Y117412D02*
X163003Y117410D01*
X163085Y117404D01*
X163166Y117394D01*
X163247Y117381D01*
X163327Y117363D01*
X163406Y117342D01*
X163484Y117317D01*
X163561Y117289D01*
X163636Y117256D01*
X163710Y117221D01*
X163782Y117181D01*
X163852Y117139D01*
X163920Y117093D01*
X163985Y117044D01*
X164049Y116991D01*
X164109Y116936D01*
X164167Y116878D01*
X164222Y116818D01*
X164275Y116754D01*
X164324Y116689D01*
X164370Y116621D01*
X164412Y116551D01*
X164452Y116479D01*
X164487Y116405D01*
X164520Y116330D01*
X164548Y116253D01*
X164573Y116175D01*
X164594Y116096D01*
X164612Y116016D01*
X164625Y115935D01*
X164635Y115854D01*
X164641Y115772D01*
X164643Y115690D01*
X164641Y115608D01*
X164635Y115526D01*
X164625Y115445D01*
X164612Y115364D01*
X164594Y115284D01*
X164573Y115205D01*
X164548Y115127D01*
X164520Y115050D01*
X164487Y114975D01*
X164452Y114901D01*
X164412Y114829D01*
X164370Y114759D01*
X164324Y114691D01*
X164275Y114626D01*
X164222Y114562D01*
X164167Y114502D01*
X164109Y114444D01*
X164049Y114389D01*
X163985Y114336D01*
X163920Y114287D01*
X163852Y114241D01*
X163782Y114199D01*
X163710Y114159D01*
X163636Y114124D01*
X163561Y114091D01*
X163484Y114063D01*
X163406Y114038D01*
X163327Y114017D01*
X163247Y113999D01*
X163166Y113986D01*
X163085Y113976D01*
X163003Y113970D01*
X162921Y113968D01*
X161200Y113968D01*
X167567Y117412D02*
X170149Y109665D01*
X172731Y117412D01*
X175655Y109665D02*
X177807Y109665D01*
X177807Y109664D02*
X177898Y109666D01*
X177990Y109672D01*
X178080Y109681D01*
X178171Y109695D01*
X178260Y109712D01*
X178349Y109733D01*
X178437Y109758D01*
X178524Y109787D01*
X178609Y109819D01*
X178693Y109855D01*
X178776Y109894D01*
X178857Y109937D01*
X178935Y109984D01*
X179012Y110033D01*
X179087Y110086D01*
X179159Y110142D01*
X179229Y110201D01*
X179296Y110262D01*
X179361Y110327D01*
X179422Y110394D01*
X179481Y110464D01*
X179537Y110536D01*
X179590Y110611D01*
X179639Y110688D01*
X179686Y110766D01*
X179729Y110847D01*
X179768Y110930D01*
X179804Y111014D01*
X179836Y111099D01*
X179865Y111186D01*
X179890Y111274D01*
X179911Y111363D01*
X179928Y111452D01*
X179942Y111543D01*
X179951Y111633D01*
X179957Y111725D01*
X179959Y111816D01*
X179957Y111907D01*
X179951Y111999D01*
X179942Y112089D01*
X179928Y112180D01*
X179911Y112269D01*
X179890Y112358D01*
X179865Y112446D01*
X179836Y112533D01*
X179804Y112618D01*
X179768Y112702D01*
X179729Y112785D01*
X179686Y112866D01*
X179639Y112944D01*
X179590Y113021D01*
X179537Y113096D01*
X179481Y113168D01*
X179422Y113238D01*
X179361Y113305D01*
X179296Y113370D01*
X179229Y113431D01*
X179159Y113490D01*
X179087Y113546D01*
X179012Y113599D01*
X178935Y113648D01*
X178857Y113695D01*
X178776Y113738D01*
X178693Y113777D01*
X178609Y113813D01*
X178524Y113845D01*
X178437Y113874D01*
X178349Y113899D01*
X178260Y113920D01*
X178171Y113937D01*
X178080Y113951D01*
X177990Y113960D01*
X177898Y113966D01*
X177807Y113968D01*
X178237Y117412D02*
X175655Y117412D01*
X178237Y117412D02*
X178319Y117410D01*
X178401Y117404D01*
X178482Y117394D01*
X178563Y117381D01*
X178643Y117363D01*
X178722Y117342D01*
X178800Y117317D01*
X178877Y117289D01*
X178952Y117256D01*
X179026Y117221D01*
X179098Y117181D01*
X179168Y117139D01*
X179236Y117093D01*
X179301Y117044D01*
X179365Y116991D01*
X179425Y116936D01*
X179483Y116878D01*
X179538Y116818D01*
X179591Y116754D01*
X179640Y116689D01*
X179686Y116621D01*
X179728Y116551D01*
X179768Y116479D01*
X179803Y116405D01*
X179836Y116330D01*
X179864Y116253D01*
X179889Y116175D01*
X179910Y116096D01*
X179928Y116016D01*
X179941Y115935D01*
X179951Y115854D01*
X179957Y115772D01*
X179959Y115690D01*
X179957Y115608D01*
X179951Y115526D01*
X179941Y115445D01*
X179928Y115364D01*
X179910Y115284D01*
X179889Y115205D01*
X179864Y115127D01*
X179836Y115050D01*
X179803Y114975D01*
X179768Y114901D01*
X179728Y114829D01*
X179686Y114759D01*
X179640Y114691D01*
X179591Y114626D01*
X179538Y114562D01*
X179483Y114502D01*
X179425Y114444D01*
X179365Y114389D01*
X179301Y114336D01*
X179236Y114287D01*
X179168Y114241D01*
X179098Y114199D01*
X179026Y114159D01*
X178952Y114124D01*
X178877Y114091D01*
X178800Y114063D01*
X178722Y114038D01*
X178643Y114017D01*
X178563Y113999D01*
X178482Y113986D01*
X178401Y113976D01*
X178319Y113970D01*
X178237Y113968D01*
X176516Y113968D01*
X160084Y91885D02*
X160084Y84138D01*
X160084Y91885D02*
X162236Y91885D01*
X162327Y91883D01*
X162419Y91877D01*
X162509Y91868D01*
X162600Y91854D01*
X162689Y91837D01*
X162778Y91816D01*
X162866Y91791D01*
X162953Y91762D01*
X163038Y91730D01*
X163122Y91694D01*
X163205Y91655D01*
X163286Y91612D01*
X163364Y91565D01*
X163441Y91516D01*
X163516Y91463D01*
X163588Y91407D01*
X163658Y91348D01*
X163725Y91287D01*
X163790Y91222D01*
X163851Y91155D01*
X163910Y91085D01*
X163966Y91013D01*
X164019Y90938D01*
X164068Y90861D01*
X164115Y90783D01*
X164158Y90702D01*
X164197Y90619D01*
X164233Y90535D01*
X164265Y90450D01*
X164294Y90363D01*
X164319Y90275D01*
X164340Y90186D01*
X164357Y90097D01*
X164371Y90006D01*
X164380Y89916D01*
X164386Y89824D01*
X164388Y89733D01*
X164388Y86289D01*
X164386Y86198D01*
X164380Y86106D01*
X164371Y86016D01*
X164357Y85925D01*
X164340Y85836D01*
X164319Y85747D01*
X164294Y85659D01*
X164265Y85572D01*
X164233Y85487D01*
X164197Y85403D01*
X164158Y85320D01*
X164115Y85239D01*
X164068Y85161D01*
X164019Y85084D01*
X163966Y85009D01*
X163910Y84937D01*
X163851Y84867D01*
X163790Y84800D01*
X163725Y84735D01*
X163658Y84674D01*
X163588Y84615D01*
X163516Y84559D01*
X163441Y84506D01*
X163364Y84457D01*
X163286Y84410D01*
X163205Y84367D01*
X163122Y84328D01*
X163038Y84292D01*
X162953Y84260D01*
X162866Y84231D01*
X162778Y84206D01*
X162689Y84185D01*
X162600Y84168D01*
X162509Y84154D01*
X162419Y84145D01*
X162327Y84139D01*
X162236Y84137D01*
X162236Y84138D02*
X160084Y84138D01*
X167997Y90163D02*
X170149Y91885D01*
X170149Y84138D01*
X167997Y84138D02*
X172301Y84138D01*
X175655Y84138D02*
X177807Y84138D01*
X177807Y84137D02*
X177898Y84139D01*
X177990Y84145D01*
X178080Y84154D01*
X178171Y84168D01*
X178260Y84185D01*
X178349Y84206D01*
X178437Y84231D01*
X178524Y84260D01*
X178609Y84292D01*
X178693Y84328D01*
X178776Y84367D01*
X178857Y84410D01*
X178935Y84457D01*
X179012Y84506D01*
X179087Y84559D01*
X179159Y84615D01*
X179229Y84674D01*
X179296Y84735D01*
X179361Y84800D01*
X179422Y84867D01*
X179481Y84937D01*
X179537Y85009D01*
X179590Y85084D01*
X179639Y85161D01*
X179686Y85239D01*
X179729Y85320D01*
X179768Y85403D01*
X179804Y85487D01*
X179836Y85572D01*
X179865Y85659D01*
X179890Y85747D01*
X179911Y85836D01*
X179928Y85925D01*
X179942Y86016D01*
X179951Y86106D01*
X179957Y86198D01*
X179959Y86289D01*
X179957Y86380D01*
X179951Y86472D01*
X179942Y86562D01*
X179928Y86653D01*
X179911Y86742D01*
X179890Y86831D01*
X179865Y86919D01*
X179836Y87006D01*
X179804Y87091D01*
X179768Y87175D01*
X179729Y87258D01*
X179686Y87339D01*
X179639Y87417D01*
X179590Y87494D01*
X179537Y87569D01*
X179481Y87641D01*
X179422Y87711D01*
X179361Y87778D01*
X179296Y87843D01*
X179229Y87904D01*
X179159Y87963D01*
X179087Y88019D01*
X179012Y88072D01*
X178935Y88121D01*
X178857Y88168D01*
X178776Y88211D01*
X178693Y88250D01*
X178609Y88286D01*
X178524Y88318D01*
X178437Y88347D01*
X178349Y88372D01*
X178260Y88393D01*
X178171Y88410D01*
X178080Y88424D01*
X177990Y88433D01*
X177898Y88439D01*
X177807Y88441D01*
X178237Y91885D02*
X175655Y91885D01*
X178237Y91885D02*
X178319Y91883D01*
X178401Y91877D01*
X178482Y91867D01*
X178563Y91854D01*
X178643Y91836D01*
X178722Y91815D01*
X178800Y91790D01*
X178877Y91762D01*
X178952Y91729D01*
X179026Y91694D01*
X179098Y91654D01*
X179168Y91612D01*
X179236Y91566D01*
X179301Y91517D01*
X179365Y91464D01*
X179425Y91409D01*
X179483Y91351D01*
X179538Y91291D01*
X179591Y91227D01*
X179640Y91162D01*
X179686Y91094D01*
X179728Y91024D01*
X179768Y90952D01*
X179803Y90878D01*
X179836Y90803D01*
X179864Y90726D01*
X179889Y90648D01*
X179910Y90569D01*
X179928Y90489D01*
X179941Y90408D01*
X179951Y90327D01*
X179957Y90245D01*
X179959Y90163D01*
X179957Y90081D01*
X179951Y89999D01*
X179941Y89918D01*
X179928Y89837D01*
X179910Y89757D01*
X179889Y89678D01*
X179864Y89600D01*
X179836Y89523D01*
X179803Y89448D01*
X179768Y89374D01*
X179728Y89302D01*
X179686Y89232D01*
X179640Y89164D01*
X179591Y89099D01*
X179538Y89035D01*
X179483Y88975D01*
X179425Y88917D01*
X179365Y88862D01*
X179301Y88809D01*
X179236Y88760D01*
X179168Y88714D01*
X179098Y88672D01*
X179026Y88632D01*
X178952Y88597D01*
X178877Y88564D01*
X178800Y88536D01*
X178722Y88511D01*
X178643Y88490D01*
X178563Y88472D01*
X178482Y88459D01*
X178401Y88449D01*
X178319Y88443D01*
X178237Y88441D01*
X176516Y88441D01*
D11*
X82550Y482600D02*
X69850Y482600D01*
X82550Y482600D02*
X88900Y476250D01*
X95250Y482600D01*
X107950Y482600D01*
X114300Y476250D01*
X69850Y482600D02*
X63500Y476250D01*
X114300Y476250D02*
X120650Y482600D01*
X133350Y482600D01*
X139700Y476250D01*
X139700Y438150D01*
X88900Y438150D02*
X82550Y431800D01*
X107950Y431800D02*
X114300Y438150D01*
X107950Y431800D02*
X95250Y431800D01*
X88900Y438150D01*
X63500Y438150D02*
X63500Y476250D01*
X63500Y438150D02*
X69850Y431800D01*
X82550Y431800D01*
X133350Y431800D02*
X139700Y438150D01*
X133350Y431800D02*
X120650Y431800D01*
X114300Y438150D01*
D12*
X73660Y427355D02*
X70485Y424815D01*
X73660Y427355D02*
X73660Y415925D01*
X70485Y415925D02*
X76835Y415925D01*
X142875Y470535D02*
X146685Y470535D01*
X146785Y470533D01*
X146884Y470527D01*
X146984Y470517D01*
X147082Y470504D01*
X147181Y470486D01*
X147278Y470465D01*
X147374Y470440D01*
X147470Y470411D01*
X147564Y470378D01*
X147657Y470342D01*
X147748Y470302D01*
X147838Y470258D01*
X147926Y470211D01*
X148012Y470161D01*
X148096Y470107D01*
X148178Y470050D01*
X148257Y469990D01*
X148335Y469926D01*
X148409Y469860D01*
X148481Y469791D01*
X148550Y469719D01*
X148616Y469645D01*
X148680Y469567D01*
X148740Y469488D01*
X148797Y469406D01*
X148851Y469322D01*
X148901Y469236D01*
X148948Y469148D01*
X148992Y469058D01*
X149032Y468967D01*
X149068Y468874D01*
X149101Y468780D01*
X149130Y468684D01*
X149155Y468588D01*
X149176Y468491D01*
X149194Y468392D01*
X149207Y468294D01*
X149217Y468194D01*
X149223Y468095D01*
X149225Y467995D01*
X149225Y467360D01*
X149223Y467249D01*
X149217Y467139D01*
X149208Y467028D01*
X149194Y466918D01*
X149177Y466809D01*
X149156Y466700D01*
X149131Y466592D01*
X149102Y466485D01*
X149070Y466379D01*
X149034Y466274D01*
X148994Y466171D01*
X148951Y466069D01*
X148904Y465968D01*
X148853Y465869D01*
X148800Y465772D01*
X148743Y465678D01*
X148682Y465585D01*
X148619Y465494D01*
X148552Y465405D01*
X148482Y465319D01*
X148409Y465236D01*
X148334Y465154D01*
X148256Y465076D01*
X148174Y465001D01*
X148091Y464928D01*
X148005Y464858D01*
X147916Y464791D01*
X147825Y464728D01*
X147732Y464667D01*
X147637Y464610D01*
X147541Y464557D01*
X147442Y464506D01*
X147341Y464459D01*
X147239Y464416D01*
X147136Y464376D01*
X147031Y464340D01*
X146925Y464308D01*
X146818Y464279D01*
X146710Y464254D01*
X146601Y464233D01*
X146492Y464216D01*
X146382Y464202D01*
X146271Y464193D01*
X146161Y464187D01*
X146050Y464185D01*
X145939Y464187D01*
X145829Y464193D01*
X145718Y464202D01*
X145608Y464216D01*
X145499Y464233D01*
X145390Y464254D01*
X145282Y464279D01*
X145175Y464308D01*
X145069Y464340D01*
X144964Y464376D01*
X144861Y464416D01*
X144759Y464459D01*
X144658Y464506D01*
X144559Y464557D01*
X144463Y464610D01*
X144368Y464667D01*
X144275Y464728D01*
X144184Y464791D01*
X144095Y464858D01*
X144009Y464928D01*
X143926Y465001D01*
X143844Y465076D01*
X143766Y465154D01*
X143691Y465236D01*
X143618Y465319D01*
X143548Y465405D01*
X143481Y465494D01*
X143418Y465585D01*
X143357Y465678D01*
X143300Y465773D01*
X143247Y465869D01*
X143196Y465968D01*
X143149Y466069D01*
X143106Y466171D01*
X143066Y466274D01*
X143030Y466379D01*
X142998Y466485D01*
X142969Y466592D01*
X142944Y466700D01*
X142923Y466809D01*
X142906Y466918D01*
X142892Y467028D01*
X142883Y467139D01*
X142877Y467249D01*
X142875Y467360D01*
X142875Y470535D01*
X142877Y470675D01*
X142883Y470815D01*
X142892Y470955D01*
X142906Y471094D01*
X142923Y471233D01*
X142944Y471371D01*
X142969Y471509D01*
X142998Y471646D01*
X143030Y471782D01*
X143067Y471917D01*
X143107Y472051D01*
X143150Y472184D01*
X143198Y472316D01*
X143248Y472447D01*
X143303Y472576D01*
X143361Y472703D01*
X143422Y472829D01*
X143487Y472953D01*
X143556Y473075D01*
X143627Y473195D01*
X143702Y473313D01*
X143780Y473430D01*
X143862Y473544D01*
X143946Y473655D01*
X144034Y473764D01*
X144124Y473871D01*
X144218Y473976D01*
X144314Y474077D01*
X144413Y474176D01*
X144514Y474272D01*
X144619Y474366D01*
X144726Y474456D01*
X144835Y474544D01*
X144946Y474628D01*
X145060Y474710D01*
X145177Y474788D01*
X145295Y474863D01*
X145415Y474934D01*
X145537Y475003D01*
X145661Y475068D01*
X145787Y475129D01*
X145914Y475187D01*
X146043Y475242D01*
X146174Y475292D01*
X146306Y475340D01*
X146439Y475383D01*
X146573Y475423D01*
X146708Y475460D01*
X146844Y475492D01*
X146981Y475521D01*
X147119Y475546D01*
X147257Y475567D01*
X147396Y475584D01*
X147535Y475598D01*
X147675Y475607D01*
X147815Y475613D01*
X147955Y475615D01*
X65405Y487045D02*
X65405Y498475D01*
X64135Y487045D02*
X66675Y487045D01*
X66675Y498475D02*
X64135Y498475D01*
X73877Y487045D02*
X76417Y487045D01*
X73877Y487045D02*
X73777Y487047D01*
X73678Y487053D01*
X73578Y487063D01*
X73480Y487076D01*
X73381Y487094D01*
X73284Y487115D01*
X73188Y487140D01*
X73092Y487169D01*
X72998Y487202D01*
X72905Y487238D01*
X72814Y487278D01*
X72724Y487322D01*
X72636Y487369D01*
X72550Y487419D01*
X72466Y487473D01*
X72384Y487530D01*
X72305Y487590D01*
X72227Y487654D01*
X72153Y487720D01*
X72081Y487789D01*
X72012Y487861D01*
X71946Y487935D01*
X71882Y488013D01*
X71822Y488092D01*
X71765Y488174D01*
X71711Y488258D01*
X71661Y488344D01*
X71614Y488432D01*
X71570Y488522D01*
X71530Y488613D01*
X71494Y488706D01*
X71461Y488800D01*
X71432Y488896D01*
X71407Y488992D01*
X71386Y489089D01*
X71368Y489188D01*
X71355Y489286D01*
X71345Y489386D01*
X71339Y489485D01*
X71337Y489585D01*
X71337Y495935D01*
X71339Y496035D01*
X71345Y496134D01*
X71355Y496234D01*
X71368Y496332D01*
X71386Y496431D01*
X71407Y496528D01*
X71432Y496624D01*
X71461Y496720D01*
X71494Y496814D01*
X71530Y496907D01*
X71570Y496998D01*
X71614Y497088D01*
X71661Y497176D01*
X71711Y497262D01*
X71765Y497346D01*
X71822Y497428D01*
X71882Y497507D01*
X71946Y497585D01*
X72012Y497659D01*
X72081Y497731D01*
X72153Y497800D01*
X72227Y497866D01*
X72305Y497930D01*
X72384Y497990D01*
X72466Y498047D01*
X72550Y498101D01*
X72636Y498151D01*
X72724Y498198D01*
X72814Y498242D01*
X72905Y498282D01*
X72998Y498318D01*
X73092Y498351D01*
X73188Y498380D01*
X73284Y498405D01*
X73381Y498426D01*
X73480Y498444D01*
X73578Y498457D01*
X73678Y498467D01*
X73777Y498473D01*
X73877Y498475D01*
X76417Y498475D01*
X86868Y489585D02*
X86866Y489485D01*
X86860Y489386D01*
X86850Y489286D01*
X86837Y489188D01*
X86819Y489089D01*
X86798Y488992D01*
X86773Y488896D01*
X86744Y488800D01*
X86711Y488706D01*
X86675Y488613D01*
X86635Y488522D01*
X86591Y488432D01*
X86544Y488344D01*
X86494Y488258D01*
X86440Y488174D01*
X86383Y488092D01*
X86323Y488013D01*
X86259Y487935D01*
X86193Y487861D01*
X86124Y487789D01*
X86052Y487720D01*
X85978Y487654D01*
X85900Y487590D01*
X85821Y487530D01*
X85739Y487473D01*
X85655Y487419D01*
X85569Y487369D01*
X85481Y487322D01*
X85391Y487278D01*
X85300Y487238D01*
X85207Y487202D01*
X85113Y487169D01*
X85017Y487140D01*
X84921Y487115D01*
X84824Y487094D01*
X84725Y487076D01*
X84627Y487063D01*
X84527Y487053D01*
X84428Y487047D01*
X84328Y487045D01*
X84187Y487047D01*
X84046Y487052D01*
X83905Y487062D01*
X83764Y487075D01*
X83624Y487091D01*
X83484Y487112D01*
X83345Y487136D01*
X83206Y487164D01*
X83069Y487195D01*
X82932Y487230D01*
X82796Y487268D01*
X82661Y487310D01*
X82528Y487356D01*
X82395Y487405D01*
X82264Y487458D01*
X82135Y487514D01*
X82006Y487573D01*
X81880Y487636D01*
X81755Y487702D01*
X81632Y487771D01*
X81511Y487844D01*
X81392Y487920D01*
X81274Y487999D01*
X81159Y488080D01*
X81047Y488165D01*
X80936Y488253D01*
X80828Y488344D01*
X80722Y488437D01*
X80619Y488534D01*
X80518Y488633D01*
X80835Y495935D02*
X80837Y496035D01*
X80843Y496134D01*
X80853Y496234D01*
X80866Y496332D01*
X80884Y496431D01*
X80905Y496528D01*
X80930Y496624D01*
X80959Y496720D01*
X80992Y496814D01*
X81028Y496907D01*
X81068Y496998D01*
X81112Y497088D01*
X81159Y497176D01*
X81209Y497262D01*
X81263Y497346D01*
X81320Y497428D01*
X81380Y497507D01*
X81444Y497585D01*
X81510Y497659D01*
X81579Y497731D01*
X81651Y497800D01*
X81725Y497866D01*
X81803Y497930D01*
X81882Y497990D01*
X81964Y498047D01*
X82048Y498101D01*
X82134Y498151D01*
X82222Y498198D01*
X82312Y498242D01*
X82403Y498282D01*
X82496Y498318D01*
X82590Y498351D01*
X82686Y498380D01*
X82782Y498405D01*
X82879Y498426D01*
X82978Y498444D01*
X83076Y498457D01*
X83176Y498467D01*
X83275Y498473D01*
X83375Y498475D01*
X83375Y498476D02*
X83508Y498474D01*
X83641Y498469D01*
X83774Y498459D01*
X83907Y498446D01*
X84039Y498429D01*
X84171Y498409D01*
X84302Y498385D01*
X84432Y498357D01*
X84562Y498326D01*
X84690Y498291D01*
X84818Y498252D01*
X84944Y498210D01*
X85069Y498164D01*
X85193Y498115D01*
X85316Y498063D01*
X85437Y498007D01*
X85556Y497947D01*
X85674Y497885D01*
X85789Y497819D01*
X85903Y497750D01*
X86015Y497677D01*
X86125Y497602D01*
X86233Y497523D01*
X82105Y493712D02*
X82021Y493764D01*
X81938Y493819D01*
X81858Y493878D01*
X81780Y493939D01*
X81705Y494003D01*
X81632Y494071D01*
X81561Y494141D01*
X81494Y494213D01*
X81429Y494288D01*
X81367Y494366D01*
X81308Y494446D01*
X81252Y494528D01*
X81200Y494612D01*
X81151Y494698D01*
X81105Y494786D01*
X81062Y494876D01*
X81023Y494967D01*
X80988Y495060D01*
X80956Y495154D01*
X80928Y495249D01*
X80903Y495345D01*
X80883Y495442D01*
X80865Y495540D01*
X80852Y495638D01*
X80843Y495737D01*
X80837Y495836D01*
X80835Y495935D01*
X85598Y491808D02*
X85682Y491756D01*
X85765Y491701D01*
X85845Y491642D01*
X85923Y491581D01*
X85998Y491517D01*
X86071Y491449D01*
X86142Y491379D01*
X86209Y491307D01*
X86274Y491232D01*
X86336Y491154D01*
X86395Y491074D01*
X86451Y490992D01*
X86503Y490908D01*
X86552Y490822D01*
X86598Y490734D01*
X86641Y490644D01*
X86680Y490553D01*
X86715Y490460D01*
X86747Y490366D01*
X86775Y490271D01*
X86800Y490175D01*
X86820Y490078D01*
X86838Y489980D01*
X86851Y489882D01*
X86860Y489783D01*
X86866Y489684D01*
X86868Y489585D01*
X85598Y491808D02*
X82105Y493713D01*
X92138Y498475D02*
X92138Y487045D01*
X92138Y498475D02*
X95313Y498475D01*
X95424Y498473D01*
X95534Y498467D01*
X95645Y498458D01*
X95755Y498444D01*
X95864Y498427D01*
X95973Y498406D01*
X96081Y498381D01*
X96188Y498352D01*
X96294Y498320D01*
X96399Y498284D01*
X96502Y498244D01*
X96604Y498201D01*
X96705Y498154D01*
X96804Y498103D01*
X96901Y498050D01*
X96995Y497993D01*
X97088Y497932D01*
X97179Y497869D01*
X97268Y497802D01*
X97354Y497732D01*
X97437Y497659D01*
X97519Y497584D01*
X97597Y497506D01*
X97672Y497424D01*
X97745Y497341D01*
X97815Y497255D01*
X97882Y497166D01*
X97945Y497075D01*
X98006Y496982D01*
X98063Y496887D01*
X98116Y496791D01*
X98167Y496692D01*
X98214Y496591D01*
X98257Y496489D01*
X98297Y496386D01*
X98333Y496281D01*
X98365Y496175D01*
X98394Y496068D01*
X98419Y495960D01*
X98440Y495851D01*
X98457Y495742D01*
X98471Y495632D01*
X98480Y495521D01*
X98486Y495411D01*
X98488Y495300D01*
X98486Y495189D01*
X98480Y495079D01*
X98471Y494968D01*
X98457Y494858D01*
X98440Y494749D01*
X98419Y494640D01*
X98394Y494532D01*
X98365Y494425D01*
X98333Y494319D01*
X98297Y494214D01*
X98257Y494111D01*
X98214Y494009D01*
X98167Y493908D01*
X98116Y493809D01*
X98063Y493712D01*
X98006Y493618D01*
X97945Y493525D01*
X97882Y493434D01*
X97815Y493345D01*
X97745Y493259D01*
X97672Y493176D01*
X97597Y493094D01*
X97519Y493016D01*
X97437Y492941D01*
X97354Y492868D01*
X97268Y492798D01*
X97179Y492731D01*
X97088Y492668D01*
X96995Y492607D01*
X96900Y492550D01*
X96804Y492497D01*
X96705Y492446D01*
X96604Y492399D01*
X96502Y492356D01*
X96399Y492316D01*
X96294Y492280D01*
X96188Y492248D01*
X96081Y492219D01*
X95973Y492194D01*
X95864Y492173D01*
X95755Y492156D01*
X95645Y492142D01*
X95534Y492133D01*
X95424Y492127D01*
X95313Y492125D01*
X92138Y492125D01*
X86000Y41200D02*
X78200Y41200D01*
X117400Y41200D02*
X124800Y41200D01*
X64100Y29550D02*
X64100Y20450D01*
X139100Y20350D02*
X139100Y29450D01*
X64100Y4450D02*
X64100Y-8800D01*
X73600Y-8800D01*
X73687Y-8802D01*
X73774Y-8808D01*
X73861Y-8817D01*
X73947Y-8830D01*
X74033Y-8847D01*
X74118Y-8868D01*
X74201Y-8893D01*
X74284Y-8921D01*
X74365Y-8952D01*
X74445Y-8987D01*
X74523Y-9026D01*
X74600Y-9068D01*
X74675Y-9113D01*
X74747Y-9162D01*
X74818Y-9213D01*
X74886Y-9268D01*
X74951Y-9325D01*
X75014Y-9386D01*
X75075Y-9449D01*
X75132Y-9514D01*
X75187Y-9582D01*
X75238Y-9653D01*
X75287Y-9725D01*
X75332Y-9800D01*
X75374Y-9877D01*
X75413Y-9955D01*
X75448Y-10035D01*
X75479Y-10116D01*
X75507Y-10199D01*
X75532Y-10282D01*
X75553Y-10367D01*
X75570Y-10453D01*
X75583Y-10539D01*
X75592Y-10626D01*
X75598Y-10713D01*
X75600Y-10800D01*
X75600Y-11450D01*
X75576Y-11550D01*
X75557Y-11652D01*
X75541Y-11754D01*
X75529Y-11856D01*
X75521Y-11959D01*
X75517Y-12062D01*
X75516Y-12165D01*
X75520Y-12268D01*
X75527Y-12371D01*
X75538Y-12474D01*
X75553Y-12576D01*
X75572Y-12678D01*
X75594Y-12778D01*
X75621Y-12878D01*
X75651Y-12977D01*
X75684Y-13074D01*
X75722Y-13170D01*
X75763Y-13265D01*
X75807Y-13358D01*
X75855Y-13450D01*
X75906Y-13539D01*
X75961Y-13627D01*
X76018Y-13712D01*
X76079Y-13796D01*
X76143Y-13877D01*
X76210Y-13955D01*
X76280Y-14031D01*
X76353Y-14104D01*
X76428Y-14175D01*
X76506Y-14242D01*
X76587Y-14307D01*
X76669Y-14369D01*
X76754Y-14427D01*
X76841Y-14482D01*
X76931Y-14534D01*
X77022Y-14583D01*
X77114Y-14628D01*
X77209Y-14670D01*
X77305Y-14708D01*
X77402Y-14742D01*
X77500Y-14773D01*
X77600Y-14800D01*
X125600Y-14800D01*
X125689Y-14796D01*
X125779Y-14788D01*
X125867Y-14776D01*
X125955Y-14761D01*
X126043Y-14741D01*
X126129Y-14718D01*
X126214Y-14690D01*
X126298Y-14660D01*
X126381Y-14625D01*
X126462Y-14587D01*
X126541Y-14546D01*
X126619Y-14501D01*
X126694Y-14452D01*
X126767Y-14401D01*
X126838Y-14346D01*
X126906Y-14289D01*
X126972Y-14228D01*
X127035Y-14164D01*
X127095Y-14098D01*
X127153Y-14030D01*
X127207Y-13959D01*
X127258Y-13885D01*
X127306Y-13809D01*
X127351Y-13732D01*
X127392Y-13652D01*
X127429Y-13571D01*
X127463Y-13488D01*
X127494Y-13404D01*
X127521Y-13319D01*
X127543Y-13232D01*
X127563Y-13145D01*
X127578Y-13057D01*
X127589Y-12968D01*
X127597Y-12879D01*
X127601Y-12789D01*
X127600Y-12700D01*
X127600Y-10700D01*
X127626Y-10602D01*
X127654Y-10506D01*
X127687Y-10410D01*
X127723Y-10316D01*
X127762Y-10223D01*
X127805Y-10132D01*
X127852Y-10042D01*
X127901Y-9954D01*
X127954Y-9868D01*
X128010Y-9784D01*
X128069Y-9703D01*
X128131Y-9623D01*
X128197Y-9546D01*
X128264Y-9471D01*
X128335Y-9399D01*
X128408Y-9330D01*
X128484Y-9264D01*
X128563Y-9200D01*
X128643Y-9139D01*
X128726Y-9082D01*
X128811Y-9027D01*
X128898Y-8976D01*
X128987Y-8928D01*
X129077Y-8883D01*
X129169Y-8842D01*
X129263Y-8804D01*
X129358Y-8770D01*
X129454Y-8740D01*
X129551Y-8713D01*
X129649Y-8689D01*
X129748Y-8669D01*
X129848Y-8653D01*
X129948Y-8641D01*
X130049Y-8633D01*
X130149Y-8628D01*
X130250Y-8627D01*
X130351Y-8630D01*
X130452Y-8637D01*
X130552Y-8647D01*
X130652Y-8661D01*
X130751Y-8679D01*
X130850Y-8700D01*
X139100Y-8700D01*
X139100Y5050D01*
D13*
X87650Y51400D02*
X87652Y51463D01*
X87658Y51525D01*
X87668Y51587D01*
X87681Y51649D01*
X87699Y51709D01*
X87720Y51768D01*
X87745Y51826D01*
X87774Y51882D01*
X87806Y51936D01*
X87841Y51988D01*
X87879Y52037D01*
X87921Y52085D01*
X87965Y52129D01*
X88013Y52171D01*
X88062Y52209D01*
X88114Y52244D01*
X88168Y52276D01*
X88224Y52305D01*
X88282Y52330D01*
X88341Y52351D01*
X88401Y52369D01*
X88463Y52382D01*
X88525Y52392D01*
X88587Y52398D01*
X88650Y52400D01*
X88713Y52398D01*
X88775Y52392D01*
X88837Y52382D01*
X88899Y52369D01*
X88959Y52351D01*
X89018Y52330D01*
X89076Y52305D01*
X89132Y52276D01*
X89186Y52244D01*
X89238Y52209D01*
X89287Y52171D01*
X89335Y52129D01*
X89379Y52085D01*
X89421Y52037D01*
X89459Y51988D01*
X89494Y51936D01*
X89526Y51882D01*
X89555Y51826D01*
X89580Y51768D01*
X89601Y51709D01*
X89619Y51649D01*
X89632Y51587D01*
X89642Y51525D01*
X89648Y51463D01*
X89650Y51400D01*
X89648Y51337D01*
X89642Y51275D01*
X89632Y51213D01*
X89619Y51151D01*
X89601Y51091D01*
X89580Y51032D01*
X89555Y50974D01*
X89526Y50918D01*
X89494Y50864D01*
X89459Y50812D01*
X89421Y50763D01*
X89379Y50715D01*
X89335Y50671D01*
X89287Y50629D01*
X89238Y50591D01*
X89186Y50556D01*
X89132Y50524D01*
X89076Y50495D01*
X89018Y50470D01*
X88959Y50449D01*
X88899Y50431D01*
X88837Y50418D01*
X88775Y50408D01*
X88713Y50402D01*
X88650Y50400D01*
X88587Y50402D01*
X88525Y50408D01*
X88463Y50418D01*
X88401Y50431D01*
X88341Y50449D01*
X88282Y50470D01*
X88224Y50495D01*
X88168Y50524D01*
X88114Y50556D01*
X88062Y50591D01*
X88013Y50629D01*
X87965Y50671D01*
X87921Y50715D01*
X87879Y50763D01*
X87841Y50812D01*
X87806Y50864D01*
X87774Y50918D01*
X87745Y50974D01*
X87720Y51032D01*
X87699Y51091D01*
X87681Y51151D01*
X87668Y51213D01*
X87658Y51275D01*
X87652Y51337D01*
X87650Y51400D01*
D12*
X64100Y-9300D02*
X61600Y-11800D01*
X64100Y-14300D01*
X67850Y-10550D01*
X67850Y-9300D01*
X139100Y-9300D02*
X141600Y-11800D01*
X139100Y-14300D01*
X135350Y-10550D01*
X135350Y-9300D01*
D14*
X61674Y57786D02*
X61674Y66881D01*
X61674Y57786D02*
X61672Y57686D01*
X61666Y57587D01*
X61657Y57488D01*
X61644Y57389D01*
X61626Y57291D01*
X61606Y57194D01*
X61581Y57098D01*
X61553Y57002D01*
X61521Y56908D01*
X61486Y56815D01*
X61447Y56723D01*
X61404Y56633D01*
X61358Y56545D01*
X61309Y56458D01*
X61257Y56374D01*
X61201Y56291D01*
X61142Y56211D01*
X61080Y56133D01*
X61016Y56057D01*
X60948Y55984D01*
X60878Y55914D01*
X60805Y55846D01*
X60729Y55782D01*
X60651Y55720D01*
X60571Y55661D01*
X60488Y55605D01*
X60404Y55553D01*
X60317Y55504D01*
X60229Y55458D01*
X60139Y55415D01*
X60047Y55376D01*
X59954Y55341D01*
X59860Y55309D01*
X59764Y55281D01*
X59668Y55256D01*
X59571Y55236D01*
X59473Y55218D01*
X59374Y55205D01*
X59275Y55196D01*
X59176Y55190D01*
X59076Y55188D01*
X57777Y55188D01*
X66951Y64282D02*
X70199Y66881D01*
X70199Y55188D01*
X66951Y55188D02*
X73447Y55188D01*
D15*
X110550Y420600D03*
X118050Y420600D03*
D16*
X114300Y420600D03*
D14*
X107442Y398018D02*
X95758Y398018D01*
X95758Y401264D01*
X95760Y401377D01*
X95766Y401490D01*
X95776Y401603D01*
X95790Y401716D01*
X95807Y401828D01*
X95829Y401939D01*
X95854Y402049D01*
X95884Y402159D01*
X95917Y402267D01*
X95954Y402374D01*
X95994Y402480D01*
X96039Y402584D01*
X96087Y402687D01*
X96138Y402788D01*
X96193Y402887D01*
X96251Y402984D01*
X96313Y403079D01*
X96378Y403172D01*
X96446Y403262D01*
X96517Y403350D01*
X96592Y403436D01*
X96669Y403519D01*
X96749Y403599D01*
X96832Y403676D01*
X96918Y403751D01*
X97006Y403822D01*
X97096Y403890D01*
X97189Y403955D01*
X97284Y404017D01*
X97381Y404075D01*
X97480Y404130D01*
X97581Y404181D01*
X97684Y404229D01*
X97788Y404274D01*
X97894Y404314D01*
X98001Y404351D01*
X98109Y404384D01*
X98219Y404414D01*
X98329Y404439D01*
X98440Y404461D01*
X98552Y404478D01*
X98665Y404492D01*
X98778Y404502D01*
X98891Y404508D01*
X99004Y404510D01*
X99117Y404508D01*
X99230Y404502D01*
X99343Y404492D01*
X99456Y404478D01*
X99568Y404461D01*
X99679Y404439D01*
X99789Y404414D01*
X99899Y404384D01*
X100007Y404351D01*
X100114Y404314D01*
X100220Y404274D01*
X100324Y404229D01*
X100427Y404181D01*
X100528Y404130D01*
X100627Y404075D01*
X100724Y404017D01*
X100819Y403955D01*
X100912Y403890D01*
X101002Y403822D01*
X101090Y403751D01*
X101176Y403676D01*
X101259Y403599D01*
X101339Y403519D01*
X101416Y403436D01*
X101491Y403350D01*
X101562Y403262D01*
X101630Y403172D01*
X101695Y403079D01*
X101757Y402984D01*
X101815Y402887D01*
X101870Y402788D01*
X101921Y402687D01*
X101969Y402584D01*
X102014Y402480D01*
X102054Y402374D01*
X102091Y402267D01*
X102124Y402159D01*
X102154Y402049D01*
X102179Y401939D01*
X102201Y401828D01*
X102218Y401716D01*
X102232Y401603D01*
X102242Y401490D01*
X102248Y401377D01*
X102250Y401264D01*
X102249Y401264D02*
X102249Y398018D01*
X95758Y408474D02*
X107442Y411071D01*
X99653Y413667D01*
X107442Y416264D01*
X95758Y418860D01*
X95758Y423830D02*
X107442Y423830D01*
X95758Y423830D02*
X95758Y427076D01*
X95760Y427189D01*
X95766Y427302D01*
X95776Y427415D01*
X95790Y427528D01*
X95807Y427640D01*
X95829Y427751D01*
X95854Y427861D01*
X95884Y427971D01*
X95917Y428079D01*
X95954Y428186D01*
X95994Y428292D01*
X96039Y428396D01*
X96087Y428499D01*
X96138Y428600D01*
X96193Y428699D01*
X96251Y428796D01*
X96313Y428891D01*
X96378Y428984D01*
X96446Y429074D01*
X96517Y429162D01*
X96592Y429248D01*
X96669Y429331D01*
X96749Y429411D01*
X96832Y429488D01*
X96918Y429563D01*
X97006Y429634D01*
X97096Y429702D01*
X97189Y429767D01*
X97284Y429829D01*
X97381Y429887D01*
X97480Y429942D01*
X97581Y429993D01*
X97684Y430041D01*
X97788Y430086D01*
X97894Y430126D01*
X98001Y430163D01*
X98109Y430196D01*
X98219Y430226D01*
X98329Y430251D01*
X98440Y430273D01*
X98552Y430290D01*
X98665Y430304D01*
X98778Y430314D01*
X98891Y430320D01*
X99004Y430322D01*
X99117Y430320D01*
X99230Y430314D01*
X99343Y430304D01*
X99456Y430290D01*
X99568Y430273D01*
X99679Y430251D01*
X99789Y430226D01*
X99899Y430196D01*
X100007Y430163D01*
X100114Y430126D01*
X100220Y430086D01*
X100324Y430041D01*
X100427Y429993D01*
X100528Y429942D01*
X100627Y429887D01*
X100724Y429829D01*
X100819Y429767D01*
X100912Y429702D01*
X101002Y429634D01*
X101090Y429563D01*
X101176Y429488D01*
X101259Y429411D01*
X101339Y429331D01*
X101416Y429248D01*
X101491Y429162D01*
X101562Y429074D01*
X101630Y428984D01*
X101695Y428891D01*
X101757Y428796D01*
X101815Y428699D01*
X101870Y428600D01*
X101921Y428499D01*
X101969Y428396D01*
X102014Y428292D01*
X102054Y428186D01*
X102091Y428079D01*
X102124Y427971D01*
X102154Y427861D01*
X102179Y427751D01*
X102201Y427640D01*
X102218Y427528D01*
X102232Y427415D01*
X102242Y427302D01*
X102248Y427189D01*
X102250Y427076D01*
X102249Y427076D02*
X102249Y423830D01*
X102249Y427725D02*
X107442Y430321D01*
X28800Y314300D02*
X28800Y295300D01*
X72800Y295300D02*
X72800Y314300D01*
X58057Y285806D02*
X58057Y280614D01*
X58057Y285806D02*
X58059Y285919D01*
X58065Y286032D01*
X58075Y286145D01*
X58089Y286258D01*
X58106Y286370D01*
X58128Y286481D01*
X58153Y286591D01*
X58183Y286701D01*
X58216Y286809D01*
X58253Y286916D01*
X58293Y287022D01*
X58338Y287126D01*
X58386Y287229D01*
X58437Y287330D01*
X58492Y287429D01*
X58550Y287526D01*
X58612Y287621D01*
X58677Y287714D01*
X58745Y287804D01*
X58816Y287892D01*
X58891Y287978D01*
X58968Y288061D01*
X59048Y288141D01*
X59131Y288218D01*
X59217Y288293D01*
X59305Y288364D01*
X59395Y288432D01*
X59488Y288497D01*
X59583Y288559D01*
X59680Y288617D01*
X59779Y288672D01*
X59880Y288723D01*
X59983Y288771D01*
X60087Y288816D01*
X60193Y288856D01*
X60300Y288893D01*
X60408Y288926D01*
X60518Y288956D01*
X60628Y288981D01*
X60739Y289003D01*
X60851Y289020D01*
X60964Y289034D01*
X61077Y289044D01*
X61190Y289050D01*
X61303Y289052D01*
X61416Y289050D01*
X61529Y289044D01*
X61642Y289034D01*
X61755Y289020D01*
X61867Y289003D01*
X61978Y288981D01*
X62088Y288956D01*
X62198Y288926D01*
X62306Y288893D01*
X62413Y288856D01*
X62519Y288816D01*
X62623Y288771D01*
X62726Y288723D01*
X62827Y288672D01*
X62926Y288617D01*
X63023Y288559D01*
X63118Y288497D01*
X63211Y288432D01*
X63301Y288364D01*
X63389Y288293D01*
X63475Y288218D01*
X63558Y288141D01*
X63638Y288061D01*
X63715Y287978D01*
X63790Y287892D01*
X63861Y287804D01*
X63929Y287714D01*
X63994Y287621D01*
X64056Y287526D01*
X64114Y287429D01*
X64169Y287330D01*
X64220Y287229D01*
X64268Y287126D01*
X64313Y287022D01*
X64353Y286916D01*
X64390Y286809D01*
X64423Y286701D01*
X64453Y286591D01*
X64478Y286481D01*
X64500Y286370D01*
X64517Y286258D01*
X64531Y286145D01*
X64541Y286032D01*
X64547Y285919D01*
X64549Y285806D01*
X64548Y285806D02*
X64548Y280614D01*
X64549Y280614D02*
X64547Y280501D01*
X64541Y280388D01*
X64531Y280275D01*
X64517Y280162D01*
X64500Y280050D01*
X64478Y279939D01*
X64453Y279829D01*
X64423Y279719D01*
X64390Y279611D01*
X64353Y279504D01*
X64313Y279398D01*
X64268Y279294D01*
X64220Y279191D01*
X64169Y279090D01*
X64114Y278991D01*
X64056Y278894D01*
X63994Y278799D01*
X63929Y278706D01*
X63861Y278616D01*
X63790Y278528D01*
X63715Y278442D01*
X63638Y278359D01*
X63558Y278279D01*
X63475Y278202D01*
X63389Y278127D01*
X63301Y278056D01*
X63211Y277988D01*
X63118Y277923D01*
X63023Y277861D01*
X62926Y277803D01*
X62827Y277748D01*
X62726Y277697D01*
X62623Y277649D01*
X62519Y277604D01*
X62413Y277564D01*
X62306Y277527D01*
X62198Y277494D01*
X62088Y277464D01*
X61978Y277439D01*
X61867Y277417D01*
X61755Y277400D01*
X61642Y277386D01*
X61529Y277376D01*
X61416Y277370D01*
X61303Y277368D01*
X61190Y277370D01*
X61077Y277376D01*
X60964Y277386D01*
X60851Y277400D01*
X60739Y277417D01*
X60628Y277439D01*
X60518Y277464D01*
X60408Y277494D01*
X60300Y277527D01*
X60193Y277564D01*
X60087Y277604D01*
X59983Y277649D01*
X59880Y277697D01*
X59779Y277748D01*
X59680Y277803D01*
X59583Y277861D01*
X59488Y277923D01*
X59395Y277988D01*
X59305Y278056D01*
X59217Y278127D01*
X59131Y278202D01*
X59048Y278279D01*
X58968Y278359D01*
X58891Y278442D01*
X58816Y278528D01*
X58745Y278616D01*
X58677Y278706D01*
X58612Y278799D01*
X58550Y278894D01*
X58492Y278991D01*
X58437Y279090D01*
X58386Y279191D01*
X58338Y279294D01*
X58293Y279398D01*
X58253Y279504D01*
X58216Y279611D01*
X58183Y279719D01*
X58153Y279829D01*
X58128Y279939D01*
X58106Y280050D01*
X58089Y280162D01*
X58075Y280275D01*
X58065Y280388D01*
X58059Y280501D01*
X58057Y280614D01*
X63250Y279964D02*
X65846Y277368D01*
X69201Y286456D02*
X72446Y289052D01*
X72446Y277368D01*
X69201Y277368D02*
X75692Y277368D01*
X77978Y118805D02*
X89662Y118805D01*
X77978Y118805D02*
X77978Y122050D01*
X77980Y122163D01*
X77986Y122276D01*
X77996Y122389D01*
X78010Y122502D01*
X78027Y122614D01*
X78049Y122725D01*
X78074Y122835D01*
X78104Y122945D01*
X78137Y123053D01*
X78174Y123160D01*
X78214Y123266D01*
X78259Y123370D01*
X78307Y123473D01*
X78358Y123574D01*
X78413Y123673D01*
X78471Y123770D01*
X78533Y123865D01*
X78598Y123958D01*
X78666Y124048D01*
X78737Y124136D01*
X78812Y124222D01*
X78889Y124305D01*
X78969Y124385D01*
X79052Y124462D01*
X79138Y124537D01*
X79226Y124608D01*
X79316Y124676D01*
X79409Y124741D01*
X79504Y124803D01*
X79601Y124861D01*
X79700Y124916D01*
X79801Y124967D01*
X79904Y125015D01*
X80008Y125060D01*
X80114Y125100D01*
X80221Y125137D01*
X80329Y125170D01*
X80439Y125200D01*
X80549Y125225D01*
X80660Y125247D01*
X80772Y125264D01*
X80885Y125278D01*
X80998Y125288D01*
X81111Y125294D01*
X81224Y125296D01*
X81337Y125294D01*
X81450Y125288D01*
X81563Y125278D01*
X81676Y125264D01*
X81788Y125247D01*
X81899Y125225D01*
X82009Y125200D01*
X82119Y125170D01*
X82227Y125137D01*
X82334Y125100D01*
X82440Y125060D01*
X82544Y125015D01*
X82647Y124967D01*
X82748Y124916D01*
X82847Y124861D01*
X82944Y124803D01*
X83039Y124741D01*
X83132Y124676D01*
X83222Y124608D01*
X83310Y124537D01*
X83396Y124462D01*
X83479Y124385D01*
X83559Y124305D01*
X83636Y124222D01*
X83711Y124136D01*
X83782Y124048D01*
X83850Y123958D01*
X83915Y123865D01*
X83977Y123770D01*
X84035Y123673D01*
X84090Y123574D01*
X84141Y123473D01*
X84189Y123370D01*
X84234Y123266D01*
X84274Y123160D01*
X84311Y123053D01*
X84344Y122945D01*
X84374Y122835D01*
X84399Y122725D01*
X84421Y122614D01*
X84438Y122502D01*
X84452Y122389D01*
X84462Y122276D01*
X84468Y122163D01*
X84470Y122050D01*
X84469Y122050D02*
X84469Y118805D01*
X84469Y122699D02*
X89662Y125296D01*
X80574Y130161D02*
X77978Y133406D01*
X89662Y133406D01*
X89662Y130161D02*
X89662Y136652D01*
X95758Y371535D02*
X107442Y371535D01*
X95758Y371535D02*
X95758Y374780D01*
X95760Y374893D01*
X95766Y375006D01*
X95776Y375119D01*
X95790Y375232D01*
X95807Y375344D01*
X95829Y375455D01*
X95854Y375565D01*
X95884Y375675D01*
X95917Y375783D01*
X95954Y375890D01*
X95994Y375996D01*
X96039Y376100D01*
X96087Y376203D01*
X96138Y376304D01*
X96193Y376403D01*
X96251Y376500D01*
X96313Y376595D01*
X96378Y376688D01*
X96446Y376778D01*
X96517Y376866D01*
X96592Y376952D01*
X96669Y377035D01*
X96749Y377115D01*
X96832Y377192D01*
X96918Y377267D01*
X97006Y377338D01*
X97096Y377406D01*
X97189Y377471D01*
X97284Y377533D01*
X97381Y377591D01*
X97480Y377646D01*
X97581Y377697D01*
X97684Y377745D01*
X97788Y377790D01*
X97894Y377830D01*
X98001Y377867D01*
X98109Y377900D01*
X98219Y377930D01*
X98329Y377955D01*
X98440Y377977D01*
X98552Y377994D01*
X98665Y378008D01*
X98778Y378018D01*
X98891Y378024D01*
X99004Y378026D01*
X99117Y378024D01*
X99230Y378018D01*
X99343Y378008D01*
X99456Y377994D01*
X99568Y377977D01*
X99679Y377955D01*
X99789Y377930D01*
X99899Y377900D01*
X100007Y377867D01*
X100114Y377830D01*
X100220Y377790D01*
X100324Y377745D01*
X100427Y377697D01*
X100528Y377646D01*
X100627Y377591D01*
X100724Y377533D01*
X100819Y377471D01*
X100912Y377406D01*
X101002Y377338D01*
X101090Y377267D01*
X101176Y377192D01*
X101259Y377115D01*
X101339Y377035D01*
X101416Y376952D01*
X101491Y376866D01*
X101562Y376778D01*
X101630Y376688D01*
X101695Y376595D01*
X101757Y376500D01*
X101815Y376403D01*
X101870Y376304D01*
X101921Y376203D01*
X101969Y376100D01*
X102014Y375996D01*
X102054Y375890D01*
X102091Y375783D01*
X102124Y375675D01*
X102154Y375565D01*
X102179Y375455D01*
X102201Y375344D01*
X102218Y375232D01*
X102232Y375119D01*
X102242Y375006D01*
X102248Y374893D01*
X102250Y374780D01*
X102249Y374780D02*
X102249Y371535D01*
X102249Y375429D02*
X107442Y378026D01*
X98679Y389382D02*
X98572Y389380D01*
X98466Y389374D01*
X98360Y389364D01*
X98254Y389351D01*
X98148Y389333D01*
X98044Y389312D01*
X97940Y389287D01*
X97837Y389258D01*
X97736Y389226D01*
X97636Y389189D01*
X97537Y389149D01*
X97439Y389106D01*
X97343Y389059D01*
X97249Y389008D01*
X97157Y388954D01*
X97067Y388897D01*
X96979Y388837D01*
X96894Y388773D01*
X96811Y388706D01*
X96730Y388636D01*
X96652Y388564D01*
X96576Y388488D01*
X96504Y388410D01*
X96434Y388329D01*
X96367Y388246D01*
X96303Y388161D01*
X96243Y388073D01*
X96186Y387983D01*
X96132Y387891D01*
X96081Y387797D01*
X96034Y387701D01*
X95991Y387603D01*
X95951Y387504D01*
X95914Y387404D01*
X95882Y387303D01*
X95853Y387200D01*
X95828Y387096D01*
X95807Y386992D01*
X95789Y386886D01*
X95776Y386780D01*
X95766Y386674D01*
X95760Y386568D01*
X95758Y386461D01*
X95760Y386340D01*
X95766Y386219D01*
X95776Y386099D01*
X95789Y385978D01*
X95807Y385859D01*
X95828Y385739D01*
X95853Y385621D01*
X95882Y385504D01*
X95915Y385387D01*
X95951Y385272D01*
X95992Y385158D01*
X96035Y385045D01*
X96083Y384933D01*
X96134Y384824D01*
X96189Y384716D01*
X96247Y384609D01*
X96308Y384505D01*
X96373Y384403D01*
X96441Y384303D01*
X96512Y384205D01*
X96586Y384109D01*
X96663Y384016D01*
X96744Y383926D01*
X96827Y383838D01*
X96913Y383753D01*
X97002Y383670D01*
X97093Y383591D01*
X97187Y383514D01*
X97283Y383441D01*
X97381Y383371D01*
X97482Y383304D01*
X97585Y383240D01*
X97690Y383180D01*
X97797Y383122D01*
X97905Y383069D01*
X98015Y383019D01*
X98127Y382973D01*
X98240Y382930D01*
X98355Y382891D01*
X100951Y388408D02*
X100873Y388487D01*
X100793Y388563D01*
X100710Y388636D01*
X100624Y388706D01*
X100537Y388773D01*
X100446Y388837D01*
X100354Y388897D01*
X100260Y388955D01*
X100163Y389009D01*
X100065Y389059D01*
X99965Y389106D01*
X99864Y389150D01*
X99761Y389190D01*
X99656Y389226D01*
X99551Y389258D01*
X99444Y389287D01*
X99337Y389312D01*
X99228Y389334D01*
X99119Y389351D01*
X99010Y389365D01*
X98900Y389374D01*
X98789Y389380D01*
X98679Y389382D01*
X100951Y388408D02*
X107442Y382891D01*
X107442Y389382D01*
X146558Y371535D02*
X158242Y371535D01*
X146558Y371535D02*
X146558Y374780D01*
X146560Y374893D01*
X146566Y375006D01*
X146576Y375119D01*
X146590Y375232D01*
X146607Y375344D01*
X146629Y375455D01*
X146654Y375565D01*
X146684Y375675D01*
X146717Y375783D01*
X146754Y375890D01*
X146794Y375996D01*
X146839Y376100D01*
X146887Y376203D01*
X146938Y376304D01*
X146993Y376403D01*
X147051Y376500D01*
X147113Y376595D01*
X147178Y376688D01*
X147246Y376778D01*
X147317Y376866D01*
X147392Y376952D01*
X147469Y377035D01*
X147549Y377115D01*
X147632Y377192D01*
X147718Y377267D01*
X147806Y377338D01*
X147896Y377406D01*
X147989Y377471D01*
X148084Y377533D01*
X148181Y377591D01*
X148280Y377646D01*
X148381Y377697D01*
X148484Y377745D01*
X148588Y377790D01*
X148694Y377830D01*
X148801Y377867D01*
X148909Y377900D01*
X149019Y377930D01*
X149129Y377955D01*
X149240Y377977D01*
X149352Y377994D01*
X149465Y378008D01*
X149578Y378018D01*
X149691Y378024D01*
X149804Y378026D01*
X149917Y378024D01*
X150030Y378018D01*
X150143Y378008D01*
X150256Y377994D01*
X150368Y377977D01*
X150479Y377955D01*
X150589Y377930D01*
X150699Y377900D01*
X150807Y377867D01*
X150914Y377830D01*
X151020Y377790D01*
X151124Y377745D01*
X151227Y377697D01*
X151328Y377646D01*
X151427Y377591D01*
X151524Y377533D01*
X151619Y377471D01*
X151712Y377406D01*
X151802Y377338D01*
X151890Y377267D01*
X151976Y377192D01*
X152059Y377115D01*
X152139Y377035D01*
X152216Y376952D01*
X152291Y376866D01*
X152362Y376778D01*
X152430Y376688D01*
X152495Y376595D01*
X152557Y376500D01*
X152615Y376403D01*
X152670Y376304D01*
X152721Y376203D01*
X152769Y376100D01*
X152814Y375996D01*
X152854Y375890D01*
X152891Y375783D01*
X152924Y375675D01*
X152954Y375565D01*
X152979Y375455D01*
X153001Y375344D01*
X153018Y375232D01*
X153032Y375119D01*
X153042Y375006D01*
X153048Y374893D01*
X153050Y374780D01*
X153049Y374780D02*
X153049Y371535D01*
X153049Y375429D02*
X158242Y378026D01*
X158242Y382891D02*
X158242Y386786D01*
X158240Y386885D01*
X158234Y386985D01*
X158225Y387084D01*
X158212Y387182D01*
X158195Y387280D01*
X158174Y387378D01*
X158149Y387474D01*
X158121Y387569D01*
X158089Y387663D01*
X158054Y387756D01*
X158015Y387848D01*
X157972Y387938D01*
X157927Y388026D01*
X157877Y388113D01*
X157825Y388197D01*
X157769Y388280D01*
X157711Y388360D01*
X157649Y388438D01*
X157584Y388513D01*
X157516Y388586D01*
X157446Y388656D01*
X157373Y388724D01*
X157298Y388789D01*
X157220Y388851D01*
X157140Y388909D01*
X157057Y388965D01*
X156973Y389017D01*
X156886Y389067D01*
X156798Y389112D01*
X156708Y389155D01*
X156616Y389194D01*
X156523Y389229D01*
X156429Y389261D01*
X156334Y389289D01*
X156238Y389314D01*
X156140Y389335D01*
X156042Y389352D01*
X155944Y389365D01*
X155845Y389374D01*
X155745Y389380D01*
X155646Y389382D01*
X154347Y389382D01*
X154248Y389380D01*
X154148Y389374D01*
X154049Y389365D01*
X153951Y389352D01*
X153853Y389335D01*
X153755Y389314D01*
X153659Y389289D01*
X153564Y389261D01*
X153470Y389229D01*
X153377Y389194D01*
X153285Y389155D01*
X153195Y389112D01*
X153107Y389067D01*
X153020Y389017D01*
X152936Y388965D01*
X152853Y388909D01*
X152773Y388851D01*
X152695Y388789D01*
X152620Y388724D01*
X152547Y388656D01*
X152477Y388586D01*
X152409Y388513D01*
X152344Y388438D01*
X152282Y388360D01*
X152224Y388280D01*
X152168Y388197D01*
X152116Y388113D01*
X152066Y388026D01*
X152021Y387938D01*
X151978Y387848D01*
X151939Y387756D01*
X151904Y387663D01*
X151872Y387569D01*
X151844Y387474D01*
X151819Y387378D01*
X151798Y387280D01*
X151781Y387182D01*
X151768Y387084D01*
X151759Y386985D01*
X151753Y386885D01*
X151751Y386786D01*
X151751Y382891D01*
X146558Y382891D01*
X146558Y389382D01*
X82042Y375158D02*
X70358Y375158D01*
X70358Y378404D01*
X70360Y378517D01*
X70366Y378630D01*
X70376Y378743D01*
X70390Y378856D01*
X70407Y378968D01*
X70429Y379079D01*
X70454Y379189D01*
X70484Y379299D01*
X70517Y379407D01*
X70554Y379514D01*
X70594Y379620D01*
X70639Y379724D01*
X70687Y379827D01*
X70738Y379928D01*
X70793Y380027D01*
X70851Y380124D01*
X70913Y380219D01*
X70978Y380312D01*
X71046Y380402D01*
X71117Y380490D01*
X71192Y380576D01*
X71269Y380659D01*
X71349Y380739D01*
X71432Y380816D01*
X71518Y380891D01*
X71606Y380962D01*
X71696Y381030D01*
X71789Y381095D01*
X71884Y381157D01*
X71981Y381215D01*
X72080Y381270D01*
X72181Y381321D01*
X72284Y381369D01*
X72388Y381414D01*
X72494Y381454D01*
X72601Y381491D01*
X72709Y381524D01*
X72819Y381554D01*
X72929Y381579D01*
X73040Y381601D01*
X73152Y381618D01*
X73265Y381632D01*
X73378Y381642D01*
X73491Y381648D01*
X73604Y381650D01*
X73717Y381648D01*
X73830Y381642D01*
X73943Y381632D01*
X74056Y381618D01*
X74168Y381601D01*
X74279Y381579D01*
X74389Y381554D01*
X74499Y381524D01*
X74607Y381491D01*
X74714Y381454D01*
X74820Y381414D01*
X74924Y381369D01*
X75027Y381321D01*
X75128Y381270D01*
X75227Y381215D01*
X75324Y381157D01*
X75419Y381095D01*
X75512Y381030D01*
X75602Y380962D01*
X75690Y380891D01*
X75776Y380816D01*
X75859Y380739D01*
X75939Y380659D01*
X76016Y380576D01*
X76091Y380490D01*
X76162Y380402D01*
X76230Y380312D01*
X76295Y380219D01*
X76357Y380124D01*
X76415Y380027D01*
X76470Y379928D01*
X76521Y379827D01*
X76569Y379724D01*
X76614Y379620D01*
X76654Y379514D01*
X76691Y379407D01*
X76724Y379299D01*
X76754Y379189D01*
X76779Y379079D01*
X76801Y378968D01*
X76818Y378856D01*
X76832Y378743D01*
X76842Y378630D01*
X76848Y378517D01*
X76850Y378404D01*
X76849Y378404D02*
X76849Y375158D01*
X76849Y379053D02*
X82042Y381649D01*
X75551Y386514D02*
X75551Y390409D01*
X75553Y390508D01*
X75559Y390608D01*
X75568Y390707D01*
X75581Y390805D01*
X75598Y390903D01*
X75619Y391001D01*
X75644Y391097D01*
X75672Y391192D01*
X75704Y391286D01*
X75739Y391379D01*
X75778Y391471D01*
X75821Y391561D01*
X75866Y391649D01*
X75916Y391736D01*
X75968Y391820D01*
X76024Y391903D01*
X76082Y391983D01*
X76144Y392061D01*
X76209Y392136D01*
X76277Y392209D01*
X76347Y392279D01*
X76420Y392347D01*
X76495Y392412D01*
X76573Y392474D01*
X76653Y392532D01*
X76736Y392588D01*
X76820Y392640D01*
X76907Y392690D01*
X76995Y392735D01*
X77085Y392778D01*
X77177Y392817D01*
X77270Y392852D01*
X77364Y392884D01*
X77459Y392912D01*
X77555Y392937D01*
X77653Y392958D01*
X77751Y392975D01*
X77849Y392988D01*
X77948Y392997D01*
X78048Y393003D01*
X78147Y393005D01*
X78796Y393005D01*
X78796Y393006D02*
X78909Y393004D01*
X79022Y392998D01*
X79135Y392988D01*
X79248Y392974D01*
X79360Y392957D01*
X79471Y392935D01*
X79581Y392910D01*
X79691Y392880D01*
X79799Y392847D01*
X79906Y392810D01*
X80012Y392770D01*
X80116Y392725D01*
X80219Y392677D01*
X80320Y392626D01*
X80419Y392571D01*
X80516Y392513D01*
X80611Y392451D01*
X80704Y392386D01*
X80794Y392318D01*
X80882Y392247D01*
X80968Y392172D01*
X81051Y392095D01*
X81131Y392015D01*
X81208Y391932D01*
X81283Y391846D01*
X81354Y391758D01*
X81422Y391668D01*
X81487Y391575D01*
X81549Y391480D01*
X81607Y391383D01*
X81662Y391284D01*
X81713Y391183D01*
X81761Y391080D01*
X81806Y390976D01*
X81846Y390870D01*
X81883Y390763D01*
X81916Y390655D01*
X81946Y390545D01*
X81971Y390435D01*
X81993Y390324D01*
X82010Y390212D01*
X82024Y390099D01*
X82034Y389986D01*
X82040Y389873D01*
X82042Y389760D01*
X82040Y389647D01*
X82034Y389534D01*
X82024Y389421D01*
X82010Y389308D01*
X81993Y389196D01*
X81971Y389085D01*
X81946Y388975D01*
X81916Y388865D01*
X81883Y388757D01*
X81846Y388650D01*
X81806Y388544D01*
X81761Y388440D01*
X81713Y388337D01*
X81662Y388236D01*
X81607Y388137D01*
X81549Y388040D01*
X81487Y387945D01*
X81422Y387852D01*
X81354Y387762D01*
X81283Y387674D01*
X81208Y387588D01*
X81131Y387505D01*
X81051Y387425D01*
X80968Y387348D01*
X80882Y387273D01*
X80794Y387202D01*
X80704Y387134D01*
X80611Y387069D01*
X80516Y387007D01*
X80419Y386949D01*
X80320Y386894D01*
X80219Y386843D01*
X80116Y386795D01*
X80012Y386750D01*
X79906Y386710D01*
X79799Y386673D01*
X79691Y386640D01*
X79581Y386610D01*
X79471Y386585D01*
X79360Y386563D01*
X79248Y386546D01*
X79135Y386532D01*
X79022Y386522D01*
X78909Y386516D01*
X78796Y386514D01*
X75551Y386514D01*
X75408Y386516D01*
X75265Y386522D01*
X75122Y386532D01*
X74980Y386546D01*
X74838Y386563D01*
X74696Y386585D01*
X74555Y386610D01*
X74415Y386640D01*
X74276Y386673D01*
X74138Y386710D01*
X74001Y386751D01*
X73865Y386795D01*
X73730Y386844D01*
X73597Y386896D01*
X73465Y386951D01*
X73335Y387011D01*
X73206Y387074D01*
X73079Y387140D01*
X72955Y387210D01*
X72832Y387283D01*
X72711Y387360D01*
X72592Y387439D01*
X72476Y387523D01*
X72361Y387609D01*
X72250Y387698D01*
X72141Y387791D01*
X72034Y387886D01*
X71930Y387985D01*
X71829Y388086D01*
X71730Y388190D01*
X71635Y388296D01*
X71542Y388406D01*
X71453Y388517D01*
X71367Y388631D01*
X71284Y388748D01*
X71204Y388867D01*
X71127Y388988D01*
X71054Y389110D01*
X70984Y389235D01*
X70918Y389362D01*
X70855Y389491D01*
X70795Y389621D01*
X70740Y389753D01*
X70688Y389886D01*
X70639Y390021D01*
X70595Y390157D01*
X70554Y390294D01*
X70517Y390432D01*
X70484Y390571D01*
X70454Y390711D01*
X70429Y390852D01*
X70407Y390994D01*
X70390Y391136D01*
X70376Y391278D01*
X70366Y391421D01*
X70360Y391564D01*
X70358Y391707D01*
X56642Y375158D02*
X44958Y375158D01*
X44958Y378404D01*
X44960Y378517D01*
X44966Y378630D01*
X44976Y378743D01*
X44990Y378856D01*
X45007Y378968D01*
X45029Y379079D01*
X45054Y379189D01*
X45084Y379299D01*
X45117Y379407D01*
X45154Y379514D01*
X45194Y379620D01*
X45239Y379724D01*
X45287Y379827D01*
X45338Y379928D01*
X45393Y380027D01*
X45451Y380124D01*
X45513Y380219D01*
X45578Y380312D01*
X45646Y380402D01*
X45717Y380490D01*
X45792Y380576D01*
X45869Y380659D01*
X45949Y380739D01*
X46032Y380816D01*
X46118Y380891D01*
X46206Y380962D01*
X46296Y381030D01*
X46389Y381095D01*
X46484Y381157D01*
X46581Y381215D01*
X46680Y381270D01*
X46781Y381321D01*
X46884Y381369D01*
X46988Y381414D01*
X47094Y381454D01*
X47201Y381491D01*
X47309Y381524D01*
X47419Y381554D01*
X47529Y381579D01*
X47640Y381601D01*
X47752Y381618D01*
X47865Y381632D01*
X47978Y381642D01*
X48091Y381648D01*
X48204Y381650D01*
X48317Y381648D01*
X48430Y381642D01*
X48543Y381632D01*
X48656Y381618D01*
X48768Y381601D01*
X48879Y381579D01*
X48989Y381554D01*
X49099Y381524D01*
X49207Y381491D01*
X49314Y381454D01*
X49420Y381414D01*
X49524Y381369D01*
X49627Y381321D01*
X49728Y381270D01*
X49827Y381215D01*
X49924Y381157D01*
X50019Y381095D01*
X50112Y381030D01*
X50202Y380962D01*
X50290Y380891D01*
X50376Y380816D01*
X50459Y380739D01*
X50539Y380659D01*
X50616Y380576D01*
X50691Y380490D01*
X50762Y380402D01*
X50830Y380312D01*
X50895Y380219D01*
X50957Y380124D01*
X51015Y380027D01*
X51070Y379928D01*
X51121Y379827D01*
X51169Y379724D01*
X51214Y379620D01*
X51254Y379514D01*
X51291Y379407D01*
X51324Y379299D01*
X51354Y379189D01*
X51379Y379079D01*
X51401Y378968D01*
X51418Y378856D01*
X51432Y378743D01*
X51442Y378630D01*
X51448Y378517D01*
X51450Y378404D01*
X51449Y378404D02*
X51449Y375158D01*
X51449Y379053D02*
X56642Y381649D01*
X46256Y386514D02*
X44958Y386514D01*
X44958Y393005D01*
X56642Y389760D01*
D15*
X67250Y417600D03*
X59750Y417600D03*
D16*
X63500Y417600D03*
D14*
X56642Y408985D02*
X44958Y408985D01*
X44958Y412231D01*
X44960Y412344D01*
X44966Y412457D01*
X44976Y412570D01*
X44990Y412683D01*
X45007Y412795D01*
X45029Y412906D01*
X45054Y413016D01*
X45084Y413126D01*
X45117Y413234D01*
X45154Y413341D01*
X45194Y413447D01*
X45239Y413551D01*
X45287Y413654D01*
X45338Y413755D01*
X45393Y413854D01*
X45451Y413951D01*
X45513Y414046D01*
X45578Y414139D01*
X45646Y414229D01*
X45717Y414317D01*
X45792Y414403D01*
X45869Y414486D01*
X45949Y414566D01*
X46032Y414643D01*
X46118Y414718D01*
X46206Y414789D01*
X46296Y414857D01*
X46389Y414922D01*
X46484Y414984D01*
X46581Y415042D01*
X46680Y415097D01*
X46781Y415148D01*
X46884Y415196D01*
X46988Y415241D01*
X47094Y415281D01*
X47201Y415318D01*
X47309Y415351D01*
X47419Y415381D01*
X47529Y415406D01*
X47640Y415428D01*
X47752Y415445D01*
X47865Y415459D01*
X47978Y415469D01*
X48091Y415475D01*
X48204Y415477D01*
X48317Y415475D01*
X48430Y415469D01*
X48543Y415459D01*
X48656Y415445D01*
X48768Y415428D01*
X48879Y415406D01*
X48989Y415381D01*
X49099Y415351D01*
X49207Y415318D01*
X49314Y415281D01*
X49420Y415241D01*
X49524Y415196D01*
X49627Y415148D01*
X49728Y415097D01*
X49827Y415042D01*
X49924Y414984D01*
X50019Y414922D01*
X50112Y414857D01*
X50202Y414789D01*
X50290Y414718D01*
X50376Y414643D01*
X50459Y414566D01*
X50539Y414486D01*
X50616Y414403D01*
X50691Y414317D01*
X50762Y414229D01*
X50830Y414139D01*
X50895Y414046D01*
X50957Y413951D01*
X51015Y413854D01*
X51070Y413755D01*
X51121Y413654D01*
X51169Y413551D01*
X51214Y413447D01*
X51254Y413341D01*
X51291Y413234D01*
X51324Y413126D01*
X51354Y413016D01*
X51379Y412906D01*
X51401Y412795D01*
X51418Y412683D01*
X51432Y412570D01*
X51442Y412457D01*
X51448Y412344D01*
X51450Y412231D01*
X51449Y412231D02*
X51449Y408985D01*
X51449Y412880D02*
X56642Y415477D01*
X56642Y419693D02*
X44958Y427482D01*
X44958Y419693D02*
X56642Y427482D01*
D12*
X71600Y361900D02*
X71600Y353200D01*
X71600Y361900D02*
X131600Y361900D01*
X131600Y353200D01*
X71600Y332600D02*
X71600Y323900D01*
X131600Y323900D01*
X131600Y332600D01*
D13*
X54600Y343900D02*
X54602Y343963D01*
X54608Y344025D01*
X54618Y344087D01*
X54631Y344149D01*
X54649Y344209D01*
X54670Y344268D01*
X54695Y344326D01*
X54724Y344382D01*
X54756Y344436D01*
X54791Y344488D01*
X54829Y344537D01*
X54871Y344585D01*
X54915Y344629D01*
X54963Y344671D01*
X55012Y344709D01*
X55064Y344744D01*
X55118Y344776D01*
X55174Y344805D01*
X55232Y344830D01*
X55291Y344851D01*
X55351Y344869D01*
X55413Y344882D01*
X55475Y344892D01*
X55537Y344898D01*
X55600Y344900D01*
X55663Y344898D01*
X55725Y344892D01*
X55787Y344882D01*
X55849Y344869D01*
X55909Y344851D01*
X55968Y344830D01*
X56026Y344805D01*
X56082Y344776D01*
X56136Y344744D01*
X56188Y344709D01*
X56237Y344671D01*
X56285Y344629D01*
X56329Y344585D01*
X56371Y344537D01*
X56409Y344488D01*
X56444Y344436D01*
X56476Y344382D01*
X56505Y344326D01*
X56530Y344268D01*
X56551Y344209D01*
X56569Y344149D01*
X56582Y344087D01*
X56592Y344025D01*
X56598Y343963D01*
X56600Y343900D01*
X56598Y343837D01*
X56592Y343775D01*
X56582Y343713D01*
X56569Y343651D01*
X56551Y343591D01*
X56530Y343532D01*
X56505Y343474D01*
X56476Y343418D01*
X56444Y343364D01*
X56409Y343312D01*
X56371Y343263D01*
X56329Y343215D01*
X56285Y343171D01*
X56237Y343129D01*
X56188Y343091D01*
X56136Y343056D01*
X56082Y343024D01*
X56026Y342995D01*
X55968Y342970D01*
X55909Y342949D01*
X55849Y342931D01*
X55787Y342918D01*
X55725Y342908D01*
X55663Y342902D01*
X55600Y342900D01*
X55537Y342902D01*
X55475Y342908D01*
X55413Y342918D01*
X55351Y342931D01*
X55291Y342949D01*
X55232Y342970D01*
X55174Y342995D01*
X55118Y343024D01*
X55064Y343056D01*
X55012Y343091D01*
X54963Y343129D01*
X54915Y343171D01*
X54871Y343215D01*
X54829Y343263D01*
X54791Y343312D01*
X54756Y343364D01*
X54724Y343418D01*
X54695Y343474D01*
X54670Y343532D01*
X54649Y343591D01*
X54631Y343651D01*
X54618Y343713D01*
X54608Y343775D01*
X54602Y343837D01*
X54600Y343900D01*
D14*
X140203Y322688D02*
X140302Y322690D01*
X140402Y322696D01*
X140501Y322705D01*
X140599Y322718D01*
X140697Y322735D01*
X140795Y322756D01*
X140891Y322781D01*
X140986Y322809D01*
X141080Y322841D01*
X141173Y322876D01*
X141265Y322915D01*
X141355Y322958D01*
X141443Y323003D01*
X141530Y323053D01*
X141614Y323105D01*
X141697Y323161D01*
X141777Y323219D01*
X141855Y323281D01*
X141930Y323346D01*
X142003Y323414D01*
X142073Y323484D01*
X142141Y323557D01*
X142206Y323632D01*
X142268Y323710D01*
X142326Y323790D01*
X142382Y323873D01*
X142434Y323957D01*
X142484Y324044D01*
X142529Y324132D01*
X142572Y324222D01*
X142611Y324314D01*
X142646Y324407D01*
X142678Y324501D01*
X142706Y324596D01*
X142731Y324692D01*
X142752Y324790D01*
X142769Y324888D01*
X142782Y324986D01*
X142791Y325085D01*
X142797Y325185D01*
X142799Y325284D01*
X140203Y322688D02*
X140059Y322690D01*
X139914Y322696D01*
X139770Y322705D01*
X139627Y322718D01*
X139483Y322735D01*
X139340Y322756D01*
X139198Y322781D01*
X139057Y322809D01*
X138916Y322841D01*
X138776Y322877D01*
X138637Y322916D01*
X138499Y322959D01*
X138363Y323006D01*
X138227Y323056D01*
X138093Y323110D01*
X137961Y323167D01*
X137830Y323228D01*
X137701Y323292D01*
X137573Y323360D01*
X137447Y323430D01*
X137323Y323505D01*
X137202Y323582D01*
X137082Y323663D01*
X136964Y323746D01*
X136849Y323833D01*
X136736Y323923D01*
X136625Y324016D01*
X136517Y324111D01*
X136411Y324210D01*
X136308Y324311D01*
X136633Y331776D02*
X136635Y331875D01*
X136641Y331975D01*
X136650Y332074D01*
X136663Y332172D01*
X136680Y332270D01*
X136701Y332368D01*
X136726Y332464D01*
X136754Y332559D01*
X136786Y332653D01*
X136821Y332746D01*
X136860Y332838D01*
X136903Y332928D01*
X136948Y333016D01*
X136998Y333103D01*
X137050Y333187D01*
X137106Y333270D01*
X137164Y333350D01*
X137226Y333428D01*
X137291Y333503D01*
X137359Y333576D01*
X137429Y333646D01*
X137502Y333714D01*
X137577Y333779D01*
X137655Y333841D01*
X137735Y333899D01*
X137818Y333955D01*
X137902Y334007D01*
X137989Y334057D01*
X138077Y334102D01*
X138167Y334145D01*
X138259Y334184D01*
X138352Y334219D01*
X138446Y334251D01*
X138541Y334279D01*
X138638Y334304D01*
X138735Y334325D01*
X138833Y334342D01*
X138931Y334355D01*
X139030Y334364D01*
X139130Y334370D01*
X139229Y334372D01*
X139365Y334370D01*
X139501Y334364D01*
X139637Y334355D01*
X139773Y334342D01*
X139908Y334324D01*
X140042Y334304D01*
X140176Y334279D01*
X140310Y334251D01*
X140442Y334218D01*
X140573Y334183D01*
X140704Y334143D01*
X140833Y334100D01*
X140961Y334054D01*
X141087Y334003D01*
X141213Y333950D01*
X141336Y333892D01*
X141458Y333832D01*
X141578Y333768D01*
X141697Y333700D01*
X141813Y333630D01*
X141927Y333556D01*
X142040Y333479D01*
X142150Y333398D01*
X137931Y329504D02*
X137845Y329557D01*
X137761Y329614D01*
X137679Y329673D01*
X137599Y329736D01*
X137522Y329802D01*
X137447Y329870D01*
X137375Y329942D01*
X137306Y330016D01*
X137240Y330093D01*
X137177Y330172D01*
X137117Y330254D01*
X137060Y330338D01*
X137006Y330424D01*
X136956Y330512D01*
X136909Y330602D01*
X136865Y330693D01*
X136826Y330787D01*
X136789Y330881D01*
X136757Y330977D01*
X136728Y331075D01*
X136703Y331173D01*
X136682Y331272D01*
X136664Y331372D01*
X136651Y331472D01*
X136641Y331573D01*
X136635Y331675D01*
X136633Y331776D01*
X141501Y327556D02*
X141587Y327503D01*
X141671Y327446D01*
X141753Y327387D01*
X141833Y327324D01*
X141910Y327258D01*
X141985Y327190D01*
X142057Y327118D01*
X142126Y327044D01*
X142192Y326967D01*
X142255Y326888D01*
X142315Y326806D01*
X142372Y326722D01*
X142426Y326636D01*
X142476Y326548D01*
X142523Y326458D01*
X142567Y326367D01*
X142606Y326273D01*
X142643Y326179D01*
X142675Y326083D01*
X142704Y325985D01*
X142729Y325887D01*
X142750Y325788D01*
X142768Y325688D01*
X142781Y325588D01*
X142791Y325487D01*
X142797Y325385D01*
X142799Y325284D01*
X141501Y327556D02*
X137931Y329504D01*
X147357Y331776D02*
X150603Y334372D01*
X150603Y322688D01*
X153848Y322688D02*
X147357Y322688D01*
D15*
X92650Y417600D03*
X85150Y417600D03*
D16*
X88900Y417600D03*
D14*
X82042Y407839D02*
X70358Y407839D01*
X70358Y404594D02*
X70358Y411085D01*
X70358Y422402D02*
X82042Y414613D01*
X82042Y422402D02*
X70358Y414613D01*
D10*
X98210Y256279D02*
X100236Y251360D01*
X95317Y253386D01*
X101647Y245898D02*
X106855Y251107D01*
X105408Y252553D02*
X108302Y249660D01*
X109117Y245951D02*
X106802Y243636D01*
X109117Y245951D02*
X109182Y246012D01*
X109249Y246071D01*
X109318Y246127D01*
X109390Y246180D01*
X109465Y246230D01*
X109541Y246276D01*
X109619Y246319D01*
X109699Y246358D01*
X109781Y246394D01*
X109864Y246427D01*
X109949Y246455D01*
X110034Y246480D01*
X110121Y246502D01*
X110209Y246519D01*
X110297Y246532D01*
X110386Y246542D01*
X110475Y246548D01*
X110564Y246550D01*
X110653Y246548D01*
X110742Y246542D01*
X110831Y246532D01*
X110919Y246519D01*
X111007Y246502D01*
X111094Y246480D01*
X111179Y246455D01*
X111264Y246427D01*
X111347Y246394D01*
X111429Y246358D01*
X111509Y246319D01*
X111587Y246276D01*
X111663Y246230D01*
X111738Y246180D01*
X111810Y246127D01*
X111879Y246071D01*
X111946Y246012D01*
X112011Y245951D01*
X112072Y245886D01*
X112131Y245819D01*
X112187Y245750D01*
X112240Y245678D01*
X112290Y245603D01*
X112336Y245527D01*
X112379Y245449D01*
X112418Y245369D01*
X112454Y245287D01*
X112487Y245204D01*
X112515Y245119D01*
X112540Y245034D01*
X112562Y244947D01*
X112579Y244859D01*
X112592Y244771D01*
X112602Y244682D01*
X112608Y244593D01*
X112610Y244504D01*
X112608Y244415D01*
X112602Y244326D01*
X112592Y244237D01*
X112579Y244149D01*
X112561Y244061D01*
X112540Y243974D01*
X112515Y243889D01*
X112487Y243804D01*
X112454Y243721D01*
X112418Y243639D01*
X112379Y243559D01*
X112336Y243481D01*
X112290Y243405D01*
X112240Y243330D01*
X112187Y243258D01*
X112131Y243189D01*
X112072Y243122D01*
X112011Y243057D01*
X109696Y240742D01*
X109631Y240681D01*
X109564Y240622D01*
X109495Y240566D01*
X109423Y240513D01*
X109348Y240463D01*
X109272Y240417D01*
X109194Y240374D01*
X109114Y240335D01*
X109032Y240299D01*
X108949Y240266D01*
X108864Y240238D01*
X108779Y240213D01*
X108692Y240191D01*
X108604Y240174D01*
X108516Y240161D01*
X108427Y240151D01*
X108338Y240145D01*
X108249Y240143D01*
X108160Y240145D01*
X108071Y240151D01*
X107982Y240161D01*
X107894Y240174D01*
X107806Y240191D01*
X107719Y240213D01*
X107634Y240238D01*
X107549Y240266D01*
X107466Y240299D01*
X107384Y240335D01*
X107304Y240374D01*
X107226Y240417D01*
X107150Y240463D01*
X107075Y240513D01*
X107003Y240566D01*
X106934Y240622D01*
X106867Y240681D01*
X106802Y240742D01*
X106741Y240807D01*
X106682Y240874D01*
X106626Y240943D01*
X106573Y241015D01*
X106523Y241090D01*
X106477Y241166D01*
X106434Y241244D01*
X106395Y241324D01*
X106359Y241406D01*
X106326Y241489D01*
X106298Y241574D01*
X106273Y241659D01*
X106252Y241746D01*
X106234Y241834D01*
X106221Y241922D01*
X106211Y242011D01*
X106205Y242100D01*
X106203Y242189D01*
X106205Y242278D01*
X106211Y242367D01*
X106221Y242456D01*
X106234Y242544D01*
X106251Y242632D01*
X106273Y242719D01*
X106298Y242804D01*
X106326Y242889D01*
X106359Y242972D01*
X106395Y243054D01*
X106434Y243134D01*
X106477Y243212D01*
X106523Y243288D01*
X106573Y243363D01*
X106626Y243435D01*
X106682Y243504D01*
X106741Y243571D01*
X106802Y243636D01*
X108828Y241032D02*
X108828Y238717D01*
X110556Y236988D02*
X115765Y242197D01*
X118080Y239882D01*
X115765Y237567D02*
X113450Y239882D01*
X120320Y237642D02*
X115111Y232433D01*
X120320Y237642D02*
X121767Y236195D01*
X121828Y236130D01*
X121887Y236063D01*
X121943Y235994D01*
X121996Y235922D01*
X122046Y235847D01*
X122092Y235771D01*
X122135Y235693D01*
X122174Y235613D01*
X122210Y235531D01*
X122243Y235448D01*
X122271Y235363D01*
X122296Y235278D01*
X122318Y235191D01*
X122335Y235103D01*
X122348Y235015D01*
X122358Y234926D01*
X122364Y234837D01*
X122366Y234748D01*
X122364Y234659D01*
X122358Y234570D01*
X122348Y234481D01*
X122335Y234393D01*
X122318Y234305D01*
X122296Y234218D01*
X122271Y234133D01*
X122243Y234048D01*
X122210Y233965D01*
X122174Y233883D01*
X122135Y233803D01*
X122092Y233725D01*
X122046Y233649D01*
X121996Y233574D01*
X121943Y233502D01*
X121887Y233433D01*
X121828Y233366D01*
X121767Y233301D01*
X121702Y233240D01*
X121635Y233181D01*
X121566Y233125D01*
X121494Y233072D01*
X121419Y233022D01*
X121343Y232976D01*
X121265Y232933D01*
X121185Y232894D01*
X121103Y232858D01*
X121020Y232825D01*
X120935Y232797D01*
X120850Y232772D01*
X120763Y232750D01*
X120675Y232733D01*
X120587Y232720D01*
X120498Y232710D01*
X120409Y232704D01*
X120320Y232702D01*
X120231Y232704D01*
X120142Y232710D01*
X120053Y232720D01*
X119965Y232733D01*
X119877Y232750D01*
X119790Y232772D01*
X119705Y232797D01*
X119620Y232825D01*
X119537Y232858D01*
X119455Y232894D01*
X119375Y232933D01*
X119297Y232976D01*
X119221Y233022D01*
X119146Y233072D01*
X119074Y233125D01*
X119005Y233181D01*
X118938Y233240D01*
X118873Y233301D01*
X117426Y234748D01*
X120028Y227516D02*
X121475Y226070D01*
X121475Y226069D02*
X121540Y226008D01*
X121607Y225949D01*
X121676Y225893D01*
X121748Y225840D01*
X121823Y225790D01*
X121899Y225744D01*
X121977Y225701D01*
X122057Y225662D01*
X122139Y225626D01*
X122222Y225593D01*
X122307Y225565D01*
X122392Y225540D01*
X122479Y225519D01*
X122567Y225501D01*
X122655Y225488D01*
X122744Y225478D01*
X122833Y225472D01*
X122922Y225470D01*
X123011Y225472D01*
X123100Y225478D01*
X123189Y225488D01*
X123277Y225501D01*
X123365Y225518D01*
X123452Y225540D01*
X123537Y225565D01*
X123622Y225593D01*
X123705Y225626D01*
X123787Y225662D01*
X123867Y225701D01*
X123945Y225744D01*
X124021Y225790D01*
X124096Y225840D01*
X124168Y225893D01*
X124237Y225949D01*
X124304Y226008D01*
X124369Y226069D01*
X124430Y226134D01*
X124489Y226201D01*
X124545Y226270D01*
X124598Y226342D01*
X124648Y226417D01*
X124694Y226493D01*
X124737Y226571D01*
X124776Y226651D01*
X124812Y226733D01*
X124845Y226816D01*
X124873Y226901D01*
X124898Y226986D01*
X124920Y227073D01*
X124937Y227161D01*
X124950Y227249D01*
X124960Y227338D01*
X124966Y227427D01*
X124968Y227516D01*
X124966Y227605D01*
X124960Y227694D01*
X124950Y227783D01*
X124937Y227871D01*
X124919Y227959D01*
X124898Y228046D01*
X124873Y228131D01*
X124845Y228216D01*
X124812Y228299D01*
X124776Y228381D01*
X124737Y228461D01*
X124694Y228539D01*
X124648Y228615D01*
X124598Y228690D01*
X124545Y228762D01*
X124489Y228831D01*
X124430Y228898D01*
X124369Y228963D01*
X126973Y230989D02*
X125237Y232725D01*
X126973Y230989D02*
X127028Y230930D01*
X127080Y230870D01*
X127130Y230806D01*
X127176Y230740D01*
X127219Y230673D01*
X127259Y230603D01*
X127295Y230531D01*
X127327Y230457D01*
X127356Y230382D01*
X127382Y230306D01*
X127403Y230229D01*
X127421Y230150D01*
X127434Y230071D01*
X127444Y229991D01*
X127450Y229911D01*
X127452Y229831D01*
X127450Y229751D01*
X127444Y229671D01*
X127434Y229591D01*
X127421Y229512D01*
X127403Y229433D01*
X127382Y229356D01*
X127356Y229280D01*
X127327Y229205D01*
X127295Y229131D01*
X127259Y229059D01*
X127219Y228989D01*
X127176Y228922D01*
X127130Y228856D01*
X127080Y228793D01*
X127028Y228732D01*
X126973Y228673D01*
X126914Y228618D01*
X126854Y228566D01*
X126790Y228516D01*
X126724Y228470D01*
X126657Y228427D01*
X126587Y228387D01*
X126515Y228351D01*
X126441Y228319D01*
X126367Y228290D01*
X126290Y228264D01*
X126213Y228243D01*
X126134Y228225D01*
X126055Y228212D01*
X125975Y228202D01*
X125895Y228196D01*
X125815Y228194D01*
X125735Y228196D01*
X125655Y228202D01*
X125575Y228212D01*
X125496Y228225D01*
X125417Y228243D01*
X125340Y228264D01*
X125264Y228290D01*
X125189Y228319D01*
X125115Y228351D01*
X125043Y228387D01*
X124973Y228427D01*
X124906Y228470D01*
X124840Y228516D01*
X124777Y228566D01*
X124716Y228618D01*
X124657Y228673D01*
X124658Y228674D02*
X123500Y229831D01*
X132001Y225961D02*
X132059Y225899D01*
X132115Y225835D01*
X132168Y225769D01*
X132218Y225699D01*
X132264Y225628D01*
X132307Y225555D01*
X132347Y225480D01*
X132383Y225403D01*
X132416Y225324D01*
X132445Y225244D01*
X132470Y225163D01*
X132491Y225081D01*
X132509Y224997D01*
X132522Y224913D01*
X132532Y224829D01*
X132538Y224744D01*
X132540Y224659D01*
X132538Y224574D01*
X132532Y224489D01*
X132522Y224405D01*
X132509Y224321D01*
X132491Y224237D01*
X132470Y224155D01*
X132445Y224074D01*
X132416Y223994D01*
X132383Y223915D01*
X132347Y223838D01*
X132307Y223763D01*
X132264Y223690D01*
X132218Y223619D01*
X132168Y223550D01*
X132115Y223483D01*
X132059Y223419D01*
X132001Y223357D01*
X132001Y225961D02*
X131932Y226028D01*
X131860Y226091D01*
X131785Y226152D01*
X131709Y226209D01*
X131630Y226264D01*
X131548Y226315D01*
X131465Y226363D01*
X131380Y226407D01*
X131293Y226448D01*
X131205Y226485D01*
X131115Y226519D01*
X131024Y226549D01*
X130932Y226576D01*
X130838Y226598D01*
X130744Y226617D01*
X130650Y226632D01*
X130554Y226643D01*
X130459Y226650D01*
X130363Y226654D01*
X130267Y226653D01*
X130171Y226649D01*
X130075Y226640D01*
X129980Y226628D01*
X129885Y226612D01*
X129791Y226592D01*
X129698Y226569D01*
X129606Y226541D01*
X129516Y226510D01*
X129426Y226475D01*
X129338Y226437D01*
X129252Y226395D01*
X130554Y222778D02*
X130638Y222777D01*
X130722Y222781D01*
X130806Y222788D01*
X130890Y222798D01*
X130973Y222812D01*
X131056Y222830D01*
X131137Y222851D01*
X131218Y222875D01*
X131297Y222903D01*
X131376Y222935D01*
X131452Y222969D01*
X131528Y223007D01*
X131601Y223048D01*
X131673Y223092D01*
X131743Y223139D01*
X131811Y223189D01*
X131877Y223242D01*
X131940Y223298D01*
X132001Y223356D01*
X130554Y222778D02*
X125201Y222344D01*
X128094Y219450D01*
D12*
X99535Y268961D02*
X99537Y269036D01*
X99543Y269110D01*
X99553Y269184D01*
X99566Y269257D01*
X99584Y269330D01*
X99605Y269401D01*
X99630Y269472D01*
X99659Y269541D01*
X99692Y269608D01*
X99728Y269673D01*
X99767Y269737D01*
X99809Y269798D01*
X99855Y269857D01*
X99904Y269914D01*
X99956Y269967D01*
X100010Y270018D01*
X100067Y270067D01*
X100127Y270111D01*
X100189Y270153D01*
X100253Y270192D01*
X100319Y270227D01*
X100386Y270258D01*
X100456Y270286D01*
X100526Y270310D01*
X100598Y270331D01*
X100671Y270347D01*
X100744Y270360D01*
X100819Y270369D01*
X100893Y270374D01*
X100968Y270375D01*
X101042Y270372D01*
X101117Y270365D01*
X101190Y270354D01*
X101264Y270340D01*
X101336Y270321D01*
X101407Y270299D01*
X101477Y270273D01*
X101546Y270243D01*
X101612Y270210D01*
X101677Y270173D01*
X101740Y270133D01*
X101801Y270089D01*
X101859Y270043D01*
X101915Y269993D01*
X101968Y269941D01*
X102019Y269886D01*
X102066Y269828D01*
X102110Y269768D01*
X102151Y269705D01*
X102189Y269641D01*
X102223Y269575D01*
X102254Y269506D01*
X102281Y269437D01*
X102304Y269366D01*
X102323Y269294D01*
X102339Y269221D01*
X102351Y269147D01*
X102359Y269073D01*
X102363Y268998D01*
X102363Y268924D01*
X102359Y268849D01*
X102351Y268775D01*
X102339Y268701D01*
X102323Y268628D01*
X102304Y268556D01*
X102281Y268485D01*
X102254Y268416D01*
X102223Y268347D01*
X102189Y268281D01*
X102151Y268217D01*
X102110Y268154D01*
X102066Y268094D01*
X102019Y268036D01*
X101968Y267981D01*
X101915Y267929D01*
X101859Y267879D01*
X101801Y267833D01*
X101740Y267789D01*
X101677Y267749D01*
X101612Y267712D01*
X101546Y267679D01*
X101477Y267649D01*
X101407Y267623D01*
X101336Y267601D01*
X101264Y267582D01*
X101190Y267568D01*
X101117Y267557D01*
X101042Y267550D01*
X100968Y267547D01*
X100893Y267548D01*
X100819Y267553D01*
X100744Y267562D01*
X100671Y267575D01*
X100598Y267591D01*
X100526Y267612D01*
X100456Y267636D01*
X100386Y267664D01*
X100319Y267695D01*
X100253Y267730D01*
X100189Y267769D01*
X100127Y267811D01*
X100067Y267855D01*
X100010Y267904D01*
X99956Y267955D01*
X99904Y268008D01*
X99855Y268065D01*
X99809Y268124D01*
X99767Y268185D01*
X99728Y268249D01*
X99692Y268314D01*
X99659Y268381D01*
X99630Y268450D01*
X99605Y268521D01*
X99584Y268592D01*
X99566Y268665D01*
X99553Y268738D01*
X99543Y268812D01*
X99537Y268886D01*
X99535Y268961D01*
D15*
X135950Y420600D03*
X143450Y420600D03*
D16*
X139700Y420600D03*
D14*
X129596Y395478D02*
X121158Y395478D01*
X129596Y395478D02*
X129709Y395480D01*
X129822Y395486D01*
X129935Y395496D01*
X130048Y395510D01*
X130160Y395527D01*
X130271Y395549D01*
X130381Y395574D01*
X130491Y395604D01*
X130599Y395637D01*
X130706Y395674D01*
X130812Y395714D01*
X130916Y395759D01*
X131019Y395807D01*
X131120Y395858D01*
X131219Y395913D01*
X131316Y395971D01*
X131411Y396033D01*
X131504Y396098D01*
X131594Y396166D01*
X131682Y396237D01*
X131768Y396312D01*
X131851Y396389D01*
X131931Y396469D01*
X132008Y396552D01*
X132083Y396638D01*
X132154Y396726D01*
X132222Y396816D01*
X132287Y396909D01*
X132349Y397004D01*
X132407Y397101D01*
X132462Y397200D01*
X132513Y397301D01*
X132561Y397404D01*
X132606Y397508D01*
X132646Y397614D01*
X132683Y397721D01*
X132716Y397829D01*
X132746Y397939D01*
X132771Y398049D01*
X132793Y398160D01*
X132810Y398272D01*
X132824Y398385D01*
X132834Y398498D01*
X132840Y398611D01*
X132842Y398724D01*
X132840Y398837D01*
X132834Y398950D01*
X132824Y399063D01*
X132810Y399176D01*
X132793Y399288D01*
X132771Y399399D01*
X132746Y399509D01*
X132716Y399619D01*
X132683Y399727D01*
X132646Y399834D01*
X132606Y399940D01*
X132561Y400044D01*
X132513Y400147D01*
X132462Y400248D01*
X132407Y400347D01*
X132349Y400444D01*
X132287Y400539D01*
X132222Y400632D01*
X132154Y400722D01*
X132083Y400810D01*
X132008Y400896D01*
X131931Y400979D01*
X131851Y401059D01*
X131768Y401136D01*
X131682Y401211D01*
X131594Y401282D01*
X131504Y401350D01*
X131411Y401415D01*
X131316Y401477D01*
X131219Y401535D01*
X131120Y401590D01*
X131019Y401641D01*
X130916Y401689D01*
X130812Y401734D01*
X130706Y401774D01*
X130599Y401811D01*
X130491Y401844D01*
X130381Y401874D01*
X130271Y401899D01*
X130160Y401921D01*
X130048Y401938D01*
X129935Y401952D01*
X129822Y401962D01*
X129709Y401968D01*
X129596Y401970D01*
X129596Y401969D02*
X121158Y401969D01*
X130246Y413399D02*
X130345Y413397D01*
X130445Y413391D01*
X130544Y413382D01*
X130642Y413369D01*
X130740Y413352D01*
X130838Y413331D01*
X130934Y413306D01*
X131029Y413278D01*
X131123Y413246D01*
X131216Y413211D01*
X131308Y413172D01*
X131398Y413129D01*
X131486Y413084D01*
X131573Y413034D01*
X131657Y412982D01*
X131740Y412926D01*
X131820Y412868D01*
X131898Y412806D01*
X131973Y412741D01*
X132046Y412673D01*
X132116Y412603D01*
X132184Y412530D01*
X132249Y412455D01*
X132311Y412377D01*
X132369Y412297D01*
X132425Y412214D01*
X132477Y412130D01*
X132527Y412043D01*
X132572Y411955D01*
X132615Y411865D01*
X132654Y411773D01*
X132689Y411680D01*
X132721Y411586D01*
X132749Y411491D01*
X132774Y411395D01*
X132795Y411297D01*
X132812Y411199D01*
X132825Y411101D01*
X132834Y411002D01*
X132840Y410902D01*
X132842Y410803D01*
X132840Y410659D01*
X132834Y410514D01*
X132825Y410370D01*
X132812Y410227D01*
X132795Y410083D01*
X132774Y409940D01*
X132749Y409798D01*
X132721Y409657D01*
X132689Y409516D01*
X132653Y409376D01*
X132614Y409237D01*
X132571Y409099D01*
X132524Y408963D01*
X132474Y408827D01*
X132420Y408693D01*
X132363Y408561D01*
X132302Y408430D01*
X132238Y408301D01*
X132170Y408173D01*
X132100Y408047D01*
X132025Y407923D01*
X131948Y407802D01*
X131867Y407682D01*
X131784Y407564D01*
X131697Y407449D01*
X131607Y407336D01*
X131514Y407225D01*
X131419Y407117D01*
X131320Y407011D01*
X131219Y406908D01*
X123754Y407233D02*
X123655Y407235D01*
X123555Y407241D01*
X123456Y407250D01*
X123358Y407263D01*
X123260Y407280D01*
X123162Y407301D01*
X123066Y407326D01*
X122971Y407354D01*
X122877Y407386D01*
X122784Y407421D01*
X122692Y407460D01*
X122602Y407503D01*
X122514Y407548D01*
X122427Y407598D01*
X122343Y407650D01*
X122260Y407706D01*
X122180Y407764D01*
X122102Y407826D01*
X122027Y407891D01*
X121954Y407959D01*
X121884Y408029D01*
X121816Y408102D01*
X121751Y408177D01*
X121689Y408255D01*
X121631Y408335D01*
X121575Y408418D01*
X121523Y408502D01*
X121473Y408589D01*
X121428Y408677D01*
X121385Y408767D01*
X121346Y408859D01*
X121311Y408952D01*
X121279Y409046D01*
X121251Y409141D01*
X121226Y409237D01*
X121205Y409335D01*
X121188Y409433D01*
X121175Y409531D01*
X121166Y409630D01*
X121160Y409730D01*
X121158Y409829D01*
X121160Y409965D01*
X121166Y410101D01*
X121175Y410237D01*
X121188Y410373D01*
X121206Y410508D01*
X121226Y410642D01*
X121251Y410776D01*
X121279Y410910D01*
X121312Y411042D01*
X121347Y411173D01*
X121387Y411304D01*
X121430Y411433D01*
X121476Y411561D01*
X121527Y411687D01*
X121580Y411813D01*
X121638Y411936D01*
X121698Y412058D01*
X121762Y412178D01*
X121830Y412297D01*
X121900Y412413D01*
X121974Y412527D01*
X122051Y412640D01*
X122132Y412750D01*
X126026Y408530D02*
X125973Y408444D01*
X125916Y408360D01*
X125857Y408278D01*
X125794Y408198D01*
X125728Y408121D01*
X125660Y408046D01*
X125588Y407974D01*
X125514Y407905D01*
X125437Y407839D01*
X125358Y407776D01*
X125276Y407716D01*
X125192Y407659D01*
X125106Y407605D01*
X125018Y407555D01*
X124928Y407508D01*
X124837Y407464D01*
X124743Y407425D01*
X124649Y407388D01*
X124553Y407356D01*
X124455Y407327D01*
X124357Y407302D01*
X124258Y407281D01*
X124158Y407263D01*
X124058Y407250D01*
X123957Y407240D01*
X123855Y407234D01*
X123754Y407232D01*
X127974Y412101D02*
X128027Y412187D01*
X128084Y412271D01*
X128143Y412353D01*
X128206Y412433D01*
X128272Y412510D01*
X128340Y412585D01*
X128412Y412657D01*
X128486Y412726D01*
X128563Y412792D01*
X128642Y412855D01*
X128724Y412915D01*
X128808Y412972D01*
X128894Y413026D01*
X128982Y413076D01*
X129072Y413123D01*
X129163Y413167D01*
X129257Y413206D01*
X129351Y413243D01*
X129447Y413275D01*
X129545Y413304D01*
X129643Y413329D01*
X129742Y413350D01*
X129842Y413368D01*
X129942Y413381D01*
X130043Y413391D01*
X130145Y413397D01*
X130246Y413399D01*
X127974Y412101D02*
X126026Y408531D01*
X132842Y418361D02*
X132842Y423553D01*
X132842Y418361D02*
X121158Y418361D01*
X121158Y423553D01*
X126351Y422255D02*
X126351Y418361D01*
X121158Y428318D02*
X132842Y428318D01*
X121158Y428318D02*
X121158Y431563D01*
X121160Y431676D01*
X121166Y431789D01*
X121176Y431902D01*
X121190Y432015D01*
X121207Y432127D01*
X121229Y432238D01*
X121254Y432348D01*
X121284Y432458D01*
X121317Y432566D01*
X121354Y432673D01*
X121394Y432779D01*
X121439Y432883D01*
X121487Y432986D01*
X121538Y433087D01*
X121593Y433186D01*
X121651Y433283D01*
X121713Y433378D01*
X121778Y433471D01*
X121846Y433561D01*
X121917Y433649D01*
X121992Y433735D01*
X122069Y433818D01*
X122149Y433898D01*
X122232Y433975D01*
X122318Y434050D01*
X122406Y434121D01*
X122496Y434189D01*
X122589Y434254D01*
X122684Y434316D01*
X122781Y434374D01*
X122880Y434429D01*
X122981Y434480D01*
X123084Y434528D01*
X123188Y434573D01*
X123294Y434613D01*
X123401Y434650D01*
X123509Y434683D01*
X123619Y434713D01*
X123729Y434738D01*
X123840Y434760D01*
X123952Y434777D01*
X124065Y434791D01*
X124178Y434801D01*
X124291Y434807D01*
X124404Y434809D01*
X124517Y434807D01*
X124630Y434801D01*
X124743Y434791D01*
X124856Y434777D01*
X124968Y434760D01*
X125079Y434738D01*
X125189Y434713D01*
X125299Y434683D01*
X125407Y434650D01*
X125514Y434613D01*
X125620Y434573D01*
X125724Y434528D01*
X125827Y434480D01*
X125928Y434429D01*
X126027Y434374D01*
X126124Y434316D01*
X126219Y434254D01*
X126312Y434189D01*
X126402Y434121D01*
X126490Y434050D01*
X126576Y433975D01*
X126659Y433898D01*
X126739Y433818D01*
X126816Y433735D01*
X126891Y433649D01*
X126962Y433561D01*
X127030Y433471D01*
X127095Y433378D01*
X127157Y433283D01*
X127215Y433186D01*
X127270Y433087D01*
X127321Y432986D01*
X127369Y432883D01*
X127414Y432779D01*
X127454Y432673D01*
X127491Y432566D01*
X127524Y432458D01*
X127554Y432348D01*
X127579Y432238D01*
X127601Y432127D01*
X127618Y432015D01*
X127632Y431902D01*
X127642Y431789D01*
X127648Y431676D01*
X127650Y431563D01*
X127649Y431563D02*
X127649Y428318D01*
X127649Y432212D02*
X132842Y434809D01*
D17*
X178950Y458490D02*
X178950Y74910D01*
X178950Y458490D02*
X202050Y458490D01*
X202050Y74910D01*
X178950Y74910D01*
D10*
X207136Y442301D02*
X204861Y445145D01*
X215099Y445145D01*
X215099Y442301D02*
X215099Y447989D01*
D14*
X191911Y69342D02*
X184122Y57658D01*
X191911Y57658D02*
X184122Y69342D01*
X196201Y66746D02*
X199446Y69342D01*
X199446Y57658D01*
X196201Y57658D02*
X202692Y57658D01*
D17*
X24250Y74910D02*
X24250Y458490D01*
X24250Y74910D02*
X1150Y74910D01*
X1150Y458490D01*
X24250Y458490D01*
D10*
X-3936Y91099D02*
X-1661Y88255D01*
X-11899Y88255D01*
X-11899Y91099D02*
X-11899Y85411D01*
D14*
X508Y464058D02*
X8297Y475742D01*
X508Y475742D02*
X8297Y464058D01*
X19078Y472821D02*
X19076Y472928D01*
X19070Y473034D01*
X19060Y473140D01*
X19047Y473246D01*
X19029Y473352D01*
X19008Y473456D01*
X18983Y473560D01*
X18954Y473663D01*
X18922Y473764D01*
X18885Y473864D01*
X18845Y473963D01*
X18802Y474061D01*
X18755Y474157D01*
X18704Y474251D01*
X18650Y474343D01*
X18593Y474433D01*
X18533Y474521D01*
X18469Y474606D01*
X18402Y474689D01*
X18332Y474770D01*
X18260Y474848D01*
X18184Y474924D01*
X18106Y474996D01*
X18025Y475066D01*
X17942Y475133D01*
X17857Y475197D01*
X17769Y475257D01*
X17679Y475314D01*
X17587Y475368D01*
X17493Y475419D01*
X17397Y475466D01*
X17299Y475509D01*
X17200Y475549D01*
X17100Y475586D01*
X16999Y475618D01*
X16896Y475647D01*
X16792Y475672D01*
X16688Y475693D01*
X16582Y475711D01*
X16476Y475724D01*
X16370Y475734D01*
X16264Y475740D01*
X16157Y475742D01*
X16036Y475740D01*
X15915Y475734D01*
X15795Y475724D01*
X15674Y475711D01*
X15555Y475693D01*
X15435Y475672D01*
X15317Y475647D01*
X15200Y475618D01*
X15083Y475585D01*
X14968Y475549D01*
X14854Y475508D01*
X14741Y475465D01*
X14629Y475417D01*
X14520Y475366D01*
X14412Y475311D01*
X14305Y475253D01*
X14201Y475192D01*
X14099Y475127D01*
X13999Y475059D01*
X13901Y474988D01*
X13805Y474914D01*
X13712Y474837D01*
X13622Y474756D01*
X13534Y474673D01*
X13449Y474587D01*
X13366Y474498D01*
X13287Y474407D01*
X13210Y474313D01*
X13137Y474217D01*
X13067Y474119D01*
X13000Y474018D01*
X12936Y473915D01*
X12876Y473810D01*
X12819Y473703D01*
X12765Y473595D01*
X12715Y473485D01*
X12669Y473373D01*
X12626Y473260D01*
X12587Y473145D01*
X18105Y470549D02*
X18184Y470626D01*
X18260Y470707D01*
X18333Y470790D01*
X18403Y470875D01*
X18470Y470963D01*
X18534Y471053D01*
X18594Y471145D01*
X18651Y471240D01*
X18705Y471336D01*
X18756Y471434D01*
X18803Y471534D01*
X18847Y471636D01*
X18887Y471739D01*
X18923Y471843D01*
X18955Y471949D01*
X18984Y472055D01*
X19009Y472163D01*
X19031Y472271D01*
X19048Y472381D01*
X19062Y472490D01*
X19071Y472600D01*
X19077Y472711D01*
X19079Y472821D01*
X18105Y470549D02*
X12587Y464058D01*
X19078Y464058D01*
M02*
