G04 EAGLE Gerber RS-274X export*
G75*
%MOMM*%
%FSLAX34Y34*%
%LPD*%
%INSilkscreen Top*%
%IPPOS*%
%AMOC8*
5,1,8,0,0,1.08239X$1,22.5*%
G01*
%ADD10C,0.076200*%
%ADD11C,0.101600*%
%ADD12C,0.152400*%
%ADD13C,0.127000*%
%ADD14C,0.200000*%
%ADD15R,0.300000X0.150000*%
%ADD16R,0.300000X0.300000*%
%ADD17C,0.203200*%


D10*
X21209Y3683D02*
X21209Y11049D01*
X23255Y11049D01*
X23344Y11047D01*
X23433Y11041D01*
X23522Y11031D01*
X23610Y11018D01*
X23698Y11001D01*
X23785Y10979D01*
X23870Y10954D01*
X23955Y10926D01*
X24038Y10893D01*
X24120Y10857D01*
X24200Y10818D01*
X24278Y10775D01*
X24354Y10729D01*
X24429Y10679D01*
X24501Y10626D01*
X24570Y10570D01*
X24637Y10511D01*
X24702Y10450D01*
X24763Y10385D01*
X24822Y10318D01*
X24878Y10249D01*
X24931Y10177D01*
X24981Y10102D01*
X25027Y10026D01*
X25070Y9948D01*
X25109Y9868D01*
X25145Y9786D01*
X25178Y9703D01*
X25206Y9618D01*
X25231Y9533D01*
X25253Y9446D01*
X25270Y9358D01*
X25283Y9270D01*
X25293Y9181D01*
X25299Y9092D01*
X25301Y9003D01*
X25301Y5729D01*
X25299Y5640D01*
X25293Y5551D01*
X25283Y5462D01*
X25270Y5374D01*
X25253Y5286D01*
X25231Y5199D01*
X25206Y5114D01*
X25178Y5029D01*
X25145Y4946D01*
X25109Y4864D01*
X25070Y4784D01*
X25027Y4706D01*
X24981Y4630D01*
X24931Y4555D01*
X24878Y4483D01*
X24822Y4414D01*
X24763Y4347D01*
X24702Y4282D01*
X24637Y4221D01*
X24570Y4162D01*
X24501Y4106D01*
X24429Y4053D01*
X24354Y4003D01*
X24278Y3957D01*
X24200Y3914D01*
X24120Y3875D01*
X24038Y3839D01*
X23955Y3806D01*
X23870Y3778D01*
X23785Y3753D01*
X23698Y3731D01*
X23610Y3714D01*
X23522Y3701D01*
X23433Y3691D01*
X23344Y3685D01*
X23255Y3683D01*
X21209Y3683D01*
X28768Y9412D02*
X30814Y11049D01*
X30814Y3683D01*
X28768Y3683D02*
X32860Y3683D01*
X36083Y3683D02*
X38129Y3683D01*
X38218Y3685D01*
X38307Y3691D01*
X38396Y3701D01*
X38484Y3714D01*
X38572Y3731D01*
X38659Y3753D01*
X38744Y3778D01*
X38829Y3806D01*
X38912Y3839D01*
X38994Y3875D01*
X39074Y3914D01*
X39152Y3957D01*
X39228Y4003D01*
X39303Y4053D01*
X39375Y4106D01*
X39444Y4162D01*
X39511Y4221D01*
X39576Y4282D01*
X39637Y4347D01*
X39696Y4414D01*
X39752Y4483D01*
X39805Y4555D01*
X39855Y4630D01*
X39901Y4706D01*
X39944Y4784D01*
X39983Y4864D01*
X40019Y4946D01*
X40052Y5029D01*
X40080Y5114D01*
X40105Y5199D01*
X40127Y5286D01*
X40144Y5374D01*
X40157Y5462D01*
X40167Y5551D01*
X40173Y5640D01*
X40175Y5729D01*
X40173Y5818D01*
X40167Y5907D01*
X40157Y5996D01*
X40144Y6084D01*
X40127Y6172D01*
X40105Y6259D01*
X40080Y6344D01*
X40052Y6429D01*
X40019Y6512D01*
X39983Y6594D01*
X39944Y6674D01*
X39901Y6752D01*
X39855Y6828D01*
X39805Y6903D01*
X39752Y6975D01*
X39696Y7044D01*
X39637Y7111D01*
X39576Y7176D01*
X39511Y7237D01*
X39444Y7296D01*
X39375Y7352D01*
X39303Y7405D01*
X39228Y7455D01*
X39152Y7501D01*
X39074Y7544D01*
X38994Y7583D01*
X38912Y7619D01*
X38829Y7652D01*
X38744Y7680D01*
X38659Y7705D01*
X38572Y7727D01*
X38484Y7744D01*
X38396Y7757D01*
X38307Y7767D01*
X38218Y7773D01*
X38129Y7775D01*
X38539Y11049D02*
X36083Y11049D01*
X38539Y11049D02*
X38618Y11047D01*
X38697Y11041D01*
X38776Y11032D01*
X38854Y11019D01*
X38931Y11001D01*
X39007Y10981D01*
X39082Y10956D01*
X39156Y10928D01*
X39229Y10897D01*
X39300Y10861D01*
X39369Y10823D01*
X39436Y10781D01*
X39501Y10736D01*
X39564Y10688D01*
X39625Y10637D01*
X39682Y10583D01*
X39738Y10527D01*
X39790Y10468D01*
X39840Y10406D01*
X39886Y10342D01*
X39930Y10276D01*
X39970Y10208D01*
X40006Y10138D01*
X40040Y10066D01*
X40070Y9992D01*
X40096Y9918D01*
X40119Y9842D01*
X40137Y9765D01*
X40153Y9688D01*
X40164Y9609D01*
X40172Y9531D01*
X40176Y9452D01*
X40176Y9372D01*
X40172Y9293D01*
X40164Y9215D01*
X40153Y9136D01*
X40137Y9059D01*
X40119Y8982D01*
X40096Y8906D01*
X40070Y8832D01*
X40040Y8758D01*
X40006Y8686D01*
X39970Y8616D01*
X39930Y8548D01*
X39886Y8482D01*
X39840Y8418D01*
X39790Y8356D01*
X39738Y8297D01*
X39682Y8241D01*
X39625Y8187D01*
X39564Y8136D01*
X39501Y8088D01*
X39436Y8043D01*
X39369Y8001D01*
X39300Y7963D01*
X39229Y7927D01*
X39156Y7896D01*
X39082Y7868D01*
X39007Y7843D01*
X38931Y7823D01*
X38854Y7805D01*
X38776Y7792D01*
X38697Y7783D01*
X38618Y7777D01*
X38539Y7775D01*
X36902Y7775D01*
X47879Y4191D02*
X49925Y4191D01*
X50014Y4193D01*
X50103Y4199D01*
X50192Y4209D01*
X50280Y4222D01*
X50368Y4239D01*
X50455Y4261D01*
X50540Y4286D01*
X50625Y4314D01*
X50708Y4347D01*
X50790Y4383D01*
X50870Y4422D01*
X50948Y4465D01*
X51024Y4511D01*
X51099Y4561D01*
X51171Y4614D01*
X51240Y4670D01*
X51307Y4729D01*
X51372Y4790D01*
X51433Y4855D01*
X51492Y4922D01*
X51548Y4991D01*
X51601Y5063D01*
X51651Y5138D01*
X51697Y5214D01*
X51740Y5292D01*
X51779Y5372D01*
X51815Y5454D01*
X51848Y5537D01*
X51876Y5622D01*
X51901Y5707D01*
X51923Y5794D01*
X51940Y5882D01*
X51953Y5970D01*
X51963Y6059D01*
X51969Y6148D01*
X51971Y6237D01*
X51969Y6326D01*
X51963Y6415D01*
X51953Y6504D01*
X51940Y6592D01*
X51923Y6680D01*
X51901Y6767D01*
X51876Y6852D01*
X51848Y6937D01*
X51815Y7020D01*
X51779Y7102D01*
X51740Y7182D01*
X51697Y7260D01*
X51651Y7336D01*
X51601Y7411D01*
X51548Y7483D01*
X51492Y7552D01*
X51433Y7619D01*
X51372Y7684D01*
X51307Y7745D01*
X51240Y7804D01*
X51171Y7860D01*
X51099Y7913D01*
X51024Y7963D01*
X50948Y8009D01*
X50870Y8052D01*
X50790Y8091D01*
X50708Y8127D01*
X50625Y8160D01*
X50540Y8188D01*
X50455Y8213D01*
X50368Y8235D01*
X50280Y8252D01*
X50192Y8265D01*
X50103Y8275D01*
X50014Y8281D01*
X49925Y8283D01*
X50334Y11557D02*
X47879Y11557D01*
X50334Y11557D02*
X50413Y11555D01*
X50492Y11549D01*
X50571Y11540D01*
X50649Y11527D01*
X50726Y11509D01*
X50802Y11489D01*
X50877Y11464D01*
X50951Y11436D01*
X51024Y11405D01*
X51095Y11369D01*
X51164Y11331D01*
X51231Y11289D01*
X51296Y11244D01*
X51359Y11196D01*
X51420Y11145D01*
X51477Y11091D01*
X51533Y11035D01*
X51585Y10976D01*
X51635Y10914D01*
X51681Y10850D01*
X51725Y10784D01*
X51765Y10716D01*
X51801Y10646D01*
X51835Y10574D01*
X51865Y10500D01*
X51891Y10426D01*
X51914Y10350D01*
X51932Y10273D01*
X51948Y10196D01*
X51959Y10117D01*
X51967Y10039D01*
X51971Y9960D01*
X51971Y9880D01*
X51967Y9801D01*
X51959Y9723D01*
X51948Y9644D01*
X51932Y9567D01*
X51914Y9490D01*
X51891Y9414D01*
X51865Y9340D01*
X51835Y9266D01*
X51801Y9194D01*
X51765Y9124D01*
X51725Y9056D01*
X51681Y8990D01*
X51635Y8926D01*
X51585Y8864D01*
X51533Y8805D01*
X51477Y8749D01*
X51420Y8695D01*
X51359Y8644D01*
X51296Y8596D01*
X51231Y8551D01*
X51164Y8509D01*
X51095Y8471D01*
X51024Y8435D01*
X50951Y8404D01*
X50877Y8376D01*
X50802Y8351D01*
X50726Y8331D01*
X50649Y8313D01*
X50571Y8300D01*
X50492Y8291D01*
X50413Y8285D01*
X50334Y8283D01*
X48697Y8283D01*
X54872Y9102D02*
X56509Y4191D01*
X58146Y9102D01*
X61046Y4191D02*
X63092Y4191D01*
X63181Y4193D01*
X63270Y4199D01*
X63359Y4209D01*
X63447Y4222D01*
X63535Y4239D01*
X63622Y4261D01*
X63707Y4286D01*
X63792Y4314D01*
X63875Y4347D01*
X63957Y4383D01*
X64037Y4422D01*
X64115Y4465D01*
X64191Y4511D01*
X64266Y4561D01*
X64338Y4614D01*
X64407Y4670D01*
X64474Y4729D01*
X64539Y4790D01*
X64600Y4855D01*
X64659Y4922D01*
X64715Y4991D01*
X64768Y5063D01*
X64818Y5138D01*
X64864Y5214D01*
X64907Y5292D01*
X64946Y5372D01*
X64982Y5454D01*
X65015Y5537D01*
X65043Y5622D01*
X65068Y5707D01*
X65090Y5794D01*
X65107Y5882D01*
X65120Y5970D01*
X65130Y6059D01*
X65136Y6148D01*
X65138Y6237D01*
X65136Y6326D01*
X65130Y6415D01*
X65120Y6504D01*
X65107Y6592D01*
X65090Y6680D01*
X65068Y6767D01*
X65043Y6852D01*
X65015Y6937D01*
X64982Y7020D01*
X64946Y7102D01*
X64907Y7182D01*
X64864Y7260D01*
X64818Y7336D01*
X64768Y7411D01*
X64715Y7483D01*
X64659Y7552D01*
X64600Y7619D01*
X64539Y7684D01*
X64474Y7745D01*
X64407Y7804D01*
X64338Y7860D01*
X64266Y7913D01*
X64191Y7963D01*
X64115Y8009D01*
X64037Y8052D01*
X63957Y8091D01*
X63875Y8127D01*
X63792Y8160D01*
X63707Y8188D01*
X63622Y8213D01*
X63535Y8235D01*
X63447Y8252D01*
X63359Y8265D01*
X63270Y8275D01*
X63181Y8281D01*
X63092Y8283D01*
X63502Y11557D02*
X61046Y11557D01*
X63502Y11557D02*
X63581Y11555D01*
X63660Y11549D01*
X63739Y11540D01*
X63817Y11527D01*
X63894Y11509D01*
X63970Y11489D01*
X64045Y11464D01*
X64119Y11436D01*
X64192Y11405D01*
X64263Y11369D01*
X64332Y11331D01*
X64399Y11289D01*
X64464Y11244D01*
X64527Y11196D01*
X64588Y11145D01*
X64645Y11091D01*
X64701Y11035D01*
X64753Y10976D01*
X64803Y10914D01*
X64849Y10850D01*
X64893Y10784D01*
X64933Y10716D01*
X64969Y10646D01*
X65003Y10574D01*
X65033Y10500D01*
X65059Y10426D01*
X65082Y10350D01*
X65100Y10273D01*
X65116Y10196D01*
X65127Y10117D01*
X65135Y10039D01*
X65139Y9960D01*
X65139Y9880D01*
X65135Y9801D01*
X65127Y9723D01*
X65116Y9644D01*
X65100Y9567D01*
X65082Y9490D01*
X65059Y9414D01*
X65033Y9340D01*
X65003Y9266D01*
X64969Y9194D01*
X64933Y9124D01*
X64893Y9056D01*
X64849Y8990D01*
X64803Y8926D01*
X64753Y8864D01*
X64701Y8805D01*
X64645Y8749D01*
X64588Y8695D01*
X64527Y8644D01*
X64464Y8596D01*
X64399Y8551D01*
X64332Y8509D01*
X64263Y8471D01*
X64192Y8435D01*
X64119Y8404D01*
X64045Y8376D01*
X63970Y8351D01*
X63894Y8331D01*
X63817Y8313D01*
X63739Y8300D01*
X63660Y8291D01*
X63581Y8285D01*
X63502Y8283D01*
X61865Y8283D01*
X69215Y4191D02*
X71670Y11557D01*
X74126Y4191D01*
X73512Y6033D02*
X69829Y6033D01*
X77234Y4191D02*
X77234Y11557D01*
X79281Y11557D01*
X79370Y11555D01*
X79459Y11549D01*
X79548Y11539D01*
X79636Y11526D01*
X79724Y11509D01*
X79811Y11487D01*
X79896Y11462D01*
X79981Y11434D01*
X80064Y11401D01*
X80146Y11365D01*
X80226Y11326D01*
X80304Y11283D01*
X80380Y11237D01*
X80455Y11187D01*
X80527Y11134D01*
X80596Y11078D01*
X80663Y11019D01*
X80728Y10958D01*
X80789Y10893D01*
X80848Y10826D01*
X80904Y10757D01*
X80957Y10685D01*
X81007Y10610D01*
X81053Y10534D01*
X81096Y10456D01*
X81135Y10376D01*
X81171Y10294D01*
X81204Y10211D01*
X81232Y10126D01*
X81257Y10041D01*
X81279Y9954D01*
X81296Y9866D01*
X81309Y9778D01*
X81319Y9689D01*
X81325Y9600D01*
X81327Y9511D01*
X81325Y9422D01*
X81319Y9333D01*
X81309Y9244D01*
X81296Y9156D01*
X81279Y9068D01*
X81257Y8981D01*
X81232Y8896D01*
X81204Y8811D01*
X81171Y8728D01*
X81135Y8646D01*
X81096Y8566D01*
X81053Y8488D01*
X81007Y8412D01*
X80957Y8337D01*
X80904Y8265D01*
X80848Y8196D01*
X80789Y8129D01*
X80728Y8064D01*
X80663Y8003D01*
X80596Y7944D01*
X80527Y7888D01*
X80455Y7835D01*
X80380Y7785D01*
X80304Y7739D01*
X80226Y7696D01*
X80146Y7657D01*
X80064Y7621D01*
X79981Y7588D01*
X79896Y7560D01*
X79811Y7535D01*
X79724Y7513D01*
X79636Y7496D01*
X79548Y7483D01*
X79459Y7473D01*
X79370Y7467D01*
X79281Y7465D01*
X77234Y7465D01*
X79690Y7465D02*
X81327Y4191D01*
X84758Y4191D02*
X88032Y4191D01*
X84758Y4191D02*
X84758Y11557D01*
X88032Y11557D01*
X87213Y8283D02*
X84758Y8283D01*
X91098Y11557D02*
X91098Y4191D01*
X91098Y11557D02*
X94372Y11557D01*
X94372Y8283D02*
X91098Y8283D01*
X100965Y4445D02*
X103420Y11811D01*
X105876Y4445D01*
X105262Y6287D02*
X101579Y6287D01*
X108690Y8128D02*
X108692Y8281D01*
X108698Y8434D01*
X108707Y8586D01*
X108721Y8739D01*
X108738Y8891D01*
X108759Y9042D01*
X108784Y9193D01*
X108813Y9343D01*
X108845Y9493D01*
X108882Y9641D01*
X108922Y9789D01*
X108965Y9936D01*
X109013Y10081D01*
X109064Y10225D01*
X109118Y10368D01*
X109177Y10510D01*
X109238Y10649D01*
X109304Y10788D01*
X109330Y10858D01*
X109360Y10928D01*
X109393Y10995D01*
X109429Y11061D01*
X109468Y11125D01*
X109511Y11187D01*
X109557Y11246D01*
X109605Y11304D01*
X109656Y11358D01*
X109710Y11411D01*
X109767Y11460D01*
X109826Y11507D01*
X109887Y11550D01*
X109950Y11591D01*
X110015Y11628D01*
X110082Y11663D01*
X110151Y11693D01*
X110221Y11721D01*
X110292Y11744D01*
X110364Y11765D01*
X110437Y11781D01*
X110511Y11794D01*
X110586Y11804D01*
X110661Y11809D01*
X110736Y11811D01*
X110811Y11809D01*
X110886Y11804D01*
X110961Y11794D01*
X111035Y11781D01*
X111108Y11765D01*
X111180Y11744D01*
X111251Y11721D01*
X111321Y11693D01*
X111390Y11663D01*
X111457Y11628D01*
X111522Y11591D01*
X111585Y11550D01*
X111646Y11507D01*
X111705Y11460D01*
X111762Y11411D01*
X111816Y11358D01*
X111867Y11304D01*
X111916Y11246D01*
X111961Y11187D01*
X112004Y11125D01*
X112043Y11061D01*
X112080Y10995D01*
X112112Y10927D01*
X112142Y10858D01*
X112168Y10788D01*
X112233Y10650D01*
X112295Y10510D01*
X112353Y10368D01*
X112408Y10225D01*
X112459Y10081D01*
X112507Y9936D01*
X112550Y9789D01*
X112590Y9642D01*
X112627Y9493D01*
X112659Y9343D01*
X112688Y9193D01*
X112713Y9042D01*
X112734Y8891D01*
X112751Y8739D01*
X112765Y8586D01*
X112774Y8434D01*
X112780Y8281D01*
X112782Y8128D01*
X108689Y8128D02*
X108691Y7975D01*
X108697Y7822D01*
X108706Y7669D01*
X108720Y7517D01*
X108737Y7365D01*
X108758Y7214D01*
X108783Y7063D01*
X108812Y6912D01*
X108844Y6763D01*
X108881Y6614D01*
X108921Y6467D01*
X108964Y6320D01*
X109012Y6175D01*
X109063Y6030D01*
X109118Y5888D01*
X109176Y5746D01*
X109238Y5606D01*
X109303Y5468D01*
X109304Y5468D02*
X109330Y5397D01*
X109360Y5328D01*
X109393Y5261D01*
X109429Y5195D01*
X109468Y5131D01*
X109511Y5069D01*
X109557Y5010D01*
X109605Y4952D01*
X109656Y4898D01*
X109710Y4845D01*
X109767Y4796D01*
X109826Y4749D01*
X109887Y4706D01*
X109950Y4665D01*
X110015Y4628D01*
X110082Y4593D01*
X110151Y4563D01*
X110221Y4535D01*
X110292Y4512D01*
X110364Y4491D01*
X110437Y4475D01*
X110511Y4462D01*
X110586Y4452D01*
X110661Y4447D01*
X110736Y4445D01*
X112167Y5468D02*
X112232Y5606D01*
X112294Y5746D01*
X112352Y5888D01*
X112407Y6031D01*
X112458Y6175D01*
X112506Y6320D01*
X112549Y6467D01*
X112589Y6615D01*
X112626Y6763D01*
X112658Y6913D01*
X112687Y7063D01*
X112712Y7214D01*
X112733Y7365D01*
X112750Y7517D01*
X112764Y7670D01*
X112773Y7822D01*
X112779Y7975D01*
X112781Y8128D01*
X112168Y5468D02*
X112142Y5398D01*
X112112Y5328D01*
X112080Y5261D01*
X112043Y5195D01*
X112004Y5131D01*
X111961Y5069D01*
X111915Y5010D01*
X111867Y4952D01*
X111816Y4898D01*
X111762Y4845D01*
X111705Y4796D01*
X111646Y4749D01*
X111585Y4706D01*
X111522Y4665D01*
X111457Y4628D01*
X111390Y4593D01*
X111321Y4563D01*
X111251Y4535D01*
X111180Y4512D01*
X111108Y4491D01*
X111035Y4475D01*
X110961Y4462D01*
X110886Y4452D01*
X110811Y4447D01*
X110736Y4445D01*
X109099Y6082D02*
X112372Y10174D01*
X127127Y4445D02*
X129582Y11811D01*
X132038Y4445D01*
X131424Y6287D02*
X127741Y6287D01*
X134851Y10174D02*
X136898Y11811D01*
X136898Y4445D01*
X138944Y4445D02*
X134851Y4445D01*
X152527Y3683D02*
X154982Y11049D01*
X157438Y3683D01*
X156824Y5525D02*
X153141Y5525D01*
X162502Y11050D02*
X162587Y11048D01*
X162672Y11042D01*
X162756Y11032D01*
X162840Y11019D01*
X162924Y11001D01*
X163006Y10980D01*
X163087Y10955D01*
X163167Y10926D01*
X163246Y10893D01*
X163323Y10857D01*
X163398Y10817D01*
X163472Y10774D01*
X163543Y10728D01*
X163612Y10678D01*
X163679Y10625D01*
X163743Y10569D01*
X163804Y10510D01*
X163863Y10449D01*
X163919Y10385D01*
X163972Y10318D01*
X164022Y10249D01*
X164068Y10178D01*
X164111Y10104D01*
X164151Y10029D01*
X164187Y9952D01*
X164220Y9873D01*
X164249Y9793D01*
X164274Y9712D01*
X164295Y9630D01*
X164313Y9546D01*
X164326Y9462D01*
X164336Y9378D01*
X164342Y9293D01*
X164344Y9208D01*
X162502Y11049D02*
X162406Y11047D01*
X162310Y11041D01*
X162215Y11031D01*
X162120Y11018D01*
X162025Y11000D01*
X161932Y10979D01*
X161839Y10954D01*
X161748Y10925D01*
X161657Y10893D01*
X161568Y10857D01*
X161481Y10817D01*
X161395Y10774D01*
X161311Y10728D01*
X161229Y10678D01*
X161149Y10624D01*
X161072Y10568D01*
X160997Y10508D01*
X160924Y10446D01*
X160854Y10380D01*
X160786Y10312D01*
X160721Y10241D01*
X160660Y10168D01*
X160601Y10092D01*
X160545Y10013D01*
X160493Y9933D01*
X160444Y9850D01*
X160398Y9766D01*
X160356Y9680D01*
X160318Y9592D01*
X160283Y9503D01*
X160251Y9412D01*
X163730Y7776D02*
X163790Y7835D01*
X163847Y7897D01*
X163902Y7961D01*
X163953Y8028D01*
X164002Y8097D01*
X164048Y8167D01*
X164091Y8240D01*
X164131Y8314D01*
X164167Y8390D01*
X164200Y8468D01*
X164230Y8547D01*
X164257Y8627D01*
X164280Y8708D01*
X164299Y8790D01*
X164315Y8872D01*
X164328Y8956D01*
X164337Y9040D01*
X164342Y9124D01*
X164344Y9208D01*
X163730Y7775D02*
X160251Y3683D01*
X164344Y3683D01*
X178181Y3683D02*
X180636Y11049D01*
X183092Y3683D01*
X182478Y5525D02*
X178795Y5525D01*
X185905Y3683D02*
X187952Y3683D01*
X188041Y3685D01*
X188130Y3691D01*
X188219Y3701D01*
X188307Y3714D01*
X188395Y3731D01*
X188482Y3753D01*
X188567Y3778D01*
X188652Y3806D01*
X188735Y3839D01*
X188817Y3875D01*
X188897Y3914D01*
X188975Y3957D01*
X189051Y4003D01*
X189126Y4053D01*
X189198Y4106D01*
X189267Y4162D01*
X189334Y4221D01*
X189399Y4282D01*
X189460Y4347D01*
X189519Y4414D01*
X189575Y4483D01*
X189628Y4555D01*
X189678Y4630D01*
X189724Y4706D01*
X189767Y4784D01*
X189806Y4864D01*
X189842Y4946D01*
X189875Y5029D01*
X189903Y5114D01*
X189928Y5199D01*
X189950Y5286D01*
X189967Y5374D01*
X189980Y5462D01*
X189990Y5551D01*
X189996Y5640D01*
X189998Y5729D01*
X189996Y5818D01*
X189990Y5907D01*
X189980Y5996D01*
X189967Y6084D01*
X189950Y6172D01*
X189928Y6259D01*
X189903Y6344D01*
X189875Y6429D01*
X189842Y6512D01*
X189806Y6594D01*
X189767Y6674D01*
X189724Y6752D01*
X189678Y6828D01*
X189628Y6903D01*
X189575Y6975D01*
X189519Y7044D01*
X189460Y7111D01*
X189399Y7176D01*
X189334Y7237D01*
X189267Y7296D01*
X189198Y7352D01*
X189126Y7405D01*
X189051Y7455D01*
X188975Y7501D01*
X188897Y7544D01*
X188817Y7583D01*
X188735Y7619D01*
X188652Y7652D01*
X188567Y7680D01*
X188482Y7705D01*
X188395Y7727D01*
X188307Y7744D01*
X188219Y7757D01*
X188130Y7767D01*
X188041Y7773D01*
X187952Y7775D01*
X188361Y11049D02*
X185905Y11049D01*
X188361Y11049D02*
X188440Y11047D01*
X188519Y11041D01*
X188598Y11032D01*
X188676Y11019D01*
X188753Y11001D01*
X188829Y10981D01*
X188904Y10956D01*
X188978Y10928D01*
X189051Y10897D01*
X189122Y10861D01*
X189191Y10823D01*
X189258Y10781D01*
X189323Y10736D01*
X189386Y10688D01*
X189447Y10637D01*
X189504Y10583D01*
X189560Y10527D01*
X189612Y10468D01*
X189662Y10406D01*
X189708Y10342D01*
X189752Y10276D01*
X189792Y10208D01*
X189828Y10138D01*
X189862Y10066D01*
X189892Y9992D01*
X189918Y9918D01*
X189941Y9842D01*
X189959Y9765D01*
X189975Y9688D01*
X189986Y9609D01*
X189994Y9531D01*
X189998Y9452D01*
X189998Y9372D01*
X189994Y9293D01*
X189986Y9215D01*
X189975Y9136D01*
X189959Y9059D01*
X189941Y8982D01*
X189918Y8906D01*
X189892Y8832D01*
X189862Y8758D01*
X189828Y8686D01*
X189792Y8616D01*
X189752Y8548D01*
X189708Y8482D01*
X189662Y8418D01*
X189612Y8356D01*
X189560Y8297D01*
X189504Y8241D01*
X189447Y8187D01*
X189386Y8136D01*
X189323Y8088D01*
X189258Y8043D01*
X189191Y8001D01*
X189122Y7963D01*
X189051Y7927D01*
X188978Y7896D01*
X188904Y7868D01*
X188829Y7843D01*
X188753Y7823D01*
X188676Y7805D01*
X188598Y7792D01*
X188519Y7783D01*
X188440Y7777D01*
X188361Y7775D01*
X186724Y7775D01*
X204089Y3683D02*
X206544Y11049D01*
X209000Y3683D01*
X208386Y5525D02*
X204703Y5525D01*
X211813Y5320D02*
X213450Y11049D01*
X211813Y5320D02*
X215906Y5320D01*
X214678Y6957D02*
X214678Y3683D01*
X228981Y3683D02*
X231436Y11049D01*
X233892Y3683D01*
X233278Y5525D02*
X229595Y5525D01*
X236705Y3683D02*
X239161Y3683D01*
X239239Y3685D01*
X239317Y3690D01*
X239394Y3700D01*
X239471Y3713D01*
X239547Y3729D01*
X239622Y3749D01*
X239696Y3773D01*
X239769Y3800D01*
X239841Y3831D01*
X239911Y3865D01*
X239980Y3902D01*
X240046Y3943D01*
X240111Y3987D01*
X240173Y4033D01*
X240233Y4083D01*
X240291Y4135D01*
X240346Y4190D01*
X240398Y4248D01*
X240448Y4308D01*
X240494Y4370D01*
X240538Y4435D01*
X240579Y4502D01*
X240616Y4570D01*
X240650Y4640D01*
X240681Y4712D01*
X240708Y4785D01*
X240732Y4859D01*
X240752Y4934D01*
X240768Y5010D01*
X240781Y5087D01*
X240791Y5164D01*
X240796Y5242D01*
X240798Y5320D01*
X240798Y6138D01*
X240796Y6216D01*
X240791Y6294D01*
X240781Y6371D01*
X240768Y6448D01*
X240752Y6524D01*
X240732Y6599D01*
X240708Y6673D01*
X240681Y6746D01*
X240650Y6818D01*
X240616Y6888D01*
X240579Y6957D01*
X240538Y7023D01*
X240494Y7088D01*
X240448Y7150D01*
X240398Y7210D01*
X240346Y7268D01*
X240291Y7323D01*
X240233Y7375D01*
X240173Y7425D01*
X240111Y7471D01*
X240046Y7515D01*
X239980Y7556D01*
X239911Y7593D01*
X239841Y7627D01*
X239769Y7658D01*
X239696Y7685D01*
X239622Y7709D01*
X239547Y7729D01*
X239471Y7745D01*
X239394Y7758D01*
X239317Y7768D01*
X239239Y7773D01*
X239161Y7775D01*
X236705Y7775D01*
X236705Y11049D01*
X240798Y11049D01*
X254127Y4191D02*
X256582Y11557D01*
X259038Y4191D01*
X258424Y6033D02*
X254741Y6033D01*
X261851Y8283D02*
X264307Y8283D01*
X264385Y8281D01*
X264463Y8276D01*
X264540Y8266D01*
X264617Y8253D01*
X264693Y8237D01*
X264768Y8217D01*
X264842Y8193D01*
X264915Y8166D01*
X264987Y8135D01*
X265057Y8101D01*
X265126Y8064D01*
X265192Y8023D01*
X265257Y7979D01*
X265319Y7933D01*
X265379Y7883D01*
X265437Y7831D01*
X265492Y7776D01*
X265544Y7718D01*
X265594Y7658D01*
X265640Y7596D01*
X265684Y7531D01*
X265725Y7465D01*
X265762Y7396D01*
X265796Y7326D01*
X265827Y7254D01*
X265854Y7181D01*
X265878Y7107D01*
X265898Y7032D01*
X265914Y6956D01*
X265927Y6879D01*
X265937Y6802D01*
X265942Y6724D01*
X265944Y6646D01*
X265944Y6237D01*
X265942Y6148D01*
X265936Y6059D01*
X265926Y5970D01*
X265913Y5882D01*
X265896Y5794D01*
X265874Y5707D01*
X265849Y5622D01*
X265821Y5537D01*
X265788Y5454D01*
X265752Y5372D01*
X265713Y5292D01*
X265670Y5214D01*
X265624Y5138D01*
X265574Y5063D01*
X265521Y4991D01*
X265465Y4922D01*
X265406Y4855D01*
X265345Y4790D01*
X265280Y4729D01*
X265213Y4670D01*
X265144Y4614D01*
X265072Y4561D01*
X264997Y4511D01*
X264921Y4465D01*
X264843Y4422D01*
X264763Y4383D01*
X264681Y4347D01*
X264598Y4314D01*
X264513Y4286D01*
X264428Y4261D01*
X264341Y4239D01*
X264253Y4222D01*
X264165Y4209D01*
X264076Y4199D01*
X263987Y4193D01*
X263898Y4191D01*
X263809Y4193D01*
X263720Y4199D01*
X263631Y4209D01*
X263543Y4222D01*
X263455Y4239D01*
X263368Y4261D01*
X263283Y4286D01*
X263198Y4314D01*
X263115Y4347D01*
X263033Y4383D01*
X262953Y4422D01*
X262875Y4465D01*
X262799Y4511D01*
X262724Y4561D01*
X262652Y4614D01*
X262583Y4670D01*
X262516Y4729D01*
X262451Y4790D01*
X262390Y4855D01*
X262331Y4922D01*
X262275Y4991D01*
X262222Y5063D01*
X262172Y5138D01*
X262126Y5214D01*
X262083Y5292D01*
X262044Y5372D01*
X262008Y5454D01*
X261975Y5537D01*
X261947Y5622D01*
X261922Y5707D01*
X261900Y5794D01*
X261883Y5882D01*
X261870Y5970D01*
X261860Y6059D01*
X261854Y6148D01*
X261852Y6237D01*
X261851Y6237D02*
X261851Y8283D01*
X261853Y8397D01*
X261859Y8511D01*
X261869Y8625D01*
X261883Y8739D01*
X261901Y8852D01*
X261923Y8964D01*
X261948Y9075D01*
X261978Y9185D01*
X262011Y9295D01*
X262048Y9403D01*
X262089Y9509D01*
X262134Y9615D01*
X262182Y9718D01*
X262234Y9820D01*
X262290Y9920D01*
X262348Y10018D01*
X262411Y10114D01*
X262476Y10207D01*
X262545Y10299D01*
X262617Y10387D01*
X262692Y10474D01*
X262770Y10557D01*
X262851Y10638D01*
X262934Y10716D01*
X263021Y10791D01*
X263109Y10863D01*
X263201Y10932D01*
X263294Y10997D01*
X263390Y11059D01*
X263488Y11118D01*
X263588Y11174D01*
X263690Y11226D01*
X263793Y11274D01*
X263899Y11319D01*
X264005Y11360D01*
X264113Y11397D01*
X264223Y11430D01*
X264333Y11460D01*
X264444Y11485D01*
X264556Y11507D01*
X264669Y11525D01*
X264783Y11539D01*
X264897Y11549D01*
X265011Y11555D01*
X265125Y11557D01*
X279781Y3429D02*
X282236Y10795D01*
X284692Y3429D01*
X284078Y5271D02*
X280395Y5271D01*
X287505Y9977D02*
X287505Y10795D01*
X291598Y10795D01*
X289552Y3429D01*
X298831Y6294D02*
X303742Y6294D01*
X301286Y8749D02*
X301286Y3838D01*
X307043Y3429D02*
X309498Y3429D01*
X309576Y3431D01*
X309654Y3436D01*
X309731Y3446D01*
X309808Y3459D01*
X309884Y3475D01*
X309959Y3495D01*
X310033Y3519D01*
X310106Y3546D01*
X310178Y3577D01*
X310248Y3611D01*
X310317Y3648D01*
X310383Y3689D01*
X310448Y3733D01*
X310510Y3779D01*
X310570Y3829D01*
X310628Y3881D01*
X310683Y3936D01*
X310735Y3994D01*
X310785Y4054D01*
X310831Y4116D01*
X310875Y4181D01*
X310916Y4248D01*
X310953Y4316D01*
X310987Y4386D01*
X311018Y4458D01*
X311045Y4531D01*
X311069Y4605D01*
X311089Y4680D01*
X311105Y4756D01*
X311118Y4833D01*
X311128Y4910D01*
X311133Y4988D01*
X311135Y5066D01*
X311135Y5884D01*
X311133Y5962D01*
X311128Y6040D01*
X311118Y6117D01*
X311105Y6194D01*
X311089Y6270D01*
X311069Y6345D01*
X311045Y6419D01*
X311018Y6492D01*
X310987Y6564D01*
X310953Y6634D01*
X310916Y6703D01*
X310875Y6769D01*
X310831Y6834D01*
X310785Y6896D01*
X310735Y6956D01*
X310683Y7014D01*
X310628Y7069D01*
X310570Y7121D01*
X310510Y7171D01*
X310448Y7217D01*
X310383Y7261D01*
X310317Y7302D01*
X310248Y7339D01*
X310178Y7373D01*
X310106Y7404D01*
X310033Y7431D01*
X309959Y7455D01*
X309884Y7475D01*
X309808Y7491D01*
X309731Y7504D01*
X309654Y7514D01*
X309576Y7519D01*
X309498Y7521D01*
X307043Y7521D01*
X307043Y10795D01*
X311135Y10795D01*
X313949Y10795D02*
X316404Y3429D01*
X318860Y10795D01*
X328295Y10795D02*
X328295Y3429D01*
X328295Y10795D02*
X330341Y10795D01*
X330430Y10793D01*
X330519Y10787D01*
X330608Y10777D01*
X330696Y10764D01*
X330784Y10747D01*
X330871Y10725D01*
X330956Y10700D01*
X331041Y10672D01*
X331124Y10639D01*
X331206Y10603D01*
X331286Y10564D01*
X331364Y10521D01*
X331440Y10475D01*
X331515Y10425D01*
X331587Y10372D01*
X331656Y10316D01*
X331723Y10257D01*
X331788Y10196D01*
X331849Y10131D01*
X331908Y10064D01*
X331964Y9995D01*
X332017Y9923D01*
X332067Y9848D01*
X332113Y9772D01*
X332156Y9694D01*
X332195Y9614D01*
X332231Y9532D01*
X332264Y9449D01*
X332292Y9364D01*
X332317Y9279D01*
X332339Y9192D01*
X332356Y9104D01*
X332369Y9016D01*
X332379Y8927D01*
X332385Y8838D01*
X332387Y8749D01*
X332385Y8660D01*
X332379Y8571D01*
X332369Y8482D01*
X332356Y8394D01*
X332339Y8306D01*
X332317Y8219D01*
X332292Y8134D01*
X332264Y8049D01*
X332231Y7966D01*
X332195Y7884D01*
X332156Y7804D01*
X332113Y7726D01*
X332067Y7650D01*
X332017Y7575D01*
X331964Y7503D01*
X331908Y7434D01*
X331849Y7367D01*
X331788Y7302D01*
X331723Y7241D01*
X331656Y7182D01*
X331587Y7126D01*
X331515Y7073D01*
X331440Y7023D01*
X331364Y6977D01*
X331286Y6934D01*
X331206Y6895D01*
X331124Y6859D01*
X331041Y6826D01*
X330956Y6798D01*
X330871Y6773D01*
X330784Y6751D01*
X330696Y6734D01*
X330608Y6721D01*
X330519Y6711D01*
X330430Y6705D01*
X330341Y6703D01*
X328295Y6703D01*
X330750Y6703D02*
X332387Y3429D01*
X337771Y3429D02*
X337849Y3431D01*
X337927Y3436D01*
X338004Y3446D01*
X338081Y3459D01*
X338157Y3475D01*
X338232Y3495D01*
X338306Y3519D01*
X338379Y3546D01*
X338451Y3577D01*
X338521Y3611D01*
X338590Y3648D01*
X338656Y3689D01*
X338721Y3733D01*
X338783Y3779D01*
X338843Y3829D01*
X338901Y3881D01*
X338956Y3936D01*
X339008Y3994D01*
X339058Y4054D01*
X339104Y4116D01*
X339148Y4181D01*
X339189Y4248D01*
X339226Y4316D01*
X339260Y4386D01*
X339291Y4458D01*
X339318Y4531D01*
X339342Y4605D01*
X339362Y4680D01*
X339378Y4756D01*
X339391Y4833D01*
X339401Y4910D01*
X339406Y4988D01*
X339408Y5066D01*
X337771Y3429D02*
X337657Y3431D01*
X337544Y3436D01*
X337430Y3446D01*
X337317Y3459D01*
X337205Y3476D01*
X337093Y3496D01*
X336982Y3520D01*
X336871Y3548D01*
X336762Y3579D01*
X336654Y3614D01*
X336547Y3653D01*
X336441Y3695D01*
X336337Y3740D01*
X336234Y3789D01*
X336133Y3842D01*
X336034Y3897D01*
X335936Y3956D01*
X335841Y4018D01*
X335748Y4083D01*
X335656Y4151D01*
X335568Y4222D01*
X335481Y4296D01*
X335397Y4373D01*
X335316Y4452D01*
X335520Y9158D02*
X335522Y9236D01*
X335527Y9314D01*
X335537Y9391D01*
X335550Y9468D01*
X335566Y9544D01*
X335586Y9619D01*
X335610Y9693D01*
X335637Y9766D01*
X335668Y9838D01*
X335702Y9908D01*
X335739Y9977D01*
X335780Y10043D01*
X335824Y10108D01*
X335870Y10170D01*
X335920Y10230D01*
X335972Y10288D01*
X336027Y10343D01*
X336085Y10395D01*
X336145Y10445D01*
X336207Y10491D01*
X336272Y10535D01*
X336339Y10576D01*
X336407Y10613D01*
X336477Y10647D01*
X336549Y10678D01*
X336622Y10705D01*
X336696Y10729D01*
X336771Y10749D01*
X336847Y10765D01*
X336924Y10778D01*
X337001Y10788D01*
X337079Y10793D01*
X337157Y10795D01*
X337267Y10793D01*
X337376Y10787D01*
X337486Y10777D01*
X337594Y10764D01*
X337703Y10746D01*
X337810Y10725D01*
X337917Y10699D01*
X338023Y10670D01*
X338128Y10638D01*
X338231Y10601D01*
X338333Y10561D01*
X338434Y10517D01*
X338533Y10469D01*
X338630Y10419D01*
X338725Y10364D01*
X338818Y10306D01*
X338909Y10245D01*
X338998Y10181D01*
X336338Y7725D02*
X336271Y7767D01*
X336206Y7811D01*
X336144Y7859D01*
X336084Y7909D01*
X336026Y7962D01*
X335971Y8018D01*
X335919Y8077D01*
X335869Y8137D01*
X335822Y8201D01*
X335779Y8266D01*
X335738Y8333D01*
X335701Y8402D01*
X335667Y8473D01*
X335636Y8545D01*
X335609Y8619D01*
X335585Y8693D01*
X335565Y8769D01*
X335549Y8846D01*
X335536Y8923D01*
X335526Y9001D01*
X335521Y9080D01*
X335519Y9158D01*
X338589Y6498D02*
X338655Y6456D01*
X338720Y6412D01*
X338782Y6365D01*
X338842Y6314D01*
X338900Y6261D01*
X338955Y6205D01*
X339008Y6147D01*
X339057Y6086D01*
X339104Y6023D01*
X339147Y5958D01*
X339188Y5891D01*
X339225Y5822D01*
X339259Y5751D01*
X339290Y5679D01*
X339317Y5605D01*
X339341Y5530D01*
X339361Y5455D01*
X339377Y5378D01*
X339390Y5301D01*
X339400Y5223D01*
X339405Y5144D01*
X339407Y5066D01*
X338589Y6498D02*
X336338Y7726D01*
X343945Y10795D02*
X343945Y3429D01*
X341899Y10795D02*
X345991Y10795D01*
X355544Y7775D02*
X356771Y7775D01*
X356771Y3683D01*
X354316Y3683D01*
X354238Y3685D01*
X354160Y3690D01*
X354083Y3700D01*
X354006Y3713D01*
X353930Y3729D01*
X353855Y3749D01*
X353781Y3773D01*
X353708Y3800D01*
X353636Y3831D01*
X353566Y3865D01*
X353498Y3902D01*
X353431Y3943D01*
X353366Y3987D01*
X353304Y4033D01*
X353244Y4083D01*
X353186Y4135D01*
X353131Y4190D01*
X353079Y4248D01*
X353029Y4308D01*
X352983Y4370D01*
X352939Y4435D01*
X352898Y4502D01*
X352861Y4570D01*
X352827Y4640D01*
X352796Y4712D01*
X352769Y4785D01*
X352745Y4859D01*
X352725Y4934D01*
X352709Y5010D01*
X352696Y5087D01*
X352686Y5164D01*
X352681Y5242D01*
X352679Y5320D01*
X352679Y9412D01*
X352681Y9492D01*
X352687Y9572D01*
X352697Y9652D01*
X352710Y9731D01*
X352728Y9810D01*
X352749Y9887D01*
X352775Y9963D01*
X352804Y10038D01*
X352836Y10112D01*
X352872Y10184D01*
X352912Y10254D01*
X352955Y10321D01*
X353001Y10387D01*
X353051Y10450D01*
X353103Y10511D01*
X353158Y10570D01*
X353217Y10625D01*
X353277Y10677D01*
X353341Y10727D01*
X353407Y10773D01*
X353474Y10816D01*
X353544Y10856D01*
X353616Y10892D01*
X353690Y10924D01*
X353764Y10953D01*
X353841Y10979D01*
X353918Y11000D01*
X353997Y11018D01*
X354076Y11031D01*
X354156Y11041D01*
X354236Y11047D01*
X354316Y11049D01*
X356771Y11049D01*
X360482Y11049D02*
X360482Y3683D01*
X364574Y3683D02*
X360482Y11049D01*
X364574Y11049D02*
X364574Y3683D01*
X368285Y3683D02*
X368285Y11049D01*
X370331Y11049D01*
X370420Y11047D01*
X370509Y11041D01*
X370598Y11031D01*
X370686Y11018D01*
X370774Y11001D01*
X370861Y10979D01*
X370946Y10954D01*
X371031Y10926D01*
X371114Y10893D01*
X371196Y10857D01*
X371276Y10818D01*
X371354Y10775D01*
X371430Y10729D01*
X371505Y10679D01*
X371577Y10626D01*
X371646Y10570D01*
X371713Y10511D01*
X371778Y10450D01*
X371839Y10385D01*
X371898Y10318D01*
X371954Y10249D01*
X372007Y10177D01*
X372057Y10102D01*
X372103Y10026D01*
X372146Y9948D01*
X372185Y9868D01*
X372221Y9786D01*
X372254Y9703D01*
X372282Y9618D01*
X372307Y9533D01*
X372329Y9446D01*
X372346Y9358D01*
X372359Y9270D01*
X372369Y9181D01*
X372375Y9092D01*
X372377Y9003D01*
X372377Y5729D01*
X372375Y5640D01*
X372369Y5551D01*
X372359Y5462D01*
X372346Y5374D01*
X372329Y5286D01*
X372307Y5199D01*
X372282Y5114D01*
X372254Y5029D01*
X372221Y4946D01*
X372185Y4864D01*
X372146Y4784D01*
X372103Y4706D01*
X372057Y4630D01*
X372007Y4555D01*
X371954Y4483D01*
X371898Y4414D01*
X371839Y4347D01*
X371778Y4282D01*
X371713Y4221D01*
X371646Y4162D01*
X371577Y4106D01*
X371505Y4053D01*
X371430Y4003D01*
X371354Y3957D01*
X371276Y3914D01*
X371196Y3875D01*
X371114Y3839D01*
X371031Y3806D01*
X370946Y3778D01*
X370861Y3753D01*
X370774Y3731D01*
X370686Y3714D01*
X370598Y3701D01*
X370509Y3691D01*
X370420Y3685D01*
X370331Y3683D01*
X368285Y3683D01*
X380111Y10287D02*
X382566Y2921D01*
X385022Y10287D01*
X387687Y7832D02*
X387687Y2921D01*
X387482Y9878D02*
X387482Y10287D01*
X387892Y10287D01*
X387892Y9878D01*
X387482Y9878D01*
X390927Y7832D02*
X390927Y2921D01*
X390927Y7832D02*
X392973Y7832D01*
X393042Y7830D01*
X393110Y7824D01*
X393179Y7815D01*
X393246Y7801D01*
X393313Y7784D01*
X393379Y7763D01*
X393443Y7739D01*
X393506Y7710D01*
X393567Y7679D01*
X393626Y7644D01*
X393684Y7606D01*
X393739Y7564D01*
X393791Y7520D01*
X393841Y7472D01*
X393889Y7422D01*
X393933Y7370D01*
X393975Y7315D01*
X394013Y7257D01*
X394048Y7198D01*
X394079Y7137D01*
X394108Y7074D01*
X394132Y7010D01*
X394153Y6944D01*
X394170Y6877D01*
X394184Y6810D01*
X394193Y6741D01*
X394199Y6673D01*
X394201Y6604D01*
X394201Y2921D01*
X21971Y178943D02*
X21971Y186309D01*
X24017Y186309D01*
X24106Y186307D01*
X24195Y186301D01*
X24284Y186291D01*
X24372Y186278D01*
X24460Y186261D01*
X24547Y186239D01*
X24632Y186214D01*
X24717Y186186D01*
X24800Y186153D01*
X24882Y186117D01*
X24962Y186078D01*
X25040Y186035D01*
X25116Y185989D01*
X25191Y185939D01*
X25263Y185886D01*
X25332Y185830D01*
X25399Y185771D01*
X25464Y185710D01*
X25525Y185645D01*
X25584Y185578D01*
X25640Y185509D01*
X25693Y185437D01*
X25743Y185362D01*
X25789Y185286D01*
X25832Y185208D01*
X25871Y185128D01*
X25907Y185046D01*
X25940Y184963D01*
X25968Y184878D01*
X25993Y184793D01*
X26015Y184706D01*
X26032Y184618D01*
X26045Y184530D01*
X26055Y184441D01*
X26061Y184352D01*
X26063Y184263D01*
X26063Y180989D01*
X26061Y180900D01*
X26055Y180811D01*
X26045Y180722D01*
X26032Y180634D01*
X26015Y180546D01*
X25993Y180459D01*
X25968Y180374D01*
X25940Y180289D01*
X25907Y180206D01*
X25871Y180124D01*
X25832Y180044D01*
X25789Y179966D01*
X25743Y179890D01*
X25693Y179815D01*
X25640Y179743D01*
X25584Y179674D01*
X25525Y179607D01*
X25464Y179542D01*
X25399Y179481D01*
X25332Y179422D01*
X25263Y179366D01*
X25191Y179313D01*
X25116Y179263D01*
X25040Y179217D01*
X24962Y179174D01*
X24882Y179135D01*
X24800Y179099D01*
X24717Y179066D01*
X24632Y179038D01*
X24547Y179013D01*
X24460Y178991D01*
X24372Y178974D01*
X24284Y178961D01*
X24195Y178951D01*
X24106Y178945D01*
X24017Y178943D01*
X21971Y178943D01*
X29530Y184672D02*
X31576Y186309D01*
X31576Y178943D01*
X29530Y178943D02*
X33622Y178943D01*
X40938Y184468D02*
X40936Y184553D01*
X40930Y184638D01*
X40920Y184722D01*
X40907Y184806D01*
X40889Y184890D01*
X40868Y184972D01*
X40843Y185053D01*
X40814Y185133D01*
X40781Y185212D01*
X40745Y185289D01*
X40705Y185364D01*
X40662Y185438D01*
X40616Y185509D01*
X40566Y185578D01*
X40513Y185645D01*
X40457Y185709D01*
X40398Y185770D01*
X40337Y185829D01*
X40273Y185885D01*
X40206Y185938D01*
X40137Y185988D01*
X40066Y186034D01*
X39992Y186077D01*
X39917Y186117D01*
X39840Y186153D01*
X39761Y186186D01*
X39681Y186215D01*
X39600Y186240D01*
X39518Y186261D01*
X39434Y186279D01*
X39350Y186292D01*
X39266Y186302D01*
X39181Y186308D01*
X39096Y186310D01*
X39096Y186309D02*
X39000Y186307D01*
X38904Y186301D01*
X38809Y186291D01*
X38714Y186278D01*
X38619Y186260D01*
X38526Y186239D01*
X38433Y186214D01*
X38342Y186185D01*
X38251Y186153D01*
X38162Y186117D01*
X38075Y186077D01*
X37989Y186034D01*
X37905Y185988D01*
X37823Y185938D01*
X37743Y185884D01*
X37666Y185828D01*
X37591Y185768D01*
X37518Y185706D01*
X37448Y185640D01*
X37380Y185572D01*
X37315Y185501D01*
X37254Y185428D01*
X37195Y185352D01*
X37139Y185273D01*
X37087Y185193D01*
X37038Y185110D01*
X36992Y185026D01*
X36950Y184940D01*
X36912Y184852D01*
X36877Y184763D01*
X36845Y184672D01*
X40324Y183036D02*
X40384Y183095D01*
X40441Y183157D01*
X40496Y183221D01*
X40547Y183288D01*
X40596Y183357D01*
X40642Y183427D01*
X40685Y183500D01*
X40725Y183574D01*
X40761Y183650D01*
X40794Y183728D01*
X40824Y183807D01*
X40851Y183887D01*
X40874Y183968D01*
X40893Y184050D01*
X40909Y184132D01*
X40922Y184216D01*
X40931Y184300D01*
X40936Y184384D01*
X40938Y184468D01*
X40324Y183035D02*
X36845Y178943D01*
X40937Y178943D01*
X49149Y178943D02*
X49149Y186309D01*
X51195Y186309D01*
X51284Y186307D01*
X51373Y186301D01*
X51462Y186291D01*
X51550Y186278D01*
X51638Y186261D01*
X51725Y186239D01*
X51810Y186214D01*
X51895Y186186D01*
X51978Y186153D01*
X52060Y186117D01*
X52140Y186078D01*
X52218Y186035D01*
X52294Y185989D01*
X52369Y185939D01*
X52441Y185886D01*
X52510Y185830D01*
X52577Y185771D01*
X52642Y185710D01*
X52703Y185645D01*
X52762Y185578D01*
X52818Y185509D01*
X52871Y185437D01*
X52921Y185362D01*
X52967Y185286D01*
X53010Y185208D01*
X53049Y185128D01*
X53085Y185046D01*
X53118Y184963D01*
X53146Y184878D01*
X53171Y184793D01*
X53193Y184706D01*
X53210Y184618D01*
X53223Y184530D01*
X53233Y184441D01*
X53239Y184352D01*
X53241Y184263D01*
X53241Y180989D01*
X53239Y180900D01*
X53233Y180811D01*
X53223Y180722D01*
X53210Y180634D01*
X53193Y180546D01*
X53171Y180459D01*
X53146Y180374D01*
X53118Y180289D01*
X53085Y180206D01*
X53049Y180124D01*
X53010Y180044D01*
X52967Y179966D01*
X52921Y179890D01*
X52871Y179815D01*
X52818Y179743D01*
X52762Y179674D01*
X52703Y179607D01*
X52642Y179542D01*
X52577Y179481D01*
X52510Y179422D01*
X52441Y179366D01*
X52369Y179313D01*
X52294Y179263D01*
X52218Y179217D01*
X52140Y179174D01*
X52060Y179135D01*
X51978Y179099D01*
X51895Y179066D01*
X51810Y179038D01*
X51725Y179013D01*
X51638Y178991D01*
X51550Y178974D01*
X51462Y178961D01*
X51373Y178951D01*
X51284Y178945D01*
X51195Y178943D01*
X49149Y178943D01*
X56708Y184672D02*
X58754Y186309D01*
X58754Y178943D01*
X56708Y178943D02*
X60800Y178943D01*
X64023Y184672D02*
X66069Y186309D01*
X66069Y178943D01*
X64023Y178943D02*
X68115Y178943D01*
X73787Y179451D02*
X73787Y186817D01*
X75833Y186817D01*
X75922Y186815D01*
X76011Y186809D01*
X76100Y186799D01*
X76188Y186786D01*
X76276Y186769D01*
X76363Y186747D01*
X76448Y186722D01*
X76533Y186694D01*
X76616Y186661D01*
X76698Y186625D01*
X76778Y186586D01*
X76856Y186543D01*
X76932Y186497D01*
X77007Y186447D01*
X77079Y186394D01*
X77148Y186338D01*
X77215Y186279D01*
X77280Y186218D01*
X77341Y186153D01*
X77400Y186086D01*
X77456Y186017D01*
X77509Y185945D01*
X77559Y185870D01*
X77605Y185794D01*
X77648Y185716D01*
X77687Y185636D01*
X77723Y185554D01*
X77756Y185471D01*
X77784Y185386D01*
X77809Y185301D01*
X77831Y185214D01*
X77848Y185126D01*
X77861Y185038D01*
X77871Y184949D01*
X77877Y184860D01*
X77879Y184771D01*
X77879Y181497D01*
X77877Y181408D01*
X77871Y181319D01*
X77861Y181230D01*
X77848Y181142D01*
X77831Y181054D01*
X77809Y180967D01*
X77784Y180882D01*
X77756Y180797D01*
X77723Y180714D01*
X77687Y180632D01*
X77648Y180552D01*
X77605Y180474D01*
X77559Y180398D01*
X77509Y180323D01*
X77456Y180251D01*
X77400Y180182D01*
X77341Y180115D01*
X77280Y180050D01*
X77215Y179989D01*
X77148Y179930D01*
X77079Y179874D01*
X77007Y179821D01*
X76932Y179771D01*
X76856Y179725D01*
X76778Y179682D01*
X76698Y179643D01*
X76616Y179607D01*
X76533Y179574D01*
X76448Y179546D01*
X76363Y179521D01*
X76276Y179499D01*
X76188Y179482D01*
X76100Y179469D01*
X76011Y179459D01*
X75922Y179453D01*
X75833Y179451D01*
X73787Y179451D01*
X81346Y185180D02*
X83392Y186817D01*
X83392Y179451D01*
X81346Y179451D02*
X85438Y179451D01*
X88662Y183134D02*
X88664Y183287D01*
X88670Y183440D01*
X88679Y183592D01*
X88693Y183745D01*
X88710Y183897D01*
X88731Y184048D01*
X88756Y184199D01*
X88785Y184349D01*
X88817Y184499D01*
X88854Y184647D01*
X88894Y184795D01*
X88937Y184942D01*
X88985Y185087D01*
X89036Y185231D01*
X89090Y185374D01*
X89149Y185516D01*
X89210Y185655D01*
X89276Y185794D01*
X89275Y185794D02*
X89301Y185864D01*
X89331Y185934D01*
X89364Y186001D01*
X89400Y186067D01*
X89439Y186131D01*
X89482Y186193D01*
X89528Y186252D01*
X89576Y186310D01*
X89627Y186364D01*
X89681Y186417D01*
X89738Y186466D01*
X89797Y186513D01*
X89858Y186556D01*
X89921Y186597D01*
X89986Y186634D01*
X90053Y186669D01*
X90122Y186699D01*
X90192Y186727D01*
X90263Y186750D01*
X90335Y186771D01*
X90408Y186787D01*
X90482Y186800D01*
X90557Y186810D01*
X90632Y186815D01*
X90707Y186817D01*
X90782Y186815D01*
X90857Y186810D01*
X90932Y186800D01*
X91006Y186787D01*
X91079Y186771D01*
X91151Y186750D01*
X91222Y186727D01*
X91292Y186699D01*
X91361Y186669D01*
X91428Y186634D01*
X91493Y186597D01*
X91556Y186556D01*
X91617Y186513D01*
X91676Y186466D01*
X91733Y186417D01*
X91787Y186364D01*
X91838Y186310D01*
X91887Y186252D01*
X91932Y186193D01*
X91975Y186131D01*
X92014Y186067D01*
X92051Y186001D01*
X92083Y185933D01*
X92113Y185864D01*
X92139Y185794D01*
X92204Y185656D01*
X92266Y185516D01*
X92324Y185374D01*
X92379Y185231D01*
X92430Y185087D01*
X92478Y184942D01*
X92521Y184795D01*
X92561Y184648D01*
X92598Y184499D01*
X92630Y184349D01*
X92659Y184199D01*
X92684Y184048D01*
X92705Y183897D01*
X92722Y183745D01*
X92736Y183592D01*
X92745Y183440D01*
X92751Y183287D01*
X92753Y183134D01*
X88661Y183134D02*
X88663Y182981D01*
X88669Y182828D01*
X88678Y182675D01*
X88692Y182523D01*
X88709Y182371D01*
X88730Y182220D01*
X88755Y182069D01*
X88784Y181918D01*
X88816Y181769D01*
X88853Y181620D01*
X88893Y181473D01*
X88936Y181326D01*
X88984Y181181D01*
X89035Y181036D01*
X89090Y180894D01*
X89148Y180752D01*
X89210Y180612D01*
X89275Y180474D01*
X89301Y180403D01*
X89331Y180334D01*
X89364Y180267D01*
X89400Y180201D01*
X89439Y180137D01*
X89482Y180075D01*
X89528Y180016D01*
X89576Y179958D01*
X89627Y179904D01*
X89681Y179851D01*
X89738Y179802D01*
X89797Y179755D01*
X89858Y179712D01*
X89921Y179671D01*
X89986Y179634D01*
X90053Y179599D01*
X90122Y179569D01*
X90192Y179541D01*
X90263Y179518D01*
X90335Y179497D01*
X90408Y179481D01*
X90482Y179468D01*
X90557Y179458D01*
X90632Y179453D01*
X90707Y179451D01*
X92139Y180474D02*
X92204Y180612D01*
X92266Y180752D01*
X92324Y180894D01*
X92379Y181037D01*
X92430Y181181D01*
X92478Y181326D01*
X92521Y181473D01*
X92561Y181621D01*
X92598Y181769D01*
X92630Y181919D01*
X92659Y182069D01*
X92684Y182220D01*
X92705Y182371D01*
X92722Y182523D01*
X92736Y182676D01*
X92745Y182828D01*
X92751Y182981D01*
X92753Y183134D01*
X92139Y180474D02*
X92113Y180404D01*
X92083Y180334D01*
X92051Y180267D01*
X92014Y180201D01*
X91975Y180137D01*
X91932Y180075D01*
X91886Y180016D01*
X91838Y179958D01*
X91787Y179904D01*
X91733Y179851D01*
X91676Y179802D01*
X91617Y179755D01*
X91556Y179712D01*
X91493Y179671D01*
X91428Y179634D01*
X91361Y179599D01*
X91292Y179569D01*
X91222Y179541D01*
X91151Y179518D01*
X91079Y179497D01*
X91006Y179481D01*
X90932Y179468D01*
X90857Y179458D01*
X90782Y179453D01*
X90707Y179451D01*
X89070Y181088D02*
X92344Y185180D01*
X103251Y186817D02*
X103251Y179451D01*
X103251Y186817D02*
X105297Y186817D01*
X105386Y186815D01*
X105475Y186809D01*
X105564Y186799D01*
X105652Y186786D01*
X105740Y186769D01*
X105827Y186747D01*
X105912Y186722D01*
X105997Y186694D01*
X106080Y186661D01*
X106162Y186625D01*
X106242Y186586D01*
X106320Y186543D01*
X106396Y186497D01*
X106471Y186447D01*
X106543Y186394D01*
X106612Y186338D01*
X106679Y186279D01*
X106744Y186218D01*
X106805Y186153D01*
X106864Y186086D01*
X106920Y186017D01*
X106973Y185945D01*
X107023Y185870D01*
X107069Y185794D01*
X107112Y185716D01*
X107151Y185636D01*
X107187Y185554D01*
X107220Y185471D01*
X107248Y185386D01*
X107273Y185301D01*
X107295Y185214D01*
X107312Y185126D01*
X107325Y185038D01*
X107335Y184949D01*
X107341Y184860D01*
X107343Y184771D01*
X107343Y181497D01*
X107341Y181408D01*
X107335Y181319D01*
X107325Y181230D01*
X107312Y181142D01*
X107295Y181054D01*
X107273Y180967D01*
X107248Y180882D01*
X107220Y180797D01*
X107187Y180714D01*
X107151Y180632D01*
X107112Y180552D01*
X107069Y180474D01*
X107023Y180398D01*
X106973Y180323D01*
X106920Y180251D01*
X106864Y180182D01*
X106805Y180115D01*
X106744Y180050D01*
X106679Y179989D01*
X106612Y179930D01*
X106543Y179874D01*
X106471Y179821D01*
X106396Y179771D01*
X106320Y179725D01*
X106242Y179682D01*
X106162Y179643D01*
X106080Y179607D01*
X105997Y179574D01*
X105912Y179546D01*
X105827Y179521D01*
X105740Y179499D01*
X105652Y179482D01*
X105564Y179469D01*
X105475Y179459D01*
X105386Y179453D01*
X105297Y179451D01*
X103251Y179451D01*
X112447Y182725D02*
X114902Y182725D01*
X112447Y182725D02*
X112369Y182727D01*
X112291Y182732D01*
X112214Y182742D01*
X112137Y182755D01*
X112061Y182771D01*
X111986Y182791D01*
X111912Y182815D01*
X111839Y182842D01*
X111767Y182873D01*
X111697Y182907D01*
X111628Y182944D01*
X111562Y182985D01*
X111497Y183029D01*
X111435Y183075D01*
X111375Y183125D01*
X111317Y183177D01*
X111262Y183232D01*
X111210Y183290D01*
X111160Y183350D01*
X111114Y183412D01*
X111070Y183477D01*
X111029Y183544D01*
X110992Y183612D01*
X110958Y183682D01*
X110927Y183754D01*
X110900Y183827D01*
X110876Y183901D01*
X110856Y183976D01*
X110840Y184052D01*
X110827Y184129D01*
X110817Y184206D01*
X110812Y184284D01*
X110810Y184362D01*
X110810Y184771D01*
X110812Y184860D01*
X110818Y184949D01*
X110828Y185038D01*
X110841Y185126D01*
X110858Y185214D01*
X110880Y185301D01*
X110905Y185386D01*
X110933Y185471D01*
X110966Y185554D01*
X111002Y185636D01*
X111041Y185716D01*
X111084Y185794D01*
X111130Y185870D01*
X111180Y185945D01*
X111233Y186017D01*
X111289Y186086D01*
X111348Y186153D01*
X111409Y186218D01*
X111474Y186279D01*
X111541Y186338D01*
X111610Y186394D01*
X111682Y186447D01*
X111757Y186497D01*
X111833Y186543D01*
X111911Y186586D01*
X111991Y186625D01*
X112073Y186661D01*
X112156Y186694D01*
X112241Y186722D01*
X112326Y186747D01*
X112413Y186769D01*
X112501Y186786D01*
X112589Y186799D01*
X112678Y186809D01*
X112767Y186815D01*
X112856Y186817D01*
X112945Y186815D01*
X113034Y186809D01*
X113123Y186799D01*
X113211Y186786D01*
X113299Y186769D01*
X113386Y186747D01*
X113471Y186722D01*
X113556Y186694D01*
X113639Y186661D01*
X113721Y186625D01*
X113801Y186586D01*
X113879Y186543D01*
X113955Y186497D01*
X114030Y186447D01*
X114102Y186394D01*
X114171Y186338D01*
X114238Y186279D01*
X114303Y186218D01*
X114364Y186153D01*
X114423Y186086D01*
X114479Y186017D01*
X114532Y185945D01*
X114582Y185870D01*
X114628Y185794D01*
X114671Y185716D01*
X114710Y185636D01*
X114746Y185554D01*
X114779Y185471D01*
X114807Y185386D01*
X114832Y185301D01*
X114854Y185214D01*
X114871Y185126D01*
X114884Y185038D01*
X114894Y184949D01*
X114900Y184860D01*
X114902Y184771D01*
X114902Y182725D01*
X114900Y182613D01*
X114894Y182502D01*
X114885Y182390D01*
X114872Y182279D01*
X114854Y182169D01*
X114834Y182059D01*
X114809Y181950D01*
X114781Y181842D01*
X114749Y181735D01*
X114713Y181629D01*
X114674Y181524D01*
X114631Y181421D01*
X114585Y181319D01*
X114535Y181219D01*
X114482Y181120D01*
X114425Y181024D01*
X114366Y180929D01*
X114303Y180837D01*
X114237Y180747D01*
X114168Y180659D01*
X114096Y180573D01*
X114021Y180490D01*
X113943Y180410D01*
X113863Y180332D01*
X113780Y180257D01*
X113694Y180185D01*
X113606Y180116D01*
X113516Y180050D01*
X113424Y179987D01*
X113329Y179928D01*
X113233Y179871D01*
X113134Y179818D01*
X113034Y179768D01*
X112932Y179722D01*
X112829Y179679D01*
X112724Y179640D01*
X112618Y179604D01*
X112511Y179572D01*
X112403Y179544D01*
X112294Y179519D01*
X112184Y179499D01*
X112074Y179481D01*
X111963Y179468D01*
X111851Y179459D01*
X111740Y179453D01*
X111628Y179451D01*
X128143Y179451D02*
X128143Y186817D01*
X130189Y186817D01*
X130278Y186815D01*
X130367Y186809D01*
X130456Y186799D01*
X130544Y186786D01*
X130632Y186769D01*
X130719Y186747D01*
X130804Y186722D01*
X130889Y186694D01*
X130972Y186661D01*
X131054Y186625D01*
X131134Y186586D01*
X131212Y186543D01*
X131288Y186497D01*
X131363Y186447D01*
X131435Y186394D01*
X131504Y186338D01*
X131571Y186279D01*
X131636Y186218D01*
X131697Y186153D01*
X131756Y186086D01*
X131812Y186017D01*
X131865Y185945D01*
X131915Y185870D01*
X131961Y185794D01*
X132004Y185716D01*
X132043Y185636D01*
X132079Y185554D01*
X132112Y185471D01*
X132140Y185386D01*
X132165Y185301D01*
X132187Y185214D01*
X132204Y185126D01*
X132217Y185038D01*
X132227Y184949D01*
X132233Y184860D01*
X132235Y184771D01*
X132235Y181497D01*
X132233Y181408D01*
X132227Y181319D01*
X132217Y181230D01*
X132204Y181142D01*
X132187Y181054D01*
X132165Y180967D01*
X132140Y180882D01*
X132112Y180797D01*
X132079Y180714D01*
X132043Y180632D01*
X132004Y180552D01*
X131961Y180474D01*
X131915Y180398D01*
X131865Y180323D01*
X131812Y180251D01*
X131756Y180182D01*
X131697Y180115D01*
X131636Y180050D01*
X131571Y179989D01*
X131504Y179930D01*
X131435Y179874D01*
X131363Y179821D01*
X131288Y179771D01*
X131212Y179725D01*
X131134Y179682D01*
X131054Y179643D01*
X130972Y179607D01*
X130889Y179574D01*
X130804Y179546D01*
X130719Y179521D01*
X130632Y179499D01*
X130544Y179482D01*
X130456Y179469D01*
X130367Y179459D01*
X130278Y179453D01*
X130189Y179451D01*
X128143Y179451D01*
X135702Y181497D02*
X135704Y181586D01*
X135710Y181675D01*
X135720Y181764D01*
X135733Y181852D01*
X135750Y181940D01*
X135772Y182027D01*
X135797Y182112D01*
X135825Y182197D01*
X135858Y182280D01*
X135894Y182362D01*
X135933Y182442D01*
X135976Y182520D01*
X136022Y182596D01*
X136072Y182671D01*
X136125Y182743D01*
X136181Y182812D01*
X136240Y182879D01*
X136301Y182944D01*
X136366Y183005D01*
X136433Y183064D01*
X136502Y183120D01*
X136574Y183173D01*
X136649Y183223D01*
X136725Y183269D01*
X136803Y183312D01*
X136883Y183351D01*
X136965Y183387D01*
X137048Y183420D01*
X137133Y183448D01*
X137218Y183473D01*
X137305Y183495D01*
X137393Y183512D01*
X137481Y183525D01*
X137570Y183535D01*
X137659Y183541D01*
X137748Y183543D01*
X137837Y183541D01*
X137926Y183535D01*
X138015Y183525D01*
X138103Y183512D01*
X138191Y183495D01*
X138278Y183473D01*
X138363Y183448D01*
X138448Y183420D01*
X138531Y183387D01*
X138613Y183351D01*
X138693Y183312D01*
X138771Y183269D01*
X138847Y183223D01*
X138922Y183173D01*
X138994Y183120D01*
X139063Y183064D01*
X139130Y183005D01*
X139195Y182944D01*
X139256Y182879D01*
X139315Y182812D01*
X139371Y182743D01*
X139424Y182671D01*
X139474Y182596D01*
X139520Y182520D01*
X139563Y182442D01*
X139602Y182362D01*
X139638Y182280D01*
X139671Y182197D01*
X139699Y182112D01*
X139724Y182027D01*
X139746Y181940D01*
X139763Y181852D01*
X139776Y181764D01*
X139786Y181675D01*
X139792Y181586D01*
X139794Y181497D01*
X139792Y181408D01*
X139786Y181319D01*
X139776Y181230D01*
X139763Y181142D01*
X139746Y181054D01*
X139724Y180967D01*
X139699Y180882D01*
X139671Y180797D01*
X139638Y180714D01*
X139602Y180632D01*
X139563Y180552D01*
X139520Y180474D01*
X139474Y180398D01*
X139424Y180323D01*
X139371Y180251D01*
X139315Y180182D01*
X139256Y180115D01*
X139195Y180050D01*
X139130Y179989D01*
X139063Y179930D01*
X138994Y179874D01*
X138922Y179821D01*
X138847Y179771D01*
X138771Y179725D01*
X138693Y179682D01*
X138613Y179643D01*
X138531Y179607D01*
X138448Y179574D01*
X138363Y179546D01*
X138278Y179521D01*
X138191Y179499D01*
X138103Y179482D01*
X138015Y179469D01*
X137926Y179459D01*
X137837Y179453D01*
X137748Y179451D01*
X137659Y179453D01*
X137570Y179459D01*
X137481Y179469D01*
X137393Y179482D01*
X137305Y179499D01*
X137218Y179521D01*
X137133Y179546D01*
X137048Y179574D01*
X136965Y179607D01*
X136883Y179643D01*
X136803Y179682D01*
X136725Y179725D01*
X136649Y179771D01*
X136574Y179821D01*
X136502Y179874D01*
X136433Y179930D01*
X136366Y179989D01*
X136301Y180050D01*
X136240Y180115D01*
X136181Y180182D01*
X136125Y180251D01*
X136072Y180323D01*
X136022Y180398D01*
X135976Y180474D01*
X135933Y180552D01*
X135894Y180632D01*
X135858Y180714D01*
X135825Y180797D01*
X135797Y180882D01*
X135772Y180967D01*
X135750Y181054D01*
X135733Y181142D01*
X135720Y181230D01*
X135710Y181319D01*
X135704Y181408D01*
X135702Y181497D01*
X136111Y185180D02*
X136113Y185259D01*
X136119Y185338D01*
X136128Y185417D01*
X136141Y185495D01*
X136159Y185572D01*
X136179Y185648D01*
X136204Y185723D01*
X136232Y185797D01*
X136263Y185870D01*
X136299Y185941D01*
X136337Y186010D01*
X136379Y186077D01*
X136424Y186142D01*
X136472Y186205D01*
X136523Y186266D01*
X136577Y186323D01*
X136633Y186379D01*
X136692Y186431D01*
X136754Y186481D01*
X136818Y186527D01*
X136884Y186571D01*
X136952Y186611D01*
X137022Y186647D01*
X137094Y186681D01*
X137168Y186711D01*
X137242Y186737D01*
X137318Y186760D01*
X137395Y186778D01*
X137472Y186794D01*
X137551Y186805D01*
X137629Y186813D01*
X137708Y186817D01*
X137788Y186817D01*
X137867Y186813D01*
X137945Y186805D01*
X138024Y186794D01*
X138101Y186778D01*
X138178Y186760D01*
X138254Y186737D01*
X138328Y186711D01*
X138402Y186681D01*
X138474Y186647D01*
X138544Y186611D01*
X138612Y186571D01*
X138678Y186527D01*
X138742Y186481D01*
X138804Y186431D01*
X138863Y186379D01*
X138919Y186323D01*
X138973Y186266D01*
X139024Y186205D01*
X139072Y186142D01*
X139117Y186077D01*
X139159Y186010D01*
X139197Y185941D01*
X139233Y185870D01*
X139264Y185797D01*
X139292Y185723D01*
X139317Y185648D01*
X139337Y185572D01*
X139355Y185495D01*
X139368Y185417D01*
X139377Y185338D01*
X139383Y185259D01*
X139385Y185180D01*
X139383Y185101D01*
X139377Y185022D01*
X139368Y184943D01*
X139355Y184865D01*
X139337Y184788D01*
X139317Y184712D01*
X139292Y184637D01*
X139264Y184563D01*
X139233Y184490D01*
X139197Y184419D01*
X139159Y184350D01*
X139117Y184283D01*
X139072Y184218D01*
X139024Y184155D01*
X138973Y184094D01*
X138919Y184037D01*
X138863Y183981D01*
X138804Y183929D01*
X138742Y183879D01*
X138678Y183833D01*
X138612Y183789D01*
X138544Y183749D01*
X138474Y183713D01*
X138402Y183679D01*
X138328Y183649D01*
X138254Y183623D01*
X138178Y183600D01*
X138101Y183582D01*
X138024Y183566D01*
X137945Y183555D01*
X137867Y183547D01*
X137788Y183543D01*
X137708Y183543D01*
X137629Y183547D01*
X137551Y183555D01*
X137472Y183566D01*
X137395Y183582D01*
X137318Y183600D01*
X137242Y183623D01*
X137168Y183649D01*
X137094Y183679D01*
X137022Y183713D01*
X136952Y183749D01*
X136884Y183789D01*
X136818Y183833D01*
X136754Y183879D01*
X136692Y183929D01*
X136633Y183981D01*
X136577Y184037D01*
X136523Y184094D01*
X136472Y184155D01*
X136424Y184218D01*
X136379Y184283D01*
X136337Y184350D01*
X136299Y184419D01*
X136263Y184490D01*
X136232Y184563D01*
X136204Y184637D01*
X136179Y184712D01*
X136159Y184788D01*
X136141Y184865D01*
X136128Y184943D01*
X136119Y185022D01*
X136113Y185101D01*
X136111Y185180D01*
X154559Y187071D02*
X154559Y179705D01*
X154559Y187071D02*
X156605Y187071D01*
X156694Y187069D01*
X156783Y187063D01*
X156872Y187053D01*
X156960Y187040D01*
X157048Y187023D01*
X157135Y187001D01*
X157220Y186976D01*
X157305Y186948D01*
X157388Y186915D01*
X157470Y186879D01*
X157550Y186840D01*
X157628Y186797D01*
X157704Y186751D01*
X157779Y186701D01*
X157851Y186648D01*
X157920Y186592D01*
X157987Y186533D01*
X158052Y186472D01*
X158113Y186407D01*
X158172Y186340D01*
X158228Y186271D01*
X158281Y186199D01*
X158331Y186124D01*
X158377Y186048D01*
X158420Y185970D01*
X158459Y185890D01*
X158495Y185808D01*
X158528Y185725D01*
X158556Y185640D01*
X158581Y185555D01*
X158603Y185468D01*
X158620Y185380D01*
X158633Y185292D01*
X158643Y185203D01*
X158649Y185114D01*
X158651Y185025D01*
X158651Y181751D01*
X158649Y181662D01*
X158643Y181573D01*
X158633Y181484D01*
X158620Y181396D01*
X158603Y181308D01*
X158581Y181221D01*
X158556Y181136D01*
X158528Y181051D01*
X158495Y180968D01*
X158459Y180886D01*
X158420Y180806D01*
X158377Y180728D01*
X158331Y180652D01*
X158281Y180577D01*
X158228Y180505D01*
X158172Y180436D01*
X158113Y180369D01*
X158052Y180304D01*
X157987Y180243D01*
X157920Y180184D01*
X157851Y180128D01*
X157779Y180075D01*
X157704Y180025D01*
X157628Y179979D01*
X157550Y179936D01*
X157470Y179897D01*
X157388Y179861D01*
X157305Y179828D01*
X157220Y179800D01*
X157135Y179775D01*
X157048Y179753D01*
X156960Y179736D01*
X156872Y179723D01*
X156783Y179713D01*
X156694Y179707D01*
X156605Y179705D01*
X154559Y179705D01*
X162118Y186253D02*
X162118Y187071D01*
X166210Y187071D01*
X164164Y179705D01*
X179197Y179705D02*
X179197Y187071D01*
X181243Y187071D01*
X181332Y187069D01*
X181421Y187063D01*
X181510Y187053D01*
X181598Y187040D01*
X181686Y187023D01*
X181773Y187001D01*
X181858Y186976D01*
X181943Y186948D01*
X182026Y186915D01*
X182108Y186879D01*
X182188Y186840D01*
X182266Y186797D01*
X182342Y186751D01*
X182417Y186701D01*
X182489Y186648D01*
X182558Y186592D01*
X182625Y186533D01*
X182690Y186472D01*
X182751Y186407D01*
X182810Y186340D01*
X182866Y186271D01*
X182919Y186199D01*
X182969Y186124D01*
X183015Y186048D01*
X183058Y185970D01*
X183097Y185890D01*
X183133Y185808D01*
X183166Y185725D01*
X183194Y185640D01*
X183219Y185555D01*
X183241Y185468D01*
X183258Y185380D01*
X183271Y185292D01*
X183281Y185203D01*
X183287Y185114D01*
X183289Y185025D01*
X183289Y181751D01*
X183287Y181662D01*
X183281Y181573D01*
X183271Y181484D01*
X183258Y181396D01*
X183241Y181308D01*
X183219Y181221D01*
X183194Y181136D01*
X183166Y181051D01*
X183133Y180968D01*
X183097Y180886D01*
X183058Y180806D01*
X183015Y180728D01*
X182969Y180652D01*
X182919Y180577D01*
X182866Y180505D01*
X182810Y180436D01*
X182751Y180369D01*
X182690Y180304D01*
X182625Y180243D01*
X182558Y180184D01*
X182489Y180128D01*
X182417Y180075D01*
X182342Y180025D01*
X182266Y179979D01*
X182188Y179936D01*
X182108Y179897D01*
X182026Y179861D01*
X181943Y179828D01*
X181858Y179800D01*
X181773Y179775D01*
X181686Y179753D01*
X181598Y179736D01*
X181510Y179723D01*
X181421Y179713D01*
X181332Y179707D01*
X181243Y179705D01*
X179197Y179705D01*
X186756Y183797D02*
X189211Y183797D01*
X189289Y183795D01*
X189367Y183790D01*
X189444Y183780D01*
X189521Y183767D01*
X189597Y183751D01*
X189672Y183731D01*
X189746Y183707D01*
X189819Y183680D01*
X189891Y183649D01*
X189961Y183615D01*
X190030Y183578D01*
X190096Y183537D01*
X190161Y183493D01*
X190223Y183447D01*
X190283Y183397D01*
X190341Y183345D01*
X190396Y183290D01*
X190448Y183232D01*
X190498Y183172D01*
X190544Y183110D01*
X190588Y183045D01*
X190629Y182979D01*
X190666Y182910D01*
X190700Y182840D01*
X190731Y182768D01*
X190758Y182695D01*
X190782Y182621D01*
X190802Y182546D01*
X190818Y182470D01*
X190831Y182393D01*
X190841Y182316D01*
X190846Y182238D01*
X190848Y182160D01*
X190848Y181751D01*
X190846Y181662D01*
X190840Y181573D01*
X190830Y181484D01*
X190817Y181396D01*
X190800Y181308D01*
X190778Y181221D01*
X190753Y181136D01*
X190725Y181051D01*
X190692Y180968D01*
X190656Y180886D01*
X190617Y180806D01*
X190574Y180728D01*
X190528Y180652D01*
X190478Y180577D01*
X190425Y180505D01*
X190369Y180436D01*
X190310Y180369D01*
X190249Y180304D01*
X190184Y180243D01*
X190117Y180184D01*
X190048Y180128D01*
X189976Y180075D01*
X189901Y180025D01*
X189825Y179979D01*
X189747Y179936D01*
X189667Y179897D01*
X189585Y179861D01*
X189502Y179828D01*
X189417Y179800D01*
X189332Y179775D01*
X189245Y179753D01*
X189157Y179736D01*
X189069Y179723D01*
X188980Y179713D01*
X188891Y179707D01*
X188802Y179705D01*
X188713Y179707D01*
X188624Y179713D01*
X188535Y179723D01*
X188447Y179736D01*
X188359Y179753D01*
X188272Y179775D01*
X188187Y179800D01*
X188102Y179828D01*
X188019Y179861D01*
X187937Y179897D01*
X187857Y179936D01*
X187779Y179979D01*
X187703Y180025D01*
X187628Y180075D01*
X187556Y180128D01*
X187487Y180184D01*
X187420Y180243D01*
X187355Y180304D01*
X187294Y180369D01*
X187235Y180436D01*
X187179Y180505D01*
X187126Y180577D01*
X187076Y180652D01*
X187030Y180728D01*
X186987Y180806D01*
X186948Y180886D01*
X186912Y180968D01*
X186879Y181051D01*
X186851Y181136D01*
X186826Y181221D01*
X186804Y181308D01*
X186787Y181396D01*
X186774Y181484D01*
X186764Y181573D01*
X186758Y181662D01*
X186756Y181751D01*
X186756Y183797D01*
X186758Y183911D01*
X186764Y184025D01*
X186774Y184139D01*
X186788Y184253D01*
X186806Y184366D01*
X186828Y184478D01*
X186853Y184589D01*
X186883Y184699D01*
X186916Y184809D01*
X186953Y184917D01*
X186994Y185023D01*
X187039Y185129D01*
X187087Y185232D01*
X187139Y185334D01*
X187195Y185434D01*
X187253Y185532D01*
X187316Y185628D01*
X187381Y185721D01*
X187450Y185813D01*
X187522Y185901D01*
X187597Y185988D01*
X187675Y186071D01*
X187756Y186152D01*
X187839Y186230D01*
X187926Y186305D01*
X188014Y186377D01*
X188106Y186446D01*
X188199Y186511D01*
X188295Y186573D01*
X188393Y186632D01*
X188493Y186688D01*
X188595Y186740D01*
X188698Y186788D01*
X188804Y186833D01*
X188910Y186874D01*
X189018Y186911D01*
X189128Y186944D01*
X189238Y186974D01*
X189349Y186999D01*
X189461Y187021D01*
X189574Y187039D01*
X189688Y187053D01*
X189802Y187063D01*
X189916Y187069D01*
X190030Y187071D01*
X204343Y187071D02*
X204343Y179705D01*
X204343Y187071D02*
X206389Y187071D01*
X206478Y187069D01*
X206567Y187063D01*
X206656Y187053D01*
X206744Y187040D01*
X206832Y187023D01*
X206919Y187001D01*
X207004Y186976D01*
X207089Y186948D01*
X207172Y186915D01*
X207254Y186879D01*
X207334Y186840D01*
X207412Y186797D01*
X207488Y186751D01*
X207563Y186701D01*
X207635Y186648D01*
X207704Y186592D01*
X207771Y186533D01*
X207836Y186472D01*
X207897Y186407D01*
X207956Y186340D01*
X208012Y186271D01*
X208065Y186199D01*
X208115Y186124D01*
X208161Y186048D01*
X208204Y185970D01*
X208243Y185890D01*
X208279Y185808D01*
X208312Y185725D01*
X208340Y185640D01*
X208365Y185555D01*
X208387Y185468D01*
X208404Y185380D01*
X208417Y185292D01*
X208427Y185203D01*
X208433Y185114D01*
X208435Y185025D01*
X208435Y181751D01*
X208433Y181662D01*
X208427Y181573D01*
X208417Y181484D01*
X208404Y181396D01*
X208387Y181308D01*
X208365Y181221D01*
X208340Y181136D01*
X208312Y181051D01*
X208279Y180968D01*
X208243Y180886D01*
X208204Y180806D01*
X208161Y180728D01*
X208115Y180652D01*
X208065Y180577D01*
X208012Y180505D01*
X207956Y180436D01*
X207897Y180369D01*
X207836Y180304D01*
X207771Y180243D01*
X207704Y180184D01*
X207635Y180128D01*
X207563Y180075D01*
X207488Y180025D01*
X207412Y179979D01*
X207334Y179936D01*
X207254Y179897D01*
X207172Y179861D01*
X207089Y179828D01*
X207004Y179800D01*
X206919Y179775D01*
X206832Y179753D01*
X206744Y179736D01*
X206656Y179723D01*
X206567Y179713D01*
X206478Y179707D01*
X206389Y179705D01*
X204343Y179705D01*
X211902Y179705D02*
X214357Y179705D01*
X214435Y179707D01*
X214513Y179712D01*
X214590Y179722D01*
X214667Y179735D01*
X214743Y179751D01*
X214818Y179771D01*
X214892Y179795D01*
X214965Y179822D01*
X215037Y179853D01*
X215107Y179887D01*
X215176Y179924D01*
X215242Y179965D01*
X215307Y180009D01*
X215369Y180055D01*
X215429Y180105D01*
X215487Y180157D01*
X215542Y180212D01*
X215594Y180270D01*
X215644Y180330D01*
X215690Y180392D01*
X215734Y180457D01*
X215775Y180524D01*
X215812Y180592D01*
X215846Y180662D01*
X215877Y180734D01*
X215904Y180807D01*
X215928Y180881D01*
X215948Y180956D01*
X215964Y181032D01*
X215977Y181109D01*
X215987Y181186D01*
X215992Y181264D01*
X215994Y181342D01*
X215994Y182160D01*
X215992Y182238D01*
X215987Y182316D01*
X215977Y182393D01*
X215964Y182470D01*
X215948Y182546D01*
X215928Y182621D01*
X215904Y182695D01*
X215877Y182768D01*
X215846Y182840D01*
X215812Y182910D01*
X215775Y182979D01*
X215734Y183045D01*
X215690Y183110D01*
X215644Y183172D01*
X215594Y183232D01*
X215542Y183290D01*
X215487Y183345D01*
X215429Y183397D01*
X215369Y183447D01*
X215307Y183493D01*
X215242Y183537D01*
X215176Y183578D01*
X215107Y183615D01*
X215037Y183649D01*
X214965Y183680D01*
X214892Y183707D01*
X214818Y183731D01*
X214743Y183751D01*
X214667Y183767D01*
X214590Y183780D01*
X214513Y183790D01*
X214435Y183795D01*
X214357Y183797D01*
X211902Y183797D01*
X211902Y187071D01*
X215994Y187071D01*
X229743Y187071D02*
X229743Y179705D01*
X229743Y187071D02*
X231789Y187071D01*
X231878Y187069D01*
X231967Y187063D01*
X232056Y187053D01*
X232144Y187040D01*
X232232Y187023D01*
X232319Y187001D01*
X232404Y186976D01*
X232489Y186948D01*
X232572Y186915D01*
X232654Y186879D01*
X232734Y186840D01*
X232812Y186797D01*
X232888Y186751D01*
X232963Y186701D01*
X233035Y186648D01*
X233104Y186592D01*
X233171Y186533D01*
X233236Y186472D01*
X233297Y186407D01*
X233356Y186340D01*
X233412Y186271D01*
X233465Y186199D01*
X233515Y186124D01*
X233561Y186048D01*
X233604Y185970D01*
X233643Y185890D01*
X233679Y185808D01*
X233712Y185725D01*
X233740Y185640D01*
X233765Y185555D01*
X233787Y185468D01*
X233804Y185380D01*
X233817Y185292D01*
X233827Y185203D01*
X233833Y185114D01*
X233835Y185025D01*
X233835Y181751D01*
X233833Y181662D01*
X233827Y181573D01*
X233817Y181484D01*
X233804Y181396D01*
X233787Y181308D01*
X233765Y181221D01*
X233740Y181136D01*
X233712Y181051D01*
X233679Y180968D01*
X233643Y180886D01*
X233604Y180806D01*
X233561Y180728D01*
X233515Y180652D01*
X233465Y180577D01*
X233412Y180505D01*
X233356Y180436D01*
X233297Y180369D01*
X233236Y180304D01*
X233171Y180243D01*
X233104Y180184D01*
X233035Y180128D01*
X232963Y180075D01*
X232888Y180025D01*
X232812Y179979D01*
X232734Y179936D01*
X232654Y179897D01*
X232572Y179861D01*
X232489Y179828D01*
X232404Y179800D01*
X232319Y179775D01*
X232232Y179753D01*
X232144Y179736D01*
X232056Y179723D01*
X231967Y179713D01*
X231878Y179707D01*
X231789Y179705D01*
X229743Y179705D01*
X237302Y181342D02*
X238939Y187071D01*
X237302Y181342D02*
X241394Y181342D01*
X240167Y182979D02*
X240167Y179705D01*
X255651Y179451D02*
X255651Y186817D01*
X257697Y186817D01*
X257786Y186815D01*
X257875Y186809D01*
X257964Y186799D01*
X258052Y186786D01*
X258140Y186769D01*
X258227Y186747D01*
X258312Y186722D01*
X258397Y186694D01*
X258480Y186661D01*
X258562Y186625D01*
X258642Y186586D01*
X258720Y186543D01*
X258796Y186497D01*
X258871Y186447D01*
X258943Y186394D01*
X259012Y186338D01*
X259079Y186279D01*
X259144Y186218D01*
X259205Y186153D01*
X259264Y186086D01*
X259320Y186017D01*
X259373Y185945D01*
X259423Y185870D01*
X259469Y185794D01*
X259512Y185716D01*
X259551Y185636D01*
X259587Y185554D01*
X259620Y185471D01*
X259648Y185386D01*
X259673Y185301D01*
X259695Y185214D01*
X259712Y185126D01*
X259725Y185038D01*
X259735Y184949D01*
X259741Y184860D01*
X259743Y184771D01*
X259743Y181497D01*
X259741Y181408D01*
X259735Y181319D01*
X259725Y181230D01*
X259712Y181142D01*
X259695Y181054D01*
X259673Y180967D01*
X259648Y180882D01*
X259620Y180797D01*
X259587Y180714D01*
X259551Y180632D01*
X259512Y180552D01*
X259469Y180474D01*
X259423Y180398D01*
X259373Y180323D01*
X259320Y180251D01*
X259264Y180182D01*
X259205Y180115D01*
X259144Y180050D01*
X259079Y179989D01*
X259012Y179930D01*
X258943Y179874D01*
X258871Y179821D01*
X258796Y179771D01*
X258720Y179725D01*
X258642Y179682D01*
X258562Y179643D01*
X258480Y179607D01*
X258397Y179574D01*
X258312Y179546D01*
X258227Y179521D01*
X258140Y179499D01*
X258052Y179482D01*
X257964Y179469D01*
X257875Y179459D01*
X257786Y179453D01*
X257697Y179451D01*
X255651Y179451D01*
X263210Y179451D02*
X265256Y179451D01*
X265345Y179453D01*
X265434Y179459D01*
X265523Y179469D01*
X265611Y179482D01*
X265699Y179499D01*
X265786Y179521D01*
X265871Y179546D01*
X265956Y179574D01*
X266039Y179607D01*
X266121Y179643D01*
X266201Y179682D01*
X266279Y179725D01*
X266355Y179771D01*
X266430Y179821D01*
X266502Y179874D01*
X266571Y179930D01*
X266638Y179989D01*
X266703Y180050D01*
X266764Y180115D01*
X266823Y180182D01*
X266879Y180251D01*
X266932Y180323D01*
X266982Y180398D01*
X267028Y180474D01*
X267071Y180552D01*
X267110Y180632D01*
X267146Y180714D01*
X267179Y180797D01*
X267207Y180882D01*
X267232Y180967D01*
X267254Y181054D01*
X267271Y181142D01*
X267284Y181230D01*
X267294Y181319D01*
X267300Y181408D01*
X267302Y181497D01*
X267300Y181586D01*
X267294Y181675D01*
X267284Y181764D01*
X267271Y181852D01*
X267254Y181940D01*
X267232Y182027D01*
X267207Y182112D01*
X267179Y182197D01*
X267146Y182280D01*
X267110Y182362D01*
X267071Y182442D01*
X267028Y182520D01*
X266982Y182596D01*
X266932Y182671D01*
X266879Y182743D01*
X266823Y182812D01*
X266764Y182879D01*
X266703Y182944D01*
X266638Y183005D01*
X266571Y183064D01*
X266502Y183120D01*
X266430Y183173D01*
X266355Y183223D01*
X266279Y183269D01*
X266201Y183312D01*
X266121Y183351D01*
X266039Y183387D01*
X265956Y183420D01*
X265871Y183448D01*
X265786Y183473D01*
X265699Y183495D01*
X265611Y183512D01*
X265523Y183525D01*
X265434Y183535D01*
X265345Y183541D01*
X265256Y183543D01*
X265665Y186817D02*
X263210Y186817D01*
X265665Y186817D02*
X265744Y186815D01*
X265823Y186809D01*
X265902Y186800D01*
X265980Y186787D01*
X266057Y186769D01*
X266133Y186749D01*
X266208Y186724D01*
X266282Y186696D01*
X266355Y186665D01*
X266426Y186629D01*
X266495Y186591D01*
X266562Y186549D01*
X266627Y186504D01*
X266690Y186456D01*
X266751Y186405D01*
X266808Y186351D01*
X266864Y186295D01*
X266916Y186236D01*
X266966Y186174D01*
X267012Y186110D01*
X267056Y186044D01*
X267096Y185976D01*
X267132Y185906D01*
X267166Y185834D01*
X267196Y185760D01*
X267222Y185686D01*
X267245Y185610D01*
X267263Y185533D01*
X267279Y185456D01*
X267290Y185377D01*
X267298Y185299D01*
X267302Y185220D01*
X267302Y185140D01*
X267298Y185061D01*
X267290Y184983D01*
X267279Y184904D01*
X267263Y184827D01*
X267245Y184750D01*
X267222Y184674D01*
X267196Y184600D01*
X267166Y184526D01*
X267132Y184454D01*
X267096Y184384D01*
X267056Y184316D01*
X267012Y184250D01*
X266966Y184186D01*
X266916Y184124D01*
X266864Y184065D01*
X266808Y184009D01*
X266751Y183955D01*
X266690Y183904D01*
X266627Y183856D01*
X266562Y183811D01*
X266495Y183769D01*
X266426Y183731D01*
X266355Y183695D01*
X266282Y183664D01*
X266208Y183636D01*
X266133Y183611D01*
X266057Y183591D01*
X265980Y183573D01*
X265902Y183560D01*
X265823Y183551D01*
X265744Y183545D01*
X265665Y183543D01*
X264028Y183543D01*
X280543Y187071D02*
X280543Y179705D01*
X280543Y187071D02*
X282589Y187071D01*
X282678Y187069D01*
X282767Y187063D01*
X282856Y187053D01*
X282944Y187040D01*
X283032Y187023D01*
X283119Y187001D01*
X283204Y186976D01*
X283289Y186948D01*
X283372Y186915D01*
X283454Y186879D01*
X283534Y186840D01*
X283612Y186797D01*
X283688Y186751D01*
X283763Y186701D01*
X283835Y186648D01*
X283904Y186592D01*
X283971Y186533D01*
X284036Y186472D01*
X284097Y186407D01*
X284156Y186340D01*
X284212Y186271D01*
X284265Y186199D01*
X284315Y186124D01*
X284361Y186048D01*
X284404Y185970D01*
X284443Y185890D01*
X284479Y185808D01*
X284512Y185725D01*
X284540Y185640D01*
X284565Y185555D01*
X284587Y185468D01*
X284604Y185380D01*
X284617Y185292D01*
X284627Y185203D01*
X284633Y185114D01*
X284635Y185025D01*
X284635Y181751D01*
X284633Y181662D01*
X284627Y181573D01*
X284617Y181484D01*
X284604Y181396D01*
X284587Y181308D01*
X284565Y181221D01*
X284540Y181136D01*
X284512Y181051D01*
X284479Y180968D01*
X284443Y180886D01*
X284404Y180806D01*
X284361Y180728D01*
X284315Y180652D01*
X284265Y180577D01*
X284212Y180505D01*
X284156Y180436D01*
X284097Y180369D01*
X284036Y180304D01*
X283971Y180243D01*
X283904Y180184D01*
X283835Y180128D01*
X283763Y180075D01*
X283688Y180025D01*
X283612Y179979D01*
X283534Y179936D01*
X283454Y179897D01*
X283372Y179861D01*
X283289Y179828D01*
X283204Y179800D01*
X283119Y179775D01*
X283032Y179753D01*
X282944Y179736D01*
X282856Y179723D01*
X282767Y179713D01*
X282678Y179707D01*
X282589Y179705D01*
X280543Y179705D01*
X290353Y187072D02*
X290438Y187070D01*
X290523Y187064D01*
X290607Y187054D01*
X290691Y187041D01*
X290775Y187023D01*
X290857Y187002D01*
X290938Y186977D01*
X291018Y186948D01*
X291097Y186915D01*
X291174Y186879D01*
X291249Y186839D01*
X291323Y186796D01*
X291394Y186750D01*
X291463Y186700D01*
X291530Y186647D01*
X291594Y186591D01*
X291655Y186532D01*
X291714Y186471D01*
X291770Y186407D01*
X291823Y186340D01*
X291873Y186271D01*
X291919Y186200D01*
X291962Y186126D01*
X292002Y186051D01*
X292038Y185974D01*
X292071Y185895D01*
X292100Y185815D01*
X292125Y185734D01*
X292146Y185652D01*
X292164Y185568D01*
X292177Y185484D01*
X292187Y185400D01*
X292193Y185315D01*
X292195Y185230D01*
X290353Y187071D02*
X290257Y187069D01*
X290161Y187063D01*
X290066Y187053D01*
X289971Y187040D01*
X289876Y187022D01*
X289783Y187001D01*
X289690Y186976D01*
X289599Y186947D01*
X289508Y186915D01*
X289419Y186879D01*
X289332Y186839D01*
X289246Y186796D01*
X289162Y186750D01*
X289080Y186700D01*
X289000Y186646D01*
X288923Y186590D01*
X288848Y186530D01*
X288775Y186468D01*
X288705Y186402D01*
X288637Y186334D01*
X288572Y186263D01*
X288511Y186190D01*
X288452Y186114D01*
X288396Y186035D01*
X288344Y185955D01*
X288295Y185872D01*
X288249Y185788D01*
X288207Y185702D01*
X288169Y185614D01*
X288134Y185525D01*
X288102Y185434D01*
X291580Y183798D02*
X291640Y183857D01*
X291697Y183919D01*
X291752Y183983D01*
X291803Y184050D01*
X291852Y184119D01*
X291898Y184189D01*
X291941Y184262D01*
X291981Y184336D01*
X292017Y184412D01*
X292050Y184490D01*
X292080Y184569D01*
X292107Y184649D01*
X292130Y184730D01*
X292149Y184812D01*
X292165Y184894D01*
X292178Y184978D01*
X292187Y185062D01*
X292192Y185146D01*
X292194Y185230D01*
X291580Y183797D02*
X288102Y179705D01*
X292194Y179705D01*
X328803Y179451D02*
X328803Y186817D01*
X330849Y186817D01*
X330938Y186815D01*
X331027Y186809D01*
X331116Y186799D01*
X331204Y186786D01*
X331292Y186769D01*
X331379Y186747D01*
X331464Y186722D01*
X331549Y186694D01*
X331632Y186661D01*
X331714Y186625D01*
X331794Y186586D01*
X331872Y186543D01*
X331948Y186497D01*
X332023Y186447D01*
X332095Y186394D01*
X332164Y186338D01*
X332231Y186279D01*
X332296Y186218D01*
X332357Y186153D01*
X332416Y186086D01*
X332472Y186017D01*
X332525Y185945D01*
X332575Y185870D01*
X332621Y185794D01*
X332664Y185716D01*
X332703Y185636D01*
X332739Y185554D01*
X332772Y185471D01*
X332800Y185386D01*
X332825Y185301D01*
X332847Y185214D01*
X332864Y185126D01*
X332877Y185038D01*
X332887Y184949D01*
X332893Y184860D01*
X332895Y184771D01*
X332893Y184682D01*
X332887Y184593D01*
X332877Y184504D01*
X332864Y184416D01*
X332847Y184328D01*
X332825Y184241D01*
X332800Y184156D01*
X332772Y184071D01*
X332739Y183988D01*
X332703Y183906D01*
X332664Y183826D01*
X332621Y183748D01*
X332575Y183672D01*
X332525Y183597D01*
X332472Y183525D01*
X332416Y183456D01*
X332357Y183389D01*
X332296Y183324D01*
X332231Y183263D01*
X332164Y183204D01*
X332095Y183148D01*
X332023Y183095D01*
X331948Y183045D01*
X331872Y182999D01*
X331794Y182956D01*
X331714Y182917D01*
X331632Y182881D01*
X331549Y182848D01*
X331464Y182820D01*
X331379Y182795D01*
X331292Y182773D01*
X331204Y182756D01*
X331116Y182743D01*
X331027Y182733D01*
X330938Y182727D01*
X330849Y182725D01*
X328803Y182725D01*
X331258Y182725D02*
X332895Y179451D01*
X338279Y179451D02*
X338357Y179453D01*
X338435Y179458D01*
X338512Y179468D01*
X338589Y179481D01*
X338665Y179497D01*
X338740Y179517D01*
X338814Y179541D01*
X338887Y179568D01*
X338959Y179599D01*
X339029Y179633D01*
X339098Y179670D01*
X339164Y179711D01*
X339229Y179755D01*
X339291Y179801D01*
X339351Y179851D01*
X339409Y179903D01*
X339464Y179958D01*
X339516Y180016D01*
X339566Y180076D01*
X339612Y180138D01*
X339656Y180203D01*
X339697Y180270D01*
X339734Y180338D01*
X339768Y180408D01*
X339799Y180480D01*
X339826Y180553D01*
X339850Y180627D01*
X339870Y180702D01*
X339886Y180778D01*
X339899Y180855D01*
X339909Y180932D01*
X339914Y181010D01*
X339916Y181088D01*
X338279Y179451D02*
X338165Y179453D01*
X338052Y179458D01*
X337938Y179468D01*
X337825Y179481D01*
X337713Y179498D01*
X337601Y179518D01*
X337490Y179542D01*
X337379Y179570D01*
X337270Y179601D01*
X337162Y179636D01*
X337055Y179675D01*
X336949Y179717D01*
X336845Y179762D01*
X336742Y179811D01*
X336641Y179864D01*
X336542Y179919D01*
X336444Y179978D01*
X336349Y180040D01*
X336256Y180105D01*
X336164Y180173D01*
X336076Y180244D01*
X335989Y180318D01*
X335905Y180395D01*
X335824Y180474D01*
X336028Y185180D02*
X336030Y185258D01*
X336035Y185336D01*
X336045Y185413D01*
X336058Y185490D01*
X336074Y185566D01*
X336094Y185641D01*
X336118Y185715D01*
X336145Y185788D01*
X336176Y185860D01*
X336210Y185930D01*
X336247Y185999D01*
X336288Y186065D01*
X336332Y186130D01*
X336378Y186192D01*
X336428Y186252D01*
X336480Y186310D01*
X336535Y186365D01*
X336593Y186417D01*
X336653Y186467D01*
X336715Y186513D01*
X336780Y186557D01*
X336847Y186598D01*
X336915Y186635D01*
X336985Y186669D01*
X337057Y186700D01*
X337130Y186727D01*
X337204Y186751D01*
X337279Y186771D01*
X337355Y186787D01*
X337432Y186800D01*
X337509Y186810D01*
X337587Y186815D01*
X337665Y186817D01*
X337775Y186815D01*
X337884Y186809D01*
X337994Y186799D01*
X338102Y186786D01*
X338211Y186768D01*
X338318Y186747D01*
X338425Y186721D01*
X338531Y186692D01*
X338636Y186660D01*
X338739Y186623D01*
X338841Y186583D01*
X338942Y186539D01*
X339041Y186491D01*
X339138Y186441D01*
X339233Y186386D01*
X339326Y186328D01*
X339417Y186267D01*
X339506Y186203D01*
X336846Y183747D02*
X336779Y183789D01*
X336714Y183833D01*
X336652Y183881D01*
X336592Y183931D01*
X336534Y183984D01*
X336479Y184040D01*
X336427Y184099D01*
X336377Y184159D01*
X336330Y184223D01*
X336287Y184288D01*
X336246Y184355D01*
X336209Y184424D01*
X336175Y184495D01*
X336144Y184567D01*
X336117Y184641D01*
X336093Y184715D01*
X336073Y184791D01*
X336057Y184868D01*
X336044Y184945D01*
X336034Y185023D01*
X336029Y185102D01*
X336027Y185180D01*
X339097Y182520D02*
X339163Y182478D01*
X339228Y182434D01*
X339290Y182387D01*
X339350Y182336D01*
X339408Y182283D01*
X339463Y182227D01*
X339516Y182169D01*
X339565Y182108D01*
X339612Y182045D01*
X339655Y181980D01*
X339696Y181913D01*
X339733Y181844D01*
X339767Y181773D01*
X339798Y181701D01*
X339825Y181627D01*
X339849Y181552D01*
X339869Y181477D01*
X339885Y181400D01*
X339898Y181323D01*
X339908Y181245D01*
X339913Y181166D01*
X339915Y181088D01*
X339097Y182520D02*
X336846Y183748D01*
X344453Y186817D02*
X344453Y179451D01*
X342407Y186817D02*
X346499Y186817D01*
X356997Y186817D02*
X356997Y179451D01*
X356997Y186817D02*
X359043Y186817D01*
X359132Y186815D01*
X359221Y186809D01*
X359310Y186799D01*
X359398Y186786D01*
X359486Y186769D01*
X359573Y186747D01*
X359658Y186722D01*
X359743Y186694D01*
X359826Y186661D01*
X359908Y186625D01*
X359988Y186586D01*
X360066Y186543D01*
X360142Y186497D01*
X360217Y186447D01*
X360289Y186394D01*
X360358Y186338D01*
X360425Y186279D01*
X360490Y186218D01*
X360551Y186153D01*
X360610Y186086D01*
X360666Y186017D01*
X360719Y185945D01*
X360769Y185870D01*
X360815Y185794D01*
X360858Y185716D01*
X360897Y185636D01*
X360933Y185554D01*
X360966Y185471D01*
X360994Y185386D01*
X361019Y185301D01*
X361041Y185214D01*
X361058Y185126D01*
X361071Y185038D01*
X361081Y184949D01*
X361087Y184860D01*
X361089Y184771D01*
X361087Y184682D01*
X361081Y184593D01*
X361071Y184504D01*
X361058Y184416D01*
X361041Y184328D01*
X361019Y184241D01*
X360994Y184156D01*
X360966Y184071D01*
X360933Y183988D01*
X360897Y183906D01*
X360858Y183826D01*
X360815Y183748D01*
X360769Y183672D01*
X360719Y183597D01*
X360666Y183525D01*
X360610Y183456D01*
X360551Y183389D01*
X360490Y183324D01*
X360425Y183263D01*
X360358Y183204D01*
X360289Y183148D01*
X360217Y183095D01*
X360142Y183045D01*
X360066Y182999D01*
X359988Y182956D01*
X359908Y182917D01*
X359826Y182881D01*
X359743Y182848D01*
X359658Y182820D01*
X359573Y182795D01*
X359486Y182773D01*
X359398Y182756D01*
X359310Y182743D01*
X359221Y182733D01*
X359132Y182727D01*
X359043Y182725D01*
X356997Y182725D01*
X359452Y182725D02*
X361089Y179451D01*
X363852Y179451D02*
X368762Y186817D01*
X363852Y186817D02*
X368762Y179451D01*
X383681Y179451D02*
X383681Y186817D01*
X381635Y186817D02*
X385727Y186817D01*
X392964Y186817D02*
X388053Y179451D01*
X392964Y179451D02*
X388053Y186817D01*
X306225Y183797D02*
X304998Y183797D01*
X306225Y183797D02*
X306225Y179705D01*
X303770Y179705D01*
X303692Y179707D01*
X303614Y179712D01*
X303537Y179722D01*
X303460Y179735D01*
X303384Y179751D01*
X303309Y179771D01*
X303235Y179795D01*
X303162Y179822D01*
X303090Y179853D01*
X303020Y179887D01*
X302952Y179924D01*
X302885Y179965D01*
X302820Y180009D01*
X302758Y180055D01*
X302698Y180105D01*
X302640Y180157D01*
X302585Y180212D01*
X302533Y180270D01*
X302483Y180330D01*
X302437Y180392D01*
X302393Y180457D01*
X302352Y180524D01*
X302315Y180592D01*
X302281Y180662D01*
X302250Y180734D01*
X302223Y180807D01*
X302199Y180881D01*
X302179Y180956D01*
X302163Y181032D01*
X302150Y181109D01*
X302140Y181186D01*
X302135Y181264D01*
X302133Y181342D01*
X302133Y185434D01*
X302135Y185514D01*
X302141Y185594D01*
X302151Y185674D01*
X302164Y185753D01*
X302182Y185832D01*
X302203Y185909D01*
X302229Y185985D01*
X302258Y186060D01*
X302290Y186134D01*
X302326Y186206D01*
X302366Y186276D01*
X302409Y186343D01*
X302455Y186409D01*
X302505Y186472D01*
X302557Y186533D01*
X302612Y186592D01*
X302671Y186647D01*
X302731Y186699D01*
X302795Y186749D01*
X302861Y186795D01*
X302928Y186838D01*
X302998Y186878D01*
X303070Y186914D01*
X303144Y186946D01*
X303218Y186975D01*
X303295Y187001D01*
X303372Y187022D01*
X303451Y187040D01*
X303530Y187053D01*
X303610Y187063D01*
X303690Y187069D01*
X303770Y187071D01*
X306225Y187071D01*
X309936Y187071D02*
X309936Y179705D01*
X314028Y179705D02*
X309936Y187071D01*
X314028Y187071D02*
X314028Y179705D01*
X317739Y179705D02*
X317739Y187071D01*
X319785Y187071D01*
X319874Y187069D01*
X319963Y187063D01*
X320052Y187053D01*
X320140Y187040D01*
X320228Y187023D01*
X320315Y187001D01*
X320400Y186976D01*
X320485Y186948D01*
X320568Y186915D01*
X320650Y186879D01*
X320730Y186840D01*
X320808Y186797D01*
X320884Y186751D01*
X320959Y186701D01*
X321031Y186648D01*
X321100Y186592D01*
X321167Y186533D01*
X321232Y186472D01*
X321293Y186407D01*
X321352Y186340D01*
X321408Y186271D01*
X321461Y186199D01*
X321511Y186124D01*
X321557Y186048D01*
X321600Y185970D01*
X321639Y185890D01*
X321675Y185808D01*
X321708Y185725D01*
X321736Y185640D01*
X321761Y185555D01*
X321783Y185468D01*
X321800Y185380D01*
X321813Y185292D01*
X321823Y185203D01*
X321829Y185114D01*
X321831Y185025D01*
X321831Y181751D01*
X321829Y181662D01*
X321823Y181573D01*
X321813Y181484D01*
X321800Y181396D01*
X321783Y181308D01*
X321761Y181221D01*
X321736Y181136D01*
X321708Y181051D01*
X321675Y180968D01*
X321639Y180886D01*
X321600Y180806D01*
X321557Y180728D01*
X321511Y180652D01*
X321461Y180577D01*
X321408Y180505D01*
X321352Y180436D01*
X321293Y180369D01*
X321232Y180304D01*
X321167Y180243D01*
X321100Y180184D01*
X321031Y180128D01*
X320959Y180075D01*
X320884Y180025D01*
X320808Y179979D01*
X320730Y179936D01*
X320650Y179897D01*
X320568Y179861D01*
X320485Y179828D01*
X320400Y179800D01*
X320315Y179775D01*
X320228Y179753D01*
X320140Y179736D01*
X320052Y179723D01*
X319963Y179713D01*
X319874Y179707D01*
X319785Y179705D01*
X317739Y179705D01*
X358281Y111633D02*
X358281Y104267D01*
X356235Y111633D02*
X360327Y111633D01*
X367564Y111633D02*
X362653Y104267D01*
X367564Y104267D02*
X362653Y111633D01*
D11*
X231140Y71374D02*
X219456Y71374D01*
X231140Y77865D01*
X219456Y77865D01*
X219456Y86431D02*
X231140Y82536D01*
X231140Y90325D02*
X219456Y86431D01*
X228219Y89352D02*
X228219Y83510D01*
X231140Y94996D02*
X219456Y94996D01*
X231140Y101487D01*
X219456Y101487D01*
X222702Y106807D02*
X227894Y106807D01*
X222702Y106806D02*
X222589Y106808D01*
X222476Y106814D01*
X222363Y106824D01*
X222250Y106838D01*
X222138Y106855D01*
X222027Y106877D01*
X221917Y106902D01*
X221807Y106932D01*
X221699Y106965D01*
X221592Y107002D01*
X221486Y107042D01*
X221382Y107087D01*
X221279Y107135D01*
X221178Y107186D01*
X221079Y107241D01*
X220982Y107299D01*
X220887Y107361D01*
X220794Y107426D01*
X220704Y107494D01*
X220616Y107565D01*
X220530Y107640D01*
X220447Y107717D01*
X220367Y107797D01*
X220290Y107880D01*
X220215Y107966D01*
X220144Y108054D01*
X220076Y108144D01*
X220011Y108237D01*
X219949Y108332D01*
X219891Y108429D01*
X219836Y108528D01*
X219785Y108629D01*
X219737Y108732D01*
X219692Y108836D01*
X219652Y108942D01*
X219615Y109049D01*
X219582Y109157D01*
X219552Y109267D01*
X219527Y109377D01*
X219505Y109488D01*
X219488Y109600D01*
X219474Y109713D01*
X219464Y109826D01*
X219458Y109939D01*
X219456Y110052D01*
X219458Y110165D01*
X219464Y110278D01*
X219474Y110391D01*
X219488Y110504D01*
X219505Y110616D01*
X219527Y110727D01*
X219552Y110837D01*
X219582Y110947D01*
X219615Y111055D01*
X219652Y111162D01*
X219692Y111268D01*
X219737Y111372D01*
X219785Y111475D01*
X219836Y111576D01*
X219891Y111675D01*
X219949Y111772D01*
X220011Y111867D01*
X220076Y111960D01*
X220144Y112050D01*
X220215Y112138D01*
X220290Y112224D01*
X220367Y112307D01*
X220447Y112387D01*
X220530Y112464D01*
X220616Y112539D01*
X220704Y112610D01*
X220794Y112678D01*
X220887Y112743D01*
X220982Y112805D01*
X221079Y112863D01*
X221178Y112918D01*
X221279Y112969D01*
X221382Y113017D01*
X221486Y113062D01*
X221592Y113102D01*
X221699Y113139D01*
X221807Y113172D01*
X221917Y113202D01*
X222027Y113227D01*
X222138Y113249D01*
X222250Y113266D01*
X222363Y113280D01*
X222476Y113290D01*
X222589Y113296D01*
X222702Y113298D01*
X227894Y113298D01*
X228007Y113296D01*
X228120Y113290D01*
X228233Y113280D01*
X228346Y113266D01*
X228458Y113249D01*
X228569Y113227D01*
X228679Y113202D01*
X228789Y113172D01*
X228897Y113139D01*
X229004Y113102D01*
X229110Y113062D01*
X229214Y113017D01*
X229317Y112969D01*
X229418Y112918D01*
X229517Y112863D01*
X229614Y112805D01*
X229709Y112743D01*
X229802Y112678D01*
X229892Y112610D01*
X229980Y112539D01*
X230066Y112464D01*
X230149Y112387D01*
X230229Y112307D01*
X230306Y112224D01*
X230381Y112138D01*
X230452Y112050D01*
X230520Y111960D01*
X230585Y111867D01*
X230647Y111772D01*
X230705Y111675D01*
X230760Y111576D01*
X230811Y111475D01*
X230859Y111372D01*
X230904Y111268D01*
X230944Y111162D01*
X230981Y111055D01*
X231014Y110947D01*
X231044Y110837D01*
X231069Y110727D01*
X231091Y110616D01*
X231108Y110504D01*
X231122Y110391D01*
X231132Y110278D01*
X231138Y110165D01*
X231140Y110052D01*
X231138Y109939D01*
X231132Y109826D01*
X231122Y109713D01*
X231108Y109600D01*
X231091Y109488D01*
X231069Y109377D01*
X231044Y109267D01*
X231014Y109157D01*
X230981Y109049D01*
X230944Y108942D01*
X230904Y108836D01*
X230859Y108732D01*
X230811Y108629D01*
X230760Y108528D01*
X230705Y108429D01*
X230647Y108332D01*
X230585Y108237D01*
X230520Y108144D01*
X230452Y108054D01*
X230381Y107966D01*
X230306Y107880D01*
X230229Y107797D01*
X230149Y107717D01*
X230066Y107640D01*
X229980Y107565D01*
X229892Y107494D01*
X229802Y107426D01*
X229709Y107361D01*
X229614Y107299D01*
X229517Y107241D01*
X229418Y107186D01*
X229317Y107135D01*
X229214Y107087D01*
X229110Y107042D01*
X229004Y107002D01*
X228897Y106965D01*
X228789Y106932D01*
X228679Y106902D01*
X228569Y106877D01*
X228458Y106855D01*
X228346Y106838D01*
X228233Y106824D01*
X228120Y106814D01*
X228007Y106808D01*
X227894Y106806D01*
D10*
X181929Y53213D02*
X181929Y45847D01*
X183975Y45847D01*
X184044Y45849D01*
X184112Y45855D01*
X184181Y45864D01*
X184248Y45878D01*
X184315Y45895D01*
X184381Y45916D01*
X184445Y45940D01*
X184508Y45969D01*
X184569Y46000D01*
X184628Y46035D01*
X184686Y46073D01*
X184741Y46115D01*
X184793Y46159D01*
X184843Y46207D01*
X184891Y46257D01*
X184935Y46309D01*
X184977Y46364D01*
X185015Y46422D01*
X185050Y46481D01*
X185081Y46542D01*
X185110Y46605D01*
X185134Y46669D01*
X185155Y46735D01*
X185172Y46802D01*
X185186Y46869D01*
X185195Y46938D01*
X185201Y47006D01*
X185203Y47075D01*
X185202Y47075D02*
X185202Y49530D01*
X185203Y49530D02*
X185201Y49599D01*
X185195Y49667D01*
X185186Y49736D01*
X185172Y49803D01*
X185155Y49870D01*
X185134Y49936D01*
X185110Y50000D01*
X185081Y50063D01*
X185050Y50124D01*
X185015Y50183D01*
X184977Y50241D01*
X184935Y50296D01*
X184891Y50348D01*
X184843Y50398D01*
X184793Y50446D01*
X184741Y50490D01*
X184686Y50532D01*
X184628Y50570D01*
X184569Y50605D01*
X184508Y50636D01*
X184445Y50665D01*
X184381Y50689D01*
X184315Y50710D01*
X184248Y50727D01*
X184181Y50741D01*
X184112Y50750D01*
X184044Y50756D01*
X183975Y50758D01*
X181929Y50758D01*
X187984Y43392D02*
X188802Y43392D01*
X191257Y50758D01*
X187984Y50758D02*
X189620Y45847D01*
X200271Y45847D02*
X200349Y45849D01*
X200427Y45854D01*
X200504Y45864D01*
X200581Y45877D01*
X200657Y45893D01*
X200732Y45913D01*
X200806Y45937D01*
X200879Y45964D01*
X200951Y45995D01*
X201021Y46029D01*
X201090Y46066D01*
X201156Y46107D01*
X201221Y46151D01*
X201283Y46197D01*
X201343Y46247D01*
X201401Y46299D01*
X201456Y46354D01*
X201508Y46412D01*
X201558Y46472D01*
X201604Y46534D01*
X201648Y46599D01*
X201689Y46666D01*
X201726Y46734D01*
X201760Y46804D01*
X201791Y46876D01*
X201818Y46949D01*
X201842Y47023D01*
X201862Y47098D01*
X201878Y47174D01*
X201891Y47251D01*
X201901Y47328D01*
X201906Y47406D01*
X201908Y47484D01*
X200271Y45847D02*
X200157Y45849D01*
X200044Y45854D01*
X199930Y45864D01*
X199817Y45877D01*
X199705Y45894D01*
X199593Y45914D01*
X199482Y45938D01*
X199371Y45966D01*
X199262Y45997D01*
X199154Y46032D01*
X199047Y46071D01*
X198941Y46113D01*
X198837Y46158D01*
X198734Y46207D01*
X198633Y46260D01*
X198534Y46315D01*
X198436Y46374D01*
X198341Y46436D01*
X198248Y46501D01*
X198156Y46569D01*
X198068Y46640D01*
X197981Y46714D01*
X197897Y46791D01*
X197816Y46870D01*
X198020Y51576D02*
X198022Y51654D01*
X198027Y51732D01*
X198037Y51809D01*
X198050Y51886D01*
X198066Y51962D01*
X198086Y52037D01*
X198110Y52111D01*
X198137Y52184D01*
X198168Y52256D01*
X198202Y52326D01*
X198239Y52395D01*
X198280Y52461D01*
X198324Y52526D01*
X198370Y52588D01*
X198420Y52648D01*
X198472Y52706D01*
X198527Y52761D01*
X198585Y52813D01*
X198645Y52863D01*
X198707Y52909D01*
X198772Y52953D01*
X198839Y52994D01*
X198907Y53031D01*
X198977Y53065D01*
X199049Y53096D01*
X199122Y53123D01*
X199196Y53147D01*
X199271Y53167D01*
X199347Y53183D01*
X199424Y53196D01*
X199501Y53206D01*
X199579Y53211D01*
X199657Y53213D01*
X199767Y53211D01*
X199876Y53205D01*
X199986Y53195D01*
X200094Y53182D01*
X200203Y53164D01*
X200310Y53143D01*
X200417Y53117D01*
X200523Y53088D01*
X200628Y53056D01*
X200731Y53019D01*
X200833Y52979D01*
X200934Y52935D01*
X201033Y52887D01*
X201130Y52837D01*
X201225Y52782D01*
X201318Y52724D01*
X201409Y52663D01*
X201498Y52599D01*
X198839Y50143D02*
X198772Y50185D01*
X198707Y50229D01*
X198645Y50277D01*
X198585Y50327D01*
X198527Y50380D01*
X198472Y50436D01*
X198420Y50495D01*
X198370Y50555D01*
X198323Y50619D01*
X198280Y50684D01*
X198239Y50751D01*
X198202Y50820D01*
X198168Y50891D01*
X198137Y50963D01*
X198110Y51037D01*
X198086Y51111D01*
X198066Y51187D01*
X198050Y51264D01*
X198037Y51341D01*
X198027Y51419D01*
X198022Y51498D01*
X198020Y51576D01*
X201089Y48916D02*
X201155Y48874D01*
X201220Y48830D01*
X201282Y48783D01*
X201342Y48732D01*
X201400Y48679D01*
X201455Y48623D01*
X201508Y48565D01*
X201557Y48504D01*
X201604Y48441D01*
X201647Y48376D01*
X201688Y48309D01*
X201725Y48240D01*
X201759Y48169D01*
X201790Y48097D01*
X201817Y48023D01*
X201841Y47948D01*
X201861Y47873D01*
X201877Y47796D01*
X201890Y47719D01*
X201900Y47641D01*
X201905Y47562D01*
X201907Y47484D01*
X201089Y48916D02*
X198839Y50144D01*
X206036Y45847D02*
X208082Y45847D01*
X206036Y45847D02*
X205967Y45849D01*
X205899Y45855D01*
X205830Y45864D01*
X205763Y45878D01*
X205696Y45895D01*
X205630Y45916D01*
X205566Y45940D01*
X205503Y45969D01*
X205442Y46000D01*
X205383Y46035D01*
X205325Y46073D01*
X205270Y46115D01*
X205218Y46159D01*
X205168Y46207D01*
X205120Y46257D01*
X205076Y46309D01*
X205034Y46364D01*
X204996Y46422D01*
X204961Y46481D01*
X204930Y46542D01*
X204901Y46605D01*
X204877Y46669D01*
X204856Y46735D01*
X204839Y46802D01*
X204825Y46869D01*
X204816Y46938D01*
X204810Y47006D01*
X204808Y47075D01*
X204808Y49121D01*
X204810Y49200D01*
X204816Y49279D01*
X204825Y49358D01*
X204838Y49436D01*
X204856Y49513D01*
X204876Y49589D01*
X204901Y49664D01*
X204929Y49738D01*
X204960Y49811D01*
X204996Y49882D01*
X205034Y49951D01*
X205076Y50018D01*
X205121Y50083D01*
X205169Y50146D01*
X205220Y50207D01*
X205274Y50264D01*
X205330Y50320D01*
X205389Y50372D01*
X205451Y50422D01*
X205515Y50468D01*
X205581Y50512D01*
X205649Y50552D01*
X205719Y50588D01*
X205791Y50622D01*
X205865Y50652D01*
X205939Y50678D01*
X206015Y50701D01*
X206092Y50719D01*
X206169Y50735D01*
X206248Y50746D01*
X206326Y50754D01*
X206405Y50758D01*
X206485Y50758D01*
X206564Y50754D01*
X206642Y50746D01*
X206721Y50735D01*
X206798Y50719D01*
X206875Y50701D01*
X206951Y50678D01*
X207025Y50652D01*
X207099Y50622D01*
X207171Y50588D01*
X207241Y50552D01*
X207309Y50512D01*
X207375Y50468D01*
X207439Y50422D01*
X207501Y50372D01*
X207560Y50320D01*
X207616Y50264D01*
X207670Y50207D01*
X207721Y50146D01*
X207769Y50083D01*
X207814Y50018D01*
X207856Y49951D01*
X207894Y49882D01*
X207930Y49811D01*
X207961Y49738D01*
X207989Y49664D01*
X208014Y49589D01*
X208034Y49513D01*
X208052Y49436D01*
X208065Y49358D01*
X208074Y49279D01*
X208080Y49200D01*
X208082Y49121D01*
X208082Y48302D01*
X204808Y48302D01*
X210518Y50758D02*
X212973Y50758D01*
X211336Y53213D02*
X211336Y47075D01*
X211338Y47006D01*
X211344Y46938D01*
X211353Y46869D01*
X211367Y46802D01*
X211384Y46735D01*
X211405Y46669D01*
X211429Y46605D01*
X211458Y46542D01*
X211489Y46481D01*
X211524Y46422D01*
X211562Y46364D01*
X211604Y46309D01*
X211648Y46257D01*
X211696Y46207D01*
X211746Y46159D01*
X211798Y46115D01*
X211853Y46073D01*
X211911Y46035D01*
X211970Y46000D01*
X212031Y45969D01*
X212094Y45940D01*
X212158Y45916D01*
X212224Y45895D01*
X212291Y45878D01*
X212358Y45864D01*
X212427Y45855D01*
X212495Y45849D01*
X212564Y45847D01*
X212973Y45847D01*
X216025Y45847D02*
X216025Y53213D01*
X216025Y50758D02*
X218071Y50758D01*
X218140Y50756D01*
X218208Y50750D01*
X218277Y50741D01*
X218344Y50727D01*
X218411Y50710D01*
X218477Y50689D01*
X218541Y50665D01*
X218604Y50636D01*
X218665Y50605D01*
X218724Y50570D01*
X218782Y50532D01*
X218837Y50490D01*
X218889Y50446D01*
X218939Y50398D01*
X218987Y50348D01*
X219031Y50296D01*
X219073Y50241D01*
X219111Y50183D01*
X219146Y50124D01*
X219177Y50063D01*
X219206Y50000D01*
X219230Y49936D01*
X219251Y49870D01*
X219268Y49803D01*
X219282Y49736D01*
X219291Y49667D01*
X219297Y49599D01*
X219299Y49530D01*
X219299Y45847D01*
X226950Y45847D02*
X226950Y53213D01*
X231042Y53213D02*
X226950Y48712D01*
X228587Y50348D02*
X231042Y45847D01*
X235053Y45847D02*
X237099Y45847D01*
X235053Y45847D02*
X234984Y45849D01*
X234916Y45855D01*
X234847Y45864D01*
X234780Y45878D01*
X234713Y45895D01*
X234647Y45916D01*
X234583Y45940D01*
X234520Y45969D01*
X234459Y46000D01*
X234400Y46035D01*
X234342Y46073D01*
X234287Y46115D01*
X234235Y46159D01*
X234185Y46207D01*
X234137Y46257D01*
X234093Y46309D01*
X234051Y46364D01*
X234013Y46422D01*
X233978Y46481D01*
X233947Y46542D01*
X233918Y46605D01*
X233894Y46669D01*
X233873Y46735D01*
X233856Y46802D01*
X233842Y46869D01*
X233833Y46938D01*
X233827Y47006D01*
X233825Y47075D01*
X233825Y49121D01*
X233827Y49200D01*
X233833Y49279D01*
X233842Y49358D01*
X233855Y49436D01*
X233873Y49513D01*
X233893Y49589D01*
X233918Y49664D01*
X233946Y49738D01*
X233977Y49811D01*
X234013Y49882D01*
X234051Y49951D01*
X234093Y50018D01*
X234138Y50083D01*
X234186Y50146D01*
X234237Y50207D01*
X234291Y50264D01*
X234347Y50320D01*
X234406Y50372D01*
X234468Y50422D01*
X234532Y50468D01*
X234598Y50512D01*
X234666Y50552D01*
X234736Y50588D01*
X234808Y50622D01*
X234882Y50652D01*
X234956Y50678D01*
X235032Y50701D01*
X235109Y50719D01*
X235186Y50735D01*
X235265Y50746D01*
X235343Y50754D01*
X235422Y50758D01*
X235502Y50758D01*
X235581Y50754D01*
X235659Y50746D01*
X235738Y50735D01*
X235815Y50719D01*
X235892Y50701D01*
X235968Y50678D01*
X236042Y50652D01*
X236116Y50622D01*
X236188Y50588D01*
X236258Y50552D01*
X236326Y50512D01*
X236392Y50468D01*
X236456Y50422D01*
X236518Y50372D01*
X236577Y50320D01*
X236633Y50264D01*
X236687Y50207D01*
X236738Y50146D01*
X236786Y50083D01*
X236831Y50018D01*
X236873Y49951D01*
X236911Y49882D01*
X236947Y49811D01*
X236978Y49738D01*
X237006Y49664D01*
X237031Y49589D01*
X237051Y49513D01*
X237069Y49436D01*
X237082Y49358D01*
X237091Y49279D01*
X237097Y49200D01*
X237099Y49121D01*
X237099Y48302D01*
X233825Y48302D01*
X240455Y45847D02*
X240455Y50758D01*
X242910Y50758D01*
X242910Y49939D01*
X245576Y50758D02*
X245576Y45847D01*
X245576Y50758D02*
X248031Y50758D01*
X248031Y49939D01*
D12*
X374650Y63500D02*
X374650Y76200D01*
X381000Y82550D01*
X374650Y88900D01*
X374650Y101600D01*
X381000Y107950D01*
X374650Y63500D02*
X381000Y57150D01*
X381000Y107950D02*
X374650Y114300D01*
X374650Y127000D01*
X381000Y133350D01*
X419100Y133350D01*
X419100Y82550D02*
X425450Y76200D01*
X425450Y101600D02*
X419100Y107950D01*
X425450Y101600D02*
X425450Y88900D01*
X419100Y82550D01*
X419100Y57150D02*
X381000Y57150D01*
X419100Y57150D02*
X425450Y63500D01*
X425450Y76200D01*
X425450Y127000D02*
X419100Y133350D01*
X425450Y127000D02*
X425450Y114300D01*
X419100Y107950D01*
D13*
X429895Y67310D02*
X432435Y64135D01*
X429895Y67310D02*
X441325Y67310D01*
X441325Y64135D02*
X441325Y70485D01*
X386715Y136525D02*
X386715Y140335D01*
X386717Y140435D01*
X386723Y140534D01*
X386733Y140634D01*
X386746Y140732D01*
X386764Y140831D01*
X386785Y140928D01*
X386810Y141024D01*
X386839Y141120D01*
X386872Y141214D01*
X386908Y141307D01*
X386948Y141398D01*
X386992Y141488D01*
X387039Y141576D01*
X387089Y141662D01*
X387143Y141746D01*
X387200Y141828D01*
X387260Y141907D01*
X387324Y141985D01*
X387390Y142059D01*
X387459Y142131D01*
X387531Y142200D01*
X387605Y142266D01*
X387683Y142330D01*
X387762Y142390D01*
X387844Y142447D01*
X387928Y142501D01*
X388014Y142551D01*
X388102Y142598D01*
X388192Y142642D01*
X388283Y142682D01*
X388376Y142718D01*
X388470Y142751D01*
X388566Y142780D01*
X388662Y142805D01*
X388759Y142826D01*
X388858Y142844D01*
X388956Y142857D01*
X389056Y142867D01*
X389155Y142873D01*
X389255Y142875D01*
X389890Y142875D01*
X390001Y142873D01*
X390111Y142867D01*
X390222Y142858D01*
X390332Y142844D01*
X390441Y142827D01*
X390550Y142806D01*
X390658Y142781D01*
X390765Y142752D01*
X390871Y142720D01*
X390976Y142684D01*
X391079Y142644D01*
X391181Y142601D01*
X391282Y142554D01*
X391381Y142503D01*
X391478Y142450D01*
X391572Y142393D01*
X391665Y142332D01*
X391756Y142269D01*
X391845Y142202D01*
X391931Y142132D01*
X392014Y142059D01*
X392096Y141984D01*
X392174Y141906D01*
X392249Y141824D01*
X392322Y141741D01*
X392392Y141655D01*
X392459Y141566D01*
X392522Y141475D01*
X392583Y141382D01*
X392640Y141287D01*
X392693Y141191D01*
X392744Y141092D01*
X392791Y140991D01*
X392834Y140889D01*
X392874Y140786D01*
X392910Y140681D01*
X392942Y140575D01*
X392971Y140468D01*
X392996Y140360D01*
X393017Y140251D01*
X393034Y140142D01*
X393048Y140032D01*
X393057Y139921D01*
X393063Y139811D01*
X393065Y139700D01*
X393063Y139589D01*
X393057Y139479D01*
X393048Y139368D01*
X393034Y139258D01*
X393017Y139149D01*
X392996Y139040D01*
X392971Y138932D01*
X392942Y138825D01*
X392910Y138719D01*
X392874Y138614D01*
X392834Y138511D01*
X392791Y138409D01*
X392744Y138308D01*
X392693Y138209D01*
X392640Y138112D01*
X392583Y138018D01*
X392522Y137925D01*
X392459Y137834D01*
X392392Y137745D01*
X392322Y137659D01*
X392249Y137576D01*
X392174Y137494D01*
X392096Y137416D01*
X392014Y137341D01*
X391931Y137268D01*
X391845Y137198D01*
X391756Y137131D01*
X391665Y137068D01*
X391572Y137007D01*
X391478Y136950D01*
X391381Y136897D01*
X391282Y136846D01*
X391181Y136799D01*
X391079Y136756D01*
X390976Y136716D01*
X390871Y136680D01*
X390765Y136648D01*
X390658Y136619D01*
X390550Y136594D01*
X390441Y136573D01*
X390332Y136556D01*
X390222Y136542D01*
X390111Y136533D01*
X390001Y136527D01*
X389890Y136525D01*
X386715Y136525D01*
X386575Y136527D01*
X386435Y136533D01*
X386295Y136542D01*
X386156Y136556D01*
X386017Y136573D01*
X385879Y136594D01*
X385741Y136619D01*
X385604Y136648D01*
X385468Y136680D01*
X385333Y136717D01*
X385199Y136757D01*
X385066Y136800D01*
X384934Y136848D01*
X384803Y136898D01*
X384674Y136953D01*
X384547Y137011D01*
X384421Y137072D01*
X384297Y137137D01*
X384175Y137206D01*
X384055Y137277D01*
X383937Y137352D01*
X383820Y137430D01*
X383706Y137512D01*
X383595Y137596D01*
X383486Y137684D01*
X383379Y137774D01*
X383274Y137868D01*
X383173Y137964D01*
X383074Y138063D01*
X382978Y138164D01*
X382884Y138269D01*
X382794Y138376D01*
X382706Y138485D01*
X382622Y138596D01*
X382540Y138710D01*
X382462Y138827D01*
X382387Y138945D01*
X382316Y139065D01*
X382247Y139187D01*
X382182Y139311D01*
X382121Y139437D01*
X382063Y139564D01*
X382008Y139693D01*
X381958Y139824D01*
X381910Y139956D01*
X381867Y140089D01*
X381827Y140223D01*
X381790Y140358D01*
X381758Y140494D01*
X381729Y140631D01*
X381704Y140769D01*
X381683Y140907D01*
X381666Y141046D01*
X381652Y141185D01*
X381643Y141325D01*
X381637Y141465D01*
X381635Y141605D01*
X385382Y52705D02*
X385382Y41275D01*
X384112Y41275D02*
X386652Y41275D01*
X386652Y52705D02*
X384112Y52705D01*
X393853Y41275D02*
X396393Y41275D01*
X393853Y41275D02*
X393753Y41277D01*
X393654Y41283D01*
X393554Y41293D01*
X393456Y41306D01*
X393357Y41324D01*
X393260Y41345D01*
X393164Y41370D01*
X393068Y41399D01*
X392974Y41432D01*
X392881Y41468D01*
X392790Y41508D01*
X392700Y41552D01*
X392612Y41599D01*
X392526Y41649D01*
X392442Y41703D01*
X392360Y41760D01*
X392281Y41820D01*
X392203Y41884D01*
X392129Y41950D01*
X392057Y42019D01*
X391988Y42091D01*
X391922Y42165D01*
X391858Y42243D01*
X391798Y42322D01*
X391741Y42404D01*
X391687Y42488D01*
X391637Y42574D01*
X391590Y42662D01*
X391546Y42752D01*
X391506Y42843D01*
X391470Y42936D01*
X391437Y43030D01*
X391408Y43126D01*
X391383Y43222D01*
X391362Y43319D01*
X391344Y43418D01*
X391331Y43516D01*
X391321Y43616D01*
X391315Y43715D01*
X391313Y43815D01*
X391313Y50165D01*
X391315Y50265D01*
X391321Y50364D01*
X391331Y50464D01*
X391344Y50562D01*
X391362Y50661D01*
X391383Y50758D01*
X391408Y50854D01*
X391437Y50950D01*
X391470Y51044D01*
X391506Y51137D01*
X391546Y51228D01*
X391590Y51318D01*
X391637Y51406D01*
X391687Y51492D01*
X391741Y51576D01*
X391798Y51658D01*
X391858Y51737D01*
X391922Y51815D01*
X391988Y51889D01*
X392057Y51961D01*
X392129Y52030D01*
X392203Y52096D01*
X392281Y52160D01*
X392360Y52220D01*
X392442Y52277D01*
X392526Y52331D01*
X392612Y52381D01*
X392700Y52428D01*
X392790Y52472D01*
X392881Y52512D01*
X392974Y52548D01*
X393068Y52581D01*
X393164Y52610D01*
X393260Y52635D01*
X393357Y52656D01*
X393456Y52674D01*
X393554Y52687D01*
X393654Y52697D01*
X393753Y52703D01*
X393853Y52705D01*
X396393Y52705D01*
X406845Y43815D02*
X406843Y43715D01*
X406837Y43616D01*
X406827Y43516D01*
X406814Y43418D01*
X406796Y43319D01*
X406775Y43222D01*
X406750Y43126D01*
X406721Y43030D01*
X406688Y42936D01*
X406652Y42843D01*
X406612Y42752D01*
X406568Y42662D01*
X406521Y42574D01*
X406471Y42488D01*
X406417Y42404D01*
X406360Y42322D01*
X406300Y42243D01*
X406236Y42165D01*
X406170Y42091D01*
X406101Y42019D01*
X406029Y41950D01*
X405955Y41884D01*
X405877Y41820D01*
X405798Y41760D01*
X405716Y41703D01*
X405632Y41649D01*
X405546Y41599D01*
X405458Y41552D01*
X405368Y41508D01*
X405277Y41468D01*
X405184Y41432D01*
X405090Y41399D01*
X404994Y41370D01*
X404898Y41345D01*
X404801Y41324D01*
X404702Y41306D01*
X404604Y41293D01*
X404504Y41283D01*
X404405Y41277D01*
X404305Y41275D01*
X404164Y41277D01*
X404023Y41282D01*
X403882Y41292D01*
X403741Y41305D01*
X403601Y41321D01*
X403461Y41342D01*
X403322Y41366D01*
X403183Y41394D01*
X403046Y41425D01*
X402909Y41460D01*
X402773Y41498D01*
X402638Y41540D01*
X402505Y41586D01*
X402372Y41635D01*
X402241Y41688D01*
X402112Y41744D01*
X401983Y41803D01*
X401857Y41866D01*
X401732Y41932D01*
X401609Y42001D01*
X401488Y42074D01*
X401369Y42150D01*
X401251Y42229D01*
X401136Y42310D01*
X401024Y42395D01*
X400913Y42483D01*
X400805Y42574D01*
X400699Y42667D01*
X400596Y42764D01*
X400495Y42863D01*
X400812Y50165D02*
X400814Y50265D01*
X400820Y50364D01*
X400830Y50464D01*
X400843Y50562D01*
X400861Y50661D01*
X400882Y50758D01*
X400907Y50854D01*
X400936Y50950D01*
X400969Y51044D01*
X401005Y51137D01*
X401045Y51228D01*
X401089Y51318D01*
X401136Y51406D01*
X401186Y51492D01*
X401240Y51576D01*
X401297Y51658D01*
X401357Y51737D01*
X401421Y51815D01*
X401487Y51889D01*
X401556Y51961D01*
X401628Y52030D01*
X401702Y52096D01*
X401780Y52160D01*
X401859Y52220D01*
X401941Y52277D01*
X402025Y52331D01*
X402111Y52381D01*
X402199Y52428D01*
X402289Y52472D01*
X402380Y52512D01*
X402473Y52548D01*
X402567Y52581D01*
X402663Y52610D01*
X402759Y52635D01*
X402856Y52656D01*
X402955Y52674D01*
X403053Y52687D01*
X403153Y52697D01*
X403252Y52703D01*
X403352Y52705D01*
X403352Y52706D02*
X403485Y52704D01*
X403618Y52699D01*
X403751Y52689D01*
X403884Y52676D01*
X404016Y52659D01*
X404148Y52639D01*
X404279Y52615D01*
X404409Y52587D01*
X404539Y52556D01*
X404667Y52521D01*
X404795Y52482D01*
X404921Y52440D01*
X405046Y52394D01*
X405170Y52345D01*
X405293Y52293D01*
X405414Y52237D01*
X405533Y52177D01*
X405651Y52115D01*
X405766Y52049D01*
X405880Y51980D01*
X405992Y51907D01*
X406102Y51832D01*
X406210Y51753D01*
X402082Y47942D02*
X401998Y47994D01*
X401915Y48049D01*
X401835Y48108D01*
X401757Y48169D01*
X401682Y48233D01*
X401609Y48301D01*
X401538Y48371D01*
X401471Y48443D01*
X401406Y48518D01*
X401344Y48596D01*
X401285Y48676D01*
X401229Y48758D01*
X401177Y48842D01*
X401128Y48928D01*
X401082Y49016D01*
X401039Y49106D01*
X401000Y49197D01*
X400965Y49290D01*
X400933Y49384D01*
X400905Y49479D01*
X400880Y49575D01*
X400860Y49672D01*
X400842Y49770D01*
X400829Y49868D01*
X400820Y49967D01*
X400814Y50066D01*
X400812Y50165D01*
X405575Y46038D02*
X405659Y45986D01*
X405742Y45931D01*
X405822Y45872D01*
X405900Y45811D01*
X405975Y45747D01*
X406048Y45679D01*
X406119Y45609D01*
X406186Y45537D01*
X406251Y45462D01*
X406313Y45384D01*
X406372Y45304D01*
X406428Y45222D01*
X406480Y45138D01*
X406529Y45052D01*
X406575Y44964D01*
X406618Y44874D01*
X406657Y44783D01*
X406692Y44690D01*
X406724Y44596D01*
X406752Y44501D01*
X406777Y44405D01*
X406797Y44308D01*
X406815Y44210D01*
X406828Y44112D01*
X406837Y44013D01*
X406843Y43914D01*
X406845Y43815D01*
X405575Y46038D02*
X402082Y47943D01*
X412115Y52705D02*
X412115Y41275D01*
X412115Y52705D02*
X415290Y52705D01*
X415401Y52703D01*
X415511Y52697D01*
X415622Y52688D01*
X415732Y52674D01*
X415841Y52657D01*
X415950Y52636D01*
X416058Y52611D01*
X416165Y52582D01*
X416271Y52550D01*
X416376Y52514D01*
X416479Y52474D01*
X416581Y52431D01*
X416682Y52384D01*
X416781Y52333D01*
X416878Y52280D01*
X416972Y52223D01*
X417065Y52162D01*
X417156Y52099D01*
X417245Y52032D01*
X417331Y51962D01*
X417414Y51889D01*
X417496Y51814D01*
X417574Y51736D01*
X417649Y51654D01*
X417722Y51571D01*
X417792Y51485D01*
X417859Y51396D01*
X417922Y51305D01*
X417983Y51212D01*
X418040Y51117D01*
X418093Y51021D01*
X418144Y50922D01*
X418191Y50821D01*
X418234Y50719D01*
X418274Y50616D01*
X418310Y50511D01*
X418342Y50405D01*
X418371Y50298D01*
X418396Y50190D01*
X418417Y50081D01*
X418434Y49972D01*
X418448Y49862D01*
X418457Y49751D01*
X418463Y49641D01*
X418465Y49530D01*
X418463Y49419D01*
X418457Y49309D01*
X418448Y49198D01*
X418434Y49088D01*
X418417Y48979D01*
X418396Y48870D01*
X418371Y48762D01*
X418342Y48655D01*
X418310Y48549D01*
X418274Y48444D01*
X418234Y48341D01*
X418191Y48239D01*
X418144Y48138D01*
X418093Y48039D01*
X418040Y47942D01*
X417983Y47848D01*
X417922Y47755D01*
X417859Y47664D01*
X417792Y47575D01*
X417722Y47489D01*
X417649Y47406D01*
X417574Y47324D01*
X417496Y47246D01*
X417414Y47171D01*
X417331Y47098D01*
X417245Y47028D01*
X417156Y46961D01*
X417065Y46898D01*
X416972Y46837D01*
X416878Y46780D01*
X416781Y46727D01*
X416682Y46676D01*
X416581Y46629D01*
X416479Y46586D01*
X416376Y46546D01*
X416271Y46510D01*
X416165Y46478D01*
X416058Y46449D01*
X415950Y46424D01*
X415841Y46403D01*
X415732Y46386D01*
X415622Y46372D01*
X415511Y46363D01*
X415401Y46357D01*
X415290Y46355D01*
X412115Y46355D01*
X54154Y113898D02*
X54154Y121698D01*
X54154Y82498D02*
X54154Y75098D01*
X42504Y135798D02*
X33404Y135798D01*
X33304Y60798D02*
X42404Y60798D01*
X17404Y135798D02*
X4154Y135798D01*
X4154Y126298D01*
X4152Y126211D01*
X4146Y126124D01*
X4137Y126037D01*
X4124Y125951D01*
X4107Y125865D01*
X4086Y125780D01*
X4061Y125697D01*
X4033Y125614D01*
X4002Y125533D01*
X3967Y125453D01*
X3928Y125375D01*
X3886Y125298D01*
X3841Y125223D01*
X3792Y125151D01*
X3741Y125080D01*
X3686Y125012D01*
X3629Y124947D01*
X3568Y124884D01*
X3505Y124823D01*
X3440Y124766D01*
X3372Y124711D01*
X3301Y124660D01*
X3229Y124611D01*
X3154Y124566D01*
X3077Y124524D01*
X2999Y124485D01*
X2919Y124450D01*
X2838Y124419D01*
X2755Y124391D01*
X2672Y124366D01*
X2587Y124345D01*
X2501Y124328D01*
X2415Y124315D01*
X2328Y124306D01*
X2241Y124300D01*
X2154Y124298D01*
X1504Y124298D01*
X1404Y124322D01*
X1302Y124341D01*
X1200Y124357D01*
X1098Y124369D01*
X995Y124377D01*
X892Y124381D01*
X789Y124382D01*
X686Y124378D01*
X583Y124371D01*
X480Y124360D01*
X378Y124345D01*
X276Y124326D01*
X176Y124304D01*
X76Y124277D01*
X-23Y124247D01*
X-120Y124214D01*
X-216Y124176D01*
X-311Y124135D01*
X-404Y124091D01*
X-496Y124043D01*
X-585Y123992D01*
X-673Y123937D01*
X-758Y123880D01*
X-842Y123819D01*
X-923Y123755D01*
X-1001Y123688D01*
X-1077Y123618D01*
X-1150Y123545D01*
X-1221Y123470D01*
X-1288Y123392D01*
X-1353Y123311D01*
X-1415Y123229D01*
X-1473Y123144D01*
X-1528Y123057D01*
X-1580Y122967D01*
X-1629Y122876D01*
X-1674Y122784D01*
X-1716Y122689D01*
X-1754Y122593D01*
X-1788Y122496D01*
X-1819Y122398D01*
X-1846Y122298D01*
X-1846Y74298D01*
X-1842Y74209D01*
X-1834Y74119D01*
X-1822Y74031D01*
X-1807Y73943D01*
X-1787Y73855D01*
X-1764Y73769D01*
X-1736Y73684D01*
X-1706Y73600D01*
X-1671Y73517D01*
X-1633Y73436D01*
X-1592Y73357D01*
X-1547Y73279D01*
X-1498Y73204D01*
X-1447Y73131D01*
X-1392Y73060D01*
X-1335Y72992D01*
X-1274Y72926D01*
X-1210Y72863D01*
X-1144Y72803D01*
X-1076Y72745D01*
X-1005Y72691D01*
X-931Y72640D01*
X-855Y72592D01*
X-778Y72547D01*
X-698Y72506D01*
X-617Y72469D01*
X-534Y72435D01*
X-450Y72404D01*
X-365Y72377D01*
X-278Y72355D01*
X-191Y72335D01*
X-103Y72320D01*
X-14Y72309D01*
X75Y72301D01*
X165Y72297D01*
X254Y72298D01*
X2254Y72298D01*
X2352Y72272D01*
X2448Y72244D01*
X2544Y72211D01*
X2638Y72175D01*
X2731Y72136D01*
X2822Y72093D01*
X2912Y72046D01*
X3000Y71997D01*
X3086Y71944D01*
X3170Y71888D01*
X3251Y71829D01*
X3331Y71767D01*
X3408Y71701D01*
X3483Y71634D01*
X3555Y71563D01*
X3624Y71490D01*
X3690Y71414D01*
X3754Y71335D01*
X3815Y71255D01*
X3872Y71172D01*
X3927Y71087D01*
X3978Y71000D01*
X4026Y70911D01*
X4071Y70821D01*
X4112Y70729D01*
X4150Y70635D01*
X4184Y70540D01*
X4214Y70444D01*
X4241Y70347D01*
X4265Y70249D01*
X4285Y70150D01*
X4301Y70050D01*
X4313Y69950D01*
X4321Y69849D01*
X4326Y69749D01*
X4327Y69648D01*
X4324Y69547D01*
X4317Y69446D01*
X4307Y69346D01*
X4293Y69246D01*
X4275Y69147D01*
X4254Y69048D01*
X4254Y60798D01*
X18004Y60798D01*
D14*
X63354Y111248D02*
X63356Y111311D01*
X63362Y111373D01*
X63372Y111435D01*
X63385Y111497D01*
X63403Y111557D01*
X63424Y111616D01*
X63449Y111674D01*
X63478Y111730D01*
X63510Y111784D01*
X63545Y111836D01*
X63583Y111885D01*
X63625Y111933D01*
X63669Y111977D01*
X63717Y112019D01*
X63766Y112057D01*
X63818Y112092D01*
X63872Y112124D01*
X63928Y112153D01*
X63986Y112178D01*
X64045Y112199D01*
X64105Y112217D01*
X64167Y112230D01*
X64229Y112240D01*
X64291Y112246D01*
X64354Y112248D01*
X64417Y112246D01*
X64479Y112240D01*
X64541Y112230D01*
X64603Y112217D01*
X64663Y112199D01*
X64722Y112178D01*
X64780Y112153D01*
X64836Y112124D01*
X64890Y112092D01*
X64942Y112057D01*
X64991Y112019D01*
X65039Y111977D01*
X65083Y111933D01*
X65125Y111885D01*
X65163Y111836D01*
X65198Y111784D01*
X65230Y111730D01*
X65259Y111674D01*
X65284Y111616D01*
X65305Y111557D01*
X65323Y111497D01*
X65336Y111435D01*
X65346Y111373D01*
X65352Y111311D01*
X65354Y111248D01*
X65352Y111185D01*
X65346Y111123D01*
X65336Y111061D01*
X65323Y110999D01*
X65305Y110939D01*
X65284Y110880D01*
X65259Y110822D01*
X65230Y110766D01*
X65198Y110712D01*
X65163Y110660D01*
X65125Y110611D01*
X65083Y110563D01*
X65039Y110519D01*
X64991Y110477D01*
X64942Y110439D01*
X64890Y110404D01*
X64836Y110372D01*
X64780Y110343D01*
X64722Y110318D01*
X64663Y110297D01*
X64603Y110279D01*
X64541Y110266D01*
X64479Y110256D01*
X64417Y110250D01*
X64354Y110248D01*
X64291Y110250D01*
X64229Y110256D01*
X64167Y110266D01*
X64105Y110279D01*
X64045Y110297D01*
X63986Y110318D01*
X63928Y110343D01*
X63872Y110372D01*
X63818Y110404D01*
X63766Y110439D01*
X63717Y110477D01*
X63669Y110519D01*
X63625Y110563D01*
X63583Y110611D01*
X63545Y110660D01*
X63510Y110712D01*
X63478Y110766D01*
X63449Y110822D01*
X63424Y110880D01*
X63403Y110939D01*
X63385Y110999D01*
X63372Y111061D01*
X63362Y111123D01*
X63356Y111185D01*
X63354Y111248D01*
D13*
X3654Y135798D02*
X1154Y138298D01*
X-1346Y135798D01*
X2404Y132048D01*
X3654Y132048D01*
X3654Y60798D02*
X1154Y58298D01*
X-1346Y60798D01*
X2404Y64548D01*
X3654Y64548D01*
D15*
X338050Y86300D03*
X338050Y78800D03*
D16*
X338050Y82550D03*
D10*
X349631Y83947D02*
X349631Y76581D01*
X349631Y83947D02*
X351677Y83947D01*
X351766Y83945D01*
X351855Y83939D01*
X351944Y83929D01*
X352032Y83916D01*
X352120Y83899D01*
X352207Y83877D01*
X352292Y83852D01*
X352377Y83824D01*
X352460Y83791D01*
X352542Y83755D01*
X352622Y83716D01*
X352700Y83673D01*
X352776Y83627D01*
X352851Y83577D01*
X352923Y83524D01*
X352992Y83468D01*
X353059Y83409D01*
X353124Y83348D01*
X353185Y83283D01*
X353244Y83216D01*
X353300Y83147D01*
X353353Y83075D01*
X353403Y83000D01*
X353449Y82924D01*
X353492Y82846D01*
X353531Y82766D01*
X353567Y82684D01*
X353600Y82601D01*
X353628Y82516D01*
X353653Y82431D01*
X353675Y82344D01*
X353692Y82256D01*
X353705Y82168D01*
X353715Y82079D01*
X353721Y81990D01*
X353723Y81901D01*
X353721Y81812D01*
X353715Y81723D01*
X353705Y81634D01*
X353692Y81546D01*
X353675Y81458D01*
X353653Y81371D01*
X353628Y81286D01*
X353600Y81201D01*
X353567Y81118D01*
X353531Y81036D01*
X353492Y80956D01*
X353449Y80878D01*
X353403Y80802D01*
X353353Y80727D01*
X353300Y80655D01*
X353244Y80586D01*
X353185Y80519D01*
X353124Y80454D01*
X353059Y80393D01*
X352992Y80334D01*
X352923Y80278D01*
X352851Y80225D01*
X352776Y80175D01*
X352700Y80129D01*
X352622Y80086D01*
X352542Y80047D01*
X352460Y80011D01*
X352377Y79978D01*
X352292Y79950D01*
X352207Y79925D01*
X352120Y79903D01*
X352032Y79886D01*
X351944Y79873D01*
X351855Y79863D01*
X351766Y79857D01*
X351677Y79855D01*
X349631Y79855D01*
X356332Y83947D02*
X357969Y76581D01*
X359606Y81492D01*
X361243Y76581D01*
X362880Y83947D01*
X366146Y83947D02*
X366146Y76581D01*
X366146Y83947D02*
X368192Y83947D01*
X368281Y83945D01*
X368370Y83939D01*
X368459Y83929D01*
X368547Y83916D01*
X368635Y83899D01*
X368722Y83877D01*
X368807Y83852D01*
X368892Y83824D01*
X368975Y83791D01*
X369057Y83755D01*
X369137Y83716D01*
X369215Y83673D01*
X369291Y83627D01*
X369366Y83577D01*
X369438Y83524D01*
X369507Y83468D01*
X369574Y83409D01*
X369639Y83348D01*
X369700Y83283D01*
X369759Y83216D01*
X369815Y83147D01*
X369868Y83075D01*
X369918Y83000D01*
X369964Y82924D01*
X370007Y82846D01*
X370046Y82766D01*
X370082Y82684D01*
X370115Y82601D01*
X370143Y82516D01*
X370168Y82431D01*
X370190Y82344D01*
X370207Y82256D01*
X370220Y82168D01*
X370230Y82079D01*
X370236Y81990D01*
X370238Y81901D01*
X370236Y81812D01*
X370230Y81723D01*
X370220Y81634D01*
X370207Y81546D01*
X370190Y81458D01*
X370168Y81371D01*
X370143Y81286D01*
X370115Y81201D01*
X370082Y81118D01*
X370046Y81036D01*
X370007Y80956D01*
X369964Y80878D01*
X369918Y80802D01*
X369868Y80727D01*
X369815Y80655D01*
X369759Y80586D01*
X369700Y80519D01*
X369639Y80454D01*
X369574Y80393D01*
X369507Y80334D01*
X369438Y80278D01*
X369366Y80225D01*
X369291Y80175D01*
X369215Y80129D01*
X369137Y80086D01*
X369057Y80047D01*
X368975Y80011D01*
X368892Y79978D01*
X368807Y79950D01*
X368722Y79925D01*
X368635Y79903D01*
X368547Y79886D01*
X368459Y79873D01*
X368370Y79863D01*
X368281Y79857D01*
X368192Y79855D01*
X366146Y79855D01*
X368601Y79855D02*
X370238Y76581D01*
D11*
X225474Y124511D02*
X212039Y111076D01*
X180926Y142189D02*
X194361Y155624D01*
D15*
X335050Y123250D03*
X335050Y130750D03*
D16*
X335050Y127000D03*
D10*
X355646Y123317D02*
X355646Y130683D01*
X357692Y130683D01*
X357781Y130681D01*
X357870Y130675D01*
X357959Y130665D01*
X358047Y130652D01*
X358135Y130635D01*
X358222Y130613D01*
X358307Y130588D01*
X358392Y130560D01*
X358475Y130527D01*
X358557Y130491D01*
X358637Y130452D01*
X358715Y130409D01*
X358791Y130363D01*
X358866Y130313D01*
X358938Y130260D01*
X359007Y130204D01*
X359074Y130145D01*
X359139Y130084D01*
X359200Y130019D01*
X359259Y129952D01*
X359315Y129883D01*
X359368Y129811D01*
X359418Y129736D01*
X359464Y129660D01*
X359507Y129582D01*
X359546Y129502D01*
X359582Y129420D01*
X359615Y129337D01*
X359643Y129252D01*
X359668Y129167D01*
X359690Y129080D01*
X359707Y128992D01*
X359720Y128904D01*
X359730Y128815D01*
X359736Y128726D01*
X359738Y128637D01*
X359736Y128548D01*
X359730Y128459D01*
X359720Y128370D01*
X359707Y128282D01*
X359690Y128194D01*
X359668Y128107D01*
X359643Y128022D01*
X359615Y127937D01*
X359582Y127854D01*
X359546Y127772D01*
X359507Y127692D01*
X359464Y127614D01*
X359418Y127538D01*
X359368Y127463D01*
X359315Y127391D01*
X359259Y127322D01*
X359200Y127255D01*
X359139Y127190D01*
X359074Y127129D01*
X359007Y127070D01*
X358938Y127014D01*
X358866Y126961D01*
X358791Y126911D01*
X358715Y126865D01*
X358637Y126822D01*
X358557Y126783D01*
X358475Y126747D01*
X358392Y126714D01*
X358307Y126686D01*
X358222Y126661D01*
X358135Y126639D01*
X358047Y126622D01*
X357959Y126609D01*
X357870Y126599D01*
X357781Y126593D01*
X357692Y126591D01*
X355646Y126591D01*
X358101Y126591D02*
X359738Y123317D01*
X362500Y123317D02*
X367411Y130683D01*
X362500Y130683D02*
X367411Y123317D01*
D13*
X256400Y65250D02*
X247700Y65250D01*
X247700Y125250D01*
X256400Y125250D01*
X277000Y65250D02*
X285700Y65250D01*
X285700Y125250D01*
X277000Y125250D01*
D14*
X264700Y49250D02*
X264702Y49313D01*
X264708Y49375D01*
X264718Y49437D01*
X264731Y49499D01*
X264749Y49559D01*
X264770Y49618D01*
X264795Y49676D01*
X264824Y49732D01*
X264856Y49786D01*
X264891Y49838D01*
X264929Y49887D01*
X264971Y49935D01*
X265015Y49979D01*
X265063Y50021D01*
X265112Y50059D01*
X265164Y50094D01*
X265218Y50126D01*
X265274Y50155D01*
X265332Y50180D01*
X265391Y50201D01*
X265451Y50219D01*
X265513Y50232D01*
X265575Y50242D01*
X265637Y50248D01*
X265700Y50250D01*
X265763Y50248D01*
X265825Y50242D01*
X265887Y50232D01*
X265949Y50219D01*
X266009Y50201D01*
X266068Y50180D01*
X266126Y50155D01*
X266182Y50126D01*
X266236Y50094D01*
X266288Y50059D01*
X266337Y50021D01*
X266385Y49979D01*
X266429Y49935D01*
X266471Y49887D01*
X266509Y49838D01*
X266544Y49786D01*
X266576Y49732D01*
X266605Y49676D01*
X266630Y49618D01*
X266651Y49559D01*
X266669Y49499D01*
X266682Y49437D01*
X266692Y49375D01*
X266698Y49313D01*
X266700Y49250D01*
X266698Y49187D01*
X266692Y49125D01*
X266682Y49063D01*
X266669Y49001D01*
X266651Y48941D01*
X266630Y48882D01*
X266605Y48824D01*
X266576Y48768D01*
X266544Y48714D01*
X266509Y48662D01*
X266471Y48613D01*
X266429Y48565D01*
X266385Y48521D01*
X266337Y48479D01*
X266288Y48441D01*
X266236Y48406D01*
X266182Y48374D01*
X266126Y48345D01*
X266068Y48320D01*
X266009Y48299D01*
X265949Y48281D01*
X265887Y48268D01*
X265825Y48258D01*
X265763Y48252D01*
X265700Y48250D01*
X265637Y48252D01*
X265575Y48258D01*
X265513Y48268D01*
X265451Y48281D01*
X265391Y48299D01*
X265332Y48320D01*
X265274Y48345D01*
X265218Y48374D01*
X265164Y48406D01*
X265112Y48441D01*
X265063Y48479D01*
X265015Y48521D01*
X264971Y48565D01*
X264929Y48613D01*
X264891Y48662D01*
X264856Y48714D01*
X264824Y48768D01*
X264795Y48824D01*
X264770Y48882D01*
X264749Y48941D01*
X264731Y49001D01*
X264718Y49063D01*
X264708Y49125D01*
X264702Y49187D01*
X264700Y49250D01*
D15*
X335050Y104200D03*
X335050Y111700D03*
D16*
X335050Y107950D03*
D10*
X137206Y69045D02*
X132286Y67019D01*
X135180Y64126D02*
X137206Y69045D01*
X142667Y70456D02*
X137459Y75664D01*
X136012Y74217D02*
X138906Y77111D01*
X142614Y77926D02*
X144929Y75611D01*
X142614Y77926D02*
X142553Y77991D01*
X142494Y78058D01*
X142438Y78127D01*
X142385Y78199D01*
X142335Y78274D01*
X142289Y78350D01*
X142246Y78428D01*
X142207Y78508D01*
X142171Y78590D01*
X142138Y78673D01*
X142110Y78758D01*
X142085Y78843D01*
X142063Y78930D01*
X142046Y79018D01*
X142033Y79106D01*
X142023Y79195D01*
X142017Y79284D01*
X142015Y79373D01*
X142017Y79462D01*
X142023Y79551D01*
X142033Y79640D01*
X142046Y79728D01*
X142063Y79816D01*
X142085Y79903D01*
X142110Y79988D01*
X142138Y80073D01*
X142171Y80156D01*
X142207Y80238D01*
X142246Y80318D01*
X142289Y80396D01*
X142335Y80472D01*
X142385Y80547D01*
X142438Y80619D01*
X142494Y80688D01*
X142553Y80755D01*
X142614Y80820D01*
X142679Y80881D01*
X142746Y80940D01*
X142815Y80996D01*
X142887Y81049D01*
X142962Y81099D01*
X143038Y81145D01*
X143116Y81188D01*
X143196Y81227D01*
X143278Y81263D01*
X143361Y81296D01*
X143446Y81324D01*
X143531Y81349D01*
X143618Y81371D01*
X143706Y81388D01*
X143794Y81401D01*
X143883Y81411D01*
X143972Y81417D01*
X144061Y81419D01*
X144150Y81417D01*
X144239Y81411D01*
X144328Y81401D01*
X144416Y81388D01*
X144504Y81370D01*
X144591Y81349D01*
X144676Y81324D01*
X144761Y81296D01*
X144844Y81263D01*
X144926Y81227D01*
X145006Y81188D01*
X145084Y81145D01*
X145160Y81099D01*
X145235Y81049D01*
X145307Y80996D01*
X145376Y80940D01*
X145443Y80881D01*
X145508Y80820D01*
X147823Y78505D01*
X147884Y78440D01*
X147943Y78373D01*
X147999Y78304D01*
X148052Y78232D01*
X148102Y78157D01*
X148148Y78081D01*
X148191Y78003D01*
X148230Y77923D01*
X148266Y77841D01*
X148299Y77758D01*
X148327Y77673D01*
X148352Y77588D01*
X148374Y77501D01*
X148391Y77413D01*
X148404Y77325D01*
X148414Y77236D01*
X148420Y77147D01*
X148422Y77058D01*
X148420Y76969D01*
X148414Y76880D01*
X148404Y76791D01*
X148391Y76703D01*
X148374Y76615D01*
X148352Y76528D01*
X148327Y76443D01*
X148299Y76358D01*
X148266Y76275D01*
X148230Y76193D01*
X148191Y76113D01*
X148148Y76035D01*
X148102Y75959D01*
X148052Y75884D01*
X147999Y75812D01*
X147943Y75743D01*
X147884Y75676D01*
X147823Y75611D01*
X147758Y75550D01*
X147691Y75491D01*
X147622Y75435D01*
X147550Y75382D01*
X147475Y75332D01*
X147399Y75286D01*
X147321Y75243D01*
X147241Y75204D01*
X147159Y75168D01*
X147076Y75135D01*
X146991Y75107D01*
X146906Y75082D01*
X146819Y75061D01*
X146731Y75043D01*
X146643Y75030D01*
X146554Y75020D01*
X146465Y75014D01*
X146376Y75012D01*
X146287Y75014D01*
X146198Y75020D01*
X146109Y75030D01*
X146021Y75043D01*
X145933Y75060D01*
X145846Y75082D01*
X145761Y75107D01*
X145676Y75135D01*
X145593Y75168D01*
X145511Y75204D01*
X145431Y75243D01*
X145353Y75286D01*
X145277Y75332D01*
X145202Y75382D01*
X145130Y75435D01*
X145061Y75491D01*
X144994Y75550D01*
X144929Y75611D01*
X147534Y77637D02*
X149849Y77637D01*
X151577Y79365D02*
X146368Y84574D01*
X148683Y86888D01*
X150998Y84574D02*
X148683Y82259D01*
X150923Y89129D02*
X156132Y83920D01*
X150923Y89129D02*
X152370Y90575D01*
X152370Y90576D02*
X152435Y90637D01*
X152502Y90696D01*
X152571Y90752D01*
X152643Y90805D01*
X152718Y90855D01*
X152794Y90901D01*
X152872Y90944D01*
X152952Y90983D01*
X153034Y91019D01*
X153117Y91052D01*
X153202Y91080D01*
X153287Y91105D01*
X153374Y91127D01*
X153462Y91144D01*
X153550Y91157D01*
X153639Y91167D01*
X153728Y91173D01*
X153817Y91175D01*
X153906Y91173D01*
X153995Y91167D01*
X154084Y91157D01*
X154172Y91144D01*
X154260Y91127D01*
X154347Y91105D01*
X154432Y91080D01*
X154517Y91052D01*
X154600Y91019D01*
X154682Y90983D01*
X154762Y90944D01*
X154840Y90901D01*
X154916Y90855D01*
X154991Y90805D01*
X155063Y90752D01*
X155132Y90696D01*
X155199Y90637D01*
X155264Y90576D01*
X155325Y90511D01*
X155384Y90444D01*
X155440Y90375D01*
X155493Y90303D01*
X155543Y90228D01*
X155589Y90152D01*
X155632Y90074D01*
X155671Y89994D01*
X155707Y89912D01*
X155740Y89829D01*
X155768Y89744D01*
X155793Y89659D01*
X155815Y89572D01*
X155832Y89484D01*
X155845Y89396D01*
X155855Y89307D01*
X155861Y89218D01*
X155863Y89129D01*
X155861Y89040D01*
X155855Y88951D01*
X155845Y88862D01*
X155832Y88774D01*
X155815Y88686D01*
X155793Y88599D01*
X155768Y88514D01*
X155740Y88429D01*
X155707Y88346D01*
X155671Y88264D01*
X155632Y88184D01*
X155589Y88106D01*
X155543Y88030D01*
X155493Y87955D01*
X155440Y87883D01*
X155384Y87814D01*
X155325Y87747D01*
X155264Y87682D01*
X153817Y86235D01*
X161049Y88837D02*
X162496Y90284D01*
X162557Y90349D01*
X162616Y90416D01*
X162672Y90485D01*
X162725Y90557D01*
X162775Y90632D01*
X162821Y90708D01*
X162864Y90786D01*
X162903Y90866D01*
X162939Y90948D01*
X162972Y91031D01*
X163000Y91116D01*
X163025Y91201D01*
X163047Y91288D01*
X163064Y91376D01*
X163077Y91464D01*
X163087Y91553D01*
X163093Y91642D01*
X163095Y91731D01*
X163093Y91820D01*
X163087Y91909D01*
X163077Y91998D01*
X163064Y92086D01*
X163047Y92174D01*
X163025Y92261D01*
X163000Y92346D01*
X162972Y92431D01*
X162939Y92514D01*
X162903Y92596D01*
X162864Y92676D01*
X162821Y92754D01*
X162775Y92830D01*
X162725Y92905D01*
X162672Y92977D01*
X162616Y93046D01*
X162557Y93113D01*
X162496Y93178D01*
X162431Y93239D01*
X162364Y93298D01*
X162295Y93354D01*
X162223Y93407D01*
X162148Y93457D01*
X162072Y93503D01*
X161994Y93546D01*
X161914Y93585D01*
X161832Y93621D01*
X161749Y93654D01*
X161664Y93682D01*
X161579Y93707D01*
X161492Y93728D01*
X161404Y93746D01*
X161316Y93759D01*
X161227Y93769D01*
X161138Y93775D01*
X161049Y93777D01*
X160960Y93775D01*
X160871Y93769D01*
X160782Y93759D01*
X160694Y93746D01*
X160606Y93729D01*
X160519Y93707D01*
X160434Y93682D01*
X160349Y93654D01*
X160266Y93621D01*
X160184Y93585D01*
X160104Y93546D01*
X160026Y93503D01*
X159950Y93457D01*
X159875Y93407D01*
X159803Y93354D01*
X159734Y93298D01*
X159667Y93239D01*
X159602Y93178D01*
X157576Y95782D02*
X155840Y94046D01*
X157576Y95782D02*
X157635Y95837D01*
X157695Y95889D01*
X157759Y95939D01*
X157825Y95985D01*
X157892Y96028D01*
X157962Y96068D01*
X158034Y96104D01*
X158108Y96136D01*
X158183Y96165D01*
X158259Y96191D01*
X158336Y96212D01*
X158415Y96230D01*
X158494Y96243D01*
X158574Y96253D01*
X158654Y96259D01*
X158734Y96261D01*
X158814Y96259D01*
X158894Y96253D01*
X158974Y96243D01*
X159053Y96230D01*
X159132Y96212D01*
X159209Y96191D01*
X159285Y96165D01*
X159360Y96136D01*
X159434Y96104D01*
X159506Y96068D01*
X159576Y96028D01*
X159643Y95985D01*
X159709Y95939D01*
X159772Y95889D01*
X159833Y95837D01*
X159892Y95782D01*
X159947Y95723D01*
X159999Y95663D01*
X160049Y95599D01*
X160095Y95533D01*
X160138Y95466D01*
X160178Y95396D01*
X160214Y95324D01*
X160246Y95250D01*
X160275Y95176D01*
X160301Y95099D01*
X160322Y95022D01*
X160340Y94943D01*
X160353Y94864D01*
X160363Y94784D01*
X160369Y94704D01*
X160371Y94624D01*
X160369Y94544D01*
X160363Y94464D01*
X160353Y94384D01*
X160340Y94305D01*
X160322Y94226D01*
X160301Y94149D01*
X160275Y94073D01*
X160246Y93998D01*
X160214Y93924D01*
X160178Y93852D01*
X160138Y93782D01*
X160095Y93715D01*
X160049Y93649D01*
X159999Y93586D01*
X159947Y93525D01*
X159892Y93466D01*
X159891Y93467D02*
X158734Y92309D01*
X162605Y100810D02*
X162667Y100868D01*
X162731Y100924D01*
X162798Y100977D01*
X162867Y101027D01*
X162938Y101073D01*
X163011Y101116D01*
X163086Y101156D01*
X163163Y101192D01*
X163242Y101225D01*
X163322Y101254D01*
X163403Y101279D01*
X163485Y101300D01*
X163569Y101318D01*
X163653Y101331D01*
X163737Y101341D01*
X163822Y101347D01*
X163907Y101349D01*
X163992Y101347D01*
X164077Y101341D01*
X164161Y101331D01*
X164245Y101318D01*
X164329Y101300D01*
X164411Y101279D01*
X164492Y101254D01*
X164572Y101225D01*
X164651Y101192D01*
X164728Y101156D01*
X164803Y101116D01*
X164876Y101073D01*
X164947Y101027D01*
X165016Y100977D01*
X165083Y100924D01*
X165147Y100868D01*
X165209Y100810D01*
X162604Y100810D02*
X162537Y100741D01*
X162474Y100669D01*
X162413Y100594D01*
X162356Y100518D01*
X162301Y100439D01*
X162250Y100357D01*
X162202Y100274D01*
X162158Y100189D01*
X162117Y100102D01*
X162080Y100014D01*
X162046Y99924D01*
X162016Y99833D01*
X161989Y99741D01*
X161967Y99647D01*
X161948Y99553D01*
X161933Y99459D01*
X161922Y99363D01*
X161915Y99268D01*
X161911Y99172D01*
X161912Y99076D01*
X161916Y98980D01*
X161925Y98884D01*
X161937Y98789D01*
X161953Y98694D01*
X161973Y98600D01*
X161996Y98507D01*
X162024Y98415D01*
X162055Y98325D01*
X162090Y98235D01*
X162128Y98147D01*
X162170Y98061D01*
X165787Y99363D02*
X165788Y99447D01*
X165784Y99531D01*
X165777Y99615D01*
X165767Y99699D01*
X165753Y99782D01*
X165735Y99864D01*
X165714Y99946D01*
X165690Y100027D01*
X165662Y100106D01*
X165630Y100185D01*
X165596Y100261D01*
X165558Y100337D01*
X165517Y100410D01*
X165473Y100482D01*
X165426Y100552D01*
X165376Y100620D01*
X165323Y100685D01*
X165267Y100749D01*
X165209Y100810D01*
X165787Y99363D02*
X166221Y94010D01*
X169115Y96903D01*
D13*
X178647Y95901D02*
X178649Y95976D01*
X178655Y96050D01*
X178665Y96124D01*
X178678Y96197D01*
X178696Y96270D01*
X178717Y96341D01*
X178742Y96412D01*
X178771Y96481D01*
X178804Y96548D01*
X178840Y96613D01*
X178879Y96677D01*
X178921Y96738D01*
X178967Y96797D01*
X179016Y96854D01*
X179068Y96907D01*
X179122Y96958D01*
X179179Y97007D01*
X179239Y97051D01*
X179301Y97093D01*
X179365Y97132D01*
X179431Y97167D01*
X179498Y97198D01*
X179568Y97226D01*
X179638Y97250D01*
X179710Y97271D01*
X179783Y97287D01*
X179856Y97300D01*
X179931Y97309D01*
X180005Y97314D01*
X180080Y97315D01*
X180154Y97312D01*
X180229Y97305D01*
X180302Y97294D01*
X180376Y97280D01*
X180448Y97261D01*
X180519Y97239D01*
X180589Y97213D01*
X180658Y97183D01*
X180724Y97150D01*
X180789Y97113D01*
X180852Y97073D01*
X180913Y97029D01*
X180971Y96983D01*
X181027Y96933D01*
X181080Y96881D01*
X181131Y96826D01*
X181178Y96768D01*
X181222Y96708D01*
X181263Y96645D01*
X181301Y96581D01*
X181335Y96515D01*
X181366Y96446D01*
X181393Y96377D01*
X181416Y96306D01*
X181435Y96234D01*
X181451Y96161D01*
X181463Y96087D01*
X181471Y96013D01*
X181475Y95938D01*
X181475Y95864D01*
X181471Y95789D01*
X181463Y95715D01*
X181451Y95641D01*
X181435Y95568D01*
X181416Y95496D01*
X181393Y95425D01*
X181366Y95356D01*
X181335Y95287D01*
X181301Y95221D01*
X181263Y95157D01*
X181222Y95094D01*
X181178Y95034D01*
X181131Y94976D01*
X181080Y94921D01*
X181027Y94869D01*
X180971Y94819D01*
X180913Y94773D01*
X180852Y94729D01*
X180789Y94689D01*
X180724Y94652D01*
X180658Y94619D01*
X180589Y94589D01*
X180519Y94563D01*
X180448Y94541D01*
X180376Y94522D01*
X180302Y94508D01*
X180229Y94497D01*
X180154Y94490D01*
X180080Y94487D01*
X180005Y94488D01*
X179931Y94493D01*
X179856Y94502D01*
X179783Y94515D01*
X179710Y94531D01*
X179638Y94552D01*
X179568Y94576D01*
X179498Y94604D01*
X179431Y94635D01*
X179365Y94670D01*
X179301Y94709D01*
X179239Y94751D01*
X179179Y94795D01*
X179122Y94844D01*
X179068Y94895D01*
X179016Y94948D01*
X178967Y95005D01*
X178921Y95064D01*
X178879Y95125D01*
X178840Y95189D01*
X178804Y95254D01*
X178771Y95321D01*
X178742Y95390D01*
X178717Y95461D01*
X178696Y95532D01*
X178678Y95605D01*
X178665Y95678D01*
X178655Y95752D01*
X178649Y95826D01*
X178647Y95901D01*
D15*
X338050Y67250D03*
X338050Y59750D03*
D16*
X338050Y63500D03*
D10*
X349155Y56769D02*
X349155Y51449D01*
X349156Y51449D02*
X349158Y51360D01*
X349164Y51271D01*
X349174Y51182D01*
X349187Y51094D01*
X349204Y51006D01*
X349226Y50919D01*
X349251Y50834D01*
X349279Y50749D01*
X349312Y50666D01*
X349348Y50584D01*
X349387Y50504D01*
X349430Y50426D01*
X349476Y50350D01*
X349526Y50275D01*
X349579Y50203D01*
X349635Y50134D01*
X349694Y50067D01*
X349755Y50002D01*
X349820Y49941D01*
X349887Y49882D01*
X349956Y49826D01*
X350028Y49773D01*
X350103Y49723D01*
X350179Y49677D01*
X350257Y49634D01*
X350337Y49595D01*
X350419Y49559D01*
X350502Y49526D01*
X350587Y49498D01*
X350672Y49473D01*
X350759Y49451D01*
X350847Y49434D01*
X350935Y49421D01*
X351024Y49411D01*
X351113Y49405D01*
X351202Y49403D01*
X351291Y49405D01*
X351380Y49411D01*
X351469Y49421D01*
X351557Y49434D01*
X351645Y49451D01*
X351732Y49473D01*
X351817Y49498D01*
X351902Y49526D01*
X351985Y49559D01*
X352067Y49595D01*
X352147Y49634D01*
X352225Y49677D01*
X352301Y49723D01*
X352376Y49773D01*
X352448Y49826D01*
X352517Y49882D01*
X352584Y49941D01*
X352649Y50002D01*
X352710Y50067D01*
X352769Y50134D01*
X352825Y50203D01*
X352878Y50275D01*
X352928Y50350D01*
X352974Y50426D01*
X353017Y50504D01*
X353056Y50584D01*
X353092Y50666D01*
X353125Y50749D01*
X353153Y50834D01*
X353178Y50919D01*
X353200Y51006D01*
X353217Y51094D01*
X353230Y51182D01*
X353240Y51271D01*
X353246Y51360D01*
X353248Y51449D01*
X353248Y56769D01*
X360563Y51040D02*
X360561Y50962D01*
X360556Y50884D01*
X360546Y50807D01*
X360533Y50730D01*
X360517Y50654D01*
X360497Y50579D01*
X360473Y50505D01*
X360446Y50432D01*
X360415Y50360D01*
X360381Y50290D01*
X360344Y50222D01*
X360303Y50155D01*
X360259Y50090D01*
X360213Y50028D01*
X360163Y49968D01*
X360111Y49910D01*
X360056Y49855D01*
X359998Y49803D01*
X359938Y49753D01*
X359876Y49707D01*
X359811Y49663D01*
X359745Y49622D01*
X359676Y49585D01*
X359606Y49551D01*
X359534Y49520D01*
X359461Y49493D01*
X359387Y49469D01*
X359312Y49449D01*
X359236Y49433D01*
X359159Y49420D01*
X359082Y49410D01*
X359004Y49405D01*
X358926Y49403D01*
X358812Y49405D01*
X358699Y49410D01*
X358585Y49420D01*
X358472Y49433D01*
X358360Y49450D01*
X358248Y49470D01*
X358137Y49494D01*
X358026Y49522D01*
X357917Y49553D01*
X357809Y49588D01*
X357702Y49627D01*
X357596Y49669D01*
X357492Y49714D01*
X357389Y49763D01*
X357288Y49816D01*
X357189Y49871D01*
X357091Y49930D01*
X356996Y49992D01*
X356903Y50057D01*
X356811Y50125D01*
X356723Y50196D01*
X356636Y50270D01*
X356552Y50347D01*
X356471Y50426D01*
X356675Y55132D02*
X356677Y55210D01*
X356682Y55288D01*
X356692Y55365D01*
X356705Y55442D01*
X356721Y55518D01*
X356741Y55593D01*
X356765Y55667D01*
X356792Y55740D01*
X356823Y55812D01*
X356857Y55882D01*
X356894Y55951D01*
X356935Y56017D01*
X356979Y56082D01*
X357025Y56144D01*
X357075Y56204D01*
X357127Y56262D01*
X357182Y56317D01*
X357240Y56369D01*
X357300Y56419D01*
X357362Y56465D01*
X357427Y56509D01*
X357494Y56550D01*
X357562Y56587D01*
X357632Y56621D01*
X357704Y56652D01*
X357777Y56679D01*
X357851Y56703D01*
X357926Y56723D01*
X358002Y56739D01*
X358079Y56752D01*
X358156Y56762D01*
X358234Y56767D01*
X358312Y56769D01*
X358422Y56767D01*
X358531Y56761D01*
X358641Y56751D01*
X358749Y56738D01*
X358858Y56720D01*
X358965Y56699D01*
X359072Y56673D01*
X359178Y56644D01*
X359283Y56612D01*
X359386Y56575D01*
X359488Y56535D01*
X359589Y56491D01*
X359688Y56443D01*
X359785Y56393D01*
X359880Y56338D01*
X359973Y56280D01*
X360064Y56219D01*
X360153Y56155D01*
X357494Y53699D02*
X357427Y53741D01*
X357362Y53785D01*
X357300Y53833D01*
X357240Y53883D01*
X357182Y53936D01*
X357127Y53992D01*
X357075Y54051D01*
X357025Y54111D01*
X356978Y54175D01*
X356935Y54240D01*
X356894Y54307D01*
X356857Y54376D01*
X356823Y54447D01*
X356792Y54519D01*
X356765Y54593D01*
X356741Y54667D01*
X356721Y54743D01*
X356705Y54820D01*
X356692Y54897D01*
X356682Y54975D01*
X356677Y55054D01*
X356675Y55132D01*
X359744Y52472D02*
X359810Y52430D01*
X359875Y52386D01*
X359937Y52339D01*
X359997Y52288D01*
X360055Y52235D01*
X360110Y52179D01*
X360163Y52121D01*
X360212Y52060D01*
X360259Y51997D01*
X360302Y51932D01*
X360343Y51865D01*
X360380Y51796D01*
X360414Y51725D01*
X360445Y51653D01*
X360472Y51579D01*
X360496Y51504D01*
X360516Y51429D01*
X360532Y51352D01*
X360545Y51275D01*
X360555Y51197D01*
X360560Y51118D01*
X360562Y51040D01*
X359744Y52472D02*
X357494Y53700D01*
X363802Y49403D02*
X367075Y49403D01*
X363802Y49403D02*
X363802Y56769D01*
X367075Y56769D01*
X366257Y53495D02*
X363802Y53495D01*
X370177Y56769D02*
X370177Y49403D01*
X370177Y56769D02*
X372223Y56769D01*
X372312Y56767D01*
X372401Y56761D01*
X372490Y56751D01*
X372578Y56738D01*
X372666Y56721D01*
X372753Y56699D01*
X372838Y56674D01*
X372923Y56646D01*
X373006Y56613D01*
X373088Y56577D01*
X373168Y56538D01*
X373246Y56495D01*
X373322Y56449D01*
X373397Y56399D01*
X373469Y56346D01*
X373538Y56290D01*
X373605Y56231D01*
X373670Y56170D01*
X373731Y56105D01*
X373790Y56038D01*
X373846Y55969D01*
X373899Y55897D01*
X373949Y55822D01*
X373995Y55746D01*
X374038Y55668D01*
X374077Y55588D01*
X374113Y55506D01*
X374146Y55423D01*
X374174Y55338D01*
X374199Y55253D01*
X374221Y55166D01*
X374238Y55078D01*
X374251Y54990D01*
X374261Y54901D01*
X374267Y54812D01*
X374269Y54723D01*
X374267Y54634D01*
X374261Y54545D01*
X374251Y54456D01*
X374238Y54368D01*
X374221Y54280D01*
X374199Y54193D01*
X374174Y54108D01*
X374146Y54023D01*
X374113Y53940D01*
X374077Y53858D01*
X374038Y53778D01*
X373995Y53700D01*
X373949Y53624D01*
X373899Y53549D01*
X373846Y53477D01*
X373790Y53408D01*
X373731Y53341D01*
X373670Y53276D01*
X373605Y53215D01*
X373538Y53156D01*
X373469Y53100D01*
X373397Y53047D01*
X373322Y52997D01*
X373246Y52951D01*
X373168Y52908D01*
X373088Y52869D01*
X373006Y52833D01*
X372923Y52800D01*
X372838Y52772D01*
X372753Y52747D01*
X372666Y52725D01*
X372578Y52708D01*
X372490Y52695D01*
X372401Y52685D01*
X372312Y52679D01*
X372223Y52677D01*
X370177Y52677D01*
X372632Y52677D02*
X374269Y49403D01*
D17*
X401340Y36950D02*
X17760Y36950D01*
X401340Y36950D02*
X401340Y13850D01*
X17760Y13850D01*
X17760Y36950D01*
D10*
X385151Y8764D02*
X387995Y11039D01*
X387995Y801D01*
X385151Y801D02*
X390839Y801D01*
D17*
X401340Y158122D02*
X17760Y158122D01*
X17760Y181222D01*
X401340Y181222D01*
X401340Y158122D01*
D10*
X33949Y186308D02*
X31105Y184033D01*
X31105Y194271D01*
X33949Y194271D02*
X28261Y194271D01*
M02*
