G04 EAGLE Gerber RS-274X export*
G75*
%MOMM*%
%FSLAX34Y34*%
%LPD*%
%INSilkscreen Bottom*%
%IPPOS*%
%AMOC8*
5,1,8,0,0,1.08239X$1,22.5*%
G01*
%ADD10C,0.152400*%


D10*
X190430Y125770D02*
X86430Y125770D01*
X86430Y67270D01*
X190430Y67270D01*
X190430Y125770D01*
X178562Y76200D02*
X178564Y76310D01*
X178570Y76420D01*
X178580Y76530D01*
X178594Y76639D01*
X178612Y76747D01*
X178633Y76855D01*
X178659Y76962D01*
X178688Y77068D01*
X178722Y77173D01*
X178759Y77277D01*
X178799Y77379D01*
X178844Y77480D01*
X178892Y77579D01*
X178943Y77676D01*
X178998Y77771D01*
X179057Y77865D01*
X179118Y77956D01*
X179184Y78045D01*
X179252Y78131D01*
X179323Y78215D01*
X179397Y78296D01*
X179474Y78375D01*
X179554Y78450D01*
X179637Y78523D01*
X179722Y78593D01*
X179810Y78659D01*
X179900Y78723D01*
X179992Y78783D01*
X180086Y78840D01*
X180182Y78893D01*
X180280Y78943D01*
X180380Y78989D01*
X180482Y79032D01*
X180585Y79070D01*
X180689Y79106D01*
X180795Y79137D01*
X180901Y79164D01*
X181009Y79188D01*
X181117Y79208D01*
X181226Y79224D01*
X181335Y79236D01*
X181445Y79244D01*
X181555Y79248D01*
X181665Y79248D01*
X181775Y79244D01*
X181885Y79236D01*
X181994Y79224D01*
X182103Y79208D01*
X182211Y79188D01*
X182319Y79164D01*
X182425Y79137D01*
X182531Y79106D01*
X182635Y79070D01*
X182738Y79032D01*
X182840Y78989D01*
X182940Y78943D01*
X183038Y78893D01*
X183134Y78840D01*
X183228Y78783D01*
X183320Y78723D01*
X183410Y78659D01*
X183498Y78593D01*
X183583Y78523D01*
X183666Y78450D01*
X183746Y78375D01*
X183823Y78296D01*
X183897Y78215D01*
X183968Y78131D01*
X184036Y78045D01*
X184102Y77956D01*
X184163Y77865D01*
X184222Y77771D01*
X184277Y77676D01*
X184328Y77579D01*
X184376Y77480D01*
X184421Y77379D01*
X184461Y77277D01*
X184498Y77173D01*
X184532Y77068D01*
X184561Y76962D01*
X184587Y76855D01*
X184608Y76747D01*
X184626Y76639D01*
X184640Y76530D01*
X184650Y76420D01*
X184656Y76310D01*
X184658Y76200D01*
X184656Y76090D01*
X184650Y75980D01*
X184640Y75870D01*
X184626Y75761D01*
X184608Y75653D01*
X184587Y75545D01*
X184561Y75438D01*
X184532Y75332D01*
X184498Y75227D01*
X184461Y75123D01*
X184421Y75021D01*
X184376Y74920D01*
X184328Y74821D01*
X184277Y74724D01*
X184222Y74629D01*
X184163Y74535D01*
X184102Y74444D01*
X184036Y74355D01*
X183968Y74269D01*
X183897Y74185D01*
X183823Y74104D01*
X183746Y74025D01*
X183666Y73950D01*
X183583Y73877D01*
X183498Y73807D01*
X183410Y73741D01*
X183320Y73677D01*
X183228Y73617D01*
X183134Y73560D01*
X183038Y73507D01*
X182940Y73457D01*
X182840Y73411D01*
X182738Y73368D01*
X182635Y73330D01*
X182531Y73294D01*
X182425Y73263D01*
X182319Y73236D01*
X182211Y73212D01*
X182103Y73192D01*
X181994Y73176D01*
X181885Y73164D01*
X181775Y73156D01*
X181665Y73152D01*
X181555Y73152D01*
X181445Y73156D01*
X181335Y73164D01*
X181226Y73176D01*
X181117Y73192D01*
X181009Y73212D01*
X180901Y73236D01*
X180795Y73263D01*
X180689Y73294D01*
X180585Y73330D01*
X180482Y73368D01*
X180380Y73411D01*
X180280Y73457D01*
X180182Y73507D01*
X180086Y73560D01*
X179992Y73617D01*
X179900Y73677D01*
X179810Y73741D01*
X179722Y73807D01*
X179637Y73877D01*
X179554Y73950D01*
X179474Y74025D01*
X179397Y74104D01*
X179323Y74185D01*
X179252Y74269D01*
X179184Y74355D01*
X179118Y74444D01*
X179057Y74535D01*
X178998Y74629D01*
X178943Y74724D01*
X178892Y74821D01*
X178844Y74920D01*
X178799Y75021D01*
X178759Y75123D01*
X178722Y75227D01*
X178688Y75332D01*
X178659Y75438D01*
X178633Y75545D01*
X178612Y75653D01*
X178594Y75761D01*
X178580Y75870D01*
X178570Y75980D01*
X178564Y76090D01*
X178562Y76200D01*
X337312Y110998D02*
X337312Y41402D01*
X297688Y41402D01*
X297688Y110998D01*
X337312Y110998D01*
X354076Y121158D02*
X354146Y121160D01*
X354216Y121166D01*
X354285Y121175D01*
X354354Y121189D01*
X354422Y121206D01*
X354488Y121227D01*
X354554Y121251D01*
X354618Y121279D01*
X354680Y121311D01*
X354741Y121346D01*
X354800Y121384D01*
X354856Y121426D01*
X354910Y121470D01*
X354962Y121518D01*
X355010Y121568D01*
X355056Y121621D01*
X355099Y121676D01*
X355139Y121733D01*
X355176Y121793D01*
X355209Y121855D01*
X355239Y121918D01*
X355265Y121983D01*
X355288Y122049D01*
X355307Y122116D01*
X355322Y122185D01*
X355334Y122254D01*
X355342Y122323D01*
X355346Y122393D01*
X355346Y122463D01*
X355342Y122533D01*
X355334Y122602D01*
X355322Y122671D01*
X355307Y122740D01*
X355288Y122807D01*
X355265Y122873D01*
X355239Y122938D01*
X355209Y123001D01*
X355176Y123063D01*
X355139Y123123D01*
X355099Y123180D01*
X355056Y123235D01*
X355010Y123288D01*
X354962Y123338D01*
X354910Y123386D01*
X354856Y123430D01*
X354800Y123472D01*
X354741Y123510D01*
X354680Y123545D01*
X354618Y123577D01*
X354554Y123605D01*
X354488Y123629D01*
X354422Y123650D01*
X354354Y123667D01*
X354285Y123681D01*
X354216Y123690D01*
X354146Y123696D01*
X354076Y123698D01*
X354006Y123696D01*
X353936Y123690D01*
X353867Y123681D01*
X353798Y123667D01*
X353730Y123650D01*
X353664Y123629D01*
X353598Y123605D01*
X353534Y123577D01*
X353472Y123545D01*
X353411Y123510D01*
X353352Y123472D01*
X353296Y123430D01*
X353242Y123386D01*
X353190Y123338D01*
X353142Y123288D01*
X353096Y123235D01*
X353053Y123180D01*
X353013Y123123D01*
X352976Y123063D01*
X352943Y123001D01*
X352913Y122938D01*
X352887Y122873D01*
X352864Y122807D01*
X352845Y122740D01*
X352830Y122671D01*
X352818Y122602D01*
X352810Y122533D01*
X352806Y122463D01*
X352806Y122393D01*
X352810Y122323D01*
X352818Y122254D01*
X352830Y122185D01*
X352845Y122116D01*
X352864Y122049D01*
X352887Y121983D01*
X352913Y121918D01*
X352943Y121855D01*
X352976Y121793D01*
X353013Y121733D01*
X353053Y121676D01*
X353096Y121621D01*
X353142Y121568D01*
X353190Y121518D01*
X353242Y121470D01*
X353296Y121426D01*
X353352Y121384D01*
X353411Y121346D01*
X353472Y121311D01*
X353534Y121279D01*
X353598Y121251D01*
X353664Y121227D01*
X353730Y121206D01*
X353798Y121189D01*
X353867Y121175D01*
X353936Y121166D01*
X354006Y121160D01*
X354076Y121158D01*
M02*
