G04 EAGLE Gerber RS-274X export*
G75*
%MOMM*%
%FSLAX34Y34*%
%LPD*%
%INSolderpaste Bottom*%
%IPPOS*%
%AMOC8*
5,1,8,0,0,1.08239X$1,22.5*%
G01*
%ADD10R,1.600000X1.800000*%
%ADD11R,1.800000X1.600000*%
%ADD12R,1.000000X1.100000*%
%ADD13R,1.100000X1.000000*%
%ADD14R,1.397000X0.348000*%
%ADD15R,1.400000X1.400000*%
%ADD16R,0.889000X1.765300*%
%ADD17R,3.149600X1.765300*%


D10*
X52100Y25400D03*
X24100Y25400D03*
D11*
X114300Y242600D03*
X114300Y214600D03*
D12*
X88900Y224400D03*
X88900Y207400D03*
X146050Y220100D03*
X146050Y237100D03*
D13*
X33900Y50800D03*
X16900Y50800D03*
D12*
X35560Y143900D03*
X35560Y160900D03*
D13*
X122800Y419100D03*
X105800Y419100D03*
X74050Y419100D03*
X91050Y419100D03*
X122800Y190500D03*
X105800Y190500D03*
D14*
X65040Y169250D03*
X65040Y162750D03*
X65040Y156250D03*
X65040Y149750D03*
X65040Y143250D03*
X65040Y136750D03*
X65040Y130250D03*
X65040Y117250D03*
X65040Y123750D03*
X65040Y110750D03*
X65040Y104250D03*
X65040Y97750D03*
X65040Y91250D03*
X65040Y84750D03*
X138160Y169250D03*
X138160Y162750D03*
X138160Y156250D03*
X138160Y149750D03*
X138160Y143250D03*
X138160Y136750D03*
X138160Y130250D03*
X138160Y123750D03*
X138160Y117250D03*
X138160Y110750D03*
X138160Y104250D03*
X138160Y97750D03*
X138160Y91250D03*
X138160Y84750D03*
D13*
X165100Y160900D03*
X165100Y143900D03*
X165100Y122800D03*
X165100Y105800D03*
D15*
X133400Y24892D03*
X171400Y24892D03*
D16*
X78486Y399479D03*
X101600Y399479D03*
X124714Y399479D03*
D17*
X101600Y337122D03*
M02*
