G04 EAGLE Gerber RS-274X export*
G75*
%MOMM*%
%FSLAX34Y34*%
%LPD*%
%INSoldermask Top*%
%IPPOS*%
%AMOC8*
5,1,8,0,0,1.08239X$1,22.5*%
G01*
%ADD10C,1.727200*%
%ADD11P,1.869504X8X22.500000*%
%ADD12R,0.603200X1.553200*%
%ADD13R,1.803200X1.603200*%
%ADD14R,1.653200X1.503200*%
%ADD15R,2.103200X2.103200*%
%ADD16R,1.003200X1.003200*%
%ADD17R,0.800000X0.500000*%
%ADD18R,0.400000X1.600000*%
%ADD19R,1.303200X1.203200*%
%ADD20R,1.203200X1.603200*%
%ADD21R,0.803200X2.108200*%
%ADD22R,2.108200X0.803200*%
%ADD23P,1.852186X8X292.500000*%
%ADD24P,1.852186X8X112.500000*%
%ADD25C,0.959600*%


D10*
X76200Y444500D03*
D11*
X101600Y444500D03*
X127000Y444500D03*
X76200Y469900D03*
X101600Y469900D03*
X127000Y469900D03*
D12*
X88600Y39450D03*
X95100Y39450D03*
X101600Y39450D03*
X108100Y39450D03*
X114600Y39450D03*
D13*
X69600Y37200D03*
X133600Y37200D03*
D14*
X135850Y12700D03*
X67350Y12700D03*
D15*
X89600Y12700D03*
X113600Y12700D03*
D16*
X114300Y426600D03*
X114300Y411600D03*
D17*
X50800Y294300D03*
X50800Y315300D03*
D18*
X50800Y304800D03*
D17*
X65800Y294300D03*
X65800Y315300D03*
D18*
X65800Y304800D03*
D17*
X35800Y294300D03*
X35800Y315300D03*
D18*
X35800Y304800D03*
D19*
X101600Y154550D03*
X101600Y137550D03*
X114300Y389500D03*
X114300Y372500D03*
X139700Y389500D03*
X139700Y372500D03*
X88900Y372500D03*
X88900Y389500D03*
X63500Y372500D03*
X63500Y389500D03*
D16*
X63500Y411600D03*
X63500Y426600D03*
D20*
X66600Y342900D03*
X136600Y342900D03*
D16*
X88900Y411600D03*
X88900Y426600D03*
D21*
G36*
X46131Y207049D02*
X40451Y212729D01*
X55357Y227635D01*
X61037Y221955D01*
X46131Y207049D01*
G37*
G36*
X51788Y201392D02*
X46108Y207072D01*
X61014Y221978D01*
X66694Y216298D01*
X51788Y201392D01*
G37*
G36*
X57445Y195735D02*
X51765Y201415D01*
X66671Y216321D01*
X72351Y210641D01*
X57445Y195735D01*
G37*
G36*
X63102Y190079D02*
X57422Y195759D01*
X72328Y210665D01*
X78008Y204985D01*
X63102Y190079D01*
G37*
G36*
X68759Y184422D02*
X63079Y190102D01*
X77985Y205008D01*
X83665Y199328D01*
X68759Y184422D01*
G37*
G36*
X74415Y178765D02*
X68735Y184445D01*
X83641Y199351D01*
X89321Y193671D01*
X74415Y178765D01*
G37*
G36*
X80072Y173108D02*
X74392Y178788D01*
X89298Y193694D01*
X94978Y188014D01*
X80072Y173108D01*
G37*
G36*
X85729Y167451D02*
X80049Y173131D01*
X94955Y188037D01*
X100635Y182357D01*
X85729Y167451D01*
G37*
G36*
X156120Y248495D02*
X161800Y242815D01*
X146894Y227909D01*
X141214Y233589D01*
X156120Y248495D01*
G37*
G36*
X141237Y233566D02*
X135557Y239246D01*
X150463Y254152D01*
X156143Y248472D01*
X141237Y233566D01*
G37*
G36*
X135580Y239222D02*
X129900Y244902D01*
X144806Y259808D01*
X150486Y254128D01*
X135580Y239222D01*
G37*
G36*
X129923Y244879D02*
X124243Y250559D01*
X139149Y265465D01*
X144829Y259785D01*
X129923Y244879D01*
G37*
G36*
X124266Y250536D02*
X118586Y256216D01*
X133492Y271122D01*
X139172Y265442D01*
X124266Y250536D01*
G37*
G36*
X118610Y256193D02*
X112930Y261873D01*
X127836Y276779D01*
X133516Y271099D01*
X118610Y256193D01*
G37*
G36*
X112953Y261850D02*
X107273Y267530D01*
X122179Y282436D01*
X127859Y276756D01*
X112953Y261850D01*
G37*
G36*
X107296Y267507D02*
X101616Y273187D01*
X116522Y288093D01*
X122202Y282413D01*
X107296Y267507D01*
G37*
D22*
G36*
X95662Y267153D02*
X80756Y282059D01*
X86436Y287739D01*
X101342Y272833D01*
X95662Y267153D01*
G37*
G36*
X90005Y261496D02*
X75099Y276402D01*
X80779Y282082D01*
X95685Y267176D01*
X90005Y261496D01*
G37*
G36*
X84349Y255840D02*
X69443Y270746D01*
X75123Y276426D01*
X90029Y261520D01*
X84349Y255840D01*
G37*
G36*
X78692Y250183D02*
X63786Y265089D01*
X69466Y270769D01*
X84372Y255863D01*
X78692Y250183D01*
G37*
G36*
X73035Y244526D02*
X58129Y259432D01*
X63809Y265112D01*
X78715Y250206D01*
X73035Y244526D01*
G37*
G36*
X67378Y238869D02*
X52472Y253775D01*
X58152Y259455D01*
X73058Y244549D01*
X67378Y238869D01*
G37*
G36*
X61721Y233212D02*
X46815Y248118D01*
X52495Y253798D01*
X67401Y238892D01*
X61721Y233212D01*
G37*
G36*
X56064Y227555D02*
X41158Y242461D01*
X46838Y248141D01*
X61744Y233235D01*
X56064Y227555D01*
G37*
G36*
X115815Y167098D02*
X100909Y182004D01*
X106589Y187684D01*
X121495Y172778D01*
X115815Y167098D01*
G37*
G36*
X121825Y173108D02*
X106919Y188014D01*
X112599Y193694D01*
X127505Y178788D01*
X121825Y173108D01*
G37*
G36*
X127482Y178765D02*
X112576Y193671D01*
X118256Y199351D01*
X133162Y184445D01*
X127482Y178765D01*
G37*
G36*
X133139Y184422D02*
X118233Y199328D01*
X123913Y205008D01*
X138819Y190102D01*
X133139Y184422D01*
G37*
G36*
X138796Y190079D02*
X123890Y204985D01*
X129570Y210665D01*
X144476Y195759D01*
X138796Y190079D01*
G37*
G36*
X144453Y195735D02*
X129547Y210641D01*
X135227Y216321D01*
X150133Y201415D01*
X144453Y195735D01*
G37*
G36*
X150109Y201392D02*
X135203Y216298D01*
X140883Y221978D01*
X155789Y207072D01*
X150109Y201392D01*
G37*
G36*
X156120Y207403D02*
X141214Y222309D01*
X146894Y227989D01*
X161800Y213083D01*
X156120Y207403D01*
G37*
D16*
X139700Y426600D03*
X139700Y411600D03*
D23*
X190500Y444500D03*
X190500Y419100D03*
X190500Y393700D03*
X190500Y368300D03*
X190500Y342900D03*
X190500Y317500D03*
X190500Y292100D03*
X190500Y266700D03*
X190500Y241300D03*
X190500Y215900D03*
X190500Y190500D03*
X190500Y165100D03*
X190500Y139700D03*
X190500Y114300D03*
X190500Y88900D03*
D24*
X12700Y88900D03*
X12700Y114300D03*
X12700Y139700D03*
X12700Y165100D03*
X12700Y190500D03*
X12700Y215900D03*
X12700Y241300D03*
X12700Y266700D03*
X12700Y292100D03*
X12700Y317500D03*
X12700Y342900D03*
X12700Y368300D03*
X12700Y393700D03*
X12700Y419100D03*
X12700Y444500D03*
D25*
X25400Y13942D03*
X50800Y342900D03*
X82550Y101600D03*
X107950Y127000D03*
X146050Y431800D03*
X134938Y233363D03*
X98425Y215900D03*
X160020Y55880D03*
X52550Y132080D03*
X52749Y170808D03*
X68580Y355600D03*
X81280Y157480D03*
X60960Y176996D03*
X63020Y228443D03*
X43264Y233764D03*
X53340Y358140D03*
X52388Y100013D03*
X101600Y165100D03*
X139700Y269335D03*
X165100Y412270D03*
X161925Y219075D03*
X120650Y228600D03*
X34925Y401638D03*
X160338Y133350D03*
X101600Y227013D03*
X104775Y263525D03*
X114300Y158750D03*
X153988Y158750D03*
X120650Y146050D03*
X125869Y171664D03*
X88900Y234950D03*
X76200Y426600D03*
X95250Y82550D03*
X102080Y69850D03*
X153988Y149225D03*
X134938Y177800D03*
X155575Y184150D03*
X111125Y228600D03*
X87313Y292100D03*
X95250Y260350D03*
X82550Y57150D03*
X128588Y373063D03*
X96838Y301625D03*
X149119Y174519D03*
M02*
