G04 EAGLE Gerber RS-274X export*
G75*
%MOMM*%
%FSLAX34Y34*%
%LPD*%
%INSoldermask Bottom*%
%IPPOS*%
%AMOC8*
5,1,8,0,0,1.08239X$1,22.5*%
G01*
%ADD10R,1.803200X2.003200*%
%ADD11R,2.003200X1.803200*%
%ADD12R,1.203200X1.303200*%
%ADD13R,1.303200X1.203200*%
%ADD14R,1.600200X0.551200*%
%ADD15C,1.727200*%
%ADD16P,1.869504X8X22.500000*%
%ADD17R,1.603200X1.603200*%
%ADD18R,1.092200X1.968500*%
%ADD19R,3.352800X1.968500*%
%ADD20P,1.852186X8X292.500000*%
%ADD21P,1.852186X8X112.500000*%
%ADD22C,0.959600*%


D10*
X52100Y25400D03*
X24100Y25400D03*
D11*
X114300Y242600D03*
X114300Y214600D03*
D12*
X88900Y224400D03*
X88900Y207400D03*
X146050Y220100D03*
X146050Y237100D03*
D13*
X33900Y50800D03*
X16900Y50800D03*
D12*
X35560Y143900D03*
X35560Y160900D03*
D13*
X122800Y419100D03*
X105800Y419100D03*
X74050Y419100D03*
X91050Y419100D03*
X122800Y190500D03*
X105800Y190500D03*
D14*
X65040Y169250D03*
X65040Y162750D03*
X65040Y156250D03*
X65040Y149750D03*
X65040Y143250D03*
X65040Y136750D03*
X65040Y130250D03*
X65040Y117250D03*
X65040Y123750D03*
X65040Y110750D03*
X65040Y104250D03*
X65040Y97750D03*
X65040Y91250D03*
X65040Y84750D03*
X138160Y169250D03*
X138160Y162750D03*
X138160Y156250D03*
X138160Y149750D03*
X138160Y143250D03*
X138160Y136750D03*
X138160Y130250D03*
X138160Y123750D03*
X138160Y117250D03*
X138160Y110750D03*
X138160Y104250D03*
X138160Y97750D03*
X138160Y91250D03*
X138160Y84750D03*
D15*
X76200Y444500D03*
D16*
X101600Y444500D03*
X127000Y444500D03*
X76200Y469900D03*
X101600Y469900D03*
X127000Y469900D03*
D13*
X165100Y160900D03*
X165100Y143900D03*
X165100Y122800D03*
X165100Y105800D03*
D17*
X133400Y24892D03*
X171400Y24892D03*
D18*
X78486Y399479D03*
X101600Y399479D03*
X124714Y399479D03*
D19*
X101600Y337122D03*
D20*
X190500Y444500D03*
X190500Y419100D03*
X190500Y393700D03*
X190500Y368300D03*
X190500Y342900D03*
X190500Y317500D03*
X190500Y292100D03*
X190500Y266700D03*
X190500Y241300D03*
X190500Y215900D03*
X190500Y190500D03*
X190500Y165100D03*
X190500Y139700D03*
X190500Y114300D03*
X190500Y88900D03*
D21*
X12700Y88900D03*
X12700Y114300D03*
X12700Y139700D03*
X12700Y165100D03*
X12700Y190500D03*
X12700Y215900D03*
X12700Y241300D03*
X12700Y266700D03*
X12700Y292100D03*
X12700Y317500D03*
X12700Y342900D03*
X12700Y368300D03*
X12700Y393700D03*
X12700Y419100D03*
X12700Y444500D03*
D22*
X25400Y13942D03*
X50800Y342900D03*
X82550Y101600D03*
X107950Y127000D03*
X146050Y431800D03*
X134938Y233363D03*
X98425Y215900D03*
X160020Y55880D03*
X52550Y132080D03*
X52749Y170808D03*
X68580Y355600D03*
X81280Y157480D03*
X60960Y176996D03*
X63020Y228443D03*
X43264Y233764D03*
X53340Y358140D03*
X52388Y100013D03*
X101600Y165100D03*
X139700Y269335D03*
X165100Y412270D03*
X161925Y219075D03*
X120650Y228600D03*
X34925Y401638D03*
X160338Y133350D03*
X101600Y227013D03*
X104775Y263525D03*
X114300Y158750D03*
X153988Y158750D03*
X120650Y146050D03*
X125869Y171664D03*
X88900Y234950D03*
X76200Y426600D03*
X95250Y82550D03*
X102080Y69850D03*
X153988Y149225D03*
X134938Y177800D03*
X155575Y184150D03*
X111125Y228600D03*
X87313Y292100D03*
X95250Y260350D03*
X82550Y57150D03*
X128588Y373063D03*
X96838Y301625D03*
X149119Y174519D03*
M02*
