M48
;GenerationSoftware,Autodesk,EAGLE,9.5.2*%
;CreationDate,2020-08-27T19:37:37Z*%
FMAT,2
ICI,OFF
METRIC,TZ,000.000
T3C0.254
T2C1.000
T1C1.016
%
G90
M71
T1
X41275Y6985
X41275Y9525
X41275Y12065
X38735Y6985
X38735Y9525
X38735Y12065
T2
X23495Y16967
X20955Y16967
X18415Y16967
X15875Y16967
X13335Y16967
X10795Y16967
X8255Y16967
X5715Y16967
X3175Y16967
X3175Y2540
X5715Y2540
X8255Y2540
X38735Y16967
X13335Y2540
X15875Y2540
X18415Y2540
X20955Y2540
X23495Y2540
X26035Y2540
X28575Y2540
X31115Y2540
X33655Y2540
X36195Y2540
X38735Y2540
X26035Y16967
X28575Y16967
X31115Y16967
X33655Y16967
X36195Y16967
X10795Y2540
T3
X30785Y4140
X27965Y15291
X28702Y10795
X28702Y11938
X20828Y5893
X26775Y13924
X24003Y9652
X23495Y7620
X39878Y13716
X10668Y9144
X23876Y10783
X26924Y14732
X30864Y7242
X30541Y14732
X26543Y10770
X6426Y12243
X7010Y11582
X6985Y10744
X3302Y4064
X6546Y8933
X10980Y14896
X14986Y7874
X11430Y8382
X9525Y15164
X14224Y14986
X17272Y9652
X16363Y9909
X4064Y10668
X11557Y10922
X13081Y10033
X14351Y8509
X19199Y9677
X24793Y14425
X27770Y12243
X40386Y17272
X28448Y5563
X9906Y4445
X31648Y4140
X32487Y4140
X37363Y11913
X37948Y4521
X37948Y3708
X37186Y4039
X35357Y4293
X34722Y3632
X40716Y1981
X41554Y1981
X41554Y2819
X40361Y4013
X41199Y4877
X40335Y4851
X39472Y4826
X39472Y4013
X36601Y14300
X37211Y14884
X30099Y11557
X31115Y11430
X33528Y13843
X25146Y4572
X24511Y5207
X23114Y4191
X33274Y5334
X27559Y1397
X29591Y1397
X26670Y7620
X35560Y6350
X36830Y6350
X36830Y7620
X13420Y7860
X15494Y11176
X1778Y16002
X3810Y6350
X7493Y9271
M30